{
  "metadata": {
    "generated_at": "Fri Jun  5 14:51:15 2026",
    "total_pulses": 3620
  },
  "pulses": [
    {
      "time": 0.0,
      "type": "on",
      "note": 33,
      "vel": 60,
      "channel": 1
    },
    {
      "time": 0.04807692307692308,
      "type": "on",
      "note": 57,
      "vel": 45,
      "channel": 2
    },
    {
      "time": 0.032692307692307694,
      "type": "on",
      "note": 60,
      "vel": 45,
      "channel": 2
    },
    {
      "time": 0.13846153846153847,
      "type": "on",
      "note": 64,
      "vel": 45,
      "channel": 2
    },
    {
      "time": 0.09230769230769231,
      "type": "on",
      "note": 71,
      "vel": 45,
      "channel": 2
    },
    {
      "time": 0.15,
      "type": "on",
      "note": 74,
      "vel": 45,
      "channel": 2
    },
    {
      "time": 3.6923076923076925,
      "type": "on",
      "note": 29,
      "vel": 60,
      "channel": 1
    },
    {
      "time": 3.7576923076923077,
      "type": "on",
      "note": 53,
      "vel": 45,
      "channel": 2
    },
    {
      "time": 3.794230769230769,
      "type": "on",
      "note": 57,
      "vel": 45,
      "channel": 2
    },
    {
      "time": 3.6923076923076925,
      "type": "on",
      "note": 60,
      "vel": 45,
      "channel": 2
    },
    {
      "time": 3.855769230769231,
      "type": "on",
      "note": 64,
      "vel": 45,
      "channel": 2
    },
    {
      "time": 3.8384615384615386,
      "type": "on",
      "note": 71,
      "vel": 45,
      "channel": 2
    },
    {
      "time": 7.384615384615385,
      "type": "on",
      "note": 36,
      "vel": 60,
      "channel": 1
    },
    {
      "time": 7.407692307692308,
      "type": "on",
      "note": 48,
      "vel": 45,
      "channel": 2
    },
    {
      "time": 7.476923076923077,
      "type": "on",
      "note": 55,
      "vel": 45,
      "channel": 2
    },
    {
      "time": 7.5673076923076925,
      "type": "on",
      "note": 60,
      "vel": 45,
      "channel": 2
    },
    {
      "time": 7.548076923076923,
      "type": "on",
      "note": 62,
      "vel": 45,
      "channel": 2
    },
    {
      "time": 7.523076923076923,
      "type": "on",
      "note": 64,
      "vel": 45,
      "channel": 2
    },
    {
      "time": 11.076923076923077,
      "type": "on",
      "note": 40,
      "vel": 60,
      "channel": 1
    },
    {
      "time": 11.186538461538461,
      "type": "on",
      "note": 52,
      "vel": 45,
      "channel": 2
    },
    {
      "time": 11.096153846153847,
      "type": "on",
      "note": 55,
      "vel": 45,
      "channel": 2
    },
    {
      "time": 11.257692307692308,
      "type": "on",
      "note": 59,
      "vel": 45,
      "channel": 2
    },
    {
      "time": 11.101923076923077,
      "type": "on",
      "note": 62,
      "vel": 45,
      "channel": 2
    },
    {
      "time": 11.253846153846155,
      "type": "on",
      "note": 69,
      "vel": 45,
      "channel": 2
    },
    {
      "time": 14.76923076923077,
      "type": "on",
      "note": 33,
      "vel": 60,
      "channel": 1
    },
    {
      "time": 14.921153846153846,
      "type": "on",
      "note": 57,
      "vel": 45,
      "channel": 2
    },
    {
      "time": 14.928846153846154,
      "type": "on",
      "note": 60,
      "vel": 45,
      "channel": 2
    },
    {
      "time": 14.88076923076923,
      "type": "on",
      "note": 64,
      "vel": 45,
      "channel": 2
    },
    {
      "time": 14.907692307692308,
      "type": "on",
      "note": 71,
      "vel": 45,
      "channel": 2
    },
    {
      "time": 14.859615384615385,
      "type": "on",
      "note": 74,
      "vel": 45,
      "channel": 2
    },
    {
      "time": 18.46153846153846,
      "type": "on",
      "note": 29,
      "vel": 60,
      "channel": 1
    },
    {
      "time": 18.58076923076923,
      "type": "on",
      "note": 53,
      "vel": 45,
      "channel": 2
    },
    {
      "time": 18.609615384615385,
      "type": "on",
      "note": 57,
      "vel": 45,
      "channel": 2
    },
    {
      "time": 18.567307692307693,
      "type": "on",
      "note": 60,
      "vel": 45,
      "channel": 2
    },
    {
      "time": 18.475,
      "type": "on",
      "note": 64,
      "vel": 45,
      "channel": 2
    },
    {
      "time": 18.478846153846153,
      "type": "on",
      "note": 71,
      "vel": 45,
      "channel": 2
    },
    {
      "time": 22.153846153846153,
      "type": "on",
      "note": 36,
      "vel": 60,
      "channel": 1
    },
    {
      "time": 22.290384615384614,
      "type": "on",
      "note": 48,
      "vel": 45,
      "channel": 2
    },
    {
      "time": 22.182692307692307,
      "type": "on",
      "note": 55,
      "vel": 45,
      "channel": 2
    },
    {
      "time": 22.153846153846153,
      "type": "on",
      "note": 60,
      "vel": 45,
      "channel": 2
    },
    {
      "time": 22.190384615384616,
      "type": "on",
      "note": 62,
      "vel": 45,
      "channel": 2
    },
    {
      "time": 22.267307692307693,
      "type": "on",
      "note": 64,
      "vel": 45,
      "channel": 2
    },
    {
      "time": 25.846153846153847,
      "type": "on",
      "note": 40,
      "vel": 60,
      "channel": 1
    },
    {
      "time": 25.95769230769231,
      "type": "on",
      "note": 52,
      "vel": 45,
      "channel": 2
    },
    {
      "time": 26.025,
      "type": "on",
      "note": 55,
      "vel": 45,
      "channel": 2
    },
    {
      "time": 25.88269230769231,
      "type": "on",
      "note": 59,
      "vel": 45,
      "channel": 2
    },
    {
      "time": 26.025,
      "type": "on",
      "note": 62,
      "vel": 45,
      "channel": 2
    },
    {
      "time": 26.009615384615383,
      "type": "on",
      "note": 69,
      "vel": 45,
      "channel": 2
    },
    {
      "time": 29.53846153846154,
      "type": "on",
      "note": 33,
      "vel": 60,
      "channel": 1
    },
    {
      "time": 29.607692307692307,
      "type": "on",
      "note": 57,
      "vel": 45,
      "channel": 2
    },
    {
      "time": 29.59423076923077,
      "type": "on",
      "note": 60,
      "vel": 45,
      "channel": 2
    },
    {
      "time": 29.592307692307692,
      "type": "on",
      "note": 64,
      "vel": 45,
      "channel": 2
    },
    {
      "time": 29.559615384615384,
      "type": "on",
      "note": 71,
      "vel": 45,
      "channel": 2
    },
    {
      "time": 29.53846153846154,
      "type": "on",
      "note": 74,
      "vel": 45,
      "channel": 2
    },
    {
      "time": 33.23076923076923,
      "type": "on",
      "note": 29,
      "vel": 60,
      "channel": 1
    },
    {
      "time": 33.253846153846155,
      "type": "on",
      "note": 53,
      "vel": 45,
      "channel": 2
    },
    {
      "time": 33.36153846153846,
      "type": "on",
      "note": 57,
      "vel": 45,
      "channel": 2
    },
    {
      "time": 33.29038461538462,
      "type": "on",
      "note": 60,
      "vel": 45,
      "channel": 2
    },
    {
      "time": 33.371153846153845,
      "type": "on",
      "note": 64,
      "vel": 45,
      "channel": 2
    },
    {
      "time": 33.23076923076923,
      "type": "on",
      "note": 71,
      "vel": 45,
      "channel": 2
    },
    {
      "time": 36.92307692307692,
      "type": "on",
      "note": 36,
      "vel": 60,
      "channel": 1
    },
    {
      "time": 36.94230769230769,
      "type": "on",
      "note": 48,
      "vel": 45,
      "channel": 2
    },
    {
      "time": 36.92884615384615,
      "type": "on",
      "note": 55,
      "vel": 45,
      "channel": 2
    },
    {
      "time": 36.94230769230769,
      "type": "on",
      "note": 60,
      "vel": 45,
      "channel": 2
    },
    {
      "time": 37.06730769230769,
      "type": "on",
      "note": 62,
      "vel": 45,
      "channel": 2
    },
    {
      "time": 37.03653846153846,
      "type": "on",
      "note": 64,
      "vel": 45,
      "channel": 2
    },
    {
      "time": 40.61538461538461,
      "type": "on",
      "note": 40,
      "vel": 60,
      "channel": 1
    },
    {
      "time": 40.63846153846154,
      "type": "on",
      "note": 52,
      "vel": 45,
      "channel": 2
    },
    {
      "time": 40.67115384615385,
      "type": "on",
      "note": 55,
      "vel": 45,
      "channel": 2
    },
    {
      "time": 40.74038461538461,
      "type": "on",
      "note": 59,
      "vel": 45,
      "channel": 2
    },
    {
      "time": 40.8,
      "type": "on",
      "note": 62,
      "vel": 45,
      "channel": 2
    },
    {
      "time": 40.76538461538462,
      "type": "on",
      "note": 69,
      "vel": 45,
      "channel": 2
    },
    {
      "time": 44.30769230769231,
      "type": "on",
      "note": 33,
      "vel": 60,
      "channel": 1
    },
    {
      "time": 44.332692307692305,
      "type": "on",
      "note": 57,
      "vel": 45,
      "channel": 2
    },
    {
      "time": 44.33653846153846,
      "type": "on",
      "note": 60,
      "vel": 45,
      "channel": 2
    },
    {
      "time": 44.363461538461536,
      "type": "on",
      "note": 64,
      "vel": 45,
      "channel": 2
    },
    {
      "time": 44.488461538461536,
      "type": "on",
      "note": 71,
      "vel": 45,
      "channel": 2
    },
    {
      "time": 44.49807692307692,
      "type": "on",
      "note": 74,
      "vel": 45,
      "channel": 2
    },
    {
      "time": 48.0,
      "type": "on",
      "note": 29,
      "vel": 60,
      "channel": 1
    },
    {
      "time": 48.121153846153845,
      "type": "on",
      "note": 53,
      "vel": 45,
      "channel": 2
    },
    {
      "time": 48.05576923076923,
      "type": "on",
      "note": 57,
      "vel": 45,
      "channel": 2
    },
    {
      "time": 48.059615384615384,
      "type": "on",
      "note": 60,
      "vel": 45,
      "channel": 2
    },
    {
      "time": 48.0,
      "type": "on",
      "note": 64,
      "vel": 45,
      "channel": 2
    },
    {
      "time": 48.15384615384615,
      "type": "on",
      "note": 71,
      "vel": 45,
      "channel": 2
    },
    {
      "time": 51.69230769230769,
      "type": "on",
      "note": 36,
      "vel": 60,
      "channel": 1
    },
    {
      "time": 51.815384615384616,
      "type": "on",
      "note": 48,
      "vel": 45,
      "channel": 2
    },
    {
      "time": 51.707692307692305,
      "type": "on",
      "note": 55,
      "vel": 45,
      "channel": 2
    },
    {
      "time": 51.71346153846154,
      "type": "on",
      "note": 60,
      "vel": 45,
      "channel": 2
    },
    {
      "time": 51.801923076923075,
      "type": "on",
      "note": 62,
      "vel": 45,
      "channel": 2
    },
    {
      "time": 51.74038461538461,
      "type": "on",
      "note": 64,
      "vel": 45,
      "channel": 2
    },
    {
      "time": 55.38461538461539,
      "type": "on",
      "note": 40,
      "vel": 60,
      "channel": 1
    },
    {
      "time": 55.45961538461538,
      "type": "on",
      "note": 52,
      "vel": 45,
      "channel": 2
    },
    {
      "time": 55.51730769230769,
      "type": "on",
      "note": 55,
      "vel": 45,
      "channel": 2
    },
    {
      "time": 55.46153846153846,
      "type": "on",
      "note": 59,
      "vel": 45,
      "channel": 2
    },
    {
      "time": 55.53846153846154,
      "type": "on",
      "note": 62,
      "vel": 45,
      "channel": 2
    },
    {
      "time": 55.50576923076923,
      "type": "on",
      "note": 69,
      "vel": 45,
      "channel": 2
    },
    {
      "time": 59.07692307692308,
      "type": "on",
      "note": 33,
      "vel": 60,
      "channel": 1
    },
    {
      "time": 59.176923076923075,
      "type": "on",
      "note": 57,
      "vel": 45,
      "channel": 2
    },
    {
      "time": 59.08461538461538,
      "type": "on",
      "note": 60,
      "vel": 45,
      "channel": 2
    },
    {
      "time": 59.15,
      "type": "on",
      "note": 64,
      "vel": 45,
      "channel": 2
    },
    {
      "time": 59.18846153846154,
      "type": "on",
      "note": 71,
      "vel": 45,
      "channel": 2
    },
    {
      "time": 59.125,
      "type": "on",
      "note": 74,
      "vel": 45,
      "channel": 2
    },
    {
      "time": 62.76923076923077,
      "type": "on",
      "note": 29,
      "vel": 60,
      "channel": 1
    },
    {
      "time": 62.91538461538462,
      "type": "on",
      "note": 53,
      "vel": 45,
      "channel": 2
    },
    {
      "time": 62.85961538461538,
      "type": "on",
      "note": 57,
      "vel": 45,
      "channel": 2
    },
    {
      "time": 62.926923076923075,
      "type": "on",
      "note": 60,
      "vel": 45,
      "channel": 2
    },
    {
      "time": 62.8,
      "type": "on",
      "note": 64,
      "vel": 45,
      "channel": 2
    },
    {
      "time": 62.83653846153846,
      "type": "on",
      "note": 71,
      "vel": 45,
      "channel": 2
    },
    {
      "time": 66.46153846153847,
      "type": "on",
      "note": 36,
      "vel": 60,
      "channel": 1
    },
    {
      "time": 66.65384615384616,
      "type": "on",
      "note": 48,
      "vel": 45,
      "channel": 2
    },
    {
      "time": 66.58653846153847,
      "type": "on",
      "note": 55,
      "vel": 45,
      "channel": 2
    },
    {
      "time": 66.63076923076923,
      "type": "on",
      "note": 60,
      "vel": 45,
      "channel": 2
    },
    {
      "time": 66.4673076923077,
      "type": "on",
      "note": 62,
      "vel": 45,
      "channel": 2
    },
    {
      "time": 66.59807692307692,
      "type": "on",
      "note": 64,
      "vel": 45,
      "channel": 2
    },
    {
      "time": 70.15384615384616,
      "type": "on",
      "note": 40,
      "vel": 60,
      "channel": 1
    },
    {
      "time": 70.23846153846154,
      "type": "on",
      "note": 52,
      "vel": 45,
      "channel": 2
    },
    {
      "time": 70.1826923076923,
      "type": "on",
      "note": 55,
      "vel": 45,
      "channel": 2
    },
    {
      "time": 70.20384615384616,
      "type": "on",
      "note": 59,
      "vel": 45,
      "channel": 2
    },
    {
      "time": 70.17884615384615,
      "type": "on",
      "note": 62,
      "vel": 45,
      "channel": 2
    },
    {
      "time": 70.15384615384616,
      "type": "on",
      "note": 69,
      "vel": 45,
      "channel": 2
    },
    {
      "time": 73.84615384615384,
      "type": "on",
      "note": 33,
      "vel": 60,
      "channel": 1
    },
    {
      "time": 73.95769230769231,
      "type": "on",
      "note": 57,
      "vel": 45,
      "channel": 2
    },
    {
      "time": 73.99230769230769,
      "type": "on",
      "note": 60,
      "vel": 45,
      "channel": 2
    },
    {
      "time": 73.9326923076923,
      "type": "on",
      "note": 64,
      "vel": 45,
      "channel": 2
    },
    {
      "time": 73.96538461538462,
      "type": "on",
      "note": 71,
      "vel": 45,
      "channel": 2
    },
    {
      "time": 73.86538461538461,
      "type": "on",
      "note": 74,
      "vel": 45,
      "channel": 2
    },
    {
      "time": 77.53846153846153,
      "type": "on",
      "note": 29,
      "vel": 60,
      "channel": 1
    },
    {
      "time": 77.53846153846153,
      "type": "on",
      "note": 53,
      "vel": 45,
      "channel": 2
    },
    {
      "time": 77.6,
      "type": "on",
      "note": 57,
      "vel": 45,
      "channel": 2
    },
    {
      "time": 77.56923076923077,
      "type": "on",
      "note": 60,
      "vel": 45,
      "channel": 2
    },
    {
      "time": 77.54423076923077,
      "type": "on",
      "note": 64,
      "vel": 45,
      "channel": 2
    },
    {
      "time": 77.64423076923077,
      "type": "on",
      "note": 71,
      "vel": 45,
      "channel": 2
    },
    {
      "time": 81.23076923076923,
      "type": "on",
      "note": 36,
      "vel": 60,
      "channel": 1
    },
    {
      "time": 81.36538461538461,
      "type": "on",
      "note": 48,
      "vel": 45,
      "channel": 2
    },
    {
      "time": 81.25769230769231,
      "type": "on",
      "note": 55,
      "vel": 45,
      "channel": 2
    },
    {
      "time": 81.29615384615384,
      "type": "on",
      "note": 60,
      "vel": 45,
      "channel": 2
    },
    {
      "time": 81.3423076923077,
      "type": "on",
      "note": 62,
      "vel": 45,
      "channel": 2
    },
    {
      "time": 81.30192307692307,
      "type": "on",
      "note": 64,
      "vel": 45,
      "channel": 2
    },
    {
      "time": 84.92307692307692,
      "type": "on",
      "note": 40,
      "vel": 60,
      "channel": 1
    },
    {
      "time": 85.00576923076923,
      "type": "on",
      "note": 52,
      "vel": 45,
      "channel": 2
    },
    {
      "time": 85.04615384615384,
      "type": "on",
      "note": 55,
      "vel": 45,
      "channel": 2
    },
    {
      "time": 85.10576923076923,
      "type": "on",
      "note": 59,
      "vel": 45,
      "channel": 2
    },
    {
      "time": 84.96153846153847,
      "type": "on",
      "note": 62,
      "vel": 45,
      "channel": 2
    },
    {
      "time": 84.93461538461538,
      "type": "on",
      "note": 69,
      "vel": 45,
      "channel": 2
    },
    {
      "time": 88.61538461538461,
      "type": "on",
      "note": 33,
      "vel": 60,
      "channel": 1
    },
    {
      "time": 88.78461538461538,
      "type": "on",
      "note": 57,
      "vel": 45,
      "channel": 2
    },
    {
      "time": 88.68846153846154,
      "type": "on",
      "note": 60,
      "vel": 45,
      "channel": 2
    },
    {
      "time": 88.6576923076923,
      "type": "on",
      "note": 64,
      "vel": 45,
      "channel": 2
    },
    {
      "time": 88.62692307692308,
      "type": "on",
      "note": 71,
      "vel": 45,
      "channel": 2
    },
    {
      "time": 88.725,
      "type": "on",
      "note": 74,
      "vel": 45,
      "channel": 2
    },
    {
      "time": 92.3076923076923,
      "type": "on",
      "note": 29,
      "vel": 60,
      "channel": 1
    },
    {
      "time": 92.4673076923077,
      "type": "on",
      "note": 53,
      "vel": 45,
      "channel": 2
    },
    {
      "time": 92.31923076923077,
      "type": "on",
      "note": 57,
      "vel": 45,
      "channel": 2
    },
    {
      "time": 92.42692307692307,
      "type": "on",
      "note": 60,
      "vel": 45,
      "channel": 2
    },
    {
      "time": 92.32115384615385,
      "type": "on",
      "note": 64,
      "vel": 45,
      "channel": 2
    },
    {
      "time": 92.31346153846154,
      "type": "on",
      "note": 71,
      "vel": 45,
      "channel": 2
    },
    {
      "time": 92.29230769230769,
      "type": "on",
      "note": 65,
      "vel": 73,
      "channel": 0
    },
    {
      "time": 92.54038461538461,
      "type": "on",
      "note": 76,
      "vel": 49,
      "channel": 0
    },
    {
      "time": 92.75576923076923,
      "type": "on",
      "note": 72,
      "vel": 57,
      "channel": 0
    },
    {
      "time": 92.98846153846154,
      "type": "on",
      "note": 69,
      "vel": 46,
      "channel": 0
    },
    {
      "time": 93.25,
      "type": "on",
      "note": 65,
      "vel": 74,
      "channel": 0
    },
    {
      "time": 93.47692307692307,
      "type": "on",
      "note": 76,
      "vel": 44,
      "channel": 0
    },
    {
      "time": 93.68076923076923,
      "type": "on",
      "note": 72,
      "vel": 55,
      "channel": 0
    },
    {
      "time": 93.91538461538461,
      "type": "on",
      "note": 69,
      "vel": 42,
      "channel": 0
    },
    {
      "time": 94.14038461538462,
      "type": "on",
      "note": 65,
      "vel": 75,
      "channel": 0
    },
    {
      "time": 94.38269230769231,
      "type": "on",
      "note": 76,
      "vel": 42,
      "channel": 0
    },
    {
      "time": 94.60384615384615,
      "type": "on",
      "note": 72,
      "vel": 65,
      "channel": 0
    },
    {
      "time": 94.83269230769231,
      "type": "on",
      "note": 69,
      "vel": 50,
      "channel": 0
    },
    {
      "time": 95.06538461538462,
      "type": "on",
      "note": 65,
      "vel": 75,
      "channel": 0
    },
    {
      "time": 95.30576923076923,
      "type": "on",
      "note": 76,
      "vel": 44,
      "channel": 0
    },
    {
      "time": 95.55384615384615,
      "type": "on",
      "note": 72,
      "vel": 55,
      "channel": 0
    },
    {
      "time": 95.77884615384616,
      "type": "on",
      "note": 69,
      "vel": 47,
      "channel": 0
    },
    {
      "time": 96.0,
      "type": "on",
      "note": 36,
      "vel": 60,
      "channel": 1
    },
    {
      "time": 96.11730769230769,
      "type": "on",
      "note": 48,
      "vel": 45,
      "channel": 2
    },
    {
      "time": 96.14807692307693,
      "type": "on",
      "note": 55,
      "vel": 45,
      "channel": 2
    },
    {
      "time": 96.15576923076924,
      "type": "on",
      "note": 60,
      "vel": 45,
      "channel": 2
    },
    {
      "time": 96.1423076923077,
      "type": "on",
      "note": 62,
      "vel": 45,
      "channel": 2
    },
    {
      "time": 96.10576923076923,
      "type": "on",
      "note": 64,
      "vel": 45,
      "channel": 2
    },
    {
      "time": 95.99807692307692,
      "type": "on",
      "note": 72,
      "vel": 76,
      "channel": 0
    },
    {
      "time": 96.21538461538462,
      "type": "on",
      "note": 79,
      "vel": 43,
      "channel": 0
    },
    {
      "time": 96.46923076923076,
      "type": "on",
      "note": 76,
      "vel": 60,
      "channel": 0
    },
    {
      "time": 96.6826923076923,
      "type": "on",
      "note": 74,
      "vel": 49,
      "channel": 0
    },
    {
      "time": 96.93076923076923,
      "type": "on",
      "note": 72,
      "vel": 83,
      "channel": 0
    },
    {
      "time": 97.15961538461538,
      "type": "on",
      "note": 79,
      "vel": 44,
      "channel": 0
    },
    {
      "time": 97.4,
      "type": "on",
      "note": 76,
      "vel": 56,
      "channel": 0
    },
    {
      "time": 97.63846153846154,
      "type": "on",
      "note": 74,
      "vel": 41,
      "channel": 0
    },
    {
      "time": 97.8576923076923,
      "type": "on",
      "note": 72,
      "vel": 84,
      "channel": 0
    },
    {
      "time": 98.07115384615385,
      "type": "on",
      "note": 79,
      "vel": 50,
      "channel": 0
    },
    {
      "time": 98.30384615384615,
      "type": "on",
      "note": 76,
      "vel": 63,
      "channel": 0
    },
    {
      "time": 98.52692307692308,
      "type": "on",
      "note": 74,
      "vel": 46,
      "channel": 0
    },
    {
      "time": 98.79038461538461,
      "type": "on",
      "note": 72,
      "vel": 81,
      "channel": 0
    },
    {
      "time": 98.99807692307692,
      "type": "on",
      "note": 79,
      "vel": 47,
      "channel": 0
    },
    {
      "time": 99.21538461538462,
      "type": "on",
      "note": 76,
      "vel": 62,
      "channel": 0
    },
    {
      "time": 99.44615384615385,
      "type": "on",
      "note": 74,
      "vel": 44,
      "channel": 0
    },
    {
      "time": 99.6923076923077,
      "type": "on",
      "note": 40,
      "vel": 60,
      "channel": 1
    },
    {
      "time": 99.6923076923077,
      "type": "on",
      "note": 52,
      "vel": 45,
      "channel": 2
    },
    {
      "time": 99.85,
      "type": "on",
      "note": 55,
      "vel": 45,
      "channel": 2
    },
    {
      "time": 99.80576923076923,
      "type": "on",
      "note": 59,
      "vel": 45,
      "channel": 2
    },
    {
      "time": 99.72884615384615,
      "type": "on",
      "note": 62,
      "vel": 45,
      "channel": 2
    },
    {
      "time": 99.69615384615385,
      "type": "on",
      "note": 69,
      "vel": 45,
      "channel": 2
    },
    {
      "time": 99.70384615384616,
      "type": "on",
      "note": 67,
      "vel": 85,
      "channel": 0
    },
    {
      "time": 99.94038461538462,
      "type": "on",
      "note": 81,
      "vel": 43,
      "channel": 0
    },
    {
      "time": 100.16346153846153,
      "type": "on",
      "note": 74,
      "vel": 65,
      "channel": 0
    },
    {
      "time": 100.37692307692308,
      "type": "on",
      "note": 71,
      "vel": 41,
      "channel": 0
    },
    {
      "time": 100.60192307692307,
      "type": "on",
      "note": 67,
      "vel": 78,
      "channel": 0
    },
    {
      "time": 100.85576923076923,
      "type": "on",
      "note": 81,
      "vel": 44,
      "channel": 0
    },
    {
      "time": 101.06346153846154,
      "type": "on",
      "note": 74,
      "vel": 62,
      "channel": 0
    },
    {
      "time": 101.325,
      "type": "on",
      "note": 71,
      "vel": 49,
      "channel": 0
    },
    {
      "time": 101.5326923076923,
      "type": "on",
      "note": 67,
      "vel": 70,
      "channel": 0
    },
    {
      "time": 101.79230769230769,
      "type": "on",
      "note": 81,
      "vel": 42,
      "channel": 0
    },
    {
      "time": 102.02115384615385,
      "type": "on",
      "note": 74,
      "vel": 61,
      "channel": 0
    },
    {
      "time": 102.24807692307692,
      "type": "on",
      "note": 71,
      "vel": 40,
      "channel": 0
    },
    {
      "time": 102.45192307692308,
      "type": "on",
      "note": 67,
      "vel": 79,
      "channel": 0
    },
    {
      "time": 102.71346153846154,
      "type": "on",
      "note": 81,
      "vel": 49,
      "channel": 0
    },
    {
      "time": 102.93653846153846,
      "type": "on",
      "note": 74,
      "vel": 59,
      "channel": 0
    },
    {
      "time": 103.16538461538461,
      "type": "on",
      "note": 71,
      "vel": 41,
      "channel": 0
    },
    {
      "time": 103.38461538461539,
      "type": "on",
      "note": 33,
      "vel": 60,
      "channel": 1
    },
    {
      "time": 103.56153846153846,
      "type": "on",
      "note": 57,
      "vel": 45,
      "channel": 2
    },
    {
      "time": 103.38461538461539,
      "type": "on",
      "note": 60,
      "vel": 45,
      "channel": 2
    },
    {
      "time": 103.40384615384616,
      "type": "on",
      "note": 64,
      "vel": 45,
      "channel": 2
    },
    {
      "time": 103.41346153846153,
      "type": "on",
      "note": 71,
      "vel": 45,
      "channel": 2
    },
    {
      "time": 103.49615384615385,
      "type": "on",
      "note": 74,
      "vel": 45,
      "channel": 2
    },
    {
      "time": 103.4076923076923,
      "type": "on",
      "note": 69,
      "vel": 71,
      "channel": 0
    },
    {
      "time": 103.62692307692308,
      "type": "on",
      "note": 83,
      "vel": 46,
      "channel": 0
    },
    {
      "time": 103.86538461538461,
      "type": "on",
      "note": 76,
      "vel": 55,
      "channel": 0
    },
    {
      "time": 104.0923076923077,
      "type": "on",
      "note": 72,
      "vel": 50,
      "channel": 0
    },
    {
      "time": 104.32307692307693,
      "type": "on",
      "note": 69,
      "vel": 84,
      "channel": 0
    },
    {
      "time": 104.54230769230769,
      "type": "on",
      "note": 83,
      "vel": 45,
      "channel": 0
    },
    {
      "time": 104.7673076923077,
      "type": "on",
      "note": 76,
      "vel": 58,
      "channel": 0
    },
    {
      "time": 104.98653846153846,
      "type": "on",
      "note": 72,
      "vel": 43,
      "channel": 0
    },
    {
      "time": 105.24807692307692,
      "type": "on",
      "note": 69,
      "vel": 82,
      "channel": 0
    },
    {
      "time": 105.48461538461538,
      "type": "on",
      "note": 83,
      "vel": 40,
      "channel": 0
    },
    {
      "time": 105.69423076923077,
      "type": "on",
      "note": 76,
      "vel": 65,
      "channel": 0
    },
    {
      "time": 105.91346153846153,
      "type": "on",
      "note": 72,
      "vel": 43,
      "channel": 0
    },
    {
      "time": 106.15,
      "type": "on",
      "note": 69,
      "vel": 70,
      "channel": 0
    },
    {
      "time": 106.36923076923077,
      "type": "on",
      "note": 83,
      "vel": 46,
      "channel": 0
    },
    {
      "time": 106.625,
      "type": "on",
      "note": 76,
      "vel": 55,
      "channel": 0
    },
    {
      "time": 106.86346153846154,
      "type": "on",
      "note": 72,
      "vel": 44,
      "channel": 0
    },
    {
      "time": 107.07692307692308,
      "type": "on",
      "note": 29,
      "vel": 60,
      "channel": 1
    },
    {
      "time": 107.21923076923076,
      "type": "on",
      "note": 53,
      "vel": 45,
      "channel": 2
    },
    {
      "time": 107.2326923076923,
      "type": "on",
      "note": 57,
      "vel": 45,
      "channel": 2
    },
    {
      "time": 107.22307692307692,
      "type": "on",
      "note": 60,
      "vel": 45,
      "channel": 2
    },
    {
      "time": 107.20384615384616,
      "type": "on",
      "note": 64,
      "vel": 45,
      "channel": 2
    },
    {
      "time": 107.10384615384615,
      "type": "on",
      "note": 71,
      "vel": 45,
      "channel": 2
    },
    {
      "time": 107.08653846153847,
      "type": "on",
      "note": 65,
      "vel": 80,
      "channel": 0
    },
    {
      "time": 107.29615384615384,
      "type": "on",
      "note": 76,
      "vel": 40,
      "channel": 0
    },
    {
      "time": 107.55576923076923,
      "type": "on",
      "note": 72,
      "vel": 60,
      "channel": 0
    },
    {
      "time": 107.75961538461539,
      "type": "on",
      "note": 69,
      "vel": 42,
      "channel": 0
    },
    {
      "time": 108.00192307692308,
      "type": "on",
      "note": 65,
      "vel": 80,
      "channel": 0
    },
    {
      "time": 108.25192307692308,
      "type": "on",
      "note": 76,
      "vel": 50,
      "channel": 0
    },
    {
      "time": 108.45192307692308,
      "type": "on",
      "note": 72,
      "vel": 61,
      "channel": 0
    },
    {
      "time": 108.67884615384615,
      "type": "on",
      "note": 69,
      "vel": 50,
      "channel": 0
    },
    {
      "time": 108.94038461538462,
      "type": "on",
      "note": 65,
      "vel": 70,
      "channel": 0
    },
    {
      "time": 109.17115384615384,
      "type": "on",
      "note": 76,
      "vel": 42,
      "channel": 0
    },
    {
      "time": 109.37692307692308,
      "type": "on",
      "note": 72,
      "vel": 64,
      "channel": 0
    },
    {
      "time": 109.63269230769231,
      "type": "on",
      "note": 69,
      "vel": 46,
      "channel": 0
    },
    {
      "time": 109.85576923076923,
      "type": "on",
      "note": 65,
      "vel": 71,
      "channel": 0
    },
    {
      "time": 110.0673076923077,
      "type": "on",
      "note": 76,
      "vel": 44,
      "channel": 0
    },
    {
      "time": 110.33076923076923,
      "type": "on",
      "note": 72,
      "vel": 57,
      "channel": 0
    },
    {
      "time": 110.55192307692307,
      "type": "on",
      "note": 69,
      "vel": 42,
      "channel": 0
    },
    {
      "time": 110.76923076923077,
      "type": "on",
      "note": 36,
      "vel": 60,
      "channel": 1
    },
    {
      "time": 110.8923076923077,
      "type": "on",
      "note": 48,
      "vel": 45,
      "channel": 2
    },
    {
      "time": 110.9076923076923,
      "type": "on",
      "note": 55,
      "vel": 45,
      "channel": 2
    },
    {
      "time": 110.95384615384616,
      "type": "on",
      "note": 60,
      "vel": 45,
      "channel": 2
    },
    {
      "time": 110.80384615384615,
      "type": "on",
      "note": 62,
      "vel": 45,
      "channel": 2
    },
    {
      "time": 110.86153846153846,
      "type": "on",
      "note": 64,
      "vel": 45,
      "channel": 2
    },
    {
      "time": 110.79230769230769,
      "type": "on",
      "note": 72,
      "vel": 85,
      "channel": 0
    },
    {
      "time": 111.00961538461539,
      "type": "on",
      "note": 79,
      "vel": 50,
      "channel": 0
    },
    {
      "time": 111.23461538461538,
      "type": "on",
      "note": 76,
      "vel": 55,
      "channel": 0
    },
    {
      "time": 111.46923076923076,
      "type": "on",
      "note": 74,
      "vel": 47,
      "channel": 0
    },
    {
      "time": 111.69038461538462,
      "type": "on",
      "note": 72,
      "vel": 73,
      "channel": 0
    },
    {
      "time": 111.94615384615385,
      "type": "on",
      "note": 79,
      "vel": 49,
      "channel": 0
    },
    {
      "time": 112.15384615384616,
      "type": "on",
      "note": 76,
      "vel": 63,
      "channel": 0
    },
    {
      "time": 112.40192307692308,
      "type": "on",
      "note": 74,
      "vel": 49,
      "channel": 0
    },
    {
      "time": 112.62307692307692,
      "type": "on",
      "note": 72,
      "vel": 81,
      "channel": 0
    },
    {
      "time": 112.86538461538461,
      "type": "on",
      "note": 79,
      "vel": 50,
      "channel": 0
    },
    {
      "time": 113.06153846153846,
      "type": "on",
      "note": 76,
      "vel": 64,
      "channel": 0
    },
    {
      "time": 113.32692307692308,
      "type": "on",
      "note": 74,
      "vel": 43,
      "channel": 0
    },
    {
      "time": 113.53653846153846,
      "type": "on",
      "note": 72,
      "vel": 74,
      "channel": 0
    },
    {
      "time": 113.75961538461539,
      "type": "on",
      "note": 79,
      "vel": 47,
      "channel": 0
    },
    {
      "time": 113.99230769230769,
      "type": "on",
      "note": 76,
      "vel": 61,
      "channel": 0
    },
    {
      "time": 114.22307692307692,
      "type": "on",
      "note": 74,
      "vel": 48,
      "channel": 0
    },
    {
      "time": 114.46153846153847,
      "type": "on",
      "note": 40,
      "vel": 60,
      "channel": 1
    },
    {
      "time": 114.52692307692308,
      "type": "on",
      "note": 52,
      "vel": 45,
      "channel": 2
    },
    {
      "time": 114.60384615384615,
      "type": "on",
      "note": 55,
      "vel": 45,
      "channel": 2
    },
    {
      "time": 114.58846153846154,
      "type": "on",
      "note": 59,
      "vel": 45,
      "channel": 2
    },
    {
      "time": 114.4673076923077,
      "type": "on",
      "note": 62,
      "vel": 45,
      "channel": 2
    },
    {
      "time": 114.57115384615385,
      "type": "on",
      "note": 69,
      "vel": 45,
      "channel": 2
    },
    {
      "time": 114.48461538461538,
      "type": "on",
      "note": 67,
      "vel": 70,
      "channel": 0
    },
    {
      "time": 114.67692307692307,
      "type": "on",
      "note": 81,
      "vel": 46,
      "channel": 0
    },
    {
      "time": 114.91346153846153,
      "type": "on",
      "note": 74,
      "vel": 58,
      "channel": 0
    },
    {
      "time": 115.16538461538461,
      "type": "on",
      "note": 71,
      "vel": 43,
      "channel": 0
    },
    {
      "time": 115.37692307692308,
      "type": "on",
      "note": 67,
      "vel": 75,
      "channel": 0
    },
    {
      "time": 115.60192307692307,
      "type": "on",
      "note": 81,
      "vel": 46,
      "channel": 0
    },
    {
      "time": 115.86538461538461,
      "type": "on",
      "note": 74,
      "vel": 59,
      "channel": 0
    },
    {
      "time": 116.08076923076923,
      "type": "on",
      "note": 71,
      "vel": 45,
      "channel": 0
    },
    {
      "time": 116.30384615384615,
      "type": "on",
      "note": 67,
      "vel": 85,
      "channel": 0
    },
    {
      "time": 116.52884615384616,
      "type": "on",
      "note": 81,
      "vel": 49,
      "channel": 0
    },
    {
      "time": 116.78076923076924,
      "type": "on",
      "note": 74,
      "vel": 59,
      "channel": 0
    },
    {
      "time": 116.99423076923077,
      "type": "on",
      "note": 71,
      "vel": 43,
      "channel": 0
    },
    {
      "time": 117.25192307692308,
      "type": "on",
      "note": 67,
      "vel": 71,
      "channel": 0
    },
    {
      "time": 117.4673076923077,
      "type": "on",
      "note": 81,
      "vel": 44,
      "channel": 0
    },
    {
      "time": 117.71346153846154,
      "type": "on",
      "note": 74,
      "vel": 64,
      "channel": 0
    },
    {
      "time": 117.91538461538461,
      "type": "on",
      "note": 71,
      "vel": 46,
      "channel": 0
    },
    {
      "time": 118.15384615384616,
      "type": "on",
      "note": 33,
      "vel": 60,
      "channel": 1
    },
    {
      "time": 118.19038461538462,
      "type": "on",
      "note": 57,
      "vel": 45,
      "channel": 2
    },
    {
      "time": 118.25384615384615,
      "type": "on",
      "note": 60,
      "vel": 45,
      "channel": 2
    },
    {
      "time": 118.23653846153846,
      "type": "on",
      "note": 64,
      "vel": 45,
      "channel": 2
    },
    {
      "time": 118.16923076923077,
      "type": "on",
      "note": 71,
      "vel": 45,
      "channel": 2
    },
    {
      "time": 118.33076923076923,
      "type": "on",
      "note": 74,
      "vel": 45,
      "channel": 2
    },
    {
      "time": 118.14423076923077,
      "type": "on",
      "note": 69,
      "vel": 84,
      "channel": 0
    },
    {
      "time": 118.4076923076923,
      "type": "on",
      "note": 83,
      "vel": 42,
      "channel": 0
    },
    {
      "time": 118.61923076923077,
      "type": "on",
      "note": 76,
      "vel": 65,
      "channel": 0
    },
    {
      "time": 118.83461538461539,
      "type": "on",
      "note": 72,
      "vel": 50,
      "channel": 0
    },
    {
      "time": 119.08653846153847,
      "type": "on",
      "note": 69,
      "vel": 75,
      "channel": 0
    },
    {
      "time": 119.30576923076923,
      "type": "on",
      "note": 83,
      "vel": 49,
      "channel": 0
    },
    {
      "time": 119.52307692307693,
      "type": "on",
      "note": 76,
      "vel": 55,
      "channel": 0
    },
    {
      "time": 119.75384615384615,
      "type": "on",
      "note": 72,
      "vel": 50,
      "channel": 0
    },
    {
      "time": 119.99230769230769,
      "type": "on",
      "note": 69,
      "vel": 73,
      "channel": 0
    },
    {
      "time": 120.24807692307692,
      "type": "on",
      "note": 83,
      "vel": 45,
      "channel": 0
    },
    {
      "time": 120.48461538461538,
      "type": "on",
      "note": 76,
      "vel": 60,
      "channel": 0
    },
    {
      "time": 120.68653846153846,
      "type": "on",
      "note": 72,
      "vel": 40,
      "channel": 0
    },
    {
      "time": 120.9076923076923,
      "type": "on",
      "note": 69,
      "vel": 80,
      "channel": 0
    },
    {
      "time": 121.14423076923077,
      "type": "on",
      "note": 83,
      "vel": 42,
      "channel": 0
    },
    {
      "time": 121.39038461538462,
      "type": "on",
      "note": 76,
      "vel": 62,
      "channel": 0
    },
    {
      "time": 121.6,
      "type": "on",
      "note": 72,
      "vel": 45,
      "channel": 0
    },
    {
      "time": 121.84615384615384,
      "type": "on",
      "note": 29,
      "vel": 60,
      "channel": 1
    },
    {
      "time": 121.87307692307692,
      "type": "on",
      "note": 53,
      "vel": 45,
      "channel": 2
    },
    {
      "time": 121.97692307692307,
      "type": "on",
      "note": 57,
      "vel": 45,
      "channel": 2
    },
    {
      "time": 122.01538461538462,
      "type": "on",
      "note": 60,
      "vel": 45,
      "channel": 2
    },
    {
      "time": 122.0173076923077,
      "type": "on",
      "note": 64,
      "vel": 45,
      "channel": 2
    },
    {
      "time": 122.00192307692308,
      "type": "on",
      "note": 71,
      "vel": 45,
      "channel": 2
    },
    {
      "time": 121.86153846153846,
      "type": "on",
      "note": 65,
      "vel": 80,
      "channel": 0
    },
    {
      "time": 122.09423076923076,
      "type": "on",
      "note": 76,
      "vel": 47,
      "channel": 0
    },
    {
      "time": 122.29230769230769,
      "type": "on",
      "note": 72,
      "vel": 59,
      "channel": 0
    },
    {
      "time": 122.54423076923077,
      "type": "on",
      "note": 69,
      "vel": 45,
      "channel": 0
    },
    {
      "time": 122.76153846153846,
      "type": "on",
      "note": 65,
      "vel": 83,
      "channel": 0
    },
    {
      "time": 123.01923076923077,
      "type": "on",
      "note": 76,
      "vel": 50,
      "channel": 0
    },
    {
      "time": 123.21538461538462,
      "type": "on",
      "note": 72,
      "vel": 64,
      "channel": 0
    },
    {
      "time": 123.47307692307692,
      "type": "on",
      "note": 69,
      "vel": 48,
      "channel": 0
    },
    {
      "time": 123.67692307692307,
      "type": "on",
      "note": 65,
      "vel": 78,
      "channel": 0
    },
    {
      "time": 123.94423076923077,
      "type": "on",
      "note": 76,
      "vel": 42,
      "channel": 0
    },
    {
      "time": 124.17692307692307,
      "type": "on",
      "note": 72,
      "vel": 63,
      "channel": 0
    },
    {
      "time": 124.39615384615385,
      "type": "on",
      "note": 69,
      "vel": 48,
      "channel": 0
    },
    {
      "time": 124.61730769230769,
      "type": "on",
      "note": 65,
      "vel": 85,
      "channel": 0
    },
    {
      "time": 124.84807692307692,
      "type": "on",
      "note": 76,
      "vel": 40,
      "channel": 0
    },
    {
      "time": 125.08076923076923,
      "type": "on",
      "note": 72,
      "vel": 55,
      "channel": 0
    },
    {
      "time": 125.32884615384616,
      "type": "on",
      "note": 69,
      "vel": 42,
      "channel": 0
    },
    {
      "time": 125.53846153846153,
      "type": "on",
      "note": 36,
      "vel": 60,
      "channel": 1
    },
    {
      "time": 125.63076923076923,
      "type": "on",
      "note": 48,
      "vel": 45,
      "channel": 2
    },
    {
      "time": 125.6076923076923,
      "type": "on",
      "note": 55,
      "vel": 45,
      "channel": 2
    },
    {
      "time": 125.57115384615385,
      "type": "on",
      "note": 60,
      "vel": 45,
      "channel": 2
    },
    {
      "time": 125.60192307692307,
      "type": "on",
      "note": 62,
      "vel": 45,
      "channel": 2
    },
    {
      "time": 125.66923076923077,
      "type": "on",
      "note": 64,
      "vel": 45,
      "channel": 2
    },
    {
      "time": 125.53461538461538,
      "type": "on",
      "note": 72,
      "vel": 72,
      "channel": 0
    },
    {
      "time": 125.76538461538462,
      "type": "on",
      "note": 79,
      "vel": 48,
      "channel": 0
    },
    {
      "time": 125.99038461538461,
      "type": "on",
      "note": 76,
      "vel": 63,
      "channel": 0
    },
    {
      "time": 126.24807692307692,
      "type": "on",
      "note": 74,
      "vel": 47,
      "channel": 0
    },
    {
      "time": 126.45384615384616,
      "type": "on",
      "note": 72,
      "vel": 70,
      "channel": 0
    },
    {
      "time": 126.6826923076923,
      "type": "on",
      "note": 79,
      "vel": 46,
      "channel": 0
    },
    {
      "time": 126.92307692307692,
      "type": "on",
      "note": 76,
      "vel": 63,
      "channel": 0
    },
    {
      "time": 127.17115384615384,
      "type": "on",
      "note": 74,
      "vel": 50,
      "channel": 0
    },
    {
      "time": 127.39038461538462,
      "type": "on",
      "note": 72,
      "vel": 72,
      "channel": 0
    },
    {
      "time": 127.63076923076923,
      "type": "on",
      "note": 79,
      "vel": 41,
      "channel": 0
    },
    {
      "time": 127.85192307692307,
      "type": "on",
      "note": 76,
      "vel": 62,
      "channel": 0
    },
    {
      "time": 128.06923076923076,
      "type": "on",
      "note": 74,
      "vel": 44,
      "channel": 0
    },
    {
      "time": 128.2923076923077,
      "type": "on",
      "note": 72,
      "vel": 74,
      "channel": 0
    },
    {
      "time": 128.52307692307693,
      "type": "on",
      "note": 79,
      "vel": 41,
      "channel": 0
    },
    {
      "time": 128.76923076923077,
      "type": "on",
      "note": 76,
      "vel": 55,
      "channel": 0
    },
    {
      "time": 128.98653846153846,
      "type": "on",
      "note": 74,
      "vel": 42,
      "channel": 0
    },
    {
      "time": 129.23076923076923,
      "type": "on",
      "note": 40,
      "vel": 60,
      "channel": 1
    },
    {
      "time": 129.275,
      "type": "on",
      "note": 52,
      "vel": 45,
      "channel": 2
    },
    {
      "time": 129.24807692307692,
      "type": "on",
      "note": 55,
      "vel": 45,
      "channel": 2
    },
    {
      "time": 129.33076923076922,
      "type": "on",
      "note": 59,
      "vel": 45,
      "channel": 2
    },
    {
      "time": 129.37307692307692,
      "type": "on",
      "note": 62,
      "vel": 45,
      "channel": 2
    },
    {
      "time": 129.40192307692308,
      "type": "on",
      "note": 69,
      "vel": 45,
      "channel": 2
    },
    {
      "time": 129.23846153846154,
      "type": "on",
      "note": 67,
      "vel": 76,
      "channel": 0
    },
    {
      "time": 129.44615384615383,
      "type": "on",
      "note": 81,
      "vel": 40,
      "channel": 0
    },
    {
      "time": 129.6980769230769,
      "type": "on",
      "note": 74,
      "vel": 57,
      "channel": 0
    },
    {
      "time": 129.93076923076924,
      "type": "on",
      "note": 71,
      "vel": 43,
      "channel": 0
    },
    {
      "time": 130.14807692307693,
      "type": "on",
      "note": 67,
      "vel": 79,
      "channel": 0
    },
    {
      "time": 130.375,
      "type": "on",
      "note": 81,
      "vel": 42,
      "channel": 0
    },
    {
      "time": 130.61923076923077,
      "type": "on",
      "note": 74,
      "vel": 64,
      "channel": 0
    },
    {
      "time": 130.85961538461538,
      "type": "on",
      "note": 71,
      "vel": 45,
      "channel": 0
    },
    {
      "time": 131.06153846153848,
      "type": "on",
      "note": 67,
      "vel": 70,
      "channel": 0
    },
    {
      "time": 131.31923076923076,
      "type": "on",
      "note": 81,
      "vel": 46,
      "channel": 0
    },
    {
      "time": 131.55576923076924,
      "type": "on",
      "note": 74,
      "vel": 64,
      "channel": 0
    },
    {
      "time": 131.77115384615385,
      "type": "on",
      "note": 71,
      "vel": 50,
      "channel": 0
    },
    {
      "time": 132.0173076923077,
      "type": "on",
      "note": 67,
      "vel": 74,
      "channel": 0
    },
    {
      "time": 132.21923076923076,
      "type": "on",
      "note": 81,
      "vel": 45,
      "channel": 0
    },
    {
      "time": 132.4826923076923,
      "type": "on",
      "note": 74,
      "vel": 59,
      "channel": 0
    },
    {
      "time": 132.6980769230769,
      "type": "on",
      "note": 71,
      "vel": 50,
      "channel": 0
    },
    {
      "time": 132.92307692307693,
      "type": "on",
      "note": 33,
      "vel": 60,
      "channel": 1
    },
    {
      "time": 132.95576923076922,
      "type": "on",
      "note": 57,
      "vel": 45,
      "channel": 2
    },
    {
      "time": 132.96923076923076,
      "type": "on",
      "note": 60,
      "vel": 45,
      "channel": 2
    },
    {
      "time": 133.00576923076923,
      "type": "on",
      "note": 64,
      "vel": 45,
      "channel": 2
    },
    {
      "time": 133.04423076923078,
      "type": "on",
      "note": 71,
      "vel": 45,
      "channel": 2
    },
    {
      "time": 133.08076923076922,
      "type": "on",
      "note": 74,
      "vel": 45,
      "channel": 2
    },
    {
      "time": 132.92115384615386,
      "type": "on",
      "note": 69,
      "vel": 75,
      "channel": 0
    },
    {
      "time": 133.16923076923078,
      "type": "on",
      "note": 83,
      "vel": 45,
      "channel": 0
    },
    {
      "time": 133.40192307692308,
      "type": "on",
      "note": 76,
      "vel": 65,
      "channel": 0
    },
    {
      "time": 133.62307692307692,
      "type": "on",
      "note": 72,
      "vel": 45,
      "channel": 0
    },
    {
      "time": 133.86346153846154,
      "type": "on",
      "note": 69,
      "vel": 85,
      "channel": 0
    },
    {
      "time": 134.07884615384614,
      "type": "on",
      "note": 83,
      "vel": 50,
      "channel": 0
    },
    {
      "time": 134.325,
      "type": "on",
      "note": 76,
      "vel": 62,
      "channel": 0
    },
    {
      "time": 134.5519230769231,
      "type": "on",
      "note": 72,
      "vel": 41,
      "channel": 0
    },
    {
      "time": 134.75576923076923,
      "type": "on",
      "note": 69,
      "vel": 83,
      "channel": 0
    },
    {
      "time": 135.00192307692308,
      "type": "on",
      "note": 83,
      "vel": 49,
      "channel": 0
    },
    {
      "time": 135.2153846153846,
      "type": "on",
      "note": 76,
      "vel": 58,
      "channel": 0
    },
    {
      "time": 135.4653846153846,
      "type": "on",
      "note": 72,
      "vel": 46,
      "channel": 0
    },
    {
      "time": 135.69615384615383,
      "type": "on",
      "note": 69,
      "vel": 74,
      "channel": 0
    },
    {
      "time": 135.93846153846152,
      "type": "on",
      "note": 83,
      "vel": 48,
      "channel": 0
    },
    {
      "time": 136.1673076923077,
      "type": "on",
      "note": 76,
      "vel": 63,
      "channel": 0
    },
    {
      "time": 136.39615384615385,
      "type": "on",
      "note": 72,
      "vel": 48,
      "channel": 0
    },
    {
      "time": 136.6153846153846,
      "type": "on",
      "note": 29,
      "vel": 60,
      "channel": 1
    },
    {
      "time": 136.70384615384614,
      "type": "on",
      "note": 53,
      "vel": 45,
      "channel": 2
    },
    {
      "time": 136.62884615384615,
      "type": "on",
      "note": 57,
      "vel": 45,
      "channel": 2
    },
    {
      "time": 136.79615384615386,
      "type": "on",
      "note": 60,
      "vel": 45,
      "channel": 2
    },
    {
      "time": 136.73653846153846,
      "type": "on",
      "note": 64,
      "vel": 45,
      "channel": 2
    },
    {
      "time": 136.79807692307693,
      "type": "on",
      "note": 71,
      "vel": 45,
      "channel": 2
    },
    {
      "time": 136.6173076923077,
      "type": "on",
      "note": 65,
      "vel": 70,
      "channel": 0
    },
    {
      "time": 136.85384615384615,
      "type": "on",
      "note": 76,
      "vel": 42,
      "channel": 0
    },
    {
      "time": 137.0730769230769,
      "type": "on",
      "note": 72,
      "vel": 56,
      "channel": 0
    },
    {
      "time": 137.31153846153848,
      "type": "on",
      "note": 69,
      "vel": 44,
      "channel": 0
    },
    {
      "time": 137.54807692307693,
      "type": "on",
      "note": 65,
      "vel": 84,
      "channel": 0
    },
    {
      "time": 137.77307692307693,
      "type": "on",
      "note": 76,
      "vel": 41,
      "channel": 0
    },
    {
      "time": 138.0173076923077,
      "type": "on",
      "note": 72,
      "vel": 55,
      "channel": 0
    },
    {
      "time": 138.22115384615384,
      "type": "on",
      "note": 69,
      "vel": 47,
      "channel": 0
    },
    {
      "time": 138.47692307692307,
      "type": "on",
      "note": 65,
      "vel": 79,
      "channel": 0
    },
    {
      "time": 138.6846153846154,
      "type": "on",
      "note": 76,
      "vel": 47,
      "channel": 0
    },
    {
      "time": 138.91923076923078,
      "type": "on",
      "note": 72,
      "vel": 60,
      "channel": 0
    },
    {
      "time": 139.13846153846154,
      "type": "on",
      "note": 69,
      "vel": 49,
      "channel": 0
    },
    {
      "time": 139.3923076923077,
      "type": "on",
      "note": 65,
      "vel": 82,
      "channel": 0
    },
    {
      "time": 139.6173076923077,
      "type": "on",
      "note": 76,
      "vel": 47,
      "channel": 0
    },
    {
      "time": 139.83846153846153,
      "type": "on",
      "note": 72,
      "vel": 63,
      "channel": 0
    },
    {
      "time": 140.0826923076923,
      "type": "on",
      "note": 69,
      "vel": 42,
      "channel": 0
    },
    {
      "time": 140.30769230769232,
      "type": "on",
      "note": 36,
      "vel": 60,
      "channel": 1
    },
    {
      "time": 140.38653846153846,
      "type": "on",
      "note": 48,
      "vel": 45,
      "channel": 2
    },
    {
      "time": 140.4480769230769,
      "type": "on",
      "note": 55,
      "vel": 45,
      "channel": 2
    },
    {
      "time": 140.40384615384616,
      "type": "on",
      "note": 60,
      "vel": 45,
      "channel": 2
    },
    {
      "time": 140.35961538461538,
      "type": "on",
      "note": 62,
      "vel": 45,
      "channel": 2
    },
    {
      "time": 140.44615384615383,
      "type": "on",
      "note": 64,
      "vel": 45,
      "channel": 2
    },
    {
      "time": 140.31346153846152,
      "type": "on",
      "note": 72,
      "vel": 85,
      "channel": 0
    },
    {
      "time": 140.54423076923078,
      "type": "on",
      "note": 79,
      "vel": 47,
      "channel": 0
    },
    {
      "time": 140.75576923076923,
      "type": "on",
      "note": 76,
      "vel": 60,
      "channel": 0
    },
    {
      "time": 141.01538461538462,
      "type": "on",
      "note": 74,
      "vel": 41,
      "channel": 0
    },
    {
      "time": 141.2403846153846,
      "type": "on",
      "note": 72,
      "vel": 76,
      "channel": 0
    },
    {
      "time": 141.45384615384614,
      "type": "on",
      "note": 79,
      "vel": 43,
      "channel": 0
    },
    {
      "time": 141.7,
      "type": "on",
      "note": 76,
      "vel": 61,
      "channel": 0
    },
    {
      "time": 141.9403846153846,
      "type": "on",
      "note": 74,
      "vel": 44,
      "channel": 0
    },
    {
      "time": 142.15,
      "type": "on",
      "note": 72,
      "vel": 76,
      "channel": 0
    },
    {
      "time": 142.37307692307692,
      "type": "on",
      "note": 79,
      "vel": 49,
      "channel": 0
    },
    {
      "time": 142.63846153846154,
      "type": "on",
      "note": 76,
      "vel": 62,
      "channel": 0
    },
    {
      "time": 142.85961538461538,
      "type": "on",
      "note": 74,
      "vel": 41,
      "channel": 0
    },
    {
      "time": 143.08461538461538,
      "type": "on",
      "note": 72,
      "vel": 72,
      "channel": 0
    },
    {
      "time": 143.3230769230769,
      "type": "on",
      "note": 79,
      "vel": 40,
      "channel": 0
    },
    {
      "time": 143.54038461538462,
      "type": "on",
      "note": 76,
      "vel": 57,
      "channel": 0
    },
    {
      "time": 143.78653846153847,
      "type": "on",
      "note": 74,
      "vel": 43,
      "channel": 0
    },
    {
      "time": 144.0,
      "type": "on",
      "note": 40,
      "vel": 60,
      "channel": 1
    },
    {
      "time": 144.02115384615385,
      "type": "on",
      "note": 52,
      "vel": 45,
      "channel": 2
    },
    {
      "time": 144.0423076923077,
      "type": "on",
      "note": 55,
      "vel": 45,
      "channel": 2
    },
    {
      "time": 144.10576923076923,
      "type": "on",
      "note": 59,
      "vel": 45,
      "channel": 2
    },
    {
      "time": 144.1173076923077,
      "type": "on",
      "note": 62,
      "vel": 45,
      "channel": 2
    },
    {
      "time": 144.05769230769232,
      "type": "on",
      "note": 69,
      "vel": 45,
      "channel": 2
    },
    {
      "time": 144.01923076923077,
      "type": "on",
      "note": 67,
      "vel": 72,
      "channel": 0
    },
    {
      "time": 144.25192307692308,
      "type": "on",
      "note": 81,
      "vel": 46,
      "channel": 0
    },
    {
      "time": 144.45,
      "type": "on",
      "note": 74,
      "vel": 59,
      "channel": 0
    },
    {
      "time": 144.70576923076922,
      "type": "on",
      "note": 71,
      "vel": 41,
      "channel": 0
    },
    {
      "time": 144.91153846153847,
      "type": "on",
      "note": 67,
      "vel": 80,
      "channel": 0
    },
    {
      "time": 145.17307692307693,
      "type": "on",
      "note": 81,
      "vel": 45,
      "channel": 0
    },
    {
      "time": 145.3826923076923,
      "type": "on",
      "note": 74,
      "vel": 65,
      "channel": 0
    },
    {
      "time": 145.60576923076923,
      "type": "on",
      "note": 71,
      "vel": 48,
      "channel": 0
    },
    {
      "time": 145.84615384615384,
      "type": "on",
      "note": 67,
      "vel": 85,
      "channel": 0
    },
    {
      "time": 146.06346153846152,
      "type": "on",
      "note": 81,
      "vel": 50,
      "channel": 0
    },
    {
      "time": 146.32884615384614,
      "type": "on",
      "note": 74,
      "vel": 61,
      "channel": 0
    },
    {
      "time": 146.55769230769232,
      "type": "on",
      "note": 71,
      "vel": 41,
      "channel": 0
    },
    {
      "time": 146.77307692307693,
      "type": "on",
      "note": 67,
      "vel": 83,
      "channel": 0
    },
    {
      "time": 147.01538461538462,
      "type": "on",
      "note": 81,
      "vel": 47,
      "channel": 0
    },
    {
      "time": 147.23653846153846,
      "type": "on",
      "note": 74,
      "vel": 59,
      "channel": 0
    },
    {
      "time": 147.46923076923076,
      "type": "on",
      "note": 71,
      "vel": 45,
      "channel": 0
    },
    {
      "time": 147.69230769230768,
      "type": "on",
      "note": 33,
      "vel": 60,
      "channel": 1
    },
    {
      "time": 147.8326923076923,
      "type": "on",
      "note": 57,
      "vel": 45,
      "channel": 2
    },
    {
      "time": 147.8403846153846,
      "type": "on",
      "note": 60,
      "vel": 45,
      "channel": 2
    },
    {
      "time": 147.81346153846152,
      "type": "on",
      "note": 64,
      "vel": 45,
      "channel": 2
    },
    {
      "time": 147.80576923076924,
      "type": "on",
      "note": 71,
      "vel": 45,
      "channel": 2
    },
    {
      "time": 147.74615384615385,
      "type": "on",
      "note": 74,
      "vel": 45,
      "channel": 2
    },
    {
      "time": 147.6903846153846,
      "type": "on",
      "note": 69,
      "vel": 72,
      "channel": 0
    },
    {
      "time": 147.91153846153847,
      "type": "on",
      "note": 83,
      "vel": 48,
      "channel": 0
    },
    {
      "time": 148.15,
      "type": "on",
      "note": 76,
      "vel": 62,
      "channel": 0
    },
    {
      "time": 148.4,
      "type": "on",
      "note": 72,
      "vel": 44,
      "channel": 0
    },
    {
      "time": 148.62115384615385,
      "type": "on",
      "note": 69,
      "vel": 76,
      "channel": 0
    },
    {
      "time": 148.83846153846153,
      "type": "on",
      "note": 83,
      "vel": 50,
      "channel": 0
    },
    {
      "time": 149.07884615384614,
      "type": "on",
      "note": 76,
      "vel": 63,
      "channel": 0
    },
    {
      "time": 149.30384615384617,
      "type": "on",
      "note": 72,
      "vel": 46,
      "channel": 0
    },
    {
      "time": 149.55576923076924,
      "type": "on",
      "note": 69,
      "vel": 79,
      "channel": 0
    },
    {
      "time": 149.77115384615385,
      "type": "on",
      "note": 83,
      "vel": 47,
      "channel": 0
    },
    {
      "time": 150.02115384615385,
      "type": "on",
      "note": 76,
      "vel": 65,
      "channel": 0
    },
    {
      "time": 150.24807692307692,
      "type": "on",
      "note": 72,
      "vel": 40,
      "channel": 0
    },
    {
      "time": 150.45384615384614,
      "type": "on",
      "note": 69,
      "vel": 83,
      "channel": 0
    },
    {
      "time": 150.67884615384617,
      "type": "on",
      "note": 83,
      "vel": 49,
      "channel": 0
    },
    {
      "time": 150.92307692307693,
      "type": "on",
      "note": 76,
      "vel": 62,
      "channel": 0
    },
    {
      "time": 151.1423076923077,
      "type": "on",
      "note": 72,
      "vel": 40,
      "channel": 0
    },
    {
      "time": 151.3846153846154,
      "type": "on",
      "note": 29,
      "vel": 60,
      "channel": 1
    },
    {
      "time": 151.53653846153847,
      "type": "on",
      "note": 53,
      "vel": 45,
      "channel": 2
    },
    {
      "time": 151.51538461538462,
      "type": "on",
      "note": 57,
      "vel": 45,
      "channel": 2
    },
    {
      "time": 151.39423076923077,
      "type": "on",
      "note": 60,
      "vel": 45,
      "channel": 2
    },
    {
      "time": 151.48846153846154,
      "type": "on",
      "note": 64,
      "vel": 45,
      "channel": 2
    },
    {
      "time": 151.50576923076923,
      "type": "on",
      "note": 71,
      "vel": 45,
      "channel": 2
    },
    {
      "time": 151.38846153846154,
      "type": "on",
      "note": 65,
      "vel": 73,
      "channel": 0
    },
    {
      "time": 151.625,
      "type": "on",
      "note": 76,
      "vel": 48,
      "channel": 0
    },
    {
      "time": 151.83461538461538,
      "type": "on",
      "note": 72,
      "vel": 60,
      "channel": 0
    },
    {
      "time": 152.09615384615384,
      "type": "on",
      "note": 69,
      "vel": 48,
      "channel": 0
    },
    {
      "time": 152.31730769230768,
      "type": "on",
      "note": 65,
      "vel": 85,
      "channel": 0
    },
    {
      "time": 152.5519230769231,
      "type": "on",
      "note": 76,
      "vel": 44,
      "channel": 0
    },
    {
      "time": 152.75384615384615,
      "type": "on",
      "note": 72,
      "vel": 65,
      "channel": 0
    },
    {
      "time": 152.99423076923077,
      "type": "on",
      "note": 69,
      "vel": 45,
      "channel": 0
    },
    {
      "time": 153.24807692307692,
      "type": "on",
      "note": 65,
      "vel": 73,
      "channel": 0
    },
    {
      "time": 153.46923076923076,
      "type": "on",
      "note": 76,
      "vel": 47,
      "channel": 0
    },
    {
      "time": 153.68269230769232,
      "type": "on",
      "note": 72,
      "vel": 64,
      "channel": 0
    },
    {
      "time": 153.93846153846152,
      "type": "on",
      "note": 69,
      "vel": 44,
      "channel": 0
    },
    {
      "time": 154.175,
      "type": "on",
      "note": 65,
      "vel": 84,
      "channel": 0
    },
    {
      "time": 154.40769230769232,
      "type": "on",
      "note": 76,
      "vel": 43,
      "channel": 0
    },
    {
      "time": 154.6,
      "type": "on",
      "note": 72,
      "vel": 55,
      "channel": 0
    },
    {
      "time": 154.8403846153846,
      "type": "on",
      "note": 69,
      "vel": 42,
      "channel": 0
    },
    {
      "time": 155.07692307692307,
      "type": "on",
      "note": 36,
      "vel": 60,
      "channel": 1
    },
    {
      "time": 155.0903846153846,
      "type": "on",
      "note": 48,
      "vel": 45,
      "channel": 2
    },
    {
      "time": 155.10961538461538,
      "type": "on",
      "note": 55,
      "vel": 45,
      "channel": 2
    },
    {
      "time": 155.08846153846153,
      "type": "on",
      "note": 60,
      "vel": 45,
      "channel": 2
    },
    {
      "time": 155.14807692307693,
      "type": "on",
      "note": 62,
      "vel": 45,
      "channel": 2
    },
    {
      "time": 155.26923076923077,
      "type": "on",
      "note": 64,
      "vel": 45,
      "channel": 2
    },
    {
      "time": 155.0826923076923,
      "type": "on",
      "note": 72,
      "vel": 84,
      "channel": 0
    },
    {
      "time": 155.31346153846152,
      "type": "on",
      "note": 79,
      "vel": 46,
      "channel": 0
    },
    {
      "time": 155.55576923076924,
      "type": "on",
      "note": 76,
      "vel": 57,
      "channel": 0
    },
    {
      "time": 155.77115384615385,
      "type": "on",
      "note": 74,
      "vel": 48,
      "channel": 0
    },
    {
      "time": 155.9923076923077,
      "type": "on",
      "note": 72,
      "vel": 84,
      "channel": 0
    },
    {
      "time": 156.22307692307692,
      "type": "on",
      "note": 79,
      "vel": 49,
      "channel": 0
    },
    {
      "time": 156.45384615384614,
      "type": "on",
      "note": 76,
      "vel": 65,
      "channel": 0
    },
    {
      "time": 156.71346153846153,
      "type": "on",
      "note": 74,
      "vel": 44,
      "channel": 0
    },
    {
      "time": 156.94423076923076,
      "type": "on",
      "note": 72,
      "vel": 73,
      "channel": 0
    },
    {
      "time": 157.14423076923077,
      "type": "on",
      "note": 79,
      "vel": 50,
      "channel": 0
    },
    {
      "time": 157.3846153846154,
      "type": "on",
      "note": 76,
      "vel": 56,
      "channel": 0
    },
    {
      "time": 157.6326923076923,
      "type": "on",
      "note": 74,
      "vel": 49,
      "channel": 0
    },
    {
      "time": 157.86153846153846,
      "type": "on",
      "note": 72,
      "vel": 75,
      "channel": 0
    },
    {
      "time": 158.08846153846153,
      "type": "on",
      "note": 79,
      "vel": 46,
      "channel": 0
    },
    {
      "time": 158.33076923076922,
      "type": "on",
      "note": 76,
      "vel": 65,
      "channel": 0
    },
    {
      "time": 158.525,
      "type": "on",
      "note": 74,
      "vel": 49,
      "channel": 0
    },
    {
      "time": 158.76923076923077,
      "type": "on",
      "note": 40,
      "vel": 60,
      "channel": 1
    },
    {
      "time": 158.91346153846155,
      "type": "on",
      "note": 52,
      "vel": 45,
      "channel": 2
    },
    {
      "time": 158.86153846153846,
      "type": "on",
      "note": 55,
      "vel": 45,
      "channel": 2
    },
    {
      "time": 158.95,
      "type": "on",
      "note": 59,
      "vel": 45,
      "channel": 2
    },
    {
      "time": 158.88076923076923,
      "type": "on",
      "note": 62,
      "vel": 45,
      "channel": 2
    },
    {
      "time": 158.84807692307692,
      "type": "on",
      "note": 69,
      "vel": 45,
      "channel": 2
    },
    {
      "time": 158.7923076923077,
      "type": "on",
      "note": 67,
      "vel": 83,
      "channel": 0
    },
    {
      "time": 159.00384615384615,
      "type": "on",
      "note": 81,
      "vel": 43,
      "channel": 0
    },
    {
      "time": 159.2423076923077,
      "type": "on",
      "note": 74,
      "vel": 57,
      "channel": 0
    },
    {
      "time": 159.475,
      "type": "on",
      "note": 71,
      "vel": 41,
      "channel": 0
    },
    {
      "time": 159.7076923076923,
      "type": "on",
      "note": 67,
      "vel": 70,
      "channel": 0
    },
    {
      "time": 159.90769230769232,
      "type": "on",
      "note": 81,
      "vel": 41,
      "channel": 0
    },
    {
      "time": 160.15192307692308,
      "type": "on",
      "note": 74,
      "vel": 63,
      "channel": 0
    },
    {
      "time": 160.37692307692308,
      "type": "on",
      "note": 71,
      "vel": 49,
      "channel": 0
    },
    {
      "time": 160.6076923076923,
      "type": "on",
      "note": 67,
      "vel": 73,
      "channel": 0
    },
    {
      "time": 160.8653846153846,
      "type": "on",
      "note": 81,
      "vel": 46,
      "channel": 0
    },
    {
      "time": 161.09230769230768,
      "type": "on",
      "note": 74,
      "vel": 65,
      "channel": 0
    },
    {
      "time": 161.31346153846152,
      "type": "on",
      "note": 71,
      "vel": 47,
      "channel": 0
    },
    {
      "time": 161.53076923076924,
      "type": "on",
      "note": 67,
      "vel": 70,
      "channel": 0
    },
    {
      "time": 161.7673076923077,
      "type": "on",
      "note": 81,
      "vel": 48,
      "channel": 0
    },
    {
      "time": 161.98653846153846,
      "type": "on",
      "note": 74,
      "vel": 59,
      "channel": 0
    },
    {
      "time": 162.24807692307692,
      "type": "on",
      "note": 71,
      "vel": 44,
      "channel": 0
    },
    {
      "time": 162.46153846153845,
      "type": "on",
      "note": 33,
      "vel": 60,
      "channel": 1
    },
    {
      "time": 162.47307692307692,
      "type": "on",
      "note": 57,
      "vel": 45,
      "channel": 2
    },
    {
      "time": 162.48076923076923,
      "type": "on",
      "note": 60,
      "vel": 45,
      "channel": 2
    },
    {
      "time": 162.6076923076923,
      "type": "on",
      "note": 64,
      "vel": 45,
      "channel": 2
    },
    {
      "time": 162.5653846153846,
      "type": "on",
      "note": 71,
      "vel": 45,
      "channel": 2
    },
    {
      "time": 162.55,
      "type": "on",
      "note": 74,
      "vel": 45,
      "channel": 2
    },
    {
      "time": 162.45192307692307,
      "type": "on",
      "note": 69,
      "vel": 80,
      "channel": 0
    },
    {
      "time": 162.7076923076923,
      "type": "on",
      "note": 83,
      "vel": 42,
      "channel": 0
    },
    {
      "time": 162.9269230769231,
      "type": "on",
      "note": 76,
      "vel": 58,
      "channel": 0
    },
    {
      "time": 163.1596153846154,
      "type": "on",
      "note": 72,
      "vel": 45,
      "channel": 0
    },
    {
      "time": 163.3923076923077,
      "type": "on",
      "note": 69,
      "vel": 71,
      "channel": 0
    },
    {
      "time": 163.60961538461538,
      "type": "on",
      "note": 83,
      "vel": 46,
      "channel": 0
    },
    {
      "time": 163.86923076923077,
      "type": "on",
      "note": 76,
      "vel": 59,
      "channel": 0
    },
    {
      "time": 164.07692307692307,
      "type": "on",
      "note": 72,
      "vel": 50,
      "channel": 0
    },
    {
      "time": 164.29615384615386,
      "type": "on",
      "note": 69,
      "vel": 83,
      "channel": 0
    },
    {
      "time": 164.525,
      "type": "on",
      "note": 83,
      "vel": 40,
      "channel": 0
    },
    {
      "time": 164.76923076923077,
      "type": "on",
      "note": 76,
      "vel": 56,
      "channel": 0
    },
    {
      "time": 165.0096153846154,
      "type": "on",
      "note": 72,
      "vel": 48,
      "channel": 0
    },
    {
      "time": 165.23461538461538,
      "type": "on",
      "note": 69,
      "vel": 74,
      "channel": 0
    },
    {
      "time": 165.47115384615384,
      "type": "on",
      "note": 83,
      "vel": 47,
      "channel": 0
    },
    {
      "time": 165.6980769230769,
      "type": "on",
      "note": 76,
      "vel": 59,
      "channel": 0
    },
    {
      "time": 165.93653846153848,
      "type": "on",
      "note": 72,
      "vel": 50,
      "channel": 0
    },
    {
      "time": 166.15384615384616,
      "type": "on",
      "note": 29,
      "vel": 60,
      "channel": 1
    },
    {
      "time": 166.21346153846153,
      "type": "on",
      "note": 53,
      "vel": 45,
      "channel": 2
    },
    {
      "time": 166.28269230769232,
      "type": "on",
      "note": 57,
      "vel": 45,
      "channel": 2
    },
    {
      "time": 166.1980769230769,
      "type": "on",
      "note": 60,
      "vel": 45,
      "channel": 2
    },
    {
      "time": 166.3326923076923,
      "type": "on",
      "note": 64,
      "vel": 45,
      "channel": 2
    },
    {
      "time": 166.22307692307692,
      "type": "on",
      "note": 71,
      "vel": 45,
      "channel": 2
    },
    {
      "time": 166.14423076923077,
      "type": "on",
      "note": 65,
      "vel": 84,
      "channel": 0
    },
    {
      "time": 166.40769230769232,
      "type": "on",
      "note": 76,
      "vel": 47,
      "channel": 0
    },
    {
      "time": 166.6,
      "type": "on",
      "note": 72,
      "vel": 56,
      "channel": 0
    },
    {
      "time": 166.83653846153845,
      "type": "on",
      "note": 69,
      "vel": 43,
      "channel": 0
    },
    {
      "time": 167.08461538461538,
      "type": "on",
      "note": 65,
      "vel": 70,
      "channel": 0
    },
    {
      "time": 167.33076923076922,
      "type": "on",
      "note": 76,
      "vel": 48,
      "channel": 0
    },
    {
      "time": 167.54615384615386,
      "type": "on",
      "note": 72,
      "vel": 62,
      "channel": 0
    },
    {
      "time": 167.78846153846155,
      "type": "on",
      "note": 69,
      "vel": 45,
      "channel": 0
    },
    {
      "time": 168.00576923076923,
      "type": "on",
      "note": 65,
      "vel": 85,
      "channel": 0
    },
    {
      "time": 168.25192307692308,
      "type": "on",
      "note": 76,
      "vel": 47,
      "channel": 0
    },
    {
      "time": 168.45961538461538,
      "type": "on",
      "note": 72,
      "vel": 57,
      "channel": 0
    },
    {
      "time": 168.7153846153846,
      "type": "on",
      "note": 69,
      "vel": 46,
      "channel": 0
    },
    {
      "time": 168.9346153846154,
      "type": "on",
      "note": 65,
      "vel": 75,
      "channel": 0
    },
    {
      "time": 169.15,
      "type": "on",
      "note": 76,
      "vel": 50,
      "channel": 0
    },
    {
      "time": 169.37692307692308,
      "type": "on",
      "note": 72,
      "vel": 65,
      "channel": 0
    },
    {
      "time": 169.61153846153846,
      "type": "on",
      "note": 69,
      "vel": 48,
      "channel": 0
    },
    {
      "time": 169.84615384615384,
      "type": "on",
      "note": 36,
      "vel": 60,
      "channel": 1
    },
    {
      "time": 170.00384615384615,
      "type": "on",
      "note": 48,
      "vel": 45,
      "channel": 2
    },
    {
      "time": 169.8923076923077,
      "type": "on",
      "note": 55,
      "vel": 45,
      "channel": 2
    },
    {
      "time": 169.87692307692308,
      "type": "on",
      "note": 60,
      "vel": 45,
      "channel": 2
    },
    {
      "time": 169.91346153846155,
      "type": "on",
      "note": 62,
      "vel": 45,
      "channel": 2
    },
    {
      "time": 170.01346153846154,
      "type": "on",
      "note": 64,
      "vel": 45,
      "channel": 2
    },
    {
      "time": 169.83076923076922,
      "type": "on",
      "note": 72,
      "vel": 83,
      "channel": 0
    },
    {
      "time": 170.0653846153846,
      "type": "on",
      "note": 79,
      "vel": 41,
      "channel": 0
    },
    {
      "time": 170.32692307692307,
      "type": "on",
      "note": 76,
      "vel": 58,
      "channel": 0
    },
    {
      "time": 170.55769230769232,
      "type": "on",
      "note": 74,
      "vel": 50,
      "channel": 0
    },
    {
      "time": 170.77884615384616,
      "type": "on",
      "note": 72,
      "vel": 72,
      "channel": 0
    },
    {
      "time": 171.0076923076923,
      "type": "on",
      "note": 79,
      "vel": 40,
      "channel": 0
    },
    {
      "time": 171.21923076923076,
      "type": "on",
      "note": 76,
      "vel": 59,
      "channel": 0
    },
    {
      "time": 171.4480769230769,
      "type": "on",
      "note": 74,
      "vel": 45,
      "channel": 0
    },
    {
      "time": 171.6769230769231,
      "type": "on",
      "note": 72,
      "vel": 80,
      "channel": 0
    },
    {
      "time": 171.9269230769231,
      "type": "on",
      "note": 79,
      "vel": 42,
      "channel": 0
    },
    {
      "time": 172.17307692307693,
      "type": "on",
      "note": 76,
      "vel": 57,
      "channel": 0
    },
    {
      "time": 172.38076923076923,
      "type": "on",
      "note": 74,
      "vel": 46,
      "channel": 0
    },
    {
      "time": 172.625,
      "type": "on",
      "note": 72,
      "vel": 81,
      "channel": 0
    },
    {
      "time": 172.83846153846153,
      "type": "on",
      "note": 79,
      "vel": 47,
      "channel": 0
    },
    {
      "time": 173.0730769230769,
      "type": "on",
      "note": 76,
      "vel": 65,
      "channel": 0
    },
    {
      "time": 173.30576923076924,
      "type": "on",
      "note": 74,
      "vel": 50,
      "channel": 0
    },
    {
      "time": 173.53846153846155,
      "type": "on",
      "note": 40,
      "vel": 60,
      "channel": 1
    },
    {
      "time": 173.73076923076923,
      "type": "on",
      "note": 52,
      "vel": 45,
      "channel": 2
    },
    {
      "time": 173.6153846153846,
      "type": "on",
      "note": 55,
      "vel": 45,
      "channel": 2
    },
    {
      "time": 173.5519230769231,
      "type": "on",
      "note": 59,
      "vel": 45,
      "channel": 2
    },
    {
      "time": 173.5730769230769,
      "type": "on",
      "note": 62,
      "vel": 45,
      "channel": 2
    },
    {
      "time": 173.6153846153846,
      "type": "on",
      "note": 69,
      "vel": 45,
      "channel": 2
    },
    {
      "time": 173.54615384615386,
      "type": "on",
      "note": 67,
      "vel": 83,
      "channel": 0
    },
    {
      "time": 173.775,
      "type": "on",
      "note": 81,
      "vel": 50,
      "channel": 0
    },
    {
      "time": 174.01346153846154,
      "type": "on",
      "note": 74,
      "vel": 61,
      "channel": 0
    },
    {
      "time": 174.25384615384615,
      "type": "on",
      "note": 71,
      "vel": 49,
      "channel": 0
    },
    {
      "time": 174.45192307692307,
      "type": "on",
      "note": 67,
      "vel": 71,
      "channel": 0
    },
    {
      "time": 174.70576923076922,
      "type": "on",
      "note": 81,
      "vel": 49,
      "channel": 0
    },
    {
      "time": 174.90769230769232,
      "type": "on",
      "note": 74,
      "vel": 58,
      "channel": 0
    },
    {
      "time": 175.17307692307693,
      "type": "on",
      "note": 71,
      "vel": 41,
      "channel": 0
    },
    {
      "time": 175.4,
      "type": "on",
      "note": 67,
      "vel": 84,
      "channel": 0
    },
    {
      "time": 175.63846153846154,
      "type": "on",
      "note": 81,
      "vel": 49,
      "channel": 0
    },
    {
      "time": 175.85384615384615,
      "type": "on",
      "note": 74,
      "vel": 61,
      "channel": 0
    },
    {
      "time": 176.1,
      "type": "on",
      "note": 71,
      "vel": 49,
      "channel": 0
    },
    {
      "time": 176.32692307692307,
      "type": "on",
      "note": 67,
      "vel": 78,
      "channel": 0
    },
    {
      "time": 176.5423076923077,
      "type": "on",
      "note": 81,
      "vel": 45,
      "channel": 0
    },
    {
      "time": 176.75384615384615,
      "type": "on",
      "note": 74,
      "vel": 57,
      "channel": 0
    },
    {
      "time": 176.98846153846154,
      "type": "on",
      "note": 71,
      "vel": 40,
      "channel": 0
    },
    {
      "time": 177.23076923076923,
      "type": "on",
      "note": 33,
      "vel": 60,
      "channel": 1
    },
    {
      "time": 177.42307692307693,
      "type": "on",
      "note": 57,
      "vel": 45,
      "channel": 2
    },
    {
      "time": 177.42307692307693,
      "type": "on",
      "note": 60,
      "vel": 45,
      "channel": 2
    },
    {
      "time": 177.26346153846154,
      "type": "on",
      "note": 64,
      "vel": 45,
      "channel": 2
    },
    {
      "time": 177.275,
      "type": "on",
      "note": 71,
      "vel": 45,
      "channel": 2
    },
    {
      "time": 177.40769230769232,
      "type": "on",
      "note": 74,
      "vel": 45,
      "channel": 2
    },
    {
      "time": 177.25192307692308,
      "type": "on",
      "note": 69,
      "vel": 79,
      "channel": 0
    },
    {
      "time": 177.46153846153845,
      "type": "on",
      "note": 83,
      "vel": 49,
      "channel": 0
    },
    {
      "time": 177.68076923076924,
      "type": "on",
      "note": 76,
      "vel": 62,
      "channel": 0
    },
    {
      "time": 177.93269230769232,
      "type": "on",
      "note": 72,
      "vel": 49,
      "channel": 0
    },
    {
      "time": 178.13846153846154,
      "type": "on",
      "note": 69,
      "vel": 83,
      "channel": 0
    },
    {
      "time": 178.37115384615385,
      "type": "on",
      "note": 83,
      "vel": 46,
      "channel": 0
    },
    {
      "time": 178.62884615384615,
      "type": "on",
      "note": 76,
      "vel": 63,
      "channel": 0
    },
    {
      "time": 178.84230769230768,
      "type": "on",
      "note": 72,
      "vel": 41,
      "channel": 0
    },
    {
      "time": 179.06923076923076,
      "type": "on",
      "note": 69,
      "vel": 73,
      "channel": 0
    },
    {
      "time": 179.29807692307693,
      "type": "on",
      "note": 83,
      "vel": 48,
      "channel": 0
    },
    {
      "time": 179.5596153846154,
      "type": "on",
      "note": 76,
      "vel": 60,
      "channel": 0
    },
    {
      "time": 179.78269230769232,
      "type": "on",
      "note": 72,
      "vel": 47,
      "channel": 0
    },
    {
      "time": 180.0173076923077,
      "type": "on",
      "note": 69,
      "vel": 76,
      "channel": 0
    },
    {
      "time": 180.2326923076923,
      "type": "on",
      "note": 83,
      "vel": 41,
      "channel": 0
    },
    {
      "time": 180.47115384615384,
      "type": "on",
      "note": 76,
      "vel": 59,
      "channel": 0
    },
    {
      "time": 180.68076923076924,
      "type": "on",
      "note": 72,
      "vel": 44,
      "channel": 0
    },
    {
      "time": 180.92307692307693,
      "type": "on",
      "note": 29,
      "vel": 60,
      "channel": 1
    },
    {
      "time": 180.98076923076923,
      "type": "on",
      "note": 53,
      "vel": 45,
      "channel": 2
    },
    {
      "time": 181.1076923076923,
      "type": "on",
      "note": 57,
      "vel": 45,
      "channel": 2
    },
    {
      "time": 180.93076923076924,
      "type": "on",
      "note": 60,
      "vel": 45,
      "channel": 2
    },
    {
      "time": 181.09423076923076,
      "type": "on",
      "note": 64,
      "vel": 45,
      "channel": 2
    },
    {
      "time": 181.04615384615386,
      "type": "on",
      "note": 71,
      "vel": 45,
      "channel": 2
    },
    {
      "time": 180.925,
      "type": "on",
      "note": 65,
      "vel": 78,
      "channel": 0
    },
    {
      "time": 181.17115384615386,
      "type": "on",
      "note": 76,
      "vel": 49,
      "channel": 0
    },
    {
      "time": 181.38846153846154,
      "type": "on",
      "note": 72,
      "vel": 58,
      "channel": 0
    },
    {
      "time": 181.6346153846154,
      "type": "on",
      "note": 69,
      "vel": 47,
      "channel": 0
    },
    {
      "time": 181.85961538461538,
      "type": "on",
      "note": 65,
      "vel": 75,
      "channel": 0
    },
    {
      "time": 182.08846153846153,
      "type": "on",
      "note": 76,
      "vel": 47,
      "channel": 0
    },
    {
      "time": 182.32692307692307,
      "type": "on",
      "note": 72,
      "vel": 65,
      "channel": 0
    },
    {
      "time": 182.5596153846154,
      "type": "on",
      "note": 69,
      "vel": 45,
      "channel": 0
    },
    {
      "time": 182.7846153846154,
      "type": "on",
      "note": 65,
      "vel": 76,
      "channel": 0
    },
    {
      "time": 183.00576923076923,
      "type": "on",
      "note": 76,
      "vel": 45,
      "channel": 0
    },
    {
      "time": 183.21730769230768,
      "type": "on",
      "note": 72,
      "vel": 58,
      "channel": 0
    },
    {
      "time": 183.45961538461538,
      "type": "on",
      "note": 69,
      "vel": 47,
      "channel": 0
    },
    {
      "time": 183.70961538461538,
      "type": "on",
      "note": 65,
      "vel": 78,
      "channel": 0
    },
    {
      "time": 183.9346153846154,
      "type": "on",
      "note": 76,
      "vel": 47,
      "channel": 0
    },
    {
      "time": 184.13846153846154,
      "type": "on",
      "note": 72,
      "vel": 57,
      "channel": 0
    },
    {
      "time": 184.4,
      "type": "on",
      "note": 69,
      "vel": 44,
      "channel": 0
    },
    {
      "time": 184.6153846153846,
      "type": "on",
      "note": 36,
      "vel": 60,
      "channel": 1
    },
    {
      "time": 184.80769230769232,
      "type": "on",
      "note": 48,
      "vel": 45,
      "channel": 2
    },
    {
      "time": 184.71923076923076,
      "type": "on",
      "note": 55,
      "vel": 45,
      "channel": 2
    },
    {
      "time": 184.66153846153847,
      "type": "on",
      "note": 60,
      "vel": 45,
      "channel": 2
    },
    {
      "time": 184.65,
      "type": "on",
      "note": 62,
      "vel": 45,
      "channel": 2
    },
    {
      "time": 184.64038461538462,
      "type": "on",
      "note": 64,
      "vel": 45,
      "channel": 2
    },
    {
      "time": 184.63846153846154,
      "type": "on",
      "note": 72,
      "vel": 79,
      "channel": 0
    },
    {
      "time": 184.84807692307692,
      "type": "on",
      "note": 79,
      "vel": 45,
      "channel": 0
    },
    {
      "time": 185.08846153846153,
      "type": "on",
      "note": 76,
      "vel": 65,
      "channel": 0
    },
    {
      "time": 185.3019230769231,
      "type": "on",
      "note": 74,
      "vel": 50,
      "channel": 0
    },
    {
      "time": 185.5346153846154,
      "type": "on",
      "note": 72,
      "vel": 79,
      "channel": 0
    },
    {
      "time": 185.76923076923077,
      "type": "on",
      "note": 79,
      "vel": 46,
      "channel": 0
    },
    {
      "time": 186.01538461538462,
      "type": "on",
      "note": 76,
      "vel": 64,
      "channel": 0
    },
    {
      "time": 186.22692307692307,
      "type": "on",
      "note": 74,
      "vel": 41,
      "channel": 0
    },
    {
      "time": 186.46346153846153,
      "type": "on",
      "note": 72,
      "vel": 82,
      "channel": 0
    },
    {
      "time": 186.70961538461538,
      "type": "on",
      "note": 79,
      "vel": 41,
      "channel": 0
    },
    {
      "time": 186.91923076923078,
      "type": "on",
      "note": 76,
      "vel": 57,
      "channel": 0
    },
    {
      "time": 187.1673076923077,
      "type": "on",
      "note": 74,
      "vel": 40,
      "channel": 0
    },
    {
      "time": 187.40192307692308,
      "type": "on",
      "note": 72,
      "vel": 70,
      "channel": 0
    },
    {
      "time": 187.61923076923077,
      "type": "on",
      "note": 79,
      "vel": 40,
      "channel": 0
    },
    {
      "time": 187.86923076923077,
      "type": "on",
      "note": 76,
      "vel": 60,
      "channel": 0
    },
    {
      "time": 188.0903846153846,
      "type": "on",
      "note": 74,
      "vel": 49,
      "channel": 0
    },
    {
      "time": 188.30769230769232,
      "type": "on",
      "note": 40,
      "vel": 60,
      "channel": 1
    },
    {
      "time": 188.3096153846154,
      "type": "on",
      "note": 52,
      "vel": 45,
      "channel": 2
    },
    {
      "time": 188.41346153846155,
      "type": "on",
      "note": 55,
      "vel": 45,
      "channel": 2
    },
    {
      "time": 188.47692307692307,
      "type": "on",
      "note": 59,
      "vel": 45,
      "channel": 2
    },
    {
      "time": 188.33461538461538,
      "type": "on",
      "note": 62,
      "vel": 45,
      "channel": 2
    },
    {
      "time": 188.46346153846153,
      "type": "on",
      "note": 69,
      "vel": 45,
      "channel": 2
    },
    {
      "time": 188.3230769230769,
      "type": "on",
      "note": 67,
      "vel": 73,
      "channel": 0
    },
    {
      "time": 188.55384615384617,
      "type": "on",
      "note": 81,
      "vel": 50,
      "channel": 0
    },
    {
      "time": 188.76538461538462,
      "type": "on",
      "note": 74,
      "vel": 62,
      "channel": 0
    },
    {
      "time": 189.00576923076923,
      "type": "on",
      "note": 71,
      "vel": 45,
      "channel": 0
    },
    {
      "time": 189.2326923076923,
      "type": "on",
      "note": 67,
      "vel": 85,
      "channel": 0
    },
    {
      "time": 189.48461538461538,
      "type": "on",
      "note": 81,
      "vel": 45,
      "channel": 0
    },
    {
      "time": 189.68269230769232,
      "type": "on",
      "note": 74,
      "vel": 58,
      "channel": 0
    },
    {
      "time": 189.93846153846152,
      "type": "on",
      "note": 71,
      "vel": 41,
      "channel": 0
    },
    {
      "time": 190.17307692307693,
      "type": "on",
      "note": 67,
      "vel": 72,
      "channel": 0
    },
    {
      "time": 190.36923076923077,
      "type": "on",
      "note": 81,
      "vel": 43,
      "channel": 0
    },
    {
      "time": 190.625,
      "type": "on",
      "note": 74,
      "vel": 64,
      "channel": 0
    },
    {
      "time": 190.84423076923076,
      "type": "on",
      "note": 71,
      "vel": 41,
      "channel": 0
    },
    {
      "time": 191.07692307692307,
      "type": "on",
      "note": 67,
      "vel": 72,
      "channel": 0
    },
    {
      "time": 191.3230769230769,
      "type": "on",
      "note": 81,
      "vel": 43,
      "channel": 0
    },
    {
      "time": 191.55576923076924,
      "type": "on",
      "note": 74,
      "vel": 55,
      "channel": 0
    },
    {
      "time": 191.7846153846154,
      "type": "on",
      "note": 71,
      "vel": 42,
      "channel": 0
    },
    {
      "time": 192.0,
      "type": "on",
      "note": 33,
      "vel": 60,
      "channel": 1
    },
    {
      "time": 192.1846153846154,
      "type": "on",
      "note": 57,
      "vel": 45,
      "channel": 2
    },
    {
      "time": 192.0,
      "type": "on",
      "note": 60,
      "vel": 45,
      "channel": 2
    },
    {
      "time": 192.15384615384616,
      "type": "on",
      "note": 64,
      "vel": 45,
      "channel": 2
    },
    {
      "time": 192.03653846153847,
      "type": "on",
      "note": 71,
      "vel": 45,
      "channel": 2
    },
    {
      "time": 192.14615384615385,
      "type": "on",
      "note": 74,
      "vel": 45,
      "channel": 2
    },
    {
      "time": 192.0173076923077,
      "type": "on",
      "note": 69,
      "vel": 75,
      "channel": 0
    },
    {
      "time": 192.23846153846154,
      "type": "on",
      "note": 83,
      "vel": 44,
      "channel": 0
    },
    {
      "time": 192.47307692307692,
      "type": "on",
      "note": 76,
      "vel": 60,
      "channel": 0
    },
    {
      "time": 192.6846153846154,
      "type": "on",
      "note": 72,
      "vel": 49,
      "channel": 0
    },
    {
      "time": 192.925,
      "type": "on",
      "note": 69,
      "vel": 78,
      "channel": 0
    },
    {
      "time": 193.1596153846154,
      "type": "on",
      "note": 83,
      "vel": 42,
      "channel": 0
    },
    {
      "time": 193.37115384615385,
      "type": "on",
      "note": 76,
      "vel": 56,
      "channel": 0
    },
    {
      "time": 193.625,
      "type": "on",
      "note": 72,
      "vel": 43,
      "channel": 0
    },
    {
      "time": 193.86346153846154,
      "type": "on",
      "note": 69,
      "vel": 71,
      "channel": 0
    },
    {
      "time": 194.07115384615383,
      "type": "on",
      "note": 83,
      "vel": 44,
      "channel": 0
    },
    {
      "time": 194.31346153846152,
      "type": "on",
      "note": 76,
      "vel": 65,
      "channel": 0
    },
    {
      "time": 194.5346153846154,
      "type": "on",
      "note": 72,
      "vel": 47,
      "channel": 0
    },
    {
      "time": 194.76923076923077,
      "type": "on",
      "note": 69,
      "vel": 79,
      "channel": 0
    },
    {
      "time": 195.01346153846154,
      "type": "on",
      "note": 83,
      "vel": 45,
      "channel": 0
    },
    {
      "time": 195.22307692307692,
      "type": "on",
      "note": 76,
      "vel": 62,
      "channel": 0
    },
    {
      "time": 195.45576923076922,
      "type": "on",
      "note": 72,
      "vel": 48,
      "channel": 0
    },
    {
      "time": 195.69230769230768,
      "type": "on",
      "note": 29,
      "vel": 60,
      "channel": 1
    },
    {
      "time": 195.8826923076923,
      "type": "on",
      "note": 53,
      "vel": 45,
      "channel": 2
    },
    {
      "time": 195.84615384615384,
      "type": "on",
      "note": 57,
      "vel": 45,
      "channel": 2
    },
    {
      "time": 195.74807692307692,
      "type": "on",
      "note": 60,
      "vel": 45,
      "channel": 2
    },
    {
      "time": 195.7403846153846,
      "type": "on",
      "note": 64,
      "vel": 45,
      "channel": 2
    },
    {
      "time": 195.72307692307692,
      "type": "on",
      "note": 71,
      "vel": 45,
      "channel": 2
    },
    {
      "time": 195.69230769230768,
      "type": "on",
      "note": 65,
      "vel": 84,
      "channel": 0
    },
    {
      "time": 195.9269230769231,
      "type": "on",
      "note": 76,
      "vel": 43,
      "channel": 0
    },
    {
      "time": 196.16346153846155,
      "type": "on",
      "note": 72,
      "vel": 62,
      "channel": 0
    },
    {
      "time": 196.39615384615385,
      "type": "on",
      "note": 69,
      "vel": 43,
      "channel": 0
    },
    {
      "time": 196.62692307692308,
      "type": "on",
      "note": 65,
      "vel": 72,
      "channel": 0
    },
    {
      "time": 196.8326923076923,
      "type": "on",
      "note": 76,
      "vel": 45,
      "channel": 0
    },
    {
      "time": 197.09230769230768,
      "type": "on",
      "note": 72,
      "vel": 63,
      "channel": 0
    },
    {
      "time": 197.30576923076924,
      "type": "on",
      "note": 69,
      "vel": 48,
      "channel": 0
    },
    {
      "time": 197.5596153846154,
      "type": "on",
      "note": 65,
      "vel": 82,
      "channel": 0
    },
    {
      "time": 197.77884615384616,
      "type": "on",
      "note": 76,
      "vel": 42,
      "channel": 0
    },
    {
      "time": 197.98461538461538,
      "type": "on",
      "note": 72,
      "vel": 63,
      "channel": 0
    },
    {
      "time": 198.2153846153846,
      "type": "on",
      "note": 69,
      "vel": 45,
      "channel": 0
    },
    {
      "time": 198.45576923076922,
      "type": "on",
      "note": 65,
      "vel": 84,
      "channel": 0
    },
    {
      "time": 198.67884615384617,
      "type": "on",
      "note": 76,
      "vel": 47,
      "channel": 0
    },
    {
      "time": 198.93653846153848,
      "type": "on",
      "note": 72,
      "vel": 62,
      "channel": 0
    },
    {
      "time": 199.14423076923077,
      "type": "on",
      "note": 69,
      "vel": 48,
      "channel": 0
    },
    {
      "time": 199.3846153846154,
      "type": "on",
      "note": 36,
      "vel": 60,
      "channel": 1
    },
    {
      "time": 199.4576923076923,
      "type": "on",
      "note": 48,
      "vel": 45,
      "channel": 2
    },
    {
      "time": 199.44230769230768,
      "type": "on",
      "note": 55,
      "vel": 45,
      "channel": 2
    },
    {
      "time": 199.56346153846152,
      "type": "on",
      "note": 60,
      "vel": 45,
      "channel": 2
    },
    {
      "time": 199.54038461538462,
      "type": "on",
      "note": 62,
      "vel": 45,
      "channel": 2
    },
    {
      "time": 199.45192307692307,
      "type": "on",
      "note": 64,
      "vel": 45,
      "channel": 2
    },
    {
      "time": 199.40576923076924,
      "type": "on",
      "note": 72,
      "vel": 82,
      "channel": 0
    },
    {
      "time": 199.6,
      "type": "on",
      "note": 79,
      "vel": 45,
      "channel": 0
    },
    {
      "time": 199.84807692307692,
      "type": "on",
      "note": 76,
      "vel": 62,
      "channel": 0
    },
    {
      "time": 200.08653846153845,
      "type": "on",
      "note": 74,
      "vel": 40,
      "channel": 0
    },
    {
      "time": 200.31923076923076,
      "type": "on",
      "note": 72,
      "vel": 70,
      "channel": 0
    },
    {
      "time": 200.525,
      "type": "on",
      "note": 79,
      "vel": 42,
      "channel": 0
    },
    {
      "time": 200.76923076923077,
      "type": "on",
      "note": 76,
      "vel": 56,
      "channel": 0
    },
    {
      "time": 201.0096153846154,
      "type": "on",
      "note": 74,
      "vel": 42,
      "channel": 0
    },
    {
      "time": 201.22115384615384,
      "type": "on",
      "note": 72,
      "vel": 70,
      "channel": 0
    },
    {
      "time": 201.46153846153845,
      "type": "on",
      "note": 79,
      "vel": 41,
      "channel": 0
    },
    {
      "time": 201.70192307692307,
      "type": "on",
      "note": 76,
      "vel": 57,
      "channel": 0
    },
    {
      "time": 201.93269230769232,
      "type": "on",
      "note": 74,
      "vel": 50,
      "channel": 0
    },
    {
      "time": 202.15769230769232,
      "type": "on",
      "note": 72,
      "vel": 82,
      "channel": 0
    },
    {
      "time": 202.37884615384615,
      "type": "on",
      "note": 79,
      "vel": 49,
      "channel": 0
    },
    {
      "time": 202.63846153846154,
      "type": "on",
      "note": 76,
      "vel": 60,
      "channel": 0
    },
    {
      "time": 202.84423076923076,
      "type": "on",
      "note": 74,
      "vel": 40,
      "channel": 0
    },
    {
      "time": 203.07692307692307,
      "type": "on",
      "note": 40,
      "vel": 60,
      "channel": 1
    },
    {
      "time": 203.2423076923077,
      "type": "on",
      "note": 52,
      "vel": 45,
      "channel": 2
    },
    {
      "time": 203.09807692307692,
      "type": "on",
      "note": 55,
      "vel": 45,
      "channel": 2
    },
    {
      "time": 203.125,
      "type": "on",
      "note": 59,
      "vel": 45,
      "channel": 2
    },
    {
      "time": 203.13076923076923,
      "type": "on",
      "note": 62,
      "vel": 45,
      "channel": 2
    },
    {
      "time": 203.16346153846155,
      "type": "on",
      "note": 69,
      "vel": 45,
      "channel": 2
    },
    {
      "time": 203.0653846153846,
      "type": "on",
      "note": 67,
      "vel": 80,
      "channel": 0
    },
    {
      "time": 203.30384615384617,
      "type": "on",
      "note": 81,
      "vel": 49,
      "channel": 0
    },
    {
      "time": 203.5423076923077,
      "type": "on",
      "note": 74,
      "vel": 55,
      "channel": 0
    },
    {
      "time": 203.76538461538462,
      "type": "on",
      "note": 71,
      "vel": 46,
      "channel": 0
    },
    {
      "time": 203.98461538461538,
      "type": "on",
      "note": 67,
      "vel": 71,
      "channel": 0
    },
    {
      "time": 204.2423076923077,
      "type": "on",
      "note": 81,
      "vel": 47,
      "channel": 0
    },
    {
      "time": 204.4826923076923,
      "type": "on",
      "note": 74,
      "vel": 59,
      "channel": 0
    },
    {
      "time": 204.70961538461538,
      "type": "on",
      "note": 71,
      "vel": 45,
      "channel": 0
    },
    {
      "time": 204.93076923076924,
      "type": "on",
      "note": 67,
      "vel": 85,
      "channel": 0
    },
    {
      "time": 205.14423076923077,
      "type": "on",
      "note": 81,
      "vel": 46,
      "channel": 0
    },
    {
      "time": 205.40192307692308,
      "type": "on",
      "note": 74,
      "vel": 55,
      "channel": 0
    },
    {
      "time": 205.6173076923077,
      "type": "on",
      "note": 71,
      "vel": 49,
      "channel": 0
    },
    {
      "time": 205.8653846153846,
      "type": "on",
      "note": 67,
      "vel": 81,
      "channel": 0
    },
    {
      "time": 206.0730769230769,
      "type": "on",
      "note": 81,
      "vel": 47,
      "channel": 0
    },
    {
      "time": 206.31346153846152,
      "type": "on",
      "note": 74,
      "vel": 62,
      "channel": 0
    },
    {
      "time": 206.52307692307693,
      "type": "on",
      "note": 71,
      "vel": 41,
      "channel": 0
    },
    {
      "time": 206.76923076923077,
      "type": "on",
      "note": 33,
      "vel": 60,
      "channel": 1
    },
    {
      "time": 206.77692307692308,
      "type": "on",
      "note": 57,
      "vel": 45,
      "channel": 2
    },
    {
      "time": 206.81730769230768,
      "type": "on",
      "note": 60,
      "vel": 45,
      "channel": 2
    },
    {
      "time": 206.92307692307693,
      "type": "on",
      "note": 64,
      "vel": 45,
      "channel": 2
    },
    {
      "time": 206.84615384615384,
      "type": "on",
      "note": 71,
      "vel": 45,
      "channel": 2
    },
    {
      "time": 206.79807692307693,
      "type": "on",
      "note": 74,
      "vel": 45,
      "channel": 2
    },
    {
      "time": 206.78269230769232,
      "type": "on",
      "note": 69,
      "vel": 73,
      "channel": 0
    },
    {
      "time": 206.9923076923077,
      "type": "on",
      "note": 83,
      "vel": 48,
      "channel": 0
    },
    {
      "time": 207.21730769230768,
      "type": "on",
      "note": 76,
      "vel": 64,
      "channel": 0
    },
    {
      "time": 207.46923076923076,
      "type": "on",
      "note": 72,
      "vel": 46,
      "channel": 0
    },
    {
      "time": 207.68653846153848,
      "type": "on",
      "note": 69,
      "vel": 83,
      "channel": 0
    },
    {
      "time": 207.9173076923077,
      "type": "on",
      "note": 83,
      "vel": 50,
      "channel": 0
    },
    {
      "time": 208.13846153846154,
      "type": "on",
      "note": 76,
      "vel": 65,
      "channel": 0
    },
    {
      "time": 208.39038461538462,
      "type": "on",
      "note": 72,
      "vel": 40,
      "channel": 0
    },
    {
      "time": 208.61346153846154,
      "type": "on",
      "note": 69,
      "vel": 78,
      "channel": 0
    },
    {
      "time": 208.8403846153846,
      "type": "on",
      "note": 83,
      "vel": 50,
      "channel": 0
    },
    {
      "time": 209.06346153846152,
      "type": "on",
      "note": 76,
      "vel": 60,
      "channel": 0
    },
    {
      "time": 209.3153846153846,
      "type": "on",
      "note": 72,
      "vel": 49,
      "channel": 0
    },
    {
      "time": 209.53653846153847,
      "type": "on",
      "note": 69,
      "vel": 84,
      "channel": 0
    },
    {
      "time": 209.77692307692308,
      "type": "on",
      "note": 83,
      "vel": 41,
      "channel": 0
    },
    {
      "time": 209.9903846153846,
      "type": "on",
      "note": 76,
      "vel": 56,
      "channel": 0
    },
    {
      "time": 210.23076923076923,
      "type": "on",
      "note": 72,
      "vel": 42,
      "channel": 0
    },
    {
      "time": 210.46153846153845,
      "type": "on",
      "note": 29,
      "vel": 60,
      "channel": 1
    },
    {
      "time": 210.5346153846154,
      "type": "on",
      "note": 53,
      "vel": 45,
      "channel": 2
    },
    {
      "time": 210.60576923076923,
      "type": "on",
      "note": 57,
      "vel": 45,
      "channel": 2
    },
    {
      "time": 210.6153846153846,
      "type": "on",
      "note": 60,
      "vel": 45,
      "channel": 2
    },
    {
      "time": 210.50576923076923,
      "type": "on",
      "note": 64,
      "vel": 45,
      "channel": 2
    },
    {
      "time": 210.5346153846154,
      "type": "on",
      "note": 71,
      "vel": 45,
      "channel": 2
    },
    {
      "time": 210.45192307692307,
      "type": "on",
      "note": 65,
      "vel": 75,
      "channel": 0
    },
    {
      "time": 210.6980769230769,
      "type": "on",
      "note": 76,
      "vel": 40,
      "channel": 0
    },
    {
      "time": 210.93653846153848,
      "type": "on",
      "note": 72,
      "vel": 61,
      "channel": 0
    },
    {
      "time": 211.14038461538462,
      "type": "on",
      "note": 69,
      "vel": 43,
      "channel": 0
    },
    {
      "time": 211.375,
      "type": "on",
      "note": 65,
      "vel": 83,
      "channel": 0
    },
    {
      "time": 211.63076923076923,
      "type": "on",
      "note": 76,
      "vel": 45,
      "channel": 0
    },
    {
      "time": 211.86923076923077,
      "type": "on",
      "note": 72,
      "vel": 58,
      "channel": 0
    },
    {
      "time": 212.09423076923076,
      "type": "on",
      "note": 69,
      "vel": 43,
      "channel": 0
    },
    {
      "time": 212.30384615384617,
      "type": "on",
      "note": 65,
      "vel": 84,
      "channel": 0
    },
    {
      "time": 212.525,
      "type": "on",
      "note": 76,
      "vel": 41,
      "channel": 0
    },
    {
      "time": 212.75384615384615,
      "type": "on",
      "note": 72,
      "vel": 61,
      "channel": 0
    },
    {
      "time": 213.0096153846154,
      "type": "on",
      "note": 69,
      "vel": 40,
      "channel": 0
    },
    {
      "time": 213.25384615384615,
      "type": "on",
      "note": 65,
      "vel": 80,
      "channel": 0
    },
    {
      "time": 213.45192307692307,
      "type": "on",
      "note": 76,
      "vel": 43,
      "channel": 0
    },
    {
      "time": 213.68653846153848,
      "type": "on",
      "note": 72,
      "vel": 60,
      "channel": 0
    },
    {
      "time": 213.9173076923077,
      "type": "on",
      "note": 69,
      "vel": 46,
      "channel": 0
    },
    {
      "time": 214.15384615384616,
      "type": "on",
      "note": 36,
      "vel": 60,
      "channel": 1
    },
    {
      "time": 214.325,
      "type": "on",
      "note": 48,
      "vel": 45,
      "channel": 2
    },
    {
      "time": 214.275,
      "type": "on",
      "note": 55,
      "vel": 45,
      "channel": 2
    },
    {
      "time": 214.31923076923076,
      "type": "on",
      "note": 60,
      "vel": 45,
      "channel": 2
    },
    {
      "time": 214.2673076923077,
      "type": "on",
      "note": 62,
      "vel": 45,
      "channel": 2
    },
    {
      "time": 214.16923076923078,
      "type": "on",
      "note": 64,
      "vel": 45,
      "channel": 2
    },
    {
      "time": 214.15192307692308,
      "type": "on",
      "note": 72,
      "vel": 78,
      "channel": 0
    },
    {
      "time": 214.36923076923077,
      "type": "on",
      "note": 79,
      "vel": 48,
      "channel": 0
    },
    {
      "time": 214.60192307692307,
      "type": "on",
      "note": 76,
      "vel": 64,
      "channel": 0
    },
    {
      "time": 214.8653846153846,
      "type": "on",
      "note": 74,
      "vel": 43,
      "channel": 0
    },
    {
      "time": 215.06730769230768,
      "type": "on",
      "note": 72,
      "vel": 80,
      "channel": 0
    },
    {
      "time": 215.33076923076922,
      "type": "on",
      "note": 79,
      "vel": 43,
      "channel": 0
    },
    {
      "time": 215.55576923076924,
      "type": "on",
      "note": 76,
      "vel": 60,
      "channel": 0
    },
    {
      "time": 215.79038461538462,
      "type": "on",
      "note": 74,
      "vel": 48,
      "channel": 0
    },
    {
      "time": 216.00576923076923,
      "type": "on",
      "note": 72,
      "vel": 75,
      "channel": 0
    },
    {
      "time": 216.23461538461538,
      "type": "on",
      "note": 79,
      "vel": 40,
      "channel": 0
    },
    {
      "time": 216.4576923076923,
      "type": "on",
      "note": 76,
      "vel": 64,
      "channel": 0
    },
    {
      "time": 216.68653846153848,
      "type": "on",
      "note": 74,
      "vel": 49,
      "channel": 0
    },
    {
      "time": 216.90769230769232,
      "type": "on",
      "note": 72,
      "vel": 77,
      "channel": 0
    },
    {
      "time": 217.17115384615386,
      "type": "on",
      "note": 79,
      "vel": 47,
      "channel": 0
    },
    {
      "time": 217.37692307692308,
      "type": "on",
      "note": 76,
      "vel": 57,
      "channel": 0
    },
    {
      "time": 217.62692307692308,
      "type": "on",
      "note": 74,
      "vel": 50,
      "channel": 0
    },
    {
      "time": 217.84615384615384,
      "type": "on",
      "note": 40,
      "vel": 60,
      "channel": 1
    },
    {
      "time": 217.93076923076924,
      "type": "on",
      "note": 52,
      "vel": 45,
      "channel": 2
    },
    {
      "time": 217.90769230769232,
      "type": "on",
      "note": 55,
      "vel": 45,
      "channel": 2
    },
    {
      "time": 217.9403846153846,
      "type": "on",
      "note": 59,
      "vel": 45,
      "channel": 2
    },
    {
      "time": 217.90769230769232,
      "type": "on",
      "note": 62,
      "vel": 45,
      "channel": 2
    },
    {
      "time": 217.91346153846155,
      "type": "on",
      "note": 69,
      "vel": 45,
      "channel": 2
    },
    {
      "time": 217.85961538461538,
      "type": "on",
      "note": 67,
      "vel": 85,
      "channel": 0
    },
    {
      "time": 218.07115384615383,
      "type": "on",
      "note": 81,
      "vel": 40,
      "channel": 0
    },
    {
      "time": 218.30384615384617,
      "type": "on",
      "note": 74,
      "vel": 61,
      "channel": 0
    },
    {
      "time": 218.55384615384617,
      "type": "on",
      "note": 71,
      "vel": 41,
      "channel": 0
    },
    {
      "time": 218.76923076923077,
      "type": "on",
      "note": 67,
      "vel": 81,
      "channel": 0
    },
    {
      "time": 218.98461538461538,
      "type": "on",
      "note": 81,
      "vel": 42,
      "channel": 0
    },
    {
      "time": 219.23653846153846,
      "type": "on",
      "note": 74,
      "vel": 56,
      "channel": 0
    },
    {
      "time": 219.4576923076923,
      "type": "on",
      "note": 71,
      "vel": 45,
      "channel": 0
    },
    {
      "time": 219.6769230769231,
      "type": "on",
      "note": 67,
      "vel": 85,
      "channel": 0
    },
    {
      "time": 219.93653846153848,
      "type": "on",
      "note": 81,
      "vel": 41,
      "channel": 0
    },
    {
      "time": 220.1769230769231,
      "type": "on",
      "note": 74,
      "vel": 61,
      "channel": 0
    },
    {
      "time": 220.39423076923077,
      "type": "on",
      "note": 71,
      "vel": 44,
      "channel": 0
    },
    {
      "time": 220.62884615384615,
      "type": "on",
      "note": 67,
      "vel": 75,
      "channel": 0
    },
    {
      "time": 220.86153846153846,
      "type": "on",
      "note": 81,
      "vel": 46,
      "channel": 0
    },
    {
      "time": 221.06153846153848,
      "type": "on",
      "note": 74,
      "vel": 64,
      "channel": 0
    },
    {
      "time": 221.3153846153846,
      "type": "on",
      "note": 71,
      "vel": 40,
      "channel": 0
    },
    {
      "time": 221.53846153846155,
      "type": "on",
      "note": 33,
      "vel": 60,
      "channel": 1
    },
    {
      "time": 221.59807692307692,
      "type": "on",
      "note": 57,
      "vel": 45,
      "channel": 2
    },
    {
      "time": 221.71346153846153,
      "type": "on",
      "note": 60,
      "vel": 45,
      "channel": 2
    },
    {
      "time": 221.70961538461538,
      "type": "on",
      "note": 64,
      "vel": 45,
      "channel": 2
    },
    {
      "time": 221.55,
      "type": "on",
      "note": 71,
      "vel": 45,
      "channel": 2
    },
    {
      "time": 221.64423076923077,
      "type": "on",
      "note": 74,
      "vel": 45,
      "channel": 2
    },
    {
      "time": 221.53846153846155,
      "type": "on",
      "note": 69,
      "vel": 84,
      "channel": 0
    },
    {
      "time": 221.7846153846154,
      "type": "on",
      "note": 83,
      "vel": 45,
      "channel": 0
    },
    {
      "time": 222.02115384615385,
      "type": "on",
      "note": 76,
      "vel": 59,
      "channel": 0
    },
    {
      "time": 222.23846153846154,
      "type": "on",
      "note": 72,
      "vel": 41,
      "channel": 0
    },
    {
      "time": 222.46153846153845,
      "type": "on",
      "note": 69,
      "vel": 72,
      "channel": 0
    },
    {
      "time": 222.68846153846152,
      "type": "on",
      "note": 83,
      "vel": 48,
      "channel": 0
    },
    {
      "time": 222.9403846153846,
      "type": "on",
      "note": 76,
      "vel": 57,
      "channel": 0
    },
    {
      "time": 223.16346153846155,
      "type": "on",
      "note": 72,
      "vel": 49,
      "channel": 0
    },
    {
      "time": 223.3923076923077,
      "type": "on",
      "note": 69,
      "vel": 76,
      "channel": 0
    },
    {
      "time": 223.61153846153846,
      "type": "on",
      "note": 83,
      "vel": 44,
      "channel": 0
    },
    {
      "time": 223.8326923076923,
      "type": "on",
      "note": 76,
      "vel": 65,
      "channel": 0
    },
    {
      "time": 224.08653846153845,
      "type": "on",
      "note": 72,
      "vel": 47,
      "channel": 0
    },
    {
      "time": 224.32115384615383,
      "type": "on",
      "note": 69,
      "vel": 70,
      "channel": 0
    },
    {
      "time": 224.55384615384617,
      "type": "on",
      "note": 83,
      "vel": 42,
      "channel": 0
    },
    {
      "time": 224.78653846153847,
      "type": "on",
      "note": 76,
      "vel": 63,
      "channel": 0
    },
    {
      "time": 225.00384615384615,
      "type": "on",
      "note": 72,
      "vel": 44,
      "channel": 0
    },
    {
      "time": 225.23076923076923,
      "type": "on",
      "note": 29,
      "vel": 60,
      "channel": 1
    },
    {
      "time": 225.27692307692308,
      "type": "on",
      "note": 53,
      "vel": 45,
      "channel": 2
    },
    {
      "time": 225.3826923076923,
      "type": "on",
      "note": 57,
      "vel": 45,
      "channel": 2
    },
    {
      "time": 225.36346153846154,
      "type": "on",
      "note": 60,
      "vel": 45,
      "channel": 2
    },
    {
      "time": 225.3923076923077,
      "type": "on",
      "note": 64,
      "vel": 45,
      "channel": 2
    },
    {
      "time": 225.29807692307693,
      "type": "on",
      "note": 71,
      "vel": 45,
      "channel": 2
    },
    {
      "time": 225.22884615384615,
      "type": "on",
      "note": 65,
      "vel": 78,
      "channel": 0
    },
    {
      "time": 225.4576923076923,
      "type": "on",
      "note": 76,
      "vel": 45,
      "channel": 0
    },
    {
      "time": 225.68076923076924,
      "type": "on",
      "note": 72,
      "vel": 58,
      "channel": 0
    },
    {
      "time": 225.9173076923077,
      "type": "on",
      "note": 69,
      "vel": 43,
      "channel": 0
    },
    {
      "time": 226.14423076923077,
      "type": "on",
      "note": 65,
      "vel": 83,
      "channel": 0
    },
    {
      "time": 226.375,
      "type": "on",
      "note": 76,
      "vel": 40,
      "channel": 0
    },
    {
      "time": 226.63076923076923,
      "type": "on",
      "note": 72,
      "vel": 61,
      "channel": 0
    },
    {
      "time": 226.85576923076923,
      "type": "on",
      "note": 69,
      "vel": 44,
      "channel": 0
    },
    {
      "time": 227.06730769230768,
      "type": "on",
      "note": 65,
      "vel": 78,
      "channel": 0
    },
    {
      "time": 227.29423076923078,
      "type": "on",
      "note": 76,
      "vel": 43,
      "channel": 0
    },
    {
      "time": 227.53076923076924,
      "type": "on",
      "note": 72,
      "vel": 57,
      "channel": 0
    },
    {
      "time": 227.75576923076923,
      "type": "on",
      "note": 69,
      "vel": 41,
      "channel": 0
    },
    {
      "time": 228.01153846153846,
      "type": "on",
      "note": 65,
      "vel": 83,
      "channel": 0
    },
    {
      "time": 228.25384615384615,
      "type": "on",
      "note": 76,
      "vel": 41,
      "channel": 0
    },
    {
      "time": 228.46730769230768,
      "type": "on",
      "note": 72,
      "vel": 64,
      "channel": 0
    },
    {
      "time": 228.68653846153848,
      "type": "on",
      "note": 69,
      "vel": 43,
      "channel": 0
    },
    {
      "time": 228.92307692307693,
      "type": "on",
      "note": 36,
      "vel": 60,
      "channel": 1
    },
    {
      "time": 229.0596153846154,
      "type": "on",
      "note": 48,
      "vel": 45,
      "channel": 2
    },
    {
      "time": 229.06153846153848,
      "type": "on",
      "note": 55,
      "vel": 45,
      "channel": 2
    },
    {
      "time": 229.03076923076924,
      "type": "on",
      "note": 60,
      "vel": 45,
      "channel": 2
    },
    {
      "time": 229.07115384615383,
      "type": "on",
      "note": 62,
      "vel": 45,
      "channel": 2
    },
    {
      "time": 229.0173076923077,
      "type": "on",
      "note": 64,
      "vel": 45,
      "channel": 2
    },
    {
      "time": 228.9269230769231,
      "type": "on",
      "note": 72,
      "vel": 84,
      "channel": 0
    },
    {
      "time": 229.16346153846155,
      "type": "on",
      "note": 79,
      "vel": 46,
      "channel": 0
    },
    {
      "time": 229.375,
      "type": "on",
      "note": 76,
      "vel": 55,
      "channel": 0
    },
    {
      "time": 229.60961538461538,
      "type": "on",
      "note": 74,
      "vel": 49,
      "channel": 0
    },
    {
      "time": 229.8576923076923,
      "type": "on",
      "note": 72,
      "vel": 73,
      "channel": 0
    },
    {
      "time": 230.06153846153848,
      "type": "on",
      "note": 79,
      "vel": 45,
      "channel": 0
    },
    {
      "time": 230.30384615384617,
      "type": "on",
      "note": 76,
      "vel": 61,
      "channel": 0
    },
    {
      "time": 230.52884615384616,
      "type": "on",
      "note": 74,
      "vel": 41,
      "channel": 0
    },
    {
      "time": 230.7846153846154,
      "type": "on",
      "note": 72,
      "vel": 81,
      "channel": 0
    },
    {
      "time": 231.0096153846154,
      "type": "on",
      "note": 79,
      "vel": 45,
      "channel": 0
    },
    {
      "time": 231.23846153846154,
      "type": "on",
      "note": 76,
      "vel": 60,
      "channel": 0
    },
    {
      "time": 231.45961538461538,
      "type": "on",
      "note": 74,
      "vel": 49,
      "channel": 0
    },
    {
      "time": 231.70192307692307,
      "type": "on",
      "note": 72,
      "vel": 84,
      "channel": 0
    },
    {
      "time": 231.91538461538462,
      "type": "on",
      "note": 79,
      "vel": 40,
      "channel": 0
    },
    {
      "time": 232.14038461538462,
      "type": "on",
      "note": 76,
      "vel": 64,
      "channel": 0
    },
    {
      "time": 232.38846153846154,
      "type": "on",
      "note": 74,
      "vel": 47,
      "channel": 0
    },
    {
      "time": 232.6153846153846,
      "type": "on",
      "note": 40,
      "vel": 60,
      "channel": 1
    },
    {
      "time": 232.6326923076923,
      "type": "on",
      "note": 52,
      "vel": 45,
      "channel": 2
    },
    {
      "time": 232.62307692307692,
      "type": "on",
      "note": 55,
      "vel": 45,
      "channel": 2
    },
    {
      "time": 232.69230769230768,
      "type": "on",
      "note": 59,
      "vel": 45,
      "channel": 2
    },
    {
      "time": 232.75192307692308,
      "type": "on",
      "note": 62,
      "vel": 45,
      "channel": 2
    },
    {
      "time": 232.73846153846154,
      "type": "on",
      "note": 69,
      "vel": 45,
      "channel": 2
    },
    {
      "time": 232.6076923076923,
      "type": "on",
      "note": 67,
      "vel": 80,
      "channel": 0
    },
    {
      "time": 232.85,
      "type": "on",
      "note": 81,
      "vel": 45,
      "channel": 0
    },
    {
      "time": 233.0653846153846,
      "type": "on",
      "note": 74,
      "vel": 58,
      "channel": 0
    },
    {
      "time": 233.3096153846154,
      "type": "on",
      "note": 71,
      "vel": 44,
      "channel": 0
    },
    {
      "time": 233.55,
      "type": "on",
      "note": 67,
      "vel": 84,
      "channel": 0
    },
    {
      "time": 233.76153846153846,
      "type": "on",
      "note": 81,
      "vel": 46,
      "channel": 0
    },
    {
      "time": 234.02307692307693,
      "type": "on",
      "note": 74,
      "vel": 63,
      "channel": 0
    },
    {
      "time": 234.24423076923077,
      "type": "on",
      "note": 71,
      "vel": 47,
      "channel": 0
    },
    {
      "time": 234.47692307692307,
      "type": "on",
      "note": 67,
      "vel": 79,
      "channel": 0
    },
    {
      "time": 234.7153846153846,
      "type": "on",
      "note": 81,
      "vel": 50,
      "channel": 0
    },
    {
      "time": 234.93846153846152,
      "type": "on",
      "note": 74,
      "vel": 59,
      "channel": 0
    },
    {
      "time": 235.16153846153847,
      "type": "on",
      "note": 71,
      "vel": 47,
      "channel": 0
    },
    {
      "time": 235.37115384615385,
      "type": "on",
      "note": 67,
      "vel": 70,
      "channel": 0
    },
    {
      "time": 235.60192307692307,
      "type": "on",
      "note": 81,
      "vel": 45,
      "channel": 0
    },
    {
      "time": 235.85384615384615,
      "type": "on",
      "note": 74,
      "vel": 65,
      "channel": 0
    },
    {
      "time": 236.08653846153845,
      "type": "on",
      "note": 71,
      "vel": 47,
      "channel": 0
    },
    {
      "time": 236.30769230769232,
      "type": "on",
      "note": 33,
      "vel": 60,
      "channel": 1
    },
    {
      "time": 236.475,
      "type": "on",
      "note": 57,
      "vel": 45,
      "channel": 2
    },
    {
      "time": 236.31346153846152,
      "type": "on",
      "note": 60,
      "vel": 45,
      "channel": 2
    },
    {
      "time": 236.44230769230768,
      "type": "on",
      "note": 64,
      "vel": 45,
      "channel": 2
    },
    {
      "time": 236.41153846153847,
      "type": "on",
      "note": 71,
      "vel": 45,
      "channel": 2
    },
    {
      "time": 236.45192307692307,
      "type": "on",
      "note": 74,
      "vel": 45,
      "channel": 2
    },
    {
      "time": 236.33076923076922,
      "type": "on",
      "note": 69,
      "vel": 81,
      "channel": 0
    },
    {
      "time": 236.55769230769232,
      "type": "on",
      "note": 83,
      "vel": 46,
      "channel": 0
    },
    {
      "time": 236.7673076923077,
      "type": "on",
      "note": 76,
      "vel": 60,
      "channel": 0
    },
    {
      "time": 237.01346153846154,
      "type": "on",
      "note": 72,
      "vel": 45,
      "channel": 0
    },
    {
      "time": 237.225,
      "type": "on",
      "note": 69,
      "vel": 77,
      "channel": 0
    },
    {
      "time": 237.46346153846153,
      "type": "on",
      "note": 83,
      "vel": 48,
      "channel": 0
    },
    {
      "time": 237.67884615384617,
      "type": "on",
      "note": 76,
      "vel": 60,
      "channel": 0
    },
    {
      "time": 237.91923076923078,
      "type": "on",
      "note": 72,
      "vel": 50,
      "channel": 0
    },
    {
      "time": 238.15,
      "type": "on",
      "note": 69,
      "vel": 71,
      "channel": 0
    },
    {
      "time": 238.40384615384616,
      "type": "on",
      "note": 83,
      "vel": 46,
      "channel": 0
    },
    {
      "time": 238.61346153846154,
      "type": "on",
      "note": 76,
      "vel": 60,
      "channel": 0
    },
    {
      "time": 238.86346153846154,
      "type": "on",
      "note": 72,
      "vel": 41,
      "channel": 0
    },
    {
      "time": 239.0730769230769,
      "type": "on",
      "note": 69,
      "vel": 78,
      "channel": 0
    },
    {
      "time": 239.30769230769232,
      "type": "on",
      "note": 83,
      "vel": 42,
      "channel": 0
    },
    {
      "time": 239.525,
      "type": "on",
      "note": 76,
      "vel": 64,
      "channel": 0
    },
    {
      "time": 239.76538461538462,
      "type": "on",
      "note": 72,
      "vel": 46,
      "channel": 0
    },
    {
      "time": 240.0,
      "type": "on",
      "note": 29,
      "vel": 60,
      "channel": 1
    },
    {
      "time": 240.19230769230768,
      "type": "on",
      "note": 53,
      "vel": 45,
      "channel": 2
    },
    {
      "time": 240.0096153846154,
      "type": "on",
      "note": 57,
      "vel": 45,
      "channel": 2
    },
    {
      "time": 240.06923076923076,
      "type": "on",
      "note": 60,
      "vel": 45,
      "channel": 2
    },
    {
      "time": 240.02884615384616,
      "type": "on",
      "note": 64,
      "vel": 45,
      "channel": 2
    },
    {
      "time": 240.14423076923077,
      "type": "on",
      "note": 71,
      "vel": 45,
      "channel": 2
    },
    {
      "time": 240.00192307692308,
      "type": "on",
      "note": 65,
      "vel": 80,
      "channel": 0
    },
    {
      "time": 240.23653846153846,
      "type": "on",
      "note": 76,
      "vel": 43,
      "channel": 0
    },
    {
      "time": 240.47884615384615,
      "type": "on",
      "note": 72,
      "vel": 56,
      "channel": 0
    },
    {
      "time": 240.7153846153846,
      "type": "on",
      "note": 69,
      "vel": 50,
      "channel": 0
    },
    {
      "time": 240.925,
      "type": "on",
      "note": 65,
      "vel": 78,
      "channel": 0
    },
    {
      "time": 241.15192307692308,
      "type": "on",
      "note": 76,
      "vel": 49,
      "channel": 0
    },
    {
      "time": 241.3846153846154,
      "type": "on",
      "note": 72,
      "vel": 59,
      "channel": 0
    },
    {
      "time": 241.61153846153846,
      "type": "on",
      "note": 69,
      "vel": 46,
      "channel": 0
    },
    {
      "time": 241.8673076923077,
      "type": "on",
      "note": 65,
      "vel": 83,
      "channel": 0
    },
    {
      "time": 242.07115384615383,
      "type": "on",
      "note": 76,
      "vel": 44,
      "channel": 0
    },
    {
      "time": 242.31923076923076,
      "type": "on",
      "note": 72,
      "vel": 62,
      "channel": 0
    },
    {
      "time": 242.52307692307693,
      "type": "on",
      "note": 69,
      "vel": 44,
      "channel": 0
    },
    {
      "time": 242.7673076923077,
      "type": "on",
      "note": 65,
      "vel": 83,
      "channel": 0
    },
    {
      "time": 243.0096153846154,
      "type": "on",
      "note": 76,
      "vel": 47,
      "channel": 0
    },
    {
      "time": 243.24615384615385,
      "type": "on",
      "note": 72,
      "vel": 58,
      "channel": 0
    },
    {
      "time": 243.45384615384614,
      "type": "on",
      "note": 69,
      "vel": 46,
      "channel": 0
    },
    {
      "time": 243.69230769230768,
      "type": "on",
      "note": 36,
      "vel": 60,
      "channel": 1
    },
    {
      "time": 243.7596153846154,
      "type": "on",
      "note": 48,
      "vel": 45,
      "channel": 2
    },
    {
      "time": 243.79615384615386,
      "type": "on",
      "note": 55,
      "vel": 45,
      "channel": 2
    },
    {
      "time": 243.84615384615384,
      "type": "on",
      "note": 60,
      "vel": 45,
      "channel": 2
    },
    {
      "time": 243.70384615384614,
      "type": "on",
      "note": 62,
      "vel": 45,
      "channel": 2
    },
    {
      "time": 243.83653846153845,
      "type": "on",
      "note": 64,
      "vel": 45,
      "channel": 2
    },
    {
      "time": 243.69615384615383,
      "type": "on",
      "note": 72,
      "vel": 81,
      "channel": 0
    },
    {
      "time": 243.91346153846155,
      "type": "on",
      "note": 79,
      "vel": 46,
      "channel": 0
    },
    {
      "time": 244.13846153846154,
      "type": "on",
      "note": 76,
      "vel": 59,
      "channel": 0
    },
    {
      "time": 244.38076923076923,
      "type": "on",
      "note": 74,
      "vel": 47,
      "channel": 0
    },
    {
      "time": 244.61346153846154,
      "type": "on",
      "note": 72,
      "vel": 78,
      "channel": 0
    },
    {
      "time": 244.8673076923077,
      "type": "on",
      "note": 79,
      "vel": 42,
      "channel": 0
    },
    {
      "time": 245.07884615384614,
      "type": "on",
      "note": 76,
      "vel": 55,
      "channel": 0
    },
    {
      "time": 245.31346153846152,
      "type": "on",
      "note": 74,
      "vel": 42,
      "channel": 0
    },
    {
      "time": 245.53653846153847,
      "type": "on",
      "note": 72,
      "vel": 77,
      "channel": 0
    },
    {
      "time": 245.78076923076924,
      "type": "on",
      "note": 79,
      "vel": 46,
      "channel": 0
    },
    {
      "time": 246.01538461538462,
      "type": "on",
      "note": 76,
      "vel": 59,
      "channel": 0
    },
    {
      "time": 246.2403846153846,
      "type": "on",
      "note": 74,
      "vel": 42,
      "channel": 0
    },
    {
      "time": 246.4826923076923,
      "type": "on",
      "note": 72,
      "vel": 71,
      "channel": 0
    },
    {
      "time": 246.7,
      "type": "on",
      "note": 79,
      "vel": 42,
      "channel": 0
    },
    {
      "time": 246.93653846153848,
      "type": "on",
      "note": 76,
      "vel": 58,
      "channel": 0
    },
    {
      "time": 247.13846153846154,
      "type": "on",
      "note": 74,
      "vel": 44,
      "channel": 0
    },
    {
      "time": 247.3846153846154,
      "type": "on",
      "note": 40,
      "vel": 60,
      "channel": 1
    },
    {
      "time": 247.46730769230768,
      "type": "on",
      "note": 52,
      "vel": 45,
      "channel": 2
    },
    {
      "time": 247.51346153846154,
      "type": "on",
      "note": 55,
      "vel": 45,
      "channel": 2
    },
    {
      "time": 247.46153846153845,
      "type": "on",
      "note": 59,
      "vel": 45,
      "channel": 2
    },
    {
      "time": 247.38653846153846,
      "type": "on",
      "note": 62,
      "vel": 45,
      "channel": 2
    },
    {
      "time": 247.5173076923077,
      "type": "on",
      "note": 69,
      "vel": 45,
      "channel": 2
    },
    {
      "time": 247.39807692307693,
      "type": "on",
      "note": 67,
      "vel": 73,
      "channel": 0
    },
    {
      "time": 247.62884615384615,
      "type": "on",
      "note": 81,
      "vel": 42,
      "channel": 0
    },
    {
      "time": 247.85576923076923,
      "type": "on",
      "note": 74,
      "vel": 59,
      "channel": 0
    },
    {
      "time": 248.0653846153846,
      "type": "on",
      "note": 71,
      "vel": 44,
      "channel": 0
    },
    {
      "time": 248.31153846153848,
      "type": "on",
      "note": 67,
      "vel": 85,
      "channel": 0
    },
    {
      "time": 248.5519230769231,
      "type": "on",
      "note": 81,
      "vel": 45,
      "channel": 0
    },
    {
      "time": 248.7576923076923,
      "type": "on",
      "note": 74,
      "vel": 56,
      "channel": 0
    },
    {
      "time": 249.0,
      "type": "on",
      "note": 71,
      "vel": 48,
      "channel": 0
    },
    {
      "time": 249.22692307692307,
      "type": "on",
      "note": 67,
      "vel": 74,
      "channel": 0
    },
    {
      "time": 249.44615384615383,
      "type": "on",
      "note": 81,
      "vel": 40,
      "channel": 0
    },
    {
      "time": 249.70192307692307,
      "type": "on",
      "note": 74,
      "vel": 62,
      "channel": 0
    },
    {
      "time": 249.94615384615383,
      "type": "on",
      "note": 71,
      "vel": 42,
      "channel": 0
    },
    {
      "time": 250.17115384615386,
      "type": "on",
      "note": 67,
      "vel": 72,
      "channel": 0
    },
    {
      "time": 250.40384615384616,
      "type": "on",
      "note": 81,
      "vel": 44,
      "channel": 0
    },
    {
      "time": 250.61923076923077,
      "type": "on",
      "note": 74,
      "vel": 58,
      "channel": 0
    },
    {
      "time": 250.86153846153846,
      "type": "on",
      "note": 71,
      "vel": 40,
      "channel": 0
    },
    {
      "time": 251.07692307692307,
      "type": "on",
      "note": 33,
      "vel": 60,
      "channel": 1
    },
    {
      "time": 251.08076923076922,
      "type": "on",
      "note": 57,
      "vel": 45,
      "channel": 2
    },
    {
      "time": 251.225,
      "type": "on",
      "note": 60,
      "vel": 45,
      "channel": 2
    },
    {
      "time": 251.08653846153845,
      "type": "on",
      "note": 64,
      "vel": 45,
      "channel": 2
    },
    {
      "time": 251.16923076923078,
      "type": "on",
      "note": 71,
      "vel": 45,
      "channel": 2
    },
    {
      "time": 251.08846153846153,
      "type": "on",
      "note": 74,
      "vel": 45,
      "channel": 2
    },
    {
      "time": 251.08846153846153,
      "type": "on",
      "note": 69,
      "vel": 84,
      "channel": 0
    },
    {
      "time": 251.29807692307693,
      "type": "on",
      "note": 83,
      "vel": 50,
      "channel": 0
    },
    {
      "time": 251.54038461538462,
      "type": "on",
      "note": 76,
      "vel": 58,
      "channel": 0
    },
    {
      "time": 251.78846153846155,
      "type": "on",
      "note": 72,
      "vel": 49,
      "channel": 0
    },
    {
      "time": 252.02307692307693,
      "type": "on",
      "note": 69,
      "vel": 80,
      "channel": 0
    },
    {
      "time": 252.23461538461538,
      "type": "on",
      "note": 83,
      "vel": 49,
      "channel": 0
    },
    {
      "time": 252.475,
      "type": "on",
      "note": 76,
      "vel": 64,
      "channel": 0
    },
    {
      "time": 252.7076923076923,
      "type": "on",
      "note": 72,
      "vel": 49,
      "channel": 0
    },
    {
      "time": 252.90769230769232,
      "type": "on",
      "note": 69,
      "vel": 73,
      "channel": 0
    },
    {
      "time": 253.15384615384616,
      "type": "on",
      "note": 83,
      "vel": 46,
      "channel": 0
    },
    {
      "time": 253.375,
      "type": "on",
      "note": 76,
      "vel": 61,
      "channel": 0
    },
    {
      "time": 253.63076923076923,
      "type": "on",
      "note": 72,
      "vel": 46,
      "channel": 0
    },
    {
      "time": 253.85576923076923,
      "type": "on",
      "note": 69,
      "vel": 75,
      "channel": 0
    },
    {
      "time": 254.08653846153845,
      "type": "on",
      "note": 83,
      "vel": 41,
      "channel": 0
    },
    {
      "time": 254.31923076923076,
      "type": "on",
      "note": 76,
      "vel": 58,
      "channel": 0
    },
    {
      "time": 254.5519230769231,
      "type": "on",
      "note": 72,
      "vel": 46,
      "channel": 0
    },
    {
      "time": 254.76923076923077,
      "type": "on",
      "note": 29,
      "vel": 60,
      "channel": 1
    },
    {
      "time": 254.92115384615386,
      "type": "on",
      "note": 53,
      "vel": 45,
      "channel": 2
    },
    {
      "time": 254.925,
      "type": "on",
      "note": 57,
      "vel": 45,
      "channel": 2
    },
    {
      "time": 254.88846153846154,
      "type": "on",
      "note": 60,
      "vel": 45,
      "channel": 2
    },
    {
      "time": 254.85192307692307,
      "type": "on",
      "note": 64,
      "vel": 45,
      "channel": 2
    },
    {
      "time": 254.775,
      "type": "on",
      "note": 71,
      "vel": 45,
      "channel": 2
    },
    {
      "time": 254.75576923076923,
      "type": "on",
      "note": 65,
      "vel": 83,
      "channel": 0
    },
    {
      "time": 254.98653846153846,
      "type": "on",
      "note": 76,
      "vel": 41,
      "channel": 0
    },
    {
      "time": 255.22115384615384,
      "type": "on",
      "note": 72,
      "vel": 61,
      "channel": 0
    },
    {
      "time": 255.47307692307692,
      "type": "on",
      "note": 69,
      "vel": 43,
      "channel": 0
    },
    {
      "time": 255.69615384615383,
      "type": "on",
      "note": 65,
      "vel": 71,
      "channel": 0
    },
    {
      "time": 255.9403846153846,
      "type": "on",
      "note": 76,
      "vel": 50,
      "channel": 0
    },
    {
      "time": 256.14230769230767,
      "type": "on",
      "note": 72,
      "vel": 63,
      "channel": 0
    },
    {
      "time": 256.40576923076924,
      "type": "on",
      "note": 69,
      "vel": 43,
      "channel": 0
    },
    {
      "time": 256.6038461538462,
      "type": "on",
      "note": 65,
      "vel": 73,
      "channel": 0
    },
    {
      "time": 256.86346153846154,
      "type": "on",
      "note": 76,
      "vel": 45,
      "channel": 0
    },
    {
      "time": 257.08846153846156,
      "type": "on",
      "note": 72,
      "vel": 61,
      "channel": 0
    },
    {
      "time": 257.30961538461537,
      "type": "on",
      "note": 69,
      "vel": 49,
      "channel": 0
    },
    {
      "time": 257.55384615384617,
      "type": "on",
      "note": 65,
      "vel": 73,
      "channel": 0
    },
    {
      "time": 257.78076923076924,
      "type": "on",
      "note": 76,
      "vel": 41,
      "channel": 0
    },
    {
      "time": 257.9865384615385,
      "type": "on",
      "note": 72,
      "vel": 55,
      "channel": 0
    },
    {
      "time": 258.2307692307692,
      "type": "on",
      "note": 69,
      "vel": 44,
      "channel": 0
    },
    {
      "time": 258.46153846153845,
      "type": "on",
      "note": 36,
      "vel": 60,
      "channel": 1
    },
    {
      "time": 258.65,
      "type": "on",
      "note": 48,
      "vel": 45,
      "channel": 2
    },
    {
      "time": 258.5634615384615,
      "type": "on",
      "note": 55,
      "vel": 45,
      "channel": 2
    },
    {
      "time": 258.63461538461536,
      "type": "on",
      "note": 60,
      "vel": 45,
      "channel": 2
    },
    {
      "time": 258.63653846153846,
      "type": "on",
      "note": 62,
      "vel": 45,
      "channel": 2
    },
    {
      "time": 258.54423076923075,
      "type": "on",
      "note": 64,
      "vel": 45,
      "channel": 2
    },
    {
      "time": 258.4846153846154,
      "type": "on",
      "note": 72,
      "vel": 84,
      "channel": 0
    },
    {
      "time": 258.7096153846154,
      "type": "on",
      "note": 79,
      "vel": 44,
      "channel": 0
    },
    {
      "time": 258.91153846153844,
      "type": "on",
      "note": 76,
      "vel": 65,
      "channel": 0
    },
    {
      "time": 259.15576923076924,
      "type": "on",
      "note": 74,
      "vel": 43,
      "channel": 0
    },
    {
      "time": 259.3826923076923,
      "type": "on",
      "note": 72,
      "vel": 77,
      "channel": 0
    },
    {
      "time": 259.625,
      "type": "on",
      "note": 79,
      "vel": 49,
      "channel": 0
    },
    {
      "time": 259.85769230769233,
      "type": "on",
      "note": 76,
      "vel": 61,
      "channel": 0
    },
    {
      "time": 260.0634615384615,
      "type": "on",
      "note": 74,
      "vel": 45,
      "channel": 0
    },
    {
      "time": 260.3,
      "type": "on",
      "note": 72,
      "vel": 72,
      "channel": 0
    },
    {
      "time": 260.5326923076923,
      "type": "on",
      "note": 79,
      "vel": 50,
      "channel": 0
    },
    {
      "time": 260.7826923076923,
      "type": "on",
      "note": 76,
      "vel": 60,
      "channel": 0
    },
    {
      "time": 261.0134615384615,
      "type": "on",
      "note": 74,
      "vel": 49,
      "channel": 0
    },
    {
      "time": 261.2173076923077,
      "type": "on",
      "note": 72,
      "vel": 72,
      "channel": 0
    },
    {
      "time": 261.475,
      "type": "on",
      "note": 79,
      "vel": 45,
      "channel": 0
    },
    {
      "time": 261.7076923076923,
      "type": "on",
      "note": 76,
      "vel": 62,
      "channel": 0
    },
    {
      "time": 261.91923076923075,
      "type": "on",
      "note": 74,
      "vel": 47,
      "channel": 0
    },
    {
      "time": 262.15384615384613,
      "type": "on",
      "note": 40,
      "vel": 60,
      "channel": 1
    },
    {
      "time": 262.1826923076923,
      "type": "on",
      "note": 52,
      "vel": 45,
      "channel": 2
    },
    {
      "time": 262.25,
      "type": "on",
      "note": 55,
      "vel": 45,
      "channel": 2
    },
    {
      "time": 262.2634615384615,
      "type": "on",
      "note": 59,
      "vel": 45,
      "channel": 2
    },
    {
      "time": 262.275,
      "type": "on",
      "note": 62,
      "vel": 45,
      "channel": 2
    },
    {
      "time": 262.225,
      "type": "on",
      "note": 69,
      "vel": 45,
      "channel": 2
    },
    {
      "time": 262.16923076923075,
      "type": "on",
      "note": 67,
      "vel": 71,
      "channel": 0
    },
    {
      "time": 262.4076923076923,
      "type": "on",
      "note": 81,
      "vel": 40,
      "channel": 0
    },
    {
      "time": 262.6057692307692,
      "type": "on",
      "note": 74,
      "vel": 58,
      "channel": 0
    },
    {
      "time": 262.8596153846154,
      "type": "on",
      "note": 71,
      "vel": 47,
      "channel": 0
    },
    {
      "time": 263.0923076923077,
      "type": "on",
      "note": 67,
      "vel": 84,
      "channel": 0
    },
    {
      "time": 263.2923076923077,
      "type": "on",
      "note": 81,
      "vel": 50,
      "channel": 0
    },
    {
      "time": 263.525,
      "type": "on",
      "note": 74,
      "vel": 58,
      "channel": 0
    },
    {
      "time": 263.775,
      "type": "on",
      "note": 71,
      "vel": 50,
      "channel": 0
    },
    {
      "time": 263.98846153846154,
      "type": "on",
      "note": 67,
      "vel": 78,
      "channel": 0
    },
    {
      "time": 264.24807692307695,
      "type": "on",
      "note": 81,
      "vel": 40,
      "channel": 0
    },
    {
      "time": 264.46923076923076,
      "type": "on",
      "note": 74,
      "vel": 57,
      "channel": 0
    },
    {
      "time": 264.6884615384615,
      "type": "on",
      "note": 71,
      "vel": 40,
      "channel": 0
    },
    {
      "time": 264.9076923076923,
      "type": "on",
      "note": 67,
      "vel": 84,
      "channel": 0
    },
    {
      "time": 265.1730769230769,
      "type": "on",
      "note": 81,
      "vel": 44,
      "channel": 0
    },
    {
      "time": 265.38461538461536,
      "type": "on",
      "note": 74,
      "vel": 58,
      "channel": 0
    },
    {
      "time": 265.6384615384615,
      "type": "on",
      "note": 71,
      "vel": 45,
      "channel": 0
    },
    {
      "time": 265.84615384615387,
      "type": "on",
      "note": 33,
      "vel": 60,
      "channel": 1
    },
    {
      "time": 265.9596153846154,
      "type": "on",
      "note": 57,
      "vel": 45,
      "channel": 2
    },
    {
      "time": 265.85,
      "type": "on",
      "note": 60,
      "vel": 45,
      "channel": 2
    },
    {
      "time": 265.9384615384615,
      "type": "on",
      "note": 64,
      "vel": 45,
      "channel": 2
    },
    {
      "time": 265.9019230769231,
      "type": "on",
      "note": 71,
      "vel": 45,
      "channel": 2
    },
    {
      "time": 266.0211538461538,
      "type": "on",
      "note": 74,
      "vel": 45,
      "channel": 2
    },
    {
      "time": 265.8519230769231,
      "type": "on",
      "note": 69,
      "vel": 70,
      "channel": 0
    },
    {
      "time": 266.0903846153846,
      "type": "on",
      "note": 83,
      "vel": 50,
      "channel": 0
    },
    {
      "time": 266.30384615384617,
      "type": "on",
      "note": 76,
      "vel": 56,
      "channel": 0
    },
    {
      "time": 266.5615384615385,
      "type": "on",
      "note": 72,
      "vel": 48,
      "channel": 0
    },
    {
      "time": 266.75384615384615,
      "type": "on",
      "note": 69,
      "vel": 70,
      "channel": 0
    },
    {
      "time": 266.9846153846154,
      "type": "on",
      "note": 83,
      "vel": 50,
      "channel": 0
    },
    {
      "time": 267.2346153846154,
      "type": "on",
      "note": 76,
      "vel": 57,
      "channel": 0
    },
    {
      "time": 267.4807692307692,
      "type": "on",
      "note": 72,
      "vel": 47,
      "channel": 0
    },
    {
      "time": 267.6865384615385,
      "type": "on",
      "note": 69,
      "vel": 83,
      "channel": 0
    },
    {
      "time": 267.9307692307692,
      "type": "on",
      "note": 83,
      "vel": 49,
      "channel": 0
    },
    {
      "time": 268.1519230769231,
      "type": "on",
      "note": 76,
      "vel": 64,
      "channel": 0
    },
    {
      "time": 268.3942307692308,
      "type": "on",
      "note": 72,
      "vel": 44,
      "channel": 0
    },
    {
      "time": 268.61346153846154,
      "type": "on",
      "note": 69,
      "vel": 75,
      "channel": 0
    },
    {
      "time": 268.8538461538462,
      "type": "on",
      "note": 83,
      "vel": 41,
      "channel": 0
    },
    {
      "time": 269.0769230769231,
      "type": "on",
      "note": 76,
      "vel": 56,
      "channel": 0
    },
    {
      "time": 269.3115384615385,
      "type": "on",
      "note": 72,
      "vel": 50,
      "channel": 0
    },
    {
      "time": 269.53846153846155,
      "type": "on",
      "note": 29,
      "vel": 60,
      "channel": 1
    },
    {
      "time": 269.58846153846156,
      "type": "on",
      "note": 53,
      "vel": 45,
      "channel": 2
    },
    {
      "time": 269.5846153846154,
      "type": "on",
      "note": 57,
      "vel": 45,
      "channel": 2
    },
    {
      "time": 269.67692307692306,
      "type": "on",
      "note": 60,
      "vel": 45,
      "channel": 2
    },
    {
      "time": 269.69807692307694,
      "type": "on",
      "note": 64,
      "vel": 45,
      "channel": 2
    },
    {
      "time": 269.67884615384617,
      "type": "on",
      "note": 71,
      "vel": 45,
      "channel": 2
    },
    {
      "time": 269.54423076923075,
      "type": "on",
      "note": 65,
      "vel": 70,
      "channel": 0
    },
    {
      "time": 269.75961538461536,
      "type": "on",
      "note": 76,
      "vel": 49,
      "channel": 0
    },
    {
      "time": 269.99807692307695,
      "type": "on",
      "note": 72,
      "vel": 59,
      "channel": 0
    },
    {
      "time": 270.2365384615385,
      "type": "on",
      "note": 69,
      "vel": 40,
      "channel": 0
    },
    {
      "time": 270.4769230769231,
      "type": "on",
      "note": 65,
      "vel": 72,
      "channel": 0
    },
    {
      "time": 270.69615384615383,
      "type": "on",
      "note": 76,
      "vel": 44,
      "channel": 0
    },
    {
      "time": 270.91153846153844,
      "type": "on",
      "note": 72,
      "vel": 55,
      "channel": 0
    },
    {
      "time": 271.1653846153846,
      "type": "on",
      "note": 69,
      "vel": 45,
      "channel": 0
    },
    {
      "time": 271.37692307692305,
      "type": "on",
      "note": 65,
      "vel": 70,
      "channel": 0
    },
    {
      "time": 271.6115384615385,
      "type": "on",
      "note": 76,
      "vel": 44,
      "channel": 0
    },
    {
      "time": 271.8423076923077,
      "type": "on",
      "note": 72,
      "vel": 55,
      "channel": 0
    },
    {
      "time": 272.1,
      "type": "on",
      "note": 69,
      "vel": 47,
      "channel": 0
    },
    {
      "time": 272.30384615384617,
      "type": "on",
      "note": 65,
      "vel": 81,
      "channel": 0
    },
    {
      "time": 272.5403846153846,
      "type": "on",
      "note": 76,
      "vel": 48,
      "channel": 0
    },
    {
      "time": 272.7846153846154,
      "type": "on",
      "note": 72,
      "vel": 61,
      "channel": 0
    },
    {
      "time": 273.00961538461536,
      "type": "on",
      "note": 69,
      "vel": 41,
      "channel": 0
    },
    {
      "time": 273.2307692307692,
      "type": "on",
      "note": 36,
      "vel": 60,
      "channel": 1
    },
    {
      "time": 273.32115384615383,
      "type": "on",
      "note": 48,
      "vel": 45,
      "channel": 2
    },
    {
      "time": 273.29615384615386,
      "type": "on",
      "note": 55,
      "vel": 45,
      "channel": 2
    },
    {
      "time": 273.2730769230769,
      "type": "on",
      "note": 60,
      "vel": 45,
      "channel": 2
    },
    {
      "time": 273.42115384615386,
      "type": "on",
      "note": 62,
      "vel": 45,
      "channel": 2
    },
    {
      "time": 273.23846153846154,
      "type": "on",
      "note": 64,
      "vel": 45,
      "channel": 2
    },
    {
      "time": 273.24615384615385,
      "type": "on",
      "note": 72,
      "vel": 76,
      "channel": 0
    },
    {
      "time": 273.4673076923077,
      "type": "on",
      "note": 79,
      "vel": 45,
      "channel": 0
    },
    {
      "time": 273.69038461538463,
      "type": "on",
      "note": 76,
      "vel": 56,
      "channel": 0
    },
    {
      "time": 273.91346153846155,
      "type": "on",
      "note": 74,
      "vel": 45,
      "channel": 0
    },
    {
      "time": 274.16923076923075,
      "type": "on",
      "note": 72,
      "vel": 80,
      "channel": 0
    },
    {
      "time": 274.4,
      "type": "on",
      "note": 79,
      "vel": 46,
      "channel": 0
    },
    {
      "time": 274.62884615384615,
      "type": "on",
      "note": 76,
      "vel": 64,
      "channel": 0
    },
    {
      "time": 274.8403846153846,
      "type": "on",
      "note": 74,
      "vel": 41,
      "channel": 0
    },
    {
      "time": 275.06538461538463,
      "type": "on",
      "note": 72,
      "vel": 76,
      "channel": 0
    },
    {
      "time": 275.32115384615383,
      "type": "on",
      "note": 79,
      "vel": 44,
      "channel": 0
    },
    {
      "time": 275.55,
      "type": "on",
      "note": 76,
      "vel": 60,
      "channel": 0
    },
    {
      "time": 275.76153846153846,
      "type": "on",
      "note": 74,
      "vel": 41,
      "channel": 0
    },
    {
      "time": 276.01153846153846,
      "type": "on",
      "note": 72,
      "vel": 72,
      "channel": 0
    },
    {
      "time": 276.25,
      "type": "on",
      "note": 79,
      "vel": 44,
      "channel": 0
    },
    {
      "time": 276.4653846153846,
      "type": "on",
      "note": 76,
      "vel": 61,
      "channel": 0
    },
    {
      "time": 276.68461538461537,
      "type": "on",
      "note": 74,
      "vel": 43,
      "channel": 0
    },
    {
      "time": 276.9230769230769,
      "type": "on",
      "note": 40,
      "vel": 60,
      "channel": 1
    },
    {
      "time": 277.0076923076923,
      "type": "on",
      "note": 52,
      "vel": 45,
      "channel": 2
    },
    {
      "time": 276.95384615384614,
      "type": "on",
      "note": 55,
      "vel": 45,
      "channel": 2
    },
    {
      "time": 277.0557692307692,
      "type": "on",
      "note": 59,
      "vel": 45,
      "channel": 2
    },
    {
      "time": 277.0692307692308,
      "type": "on",
      "note": 62,
      "vel": 45,
      "channel": 2
    },
    {
      "time": 277.07115384615383,
      "type": "on",
      "note": 69,
      "vel": 45,
      "channel": 2
    },
    {
      "time": 276.9076923076923,
      "type": "on",
      "note": 67,
      "vel": 71,
      "channel": 0
    },
    {
      "time": 277.16153846153844,
      "type": "on",
      "note": 81,
      "vel": 46,
      "channel": 0
    },
    {
      "time": 277.37692307692305,
      "type": "on",
      "note": 74,
      "vel": 57,
      "channel": 0
    },
    {
      "time": 277.63653846153846,
      "type": "on",
      "note": 71,
      "vel": 42,
      "channel": 0
    },
    {
      "time": 277.85,
      "type": "on",
      "note": 67,
      "vel": 81,
      "channel": 0
    },
    {
      "time": 278.0615384615385,
      "type": "on",
      "note": 81,
      "vel": 48,
      "channel": 0
    },
    {
      "time": 278.3192307692308,
      "type": "on",
      "note": 74,
      "vel": 58,
      "channel": 0
    },
    {
      "time": 278.53076923076924,
      "type": "on",
      "note": 71,
      "vel": 46,
      "channel": 0
    },
    {
      "time": 278.7846153846154,
      "type": "on",
      "note": 67,
      "vel": 72,
      "channel": 0
    },
    {
      "time": 279.00192307692305,
      "type": "on",
      "note": 81,
      "vel": 47,
      "channel": 0
    },
    {
      "time": 279.2173076923077,
      "type": "on",
      "note": 74,
      "vel": 58,
      "channel": 0
    },
    {
      "time": 279.45576923076925,
      "type": "on",
      "note": 71,
      "vel": 45,
      "channel": 0
    },
    {
      "time": 279.6807692307692,
      "type": "on",
      "note": 67,
      "vel": 75,
      "channel": 0
    },
    {
      "time": 279.9384615384615,
      "type": "on",
      "note": 81,
      "vel": 49,
      "channel": 0
    },
    {
      "time": 280.1403846153846,
      "type": "on",
      "note": 74,
      "vel": 64,
      "channel": 0
    },
    {
      "time": 280.3807692307692,
      "type": "on",
      "note": 71,
      "vel": 44,
      "channel": 0
    },
    {
      "time": 280.61538461538464,
      "type": "on",
      "note": 33,
      "vel": 60,
      "channel": 1
    },
    {
      "time": 280.7557692307692,
      "type": "on",
      "note": 57,
      "vel": 45,
      "channel": 2
    },
    {
      "time": 280.78076923076924,
      "type": "on",
      "note": 60,
      "vel": 45,
      "channel": 2
    },
    {
      "time": 280.63653846153846,
      "type": "on",
      "note": 64,
      "vel": 45,
      "channel": 2
    },
    {
      "time": 280.7576923076923,
      "type": "on",
      "note": 71,
      "vel": 45,
      "channel": 2
    },
    {
      "time": 280.74807692307695,
      "type": "on",
      "note": 74,
      "vel": 45,
      "channel": 2
    },
    {
      "time": 280.61538461538464,
      "type": "on",
      "note": 69,
      "vel": 83,
      "channel": 0
    },
    {
      "time": 280.8480769230769,
      "type": "on",
      "note": 83,
      "vel": 41,
      "channel": 0
    },
    {
      "time": 281.07115384615383,
      "type": "on",
      "note": 76,
      "vel": 56,
      "channel": 0
    },
    {
      "time": 281.30384615384617,
      "type": "on",
      "note": 72,
      "vel": 46,
      "channel": 0
    },
    {
      "time": 281.53846153846155,
      "type": "on",
      "note": 69,
      "vel": 75,
      "channel": 0
    },
    {
      "time": 281.775,
      "type": "on",
      "note": 83,
      "vel": 48,
      "channel": 0
    },
    {
      "time": 281.98846153846154,
      "type": "on",
      "note": 76,
      "vel": 58,
      "channel": 0
    },
    {
      "time": 282.24038461538464,
      "type": "on",
      "note": 72,
      "vel": 40,
      "channel": 0
    },
    {
      "time": 282.46923076923076,
      "type": "on",
      "note": 69,
      "vel": 74,
      "channel": 0
    },
    {
      "time": 282.6884615384615,
      "type": "on",
      "note": 83,
      "vel": 41,
      "channel": 0
    },
    {
      "time": 282.9442307692308,
      "type": "on",
      "note": 76,
      "vel": 62,
      "channel": 0
    },
    {
      "time": 283.1653846153846,
      "type": "on",
      "note": 72,
      "vel": 44,
      "channel": 0
    },
    {
      "time": 283.3807692307692,
      "type": "on",
      "note": 69,
      "vel": 80,
      "channel": 0
    },
    {
      "time": 283.6096153846154,
      "type": "on",
      "note": 83,
      "vel": 50,
      "channel": 0
    },
    {
      "time": 283.86538461538464,
      "type": "on",
      "note": 76,
      "vel": 58,
      "channel": 0
    },
    {
      "time": 284.0846153846154,
      "type": "on",
      "note": 72,
      "vel": 50,
      "channel": 0
    },
    {
      "time": 284.3076923076923,
      "type": "on",
      "note": 29,
      "vel": 60,
      "channel": 1
    },
    {
      "time": 284.3980769230769,
      "type": "on",
      "note": 53,
      "vel": 45,
      "channel": 2
    },
    {
      "time": 284.31538461538463,
      "type": "on",
      "note": 57,
      "vel": 45,
      "channel": 2
    },
    {
      "time": 284.41153846153844,
      "type": "on",
      "note": 60,
      "vel": 45,
      "channel": 2
    },
    {
      "time": 284.4153846153846,
      "type": "on",
      "note": 64,
      "vel": 45,
      "channel": 2
    },
    {
      "time": 284.3173076923077,
      "type": "on",
      "note": 71,
      "vel": 45,
      "channel": 2
    },
    {
      "time": 284.3192307692308,
      "type": "on",
      "note": 65,
      "vel": 82,
      "channel": 0
    },
    {
      "time": 284.5326923076923,
      "type": "on",
      "note": 76,
      "vel": 44,
      "channel": 0
    },
    {
      "time": 284.75961538461536,
      "type": "on",
      "note": 72,
      "vel": 64,
      "channel": 0
    },
    {
      "time": 285.0,
      "type": "on",
      "note": 69,
      "vel": 42,
      "channel": 0
    },
    {
      "time": 285.21923076923076,
      "type": "on",
      "note": 65,
      "vel": 71,
      "channel": 0
    },
    {
      "time": 285.4788461538462,
      "type": "on",
      "note": 76,
      "vel": 41,
      "channel": 0
    },
    {
      "time": 285.69038461538463,
      "type": "on",
      "note": 72,
      "vel": 59,
      "channel": 0
    },
    {
      "time": 285.92692307692306,
      "type": "on",
      "note": 69,
      "vel": 46,
      "channel": 0
    },
    {
      "time": 286.16346153846155,
      "type": "on",
      "note": 65,
      "vel": 84,
      "channel": 0
    },
    {
      "time": 286.3942307692308,
      "type": "on",
      "note": 76,
      "vel": 43,
      "channel": 0
    },
    {
      "time": 286.6384615384615,
      "type": "on",
      "note": 72,
      "vel": 58,
      "channel": 0
    },
    {
      "time": 286.83846153846156,
      "type": "on",
      "note": 69,
      "vel": 50,
      "channel": 0
    },
    {
      "time": 287.08653846153845,
      "type": "on",
      "note": 65,
      "vel": 80,
      "channel": 0
    },
    {
      "time": 287.32884615384614,
      "type": "on",
      "note": 76,
      "vel": 43,
      "channel": 0
    },
    {
      "time": 287.53076923076924,
      "type": "on",
      "note": 72,
      "vel": 65,
      "channel": 0
    },
    {
      "time": 287.76153846153846,
      "type": "on",
      "note": 69,
      "vel": 44,
      "channel": 0
    },
    {
      "time": 288.0,
      "type": "on",
      "note": 36,
      "vel": 60,
      "channel": 1
    },
    {
      "time": 288.0557692307692,
      "type": "on",
      "note": 48,
      "vel": 45,
      "channel": 2
    },
    {
      "time": 288.11346153846154,
      "type": "on",
      "note": 55,
      "vel": 45,
      "channel": 2
    },
    {
      "time": 288.17884615384617,
      "type": "on",
      "note": 60,
      "vel": 45,
      "channel": 2
    },
    {
      "time": 288.05192307692306,
      "type": "on",
      "note": 62,
      "vel": 45,
      "channel": 2
    },
    {
      "time": 288.01153846153846,
      "type": "on",
      "note": 64,
      "vel": 45,
      "channel": 2
    },
    {
      "time": 287.98846153846154,
      "type": "on",
      "note": 72,
      "vel": 70,
      "channel": 0
    },
    {
      "time": 288.2365384615385,
      "type": "on",
      "note": 79,
      "vel": 44,
      "channel": 0
    },
    {
      "time": 288.44615384615383,
      "type": "on",
      "note": 76,
      "vel": 59,
      "channel": 0
    },
    {
      "time": 288.70576923076925,
      "type": "on",
      "note": 74,
      "vel": 41,
      "channel": 0
    },
    {
      "time": 288.92884615384617,
      "type": "on",
      "note": 72,
      "vel": 85,
      "channel": 0
    },
    {
      "time": 289.1384615384615,
      "type": "on",
      "note": 79,
      "vel": 41,
      "channel": 0
    },
    {
      "time": 289.38653846153846,
      "type": "on",
      "note": 76,
      "vel": 57,
      "channel": 0
    },
    {
      "time": 289.6307692307692,
      "type": "on",
      "note": 74,
      "vel": 41,
      "channel": 0
    },
    {
      "time": 289.8326923076923,
      "type": "on",
      "note": 72,
      "vel": 82,
      "channel": 0
    },
    {
      "time": 290.0692307692308,
      "type": "on",
      "note": 79,
      "vel": 48,
      "channel": 0
    },
    {
      "time": 290.3057692307692,
      "type": "on",
      "note": 76,
      "vel": 55,
      "channel": 0
    },
    {
      "time": 290.5557692307692,
      "type": "on",
      "note": 74,
      "vel": 45,
      "channel": 0
    },
    {
      "time": 290.7711538461538,
      "type": "on",
      "note": 72,
      "vel": 78,
      "channel": 0
    },
    {
      "time": 290.99038461538464,
      "type": "on",
      "note": 79,
      "vel": 48,
      "channel": 0
    },
    {
      "time": 291.24038461538464,
      "type": "on",
      "note": 76,
      "vel": 65,
      "channel": 0
    },
    {
      "time": 291.46153846153845,
      "type": "on",
      "note": 74,
      "vel": 47,
      "channel": 0
    },
    {
      "time": 291.6923076923077,
      "type": "on",
      "note": 40,
      "vel": 60,
      "channel": 1
    },
    {
      "time": 291.8538461538462,
      "type": "on",
      "note": 52,
      "vel": 45,
      "channel": 2
    },
    {
      "time": 291.7769230769231,
      "type": "on",
      "note": 55,
      "vel": 45,
      "channel": 2
    },
    {
      "time": 291.76153846153846,
      "type": "on",
      "note": 59,
      "vel": 45,
      "channel": 2
    },
    {
      "time": 291.82307692307694,
      "type": "on",
      "note": 62,
      "vel": 45,
      "channel": 2
    },
    {
      "time": 291.8557692307692,
      "type": "on",
      "note": 69,
      "vel": 45,
      "channel": 2
    },
    {
      "time": 291.7019230769231,
      "type": "on",
      "note": 67,
      "vel": 71,
      "channel": 0
    },
    {
      "time": 291.91153846153844,
      "type": "on",
      "note": 81,
      "vel": 48,
      "channel": 0
    },
    {
      "time": 292.17692307692306,
      "type": "on",
      "note": 74,
      "vel": 65,
      "channel": 0
    },
    {
      "time": 292.37115384615385,
      "type": "on",
      "note": 71,
      "vel": 40,
      "channel": 0
    },
    {
      "time": 292.625,
      "type": "on",
      "note": 67,
      "vel": 82,
      "channel": 0
    },
    {
      "time": 292.8615384615385,
      "type": "on",
      "note": 81,
      "vel": 44,
      "channel": 0
    },
    {
      "time": 293.0692307692308,
      "type": "on",
      "note": 74,
      "vel": 65,
      "channel": 0
    },
    {
      "time": 293.32884615384614,
      "type": "on",
      "note": 71,
      "vel": 40,
      "channel": 0
    },
    {
      "time": 293.5403846153846,
      "type": "on",
      "note": 67,
      "vel": 74,
      "channel": 0
    },
    {
      "time": 293.7923076923077,
      "type": "on",
      "note": 81,
      "vel": 40,
      "channel": 0
    },
    {
      "time": 293.98846153846154,
      "type": "on",
      "note": 74,
      "vel": 60,
      "channel": 0
    },
    {
      "time": 294.2442307692308,
      "type": "on",
      "note": 71,
      "vel": 48,
      "channel": 0
    },
    {
      "time": 294.47115384615387,
      "type": "on",
      "note": 67,
      "vel": 82,
      "channel": 0
    },
    {
      "time": 294.69807692307694,
      "type": "on",
      "note": 81,
      "vel": 42,
      "channel": 0
    },
    {
      "time": 294.91153846153844,
      "type": "on",
      "note": 74,
      "vel": 57,
      "channel": 0
    },
    {
      "time": 295.1461538461538,
      "type": "on",
      "note": 71,
      "vel": 50,
      "channel": 0
    },
    {
      "time": 295.38461538461536,
      "type": "on",
      "note": 33,
      "vel": 60,
      "channel": 1
    },
    {
      "time": 295.44807692307694,
      "type": "on",
      "note": 57,
      "vel": 45,
      "channel": 2
    },
    {
      "time": 295.38461538461536,
      "type": "on",
      "note": 60,
      "vel": 45,
      "channel": 2
    },
    {
      "time": 295.50384615384615,
      "type": "on",
      "note": 64,
      "vel": 45,
      "channel": 2
    },
    {
      "time": 295.5576923076923,
      "type": "on",
      "note": 71,
      "vel": 45,
      "channel": 2
    },
    {
      "time": 295.47115384615387,
      "type": "on",
      "note": 74,
      "vel": 45,
      "channel": 2
    },
    {
      "time": 295.38653846153846,
      "type": "on",
      "note": 69,
      "vel": 75,
      "channel": 0
    },
    {
      "time": 295.6038461538462,
      "type": "on",
      "note": 83,
      "vel": 46,
      "channel": 0
    },
    {
      "time": 295.86346153846154,
      "type": "on",
      "note": 76,
      "vel": 55,
      "channel": 0
    },
    {
      "time": 296.0634615384615,
      "type": "on",
      "note": 72,
      "vel": 47,
      "channel": 0
    },
    {
      "time": 296.3076923076923,
      "type": "on",
      "note": 69,
      "vel": 85,
      "channel": 0
    },
    {
      "time": 296.5403846153846,
      "type": "on",
      "note": 83,
      "vel": 45,
      "channel": 0
    },
    {
      "time": 296.7557692307692,
      "type": "on",
      "note": 76,
      "vel": 64,
      "channel": 0
    },
    {
      "time": 296.99807692307695,
      "type": "on",
      "note": 72,
      "vel": 47,
      "channel": 0
    },
    {
      "time": 297.2365384615385,
      "type": "on",
      "note": 69,
      "vel": 85,
      "channel": 0
    },
    {
      "time": 297.4846153846154,
      "type": "on",
      "note": 83,
      "vel": 41,
      "channel": 0
    },
    {
      "time": 297.69038461538463,
      "type": "on",
      "note": 76,
      "vel": 59,
      "channel": 0
    },
    {
      "time": 297.9365384615385,
      "type": "on",
      "note": 72,
      "vel": 48,
      "channel": 0
    },
    {
      "time": 298.16153846153844,
      "type": "on",
      "note": 69,
      "vel": 82,
      "channel": 0
    },
    {
      "time": 298.37692307692305,
      "type": "on",
      "note": 83,
      "vel": 43,
      "channel": 0
    },
    {
      "time": 298.62692307692305,
      "type": "on",
      "note": 76,
      "vel": 55,
      "channel": 0
    },
    {
      "time": 298.8326923076923,
      "type": "on",
      "note": 72,
      "vel": 47,
      "channel": 0
    },
    {
      "time": 299.0769230769231,
      "type": "on",
      "note": 29,
      "vel": 60,
      "channel": 1
    },
    {
      "time": 299.0980769230769,
      "type": "on",
      "note": 53,
      "vel": 45,
      "channel": 2
    },
    {
      "time": 299.175,
      "type": "on",
      "note": 57,
      "vel": 45,
      "channel": 2
    },
    {
      "time": 299.2365384615385,
      "type": "on",
      "note": 60,
      "vel": 45,
      "channel": 2
    },
    {
      "time": 299.1865384615385,
      "type": "on",
      "note": 64,
      "vel": 45,
      "channel": 2
    },
    {
      "time": 299.1942307692308,
      "type": "on",
      "note": 71,
      "vel": 45,
      "channel": 2
    },
    {
      "time": 299.0903846153846,
      "type": "on",
      "note": 65,
      "vel": 83,
      "channel": 0
    },
    {
      "time": 299.32307692307694,
      "type": "on",
      "note": 76,
      "vel": 42,
      "channel": 0
    },
    {
      "time": 299.5576923076923,
      "type": "on",
      "note": 72,
      "vel": 62,
      "channel": 0
    },
    {
      "time": 299.78076923076924,
      "type": "on",
      "note": 69,
      "vel": 45,
      "channel": 0
    },
    {
      "time": 299.99807692307695,
      "type": "on",
      "note": 65,
      "vel": 80,
      "channel": 0
    },
    {
      "time": 300.22115384615387,
      "type": "on",
      "note": 76,
      "vel": 42,
      "channel": 0
    },
    {
      "time": 300.45,
      "type": "on",
      "note": 72,
      "vel": 55,
      "channel": 0
    },
    {
      "time": 300.68461538461537,
      "type": "on",
      "note": 69,
      "vel": 44,
      "channel": 0
    },
    {
      "time": 300.92692307692306,
      "type": "on",
      "note": 65,
      "vel": 73,
      "channel": 0
    },
    {
      "time": 301.15576923076924,
      "type": "on",
      "note": 76,
      "vel": 48,
      "channel": 0
    },
    {
      "time": 301.4,
      "type": "on",
      "note": 72,
      "vel": 56,
      "channel": 0
    },
    {
      "time": 301.63653846153846,
      "type": "on",
      "note": 69,
      "vel": 43,
      "channel": 0
    },
    {
      "time": 301.8519230769231,
      "type": "on",
      "note": 65,
      "vel": 78,
      "channel": 0
    },
    {
      "time": 302.0923076923077,
      "type": "on",
      "note": 76,
      "vel": 45,
      "channel": 0
    },
    {
      "time": 302.3057692307692,
      "type": "on",
      "note": 72,
      "vel": 55,
      "channel": 0
    },
    {
      "time": 302.5557692307692,
      "type": "on",
      "note": 69,
      "vel": 50,
      "channel": 0
    },
    {
      "time": 302.7692307692308,
      "type": "on",
      "note": 36,
      "vel": 60,
      "channel": 1
    },
    {
      "time": 302.8269230769231,
      "type": "on",
      "note": 48,
      "vel": 45,
      "channel": 2
    },
    {
      "time": 302.8173076923077,
      "type": "on",
      "note": 55,
      "vel": 45,
      "channel": 2
    },
    {
      "time": 302.86346153846154,
      "type": "on",
      "note": 60,
      "vel": 45,
      "channel": 2
    },
    {
      "time": 302.88461538461536,
      "type": "on",
      "note": 62,
      "vel": 45,
      "channel": 2
    },
    {
      "time": 302.9365384615385,
      "type": "on",
      "note": 64,
      "vel": 45,
      "channel": 2
    },
    {
      "time": 302.7903846153846,
      "type": "on",
      "note": 72,
      "vel": 73,
      "channel": 0
    },
    {
      "time": 302.99038461538464,
      "type": "on",
      "note": 79,
      "vel": 44,
      "channel": 0
    },
    {
      "time": 303.2346153846154,
      "type": "on",
      "note": 76,
      "vel": 57,
      "channel": 0
    },
    {
      "time": 303.45384615384614,
      "type": "on",
      "note": 74,
      "vel": 46,
      "channel": 0
    },
    {
      "time": 303.6923076923077,
      "type": "on",
      "note": 72,
      "vel": 79,
      "channel": 0
    },
    {
      "time": 303.93461538461537,
      "type": "on",
      "note": 79,
      "vel": 41,
      "channel": 0
    },
    {
      "time": 304.1519230769231,
      "type": "on",
      "note": 76,
      "vel": 60,
      "channel": 0
    },
    {
      "time": 304.37692307692305,
      "type": "on",
      "note": 74,
      "vel": 42,
      "channel": 0
    },
    {
      "time": 304.6019230769231,
      "type": "on",
      "note": 72,
      "vel": 73,
      "channel": 0
    },
    {
      "time": 304.8538461538462,
      "type": "on",
      "note": 79,
      "vel": 50,
      "channel": 0
    },
    {
      "time": 305.07884615384614,
      "type": "on",
      "note": 76,
      "vel": 55,
      "channel": 0
    },
    {
      "time": 305.2980769230769,
      "type": "on",
      "note": 74,
      "vel": 42,
      "channel": 0
    },
    {
      "time": 305.5269230769231,
      "type": "on",
      "note": 72,
      "vel": 71,
      "channel": 0
    },
    {
      "time": 305.78076923076924,
      "type": "on",
      "note": 79,
      "vel": 44,
      "channel": 0
    },
    {
      "time": 306.0076923076923,
      "type": "on",
      "note": 76,
      "vel": 62,
      "channel": 0
    },
    {
      "time": 306.24807692307695,
      "type": "on",
      "note": 74,
      "vel": 48,
      "channel": 0
    },
    {
      "time": 306.46153846153845,
      "type": "on",
      "note": 40,
      "vel": 60,
      "channel": 1
    },
    {
      "time": 306.4846153846154,
      "type": "on",
      "note": 52,
      "vel": 45,
      "channel": 2
    },
    {
      "time": 306.65384615384613,
      "type": "on",
      "note": 55,
      "vel": 45,
      "channel": 2
    },
    {
      "time": 306.4865384615385,
      "type": "on",
      "note": 59,
      "vel": 45,
      "channel": 2
    },
    {
      "time": 306.6519230769231,
      "type": "on",
      "note": 62,
      "vel": 45,
      "channel": 2
    },
    {
      "time": 306.5576923076923,
      "type": "on",
      "note": 69,
      "vel": 45,
      "channel": 2
    },
    {
      "time": 306.48269230769233,
      "type": "on",
      "note": 67,
      "vel": 77,
      "channel": 0
    },
    {
      "time": 306.70576923076925,
      "type": "on",
      "note": 81,
      "vel": 40,
      "channel": 0
    },
    {
      "time": 306.9096153846154,
      "type": "on",
      "note": 74,
      "vel": 60,
      "channel": 0
    },
    {
      "time": 307.1730769230769,
      "type": "on",
      "note": 71,
      "vel": 41,
      "channel": 0
    },
    {
      "time": 307.37115384615385,
      "type": "on",
      "note": 67,
      "vel": 84,
      "channel": 0
    },
    {
      "time": 307.625,
      "type": "on",
      "note": 81,
      "vel": 48,
      "channel": 0
    },
    {
      "time": 307.86538461538464,
      "type": "on",
      "note": 74,
      "vel": 61,
      "channel": 0
    },
    {
      "time": 308.07884615384614,
      "type": "on",
      "note": 71,
      "vel": 41,
      "channel": 0
    },
    {
      "time": 308.30384615384617,
      "type": "on",
      "note": 67,
      "vel": 75,
      "channel": 0
    },
    {
      "time": 308.5557692307692,
      "type": "on",
      "note": 81,
      "vel": 46,
      "channel": 0
    },
    {
      "time": 308.7769230769231,
      "type": "on",
      "note": 74,
      "vel": 56,
      "channel": 0
    },
    {
      "time": 309.0134615384615,
      "type": "on",
      "note": 71,
      "vel": 49,
      "channel": 0
    },
    {
      "time": 309.25192307692305,
      "type": "on",
      "note": 67,
      "vel": 82,
      "channel": 0
    },
    {
      "time": 309.4519230769231,
      "type": "on",
      "note": 81,
      "vel": 49,
      "channel": 0
    },
    {
      "time": 309.69807692307694,
      "type": "on",
      "note": 74,
      "vel": 60,
      "channel": 0
    },
    {
      "time": 309.925,
      "type": "on",
      "note": 71,
      "vel": 43,
      "channel": 0
    },
    {
      "time": 310.15384615384613,
      "type": "on",
      "note": 33,
      "vel": 60,
      "channel": 1
    },
    {
      "time": 310.19807692307694,
      "type": "on",
      "note": 57,
      "vel": 45,
      "channel": 2
    },
    {
      "time": 310.2903846153846,
      "type": "on",
      "note": 60,
      "vel": 45,
      "channel": 2
    },
    {
      "time": 310.2846153846154,
      "type": "on",
      "note": 64,
      "vel": 45,
      "channel": 2
    },
    {
      "time": 310.28846153846155,
      "type": "on",
      "note": 71,
      "vel": 45,
      "channel": 2
    },
    {
      "time": 310.2557692307692,
      "type": "on",
      "note": 74,
      "vel": 45,
      "channel": 2
    },
    {
      "time": 310.175,
      "type": "on",
      "note": 69,
      "vel": 80,
      "channel": 0
    },
    {
      "time": 310.37307692307695,
      "type": "on",
      "note": 83,
      "vel": 46,
      "channel": 0
    },
    {
      "time": 310.6326923076923,
      "type": "on",
      "note": 76,
      "vel": 59,
      "channel": 0
    },
    {
      "time": 310.8673076923077,
      "type": "on",
      "note": 72,
      "vel": 41,
      "channel": 0
    },
    {
      "time": 311.0673076923077,
      "type": "on",
      "note": 69,
      "vel": 79,
      "channel": 0
    },
    {
      "time": 311.3269230769231,
      "type": "on",
      "note": 83,
      "vel": 42,
      "channel": 0
    },
    {
      "time": 311.5480769230769,
      "type": "on",
      "note": 76,
      "vel": 55,
      "channel": 0
    },
    {
      "time": 311.78653846153844,
      "type": "on",
      "note": 72,
      "vel": 43,
      "channel": 0
    },
    {
      "time": 312.0134615384615,
      "type": "on",
      "note": 69,
      "vel": 70,
      "channel": 0
    },
    {
      "time": 312.2442307692308,
      "type": "on",
      "note": 83,
      "vel": 49,
      "channel": 0
    },
    {
      "time": 312.4730769230769,
      "type": "on",
      "note": 76,
      "vel": 62,
      "channel": 0
    },
    {
      "time": 312.7076923076923,
      "type": "on",
      "note": 72,
      "vel": 40,
      "channel": 0
    },
    {
      "time": 312.9423076923077,
      "type": "on",
      "note": 69,
      "vel": 82,
      "channel": 0
    },
    {
      "time": 313.17692307692306,
      "type": "on",
      "note": 83,
      "vel": 48,
      "channel": 0
    },
    {
      "time": 313.3942307692308,
      "type": "on",
      "note": 76,
      "vel": 65,
      "channel": 0
    },
    {
      "time": 313.6115384615385,
      "type": "on",
      "note": 72,
      "vel": 47,
      "channel": 0
    },
    {
      "time": 313.84615384615387,
      "type": "on",
      "note": 29,
      "vel": 60,
      "channel": 1
    },
    {
      "time": 313.86346153846154,
      "type": "on",
      "note": 53,
      "vel": 45,
      "channel": 2
    },
    {
      "time": 313.9307692307692,
      "type": "on",
      "note": 57,
      "vel": 45,
      "channel": 2
    },
    {
      "time": 314.0192307692308,
      "type": "on",
      "note": 60,
      "vel": 45,
      "channel": 2
    },
    {
      "time": 313.84615384615387,
      "type": "on",
      "note": 64,
      "vel": 45,
      "channel": 2
    },
    {
      "time": 313.87692307692305,
      "type": "on",
      "note": 71,
      "vel": 45,
      "channel": 2
    },
    {
      "time": 313.83653846153845,
      "type": "on",
      "note": 65,
      "vel": 83,
      "channel": 0
    },
    {
      "time": 314.0769230769231,
      "type": "on",
      "note": 76,
      "vel": 46,
      "channel": 0
    },
    {
      "time": 314.3192307692308,
      "type": "on",
      "note": 72,
      "vel": 61,
      "channel": 0
    },
    {
      "time": 314.5615384615385,
      "type": "on",
      "note": 69,
      "vel": 45,
      "channel": 0
    },
    {
      "time": 314.77884615384613,
      "type": "on",
      "note": 65,
      "vel": 84,
      "channel": 0
    },
    {
      "time": 314.99807692307695,
      "type": "on",
      "note": 76,
      "vel": 46,
      "channel": 0
    },
    {
      "time": 315.2307692307692,
      "type": "on",
      "note": 72,
      "vel": 65,
      "channel": 0
    },
    {
      "time": 315.44615384615383,
      "type": "on",
      "note": 69,
      "vel": 40,
      "channel": 0
    },
    {
      "time": 315.7153846153846,
      "type": "on",
      "note": 65,
      "vel": 72,
      "channel": 0
    },
    {
      "time": 315.9365384615385,
      "type": "on",
      "note": 76,
      "vel": 50,
      "channel": 0
    },
    {
      "time": 316.1653846153846,
      "type": "on",
      "note": 72,
      "vel": 58,
      "channel": 0
    },
    {
      "time": 316.3884615384615,
      "type": "on",
      "note": 69,
      "vel": 42,
      "channel": 0
    },
    {
      "time": 316.6038461538462,
      "type": "on",
      "note": 65,
      "vel": 75,
      "channel": 0
    },
    {
      "time": 316.8423076923077,
      "type": "on",
      "note": 76,
      "vel": 43,
      "channel": 0
    },
    {
      "time": 317.0903846153846,
      "type": "on",
      "note": 72,
      "vel": 64,
      "channel": 0
    },
    {
      "time": 317.29423076923075,
      "type": "on",
      "note": 69,
      "vel": 42,
      "channel": 0
    },
    {
      "time": 317.53846153846155,
      "type": "on",
      "note": 36,
      "vel": 60,
      "channel": 1
    },
    {
      "time": 317.6576923076923,
      "type": "on",
      "note": 48,
      "vel": 45,
      "channel": 2
    },
    {
      "time": 317.6596153846154,
      "type": "on",
      "note": 55,
      "vel": 45,
      "channel": 2
    },
    {
      "time": 317.58846153846156,
      "type": "on",
      "note": 60,
      "vel": 45,
      "channel": 2
    },
    {
      "time": 317.6,
      "type": "on",
      "note": 62,
      "vel": 45,
      "channel": 2
    },
    {
      "time": 317.61346153846154,
      "type": "on",
      "note": 64,
      "vel": 45,
      "channel": 2
    },
    {
      "time": 317.53653846153844,
      "type": "on",
      "note": 72,
      "vel": 77,
      "channel": 0
    },
    {
      "time": 317.7653846153846,
      "type": "on",
      "note": 79,
      "vel": 49,
      "channel": 0
    },
    {
      "time": 318.00961538461536,
      "type": "on",
      "note": 76,
      "vel": 65,
      "channel": 0
    },
    {
      "time": 318.24807692307695,
      "type": "on",
      "note": 74,
      "vel": 46,
      "channel": 0
    },
    {
      "time": 318.4576923076923,
      "type": "on",
      "note": 72,
      "vel": 76,
      "channel": 0
    },
    {
      "time": 318.7019230769231,
      "type": "on",
      "note": 79,
      "vel": 50,
      "channel": 0
    },
    {
      "time": 318.92884615384617,
      "type": "on",
      "note": 76,
      "vel": 65,
      "channel": 0
    },
    {
      "time": 319.1673076923077,
      "type": "on",
      "note": 74,
      "vel": 46,
      "channel": 0
    },
    {
      "time": 319.4076923076923,
      "type": "on",
      "note": 72,
      "vel": 82,
      "channel": 0
    },
    {
      "time": 319.6057692307692,
      "type": "on",
      "note": 79,
      "vel": 48,
      "channel": 0
    },
    {
      "time": 319.85,
      "type": "on",
      "note": 76,
      "vel": 65,
      "channel": 0
    },
    {
      "time": 320.08846153846156,
      "type": "on",
      "note": 74,
      "vel": 40,
      "channel": 0
    },
    {
      "time": 320.33076923076925,
      "type": "on",
      "note": 72,
      "vel": 76,
      "channel": 0
    },
    {
      "time": 320.55961538461537,
      "type": "on",
      "note": 79,
      "vel": 40,
      "channel": 0
    },
    {
      "time": 320.7769230769231,
      "type": "on",
      "note": 76,
      "vel": 63,
      "channel": 0
    },
    {
      "time": 321.0192307692308,
      "type": "on",
      "note": 74,
      "vel": 44,
      "channel": 0
    },
    {
      "time": 321.2307692307692,
      "type": "on",
      "note": 40,
      "vel": 60,
      "channel": 1
    },
    {
      "time": 321.3596153846154,
      "type": "on",
      "note": 52,
      "vel": 45,
      "channel": 2
    },
    {
      "time": 321.38653846153846,
      "type": "on",
      "note": 55,
      "vel": 45,
      "channel": 2
    },
    {
      "time": 321.28653846153844,
      "type": "on",
      "note": 59,
      "vel": 45,
      "channel": 2
    },
    {
      "time": 321.31538461538463,
      "type": "on",
      "note": 62,
      "vel": 45,
      "channel": 2
    },
    {
      "time": 321.2692307692308,
      "type": "on",
      "note": 69,
      "vel": 45,
      "channel": 2
    },
    {
      "time": 321.2423076923077,
      "type": "on",
      "note": 67,
      "vel": 74,
      "channel": 0
    },
    {
      "time": 321.4730769230769,
      "type": "on",
      "note": 81,
      "vel": 48,
      "channel": 0
    },
    {
      "time": 321.70576923076925,
      "type": "on",
      "note": 74,
      "vel": 61,
      "channel": 0
    },
    {
      "time": 321.9307692307692,
      "type": "on",
      "note": 71,
      "vel": 40,
      "channel": 0
    },
    {
      "time": 322.1384615384615,
      "type": "on",
      "note": 67,
      "vel": 70,
      "channel": 0
    },
    {
      "time": 322.38461538461536,
      "type": "on",
      "note": 81,
      "vel": 48,
      "channel": 0
    },
    {
      "time": 322.6057692307692,
      "type": "on",
      "note": 74,
      "vel": 62,
      "channel": 0
    },
    {
      "time": 322.8596153846154,
      "type": "on",
      "note": 71,
      "vel": 42,
      "channel": 0
    },
    {
      "time": 323.0826923076923,
      "type": "on",
      "note": 67,
      "vel": 83,
      "channel": 0
    },
    {
      "time": 323.3057692307692,
      "type": "on",
      "note": 81,
      "vel": 46,
      "channel": 0
    },
    {
      "time": 323.5326923076923,
      "type": "on",
      "note": 74,
      "vel": 62,
      "channel": 0
    },
    {
      "time": 323.7903846153846,
      "type": "on",
      "note": 71,
      "vel": 50,
      "channel": 0
    },
    {
      "time": 324.01730769230767,
      "type": "on",
      "note": 67,
      "vel": 78,
      "channel": 0
    },
    {
      "time": 324.2442307692308,
      "type": "on",
      "note": 81,
      "vel": 40,
      "channel": 0
    },
    {
      "time": 324.475,
      "type": "on",
      "note": 74,
      "vel": 61,
      "channel": 0
    },
    {
      "time": 324.70576923076925,
      "type": "on",
      "note": 71,
      "vel": 46,
      "channel": 0
    },
    {
      "time": 324.9230769230769,
      "type": "on",
      "note": 33,
      "vel": 60,
      "channel": 1
    },
    {
      "time": 324.9384615384615,
      "type": "on",
      "note": 57,
      "vel": 45,
      "channel": 2
    },
    {
      "time": 325.0057692307692,
      "type": "on",
      "note": 60,
      "vel": 45,
      "channel": 2
    },
    {
      "time": 325.00961538461536,
      "type": "on",
      "note": 64,
      "vel": 45,
      "channel": 2
    },
    {
      "time": 325.11538461538464,
      "type": "on",
      "note": 71,
      "vel": 45,
      "channel": 2
    },
    {
      "time": 324.9730769230769,
      "type": "on",
      "note": 74,
      "vel": 45,
      "channel": 2
    },
    {
      "time": 324.9307692307692,
      "type": "on",
      "note": 69,
      "vel": 71,
      "channel": 0
    },
    {
      "time": 325.1730769230769,
      "type": "on",
      "note": 83,
      "vel": 47,
      "channel": 0
    },
    {
      "time": 325.3692307692308,
      "type": "on",
      "note": 76,
      "vel": 60,
      "channel": 0
    },
    {
      "time": 325.6057692307692,
      "type": "on",
      "note": 72,
      "vel": 50,
      "channel": 0
    },
    {
      "time": 325.85769230769233,
      "type": "on",
      "note": 69,
      "vel": 83,
      "channel": 0
    },
    {
      "time": 326.0903846153846,
      "type": "on",
      "note": 83,
      "vel": 40,
      "channel": 0
    },
    {
      "time": 326.3076923076923,
      "type": "on",
      "note": 76,
      "vel": 62,
      "channel": 0
    },
    {
      "time": 326.5230769230769,
      "type": "on",
      "note": 72,
      "vel": 45,
      "channel": 0
    },
    {
      "time": 326.78653846153844,
      "type": "on",
      "note": 69,
      "vel": 83,
      "channel": 0
    },
    {
      "time": 326.98846153846154,
      "type": "on",
      "note": 83,
      "vel": 40,
      "channel": 0
    },
    {
      "time": 327.2173076923077,
      "type": "on",
      "note": 76,
      "vel": 60,
      "channel": 0
    },
    {
      "time": 327.4807692307692,
      "type": "on",
      "note": 72,
      "vel": 40,
      "channel": 0
    },
    {
      "time": 327.67692307692306,
      "type": "on",
      "note": 69,
      "vel": 83,
      "channel": 0
    },
    {
      "time": 327.91153846153844,
      "type": "on",
      "note": 83,
      "vel": 42,
      "channel": 0
    },
    {
      "time": 328.17115384615386,
      "type": "on",
      "note": 76,
      "vel": 61,
      "channel": 0
    },
    {
      "time": 328.3884615384615,
      "type": "on",
      "note": 72,
      "vel": 47,
      "channel": 0
    },
    {
      "time": 328.61538461538464,
      "type": "on",
      "note": 29,
      "vel": 60,
      "channel": 1
    },
    {
      "time": 328.67692307692306,
      "type": "on",
      "note": 53,
      "vel": 45,
      "channel": 2
    },
    {
      "time": 328.73846153846154,
      "type": "on",
      "note": 57,
      "vel": 45,
      "channel": 2
    },
    {
      "time": 328.68461538461537,
      "type": "on",
      "note": 60,
      "vel": 45,
      "channel": 2
    },
    {
      "time": 328.75384615384615,
      "type": "on",
      "note": 64,
      "vel": 45,
      "channel": 2
    },
    {
      "time": 328.69807692307694,
      "type": "on",
      "note": 71,
      "vel": 45,
      "channel": 2
    },
    {
      "time": 328.6326923076923,
      "type": "on",
      "note": 65,
      "vel": 78,
      "channel": 0
    },
    {
      "time": 328.8673076923077,
      "type": "on",
      "note": 76,
      "vel": 50,
      "channel": 0
    },
    {
      "time": 329.0692307692308,
      "type": "on",
      "note": 72,
      "vel": 65,
      "channel": 0
    },
    {
      "time": 329.3269230769231,
      "type": "on",
      "note": 69,
      "vel": 41,
      "channel": 0
    },
    {
      "time": 329.55384615384617,
      "type": "on",
      "note": 65,
      "vel": 77,
      "channel": 0
    },
    {
      "time": 329.775,
      "type": "on",
      "note": 76,
      "vel": 40,
      "channel": 0
    },
    {
      "time": 329.9923076923077,
      "type": "on",
      "note": 72,
      "vel": 58,
      "channel": 0
    },
    {
      "time": 330.24807692307695,
      "type": "on",
      "note": 69,
      "vel": 43,
      "channel": 0
    },
    {
      "time": 330.44807692307694,
      "type": "on",
      "note": 65,
      "vel": 75,
      "channel": 0
    },
    {
      "time": 330.69038461538463,
      "type": "on",
      "note": 76,
      "vel": 44,
      "channel": 0
    },
    {
      "time": 330.9076923076923,
      "type": "on",
      "note": 72,
      "vel": 59,
      "channel": 0
    },
    {
      "time": 331.1403846153846,
      "type": "on",
      "note": 69,
      "vel": 44,
      "channel": 0
    },
    {
      "time": 331.3807692307692,
      "type": "on",
      "note": 65,
      "vel": 79,
      "channel": 0
    },
    {
      "time": 331.6115384615385,
      "type": "on",
      "note": 76,
      "vel": 42,
      "channel": 0
    },
    {
      "time": 331.83846153846156,
      "type": "on",
      "note": 72,
      "vel": 59,
      "channel": 0
    },
    {
      "time": 332.08076923076925,
      "type": "on",
      "note": 69,
      "vel": 50,
      "channel": 0
    },
    {
      "time": 332.3076923076923,
      "type": "on",
      "note": 36,
      "vel": 60,
      "channel": 1
    },
    {
      "time": 332.32307692307694,
      "type": "on",
      "note": 48,
      "vel": 45,
      "channel": 2
    },
    {
      "time": 332.39230769230767,
      "type": "on",
      "note": 55,
      "vel": 45,
      "channel": 2
    },
    {
      "time": 332.44807692307694,
      "type": "on",
      "note": 60,
      "vel": 45,
      "channel": 2
    },
    {
      "time": 332.3173076923077,
      "type": "on",
      "note": 62,
      "vel": 45,
      "channel": 2
    },
    {
      "time": 332.3076923076923,
      "type": "on",
      "note": 64,
      "vel": 45,
      "channel": 2
    },
    {
      "time": 332.31538461538463,
      "type": "on",
      "note": 72,
      "vel": 76,
      "channel": 0
    },
    {
      "time": 332.55384615384617,
      "type": "on",
      "note": 79,
      "vel": 40,
      "channel": 0
    },
    {
      "time": 332.77884615384613,
      "type": "on",
      "note": 76,
      "vel": 61,
      "channel": 0
    },
    {
      "time": 332.98846153846154,
      "type": "on",
      "note": 74,
      "vel": 49,
      "channel": 0
    },
    {
      "time": 333.24038461538464,
      "type": "on",
      "note": 72,
      "vel": 72,
      "channel": 0
    },
    {
      "time": 333.45384615384614,
      "type": "on",
      "note": 79,
      "vel": 41,
      "channel": 0
    },
    {
      "time": 333.6884615384615,
      "type": "on",
      "note": 76,
      "vel": 56,
      "channel": 0
    },
    {
      "time": 333.9076923076923,
      "type": "on",
      "note": 74,
      "vel": 41,
      "channel": 0
    },
    {
      "time": 334.17115384615386,
      "type": "on",
      "note": 72,
      "vel": 81,
      "channel": 0
    },
    {
      "time": 334.38653846153846,
      "type": "on",
      "note": 79,
      "vel": 42,
      "channel": 0
    },
    {
      "time": 334.60769230769233,
      "type": "on",
      "note": 76,
      "vel": 63,
      "channel": 0
    },
    {
      "time": 334.8673076923077,
      "type": "on",
      "note": 74,
      "vel": 44,
      "channel": 0
    },
    {
      "time": 335.1,
      "type": "on",
      "note": 72,
      "vel": 74,
      "channel": 0
    },
    {
      "time": 335.3173076923077,
      "type": "on",
      "note": 79,
      "vel": 49,
      "channel": 0
    },
    {
      "time": 335.55,
      "type": "on",
      "note": 76,
      "vel": 55,
      "channel": 0
    },
    {
      "time": 335.76730769230767,
      "type": "on",
      "note": 74,
      "vel": 41,
      "channel": 0
    },
    {
      "time": 336.0,
      "type": "on",
      "note": 40,
      "vel": 60,
      "channel": 1
    },
    {
      "time": 336.1673076923077,
      "type": "on",
      "note": 52,
      "vel": 45,
      "channel": 2
    },
    {
      "time": 336.0557692307692,
      "type": "on",
      "note": 55,
      "vel": 45,
      "channel": 2
    },
    {
      "time": 336.0634615384615,
      "type": "on",
      "note": 59,
      "vel": 45,
      "channel": 2
    },
    {
      "time": 336.1038461538462,
      "type": "on",
      "note": 62,
      "vel": 45,
      "channel": 2
    },
    {
      "time": 336.0423076923077,
      "type": "on",
      "note": 69,
      "vel": 45,
      "channel": 2
    },
    {
      "time": 336.00192307692305,
      "type": "on",
      "note": 67,
      "vel": 82,
      "channel": 0
    },
    {
      "time": 336.21923076923076,
      "type": "on",
      "note": 81,
      "vel": 47,
      "channel": 0
    },
    {
      "time": 336.45,
      "type": "on",
      "note": 74,
      "vel": 61,
      "channel": 0
    },
    {
      "time": 336.6884615384615,
      "type": "on",
      "note": 71,
      "vel": 50,
      "channel": 0
    },
    {
      "time": 336.9153846153846,
      "type": "on",
      "note": 67,
      "vel": 84,
      "channel": 0
    },
    {
      "time": 337.1442307692308,
      "type": "on",
      "note": 81,
      "vel": 50,
      "channel": 0
    },
    {
      "time": 337.40576923076924,
      "type": "on",
      "note": 74,
      "vel": 61,
      "channel": 0
    },
    {
      "time": 337.6173076923077,
      "type": "on",
      "note": 71,
      "vel": 41,
      "channel": 0
    },
    {
      "time": 337.8346153846154,
      "type": "on",
      "note": 67,
      "vel": 76,
      "channel": 0
    },
    {
      "time": 338.0769230769231,
      "type": "on",
      "note": 81,
      "vel": 41,
      "channel": 0
    },
    {
      "time": 338.2980769230769,
      "type": "on",
      "note": 74,
      "vel": 64,
      "channel": 0
    },
    {
      "time": 338.54615384615386,
      "type": "on",
      "note": 71,
      "vel": 50,
      "channel": 0
    },
    {
      "time": 338.7923076923077,
      "type": "on",
      "note": 67,
      "vel": 77,
      "channel": 0
    },
    {
      "time": 339.0192307692308,
      "type": "on",
      "note": 81,
      "vel": 40,
      "channel": 0
    },
    {
      "time": 339.2442307692308,
      "type": "on",
      "note": 74,
      "vel": 60,
      "channel": 0
    },
    {
      "time": 339.45576923076925,
      "type": "on",
      "note": 71,
      "vel": 45,
      "channel": 0
    },
    {
      "time": 339.6923076923077,
      "type": "on",
      "note": 33,
      "vel": 60,
      "channel": 1
    },
    {
      "time": 339.7346153846154,
      "type": "on",
      "note": 57,
      "vel": 45,
      "channel": 2
    },
    {
      "time": 339.87307692307695,
      "type": "on",
      "note": 60,
      "vel": 45,
      "channel": 2
    },
    {
      "time": 339.8192307692308,
      "type": "on",
      "note": 64,
      "vel": 45,
      "channel": 2
    },
    {
      "time": 339.87884615384615,
      "type": "on",
      "note": 71,
      "vel": 45,
      "channel": 2
    },
    {
      "time": 339.73846153846154,
      "type": "on",
      "note": 74,
      "vel": 45,
      "channel": 2
    },
    {
      "time": 339.6807692307692,
      "type": "on",
      "note": 69,
      "vel": 82,
      "channel": 0
    },
    {
      "time": 339.9384615384615,
      "type": "on",
      "note": 83,
      "vel": 44,
      "channel": 0
    },
    {
      "time": 340.1519230769231,
      "type": "on",
      "note": 76,
      "vel": 62,
      "channel": 0
    },
    {
      "time": 340.39230769230767,
      "type": "on",
      "note": 72,
      "vel": 50,
      "channel": 0
    },
    {
      "time": 340.6,
      "type": "on",
      "note": 69,
      "vel": 70,
      "channel": 0
    },
    {
      "time": 340.86346153846154,
      "type": "on",
      "note": 83,
      "vel": 43,
      "channel": 0
    },
    {
      "time": 341.09423076923076,
      "type": "on",
      "note": 76,
      "vel": 59,
      "channel": 0
    },
    {
      "time": 341.30192307692306,
      "type": "on",
      "note": 72,
      "vel": 45,
      "channel": 0
    },
    {
      "time": 341.525,
      "type": "on",
      "note": 69,
      "vel": 79,
      "channel": 0
    },
    {
      "time": 341.7692307692308,
      "type": "on",
      "note": 83,
      "vel": 45,
      "channel": 0
    },
    {
      "time": 342.0211538461538,
      "type": "on",
      "note": 76,
      "vel": 62,
      "channel": 0
    },
    {
      "time": 342.2269230769231,
      "type": "on",
      "note": 72,
      "vel": 43,
      "channel": 0
    },
    {
      "time": 342.4807692307692,
      "type": "on",
      "note": 69,
      "vel": 84,
      "channel": 0
    },
    {
      "time": 342.71346153846156,
      "type": "on",
      "note": 83,
      "vel": 45,
      "channel": 0
    },
    {
      "time": 342.91923076923075,
      "type": "on",
      "note": 76,
      "vel": 65,
      "channel": 0
    },
    {
      "time": 343.1442307692308,
      "type": "on",
      "note": 72,
      "vel": 48,
      "channel": 0
    },
    {
      "time": 343.38461538461536,
      "type": "on",
      "note": 29,
      "vel": 60,
      "channel": 1
    },
    {
      "time": 343.4365384615385,
      "type": "on",
      "note": 53,
      "vel": 45,
      "channel": 2
    },
    {
      "time": 343.575,
      "type": "on",
      "note": 57,
      "vel": 45,
      "channel": 2
    },
    {
      "time": 343.42692307692306,
      "type": "on",
      "note": 60,
      "vel": 45,
      "channel": 2
    },
    {
      "time": 343.50961538461536,
      "type": "on",
      "note": 64,
      "vel": 45,
      "channel": 2
    },
    {
      "time": 343.44615384615383,
      "type": "on",
      "note": 71,
      "vel": 45,
      "channel": 2
    },
    {
      "time": 343.37307692307695,
      "type": "on",
      "note": 65,
      "vel": 78,
      "channel": 0
    },
    {
      "time": 343.62884615384615,
      "type": "on",
      "note": 76,
      "vel": 41,
      "channel": 0
    },
    {
      "time": 343.83076923076925,
      "type": "on",
      "note": 72,
      "vel": 60,
      "channel": 0
    },
    {
      "time": 344.0692307692308,
      "type": "on",
      "note": 69,
      "vel": 46,
      "channel": 0
    },
    {
      "time": 344.30192307692306,
      "type": "on",
      "note": 65,
      "vel": 76,
      "channel": 0
    },
    {
      "time": 344.55,
      "type": "on",
      "note": 76,
      "vel": 48,
      "channel": 0
    },
    {
      "time": 344.76153846153846,
      "type": "on",
      "note": 72,
      "vel": 57,
      "channel": 0
    },
    {
      "time": 345.0192307692308,
      "type": "on",
      "note": 69,
      "vel": 45,
      "channel": 0
    },
    {
      "time": 345.2307692307692,
      "type": "on",
      "note": 65,
      "vel": 71,
      "channel": 0
    },
    {
      "time": 345.46346153846156,
      "type": "on",
      "note": 76,
      "vel": 41,
      "channel": 0
    },
    {
      "time": 345.7019230769231,
      "type": "on",
      "note": 72,
      "vel": 63,
      "channel": 0
    },
    {
      "time": 345.9307692307692,
      "type": "on",
      "note": 69,
      "vel": 44,
      "channel": 0
    },
    {
      "time": 346.14230769230767,
      "type": "on",
      "note": 65,
      "vel": 77,
      "channel": 0
    },
    {
      "time": 346.3826923076923,
      "type": "on",
      "note": 76,
      "vel": 45,
      "channel": 0
    },
    {
      "time": 346.63461538461536,
      "type": "on",
      "note": 72,
      "vel": 60,
      "channel": 0
    },
    {
      "time": 346.8346153846154,
      "type": "on",
      "note": 69,
      "vel": 46,
      "channel": 0
    },
    {
      "time": 347.0769230769231,
      "type": "on",
      "note": 36,
      "vel": 60,
      "channel": 1
    },
    {
      "time": 347.14230769230767,
      "type": "on",
      "note": 48,
      "vel": 45,
      "channel": 2
    },
    {
      "time": 347.1038461538462,
      "type": "on",
      "note": 55,
      "vel": 45,
      "channel": 2
    },
    {
      "time": 347.2096153846154,
      "type": "on",
      "note": 60,
      "vel": 45,
      "channel": 2
    },
    {
      "time": 347.2365384615385,
      "type": "on",
      "note": 62,
      "vel": 45,
      "channel": 2
    },
    {
      "time": 347.17115384615386,
      "type": "on",
      "note": 64,
      "vel": 45,
      "channel": 2
    },
    {
      "time": 347.0692307692308,
      "type": "on",
      "note": 72,
      "vel": 77,
      "channel": 0
    },
    {
      "time": 347.29615384615386,
      "type": "on",
      "note": 79,
      "vel": 48,
      "channel": 0
    },
    {
      "time": 347.5557692307692,
      "type": "on",
      "note": 76,
      "vel": 60,
      "channel": 0
    },
    {
      "time": 347.7557692307692,
      "type": "on",
      "note": 74,
      "vel": 50,
      "channel": 0
    },
    {
      "time": 347.99807692307695,
      "type": "on",
      "note": 72,
      "vel": 82,
      "channel": 0
    },
    {
      "time": 348.22115384615387,
      "type": "on",
      "note": 79,
      "vel": 49,
      "channel": 0
    },
    {
      "time": 348.4807692307692,
      "type": "on",
      "note": 76,
      "vel": 64,
      "channel": 0
    },
    {
      "time": 348.71346153846156,
      "type": "on",
      "note": 74,
      "vel": 48,
      "channel": 0
    },
    {
      "time": 348.9326923076923,
      "type": "on",
      "note": 72,
      "vel": 79,
      "channel": 0
    },
    {
      "time": 349.1442307692308,
      "type": "on",
      "note": 79,
      "vel": 46,
      "channel": 0
    },
    {
      "time": 349.40384615384613,
      "type": "on",
      "note": 76,
      "vel": 56,
      "channel": 0
    },
    {
      "time": 349.6173076923077,
      "type": "on",
      "note": 74,
      "vel": 43,
      "channel": 0
    },
    {
      "time": 349.8596153846154,
      "type": "on",
      "note": 72,
      "vel": 83,
      "channel": 0
    },
    {
      "time": 350.08653846153845,
      "type": "on",
      "note": 79,
      "vel": 45,
      "channel": 0
    },
    {
      "time": 350.3057692307692,
      "type": "on",
      "note": 76,
      "vel": 59,
      "channel": 0
    },
    {
      "time": 350.5615384615385,
      "type": "on",
      "note": 74,
      "vel": 48,
      "channel": 0
    },
    {
      "time": 350.7692307692308,
      "type": "on",
      "note": 40,
      "vel": 60,
      "channel": 1
    },
    {
      "time": 350.79615384615386,
      "type": "on",
      "note": 52,
      "vel": 45,
      "channel": 2
    },
    {
      "time": 350.875,
      "type": "on",
      "note": 55,
      "vel": 45,
      "channel": 2
    },
    {
      "time": 350.77884615384613,
      "type": "on",
      "note": 59,
      "vel": 45,
      "channel": 2
    },
    {
      "time": 350.875,
      "type": "on",
      "note": 62,
      "vel": 45,
      "channel": 2
    },
    {
      "time": 350.80961538461537,
      "type": "on",
      "note": 69,
      "vel": 45,
      "channel": 2
    },
    {
      "time": 350.77884615384613,
      "type": "on",
      "note": 67,
      "vel": 84,
      "channel": 0
    },
    {
      "time": 351.00192307692305,
      "type": "on",
      "note": 81,
      "vel": 49,
      "channel": 0
    },
    {
      "time": 351.25192307692305,
      "type": "on",
      "note": 74,
      "vel": 63,
      "channel": 0
    },
    {
      "time": 351.4807692307692,
      "type": "on",
      "note": 71,
      "vel": 45,
      "channel": 0
    },
    {
      "time": 351.70384615384614,
      "type": "on",
      "note": 67,
      "vel": 81,
      "channel": 0
    },
    {
      "time": 351.93461538461537,
      "type": "on",
      "note": 81,
      "vel": 50,
      "channel": 0
    },
    {
      "time": 352.15384615384613,
      "type": "on",
      "note": 74,
      "vel": 59,
      "channel": 0
    },
    {
      "time": 352.38461538461536,
      "type": "on",
      "note": 71,
      "vel": 49,
      "channel": 0
    },
    {
      "time": 352.62115384615385,
      "type": "on",
      "note": 67,
      "vel": 82,
      "channel": 0
    },
    {
      "time": 352.8692307692308,
      "type": "on",
      "note": 81,
      "vel": 46,
      "channel": 0
    },
    {
      "time": 353.0769230769231,
      "type": "on",
      "note": 74,
      "vel": 63,
      "channel": 0
    },
    {
      "time": 353.30192307692306,
      "type": "on",
      "note": 71,
      "vel": 40,
      "channel": 0
    },
    {
      "time": 353.53846153846155,
      "type": "on",
      "note": 67,
      "vel": 85,
      "channel": 0
    },
    {
      "time": 353.75384615384615,
      "type": "on",
      "note": 81,
      "vel": 42,
      "channel": 0
    },
    {
      "time": 354.0076923076923,
      "type": "on",
      "note": 74,
      "vel": 56,
      "channel": 0
    },
    {
      "time": 354.2230769230769,
      "type": "on",
      "note": 71,
      "vel": 42,
      "channel": 0
    },
    {
      "time": 354.46153846153845,
      "type": "on",
      "note": 33,
      "vel": 60,
      "channel": 1
    },
    {
      "time": 354.46153846153845,
      "type": "on",
      "note": 57,
      "vel": 45,
      "channel": 2
    },
    {
      "time": 354.5211538461538,
      "type": "on",
      "note": 60,
      "vel": 45,
      "channel": 2
    },
    {
      "time": 354.6173076923077,
      "type": "on",
      "note": 64,
      "vel": 45,
      "channel": 2
    },
    {
      "time": 354.48269230769233,
      "type": "on",
      "note": 71,
      "vel": 45,
      "channel": 2
    },
    {
      "time": 354.5269230769231,
      "type": "on",
      "note": 74,
      "vel": 45,
      "channel": 2
    },
    {
      "time": 354.46346153846156,
      "type": "on",
      "note": 69,
      "vel": 81,
      "channel": 0
    },
    {
      "time": 354.71153846153845,
      "type": "on",
      "note": 83,
      "vel": 43,
      "channel": 0
    },
    {
      "time": 354.9230769230769,
      "type": "on",
      "note": 76,
      "vel": 59,
      "channel": 0
    },
    {
      "time": 355.1519230769231,
      "type": "on",
      "note": 72,
      "vel": 46,
      "channel": 0
    },
    {
      "time": 355.38461538461536,
      "type": "on",
      "note": 69,
      "vel": 75,
      "channel": 0
    },
    {
      "time": 355.6,
      "type": "on",
      "note": 83,
      "vel": 45,
      "channel": 0
    },
    {
      "time": 355.8673076923077,
      "type": "on",
      "note": 76,
      "vel": 56,
      "channel": 0
    },
    {
      "time": 356.0903846153846,
      "type": "on",
      "note": 72,
      "vel": 42,
      "channel": 0
    },
    {
      "time": 356.325,
      "type": "on",
      "note": 69,
      "vel": 79,
      "channel": 0
    },
    {
      "time": 356.5615384615385,
      "type": "on",
      "note": 83,
      "vel": 48,
      "channel": 0
    },
    {
      "time": 356.7711538461538,
      "type": "on",
      "note": 76,
      "vel": 55,
      "channel": 0
    },
    {
      "time": 357.00961538461536,
      "type": "on",
      "note": 72,
      "vel": 41,
      "channel": 0
    },
    {
      "time": 357.2269230769231,
      "type": "on",
      "note": 69,
      "vel": 84,
      "channel": 0
    },
    {
      "time": 357.46923076923076,
      "type": "on",
      "note": 83,
      "vel": 46,
      "channel": 0
    },
    {
      "time": 357.6923076923077,
      "type": "on",
      "note": 76,
      "vel": 56,
      "channel": 0
    },
    {
      "time": 357.92884615384617,
      "type": "on",
      "note": 72,
      "vel": 40,
      "channel": 0
    },
    {
      "time": 358.15384615384613,
      "type": "on",
      "note": 29,
      "vel": 60,
      "channel": 1
    },
    {
      "time": 358.20576923076925,
      "type": "on",
      "note": 53,
      "vel": 45,
      "channel": 2
    },
    {
      "time": 358.17884615384617,
      "type": "on",
      "note": 57,
      "vel": 45,
      "channel": 2
    },
    {
      "time": 358.28653846153844,
      "type": "on",
      "note": 60,
      "vel": 45,
      "channel": 2
    },
    {
      "time": 358.21153846153845,
      "type": "on",
      "note": 64,
      "vel": 45,
      "channel": 2
    },
    {
      "time": 358.1576923076923,
      "type": "on",
      "note": 71,
      "vel": 45,
      "channel": 2
    },
    {
      "time": 358.1730769230769,
      "type": "on",
      "note": 65,
      "vel": 79,
      "channel": 0
    },
    {
      "time": 358.40384615384613,
      "type": "on",
      "note": 76,
      "vel": 49,
      "channel": 0
    },
    {
      "time": 358.6173076923077,
      "type": "on",
      "note": 72,
      "vel": 65,
      "channel": 0
    },
    {
      "time": 358.8596153846154,
      "type": "on",
      "note": 69,
      "vel": 48,
      "channel": 0
    },
    {
      "time": 359.0903846153846,
      "type": "on",
      "note": 65,
      "vel": 75,
      "channel": 0
    },
    {
      "time": 359.2923076923077,
      "type": "on",
      "note": 76,
      "vel": 47,
      "channel": 0
    },
    {
      "time": 359.5423076923077,
      "type": "on",
      "note": 72,
      "vel": 61,
      "channel": 0
    },
    {
      "time": 359.76730769230767,
      "type": "on",
      "note": 69,
      "vel": 44,
      "channel": 0
    },
    {
      "time": 359.9865384615385,
      "type": "on",
      "note": 65,
      "vel": 74,
      "channel": 0
    },
    {
      "time": 360.24807692307695,
      "type": "on",
      "note": 76,
      "vel": 48,
      "channel": 0
    },
    {
      "time": 360.45384615384614,
      "type": "on",
      "note": 72,
      "vel": 58,
      "channel": 0
    },
    {
      "time": 360.7076923076923,
      "type": "on",
      "note": 69,
      "vel": 46,
      "channel": 0
    },
    {
      "time": 360.9384615384615,
      "type": "on",
      "note": 65,
      "vel": 80,
      "channel": 0
    },
    {
      "time": 361.1653846153846,
      "type": "on",
      "note": 76,
      "vel": 48,
      "channel": 0
    },
    {
      "time": 361.40576923076924,
      "type": "on",
      "note": 72,
      "vel": 58,
      "channel": 0
    },
    {
      "time": 361.60769230769233,
      "type": "on",
      "note": 69,
      "vel": 48,
      "channel": 0
    },
    {
      "time": 361.84615384615387,
      "type": "on",
      "note": 36,
      "vel": 60,
      "channel": 1
    },
    {
      "time": 361.925,
      "type": "on",
      "note": 48,
      "vel": 45,
      "channel": 2
    },
    {
      "time": 361.9846153846154,
      "type": "on",
      "note": 55,
      "vel": 45,
      "channel": 2
    },
    {
      "time": 361.875,
      "type": "on",
      "note": 60,
      "vel": 45,
      "channel": 2
    },
    {
      "time": 361.97115384615387,
      "type": "on",
      "note": 62,
      "vel": 45,
      "channel": 2
    },
    {
      "time": 361.8826923076923,
      "type": "on",
      "note": 64,
      "vel": 45,
      "channel": 2
    },
    {
      "time": 361.86346153846154,
      "type": "on",
      "note": 72,
      "vel": 71,
      "channel": 0
    },
    {
      "time": 362.08076923076925,
      "type": "on",
      "note": 79,
      "vel": 42,
      "channel": 0
    },
    {
      "time": 362.29423076923075,
      "type": "on",
      "note": 76,
      "vel": 58,
      "channel": 0
    },
    {
      "time": 362.5403846153846,
      "type": "on",
      "note": 74,
      "vel": 50,
      "channel": 0
    },
    {
      "time": 362.7576923076923,
      "type": "on",
      "note": 72,
      "vel": 80,
      "channel": 0
    },
    {
      "time": 363.0153846153846,
      "type": "on",
      "note": 79,
      "vel": 42,
      "channel": 0
    },
    {
      "time": 363.2423076923077,
      "type": "on",
      "note": 76,
      "vel": 58,
      "channel": 0
    },
    {
      "time": 363.475,
      "type": "on",
      "note": 74,
      "vel": 46,
      "channel": 0
    },
    {
      "time": 363.6923076923077,
      "type": "on",
      "note": 72,
      "vel": 74,
      "channel": 0
    },
    {
      "time": 363.9384615384615,
      "type": "on",
      "note": 79,
      "vel": 41,
      "channel": 0
    },
    {
      "time": 364.16346153846155,
      "type": "on",
      "note": 76,
      "vel": 60,
      "channel": 0
    },
    {
      "time": 364.3942307692308,
      "type": "on",
      "note": 74,
      "vel": 46,
      "channel": 0
    },
    {
      "time": 364.6057692307692,
      "type": "on",
      "note": 72,
      "vel": 80,
      "channel": 0
    },
    {
      "time": 364.8673076923077,
      "type": "on",
      "note": 79,
      "vel": 42,
      "channel": 0
    },
    {
      "time": 365.08846153846156,
      "type": "on",
      "note": 76,
      "vel": 56,
      "channel": 0
    },
    {
      "time": 365.32884615384614,
      "type": "on",
      "note": 74,
      "vel": 41,
      "channel": 0
    },
    {
      "time": 365.53846153846155,
      "type": "on",
      "note": 40,
      "vel": 60,
      "channel": 1
    },
    {
      "time": 365.6173076923077,
      "type": "on",
      "note": 52,
      "vel": 45,
      "channel": 2
    },
    {
      "time": 365.6019230769231,
      "type": "on",
      "note": 55,
      "vel": 45,
      "channel": 2
    },
    {
      "time": 365.62692307692305,
      "type": "on",
      "note": 59,
      "vel": 45,
      "channel": 2
    },
    {
      "time": 365.59615384615387,
      "type": "on",
      "note": 62,
      "vel": 45,
      "channel": 2
    },
    {
      "time": 365.6019230769231,
      "type": "on",
      "note": 69,
      "vel": 45,
      "channel": 2
    },
    {
      "time": 365.53653846153844,
      "type": "on",
      "note": 67,
      "vel": 76,
      "channel": 0
    },
    {
      "time": 365.7769230769231,
      "type": "on",
      "note": 81,
      "vel": 50,
      "channel": 0
    },
    {
      "time": 366.0230769230769,
      "type": "on",
      "note": 74,
      "vel": 58,
      "channel": 0
    },
    {
      "time": 366.23269230769233,
      "type": "on",
      "note": 71,
      "vel": 41,
      "channel": 0
    },
    {
      "time": 366.45384615384614,
      "type": "on",
      "note": 67,
      "vel": 74,
      "channel": 0
    },
    {
      "time": 366.67692307692306,
      "type": "on",
      "note": 81,
      "vel": 48,
      "channel": 0
    },
    {
      "time": 366.92692307692306,
      "type": "on",
      "note": 74,
      "vel": 58,
      "channel": 0
    },
    {
      "time": 367.15384615384613,
      "type": "on",
      "note": 71,
      "vel": 49,
      "channel": 0
    },
    {
      "time": 367.3826923076923,
      "type": "on",
      "note": 67,
      "vel": 71,
      "channel": 0
    },
    {
      "time": 367.6057692307692,
      "type": "on",
      "note": 81,
      "vel": 45,
      "channel": 0
    },
    {
      "time": 367.83653846153845,
      "type": "on",
      "note": 74,
      "vel": 62,
      "channel": 0
    },
    {
      "time": 368.0980769230769,
      "type": "on",
      "note": 71,
      "vel": 40,
      "channel": 0
    },
    {
      "time": 368.3192307692308,
      "type": "on",
      "note": 67,
      "vel": 82,
      "channel": 0
    },
    {
      "time": 368.53846153846155,
      "type": "on",
      "note": 81,
      "vel": 43,
      "channel": 0
    },
    {
      "time": 368.7826923076923,
      "type": "on",
      "note": 74,
      "vel": 65,
      "channel": 0
    },
    {
      "time": 368.98846153846154,
      "type": "on",
      "note": 71,
      "vel": 44,
      "channel": 0
    },
    {
      "time": 369.2307692307692,
      "type": "on",
      "note": 33,
      "vel": 60,
      "channel": 1
    },
    {
      "time": 369.3173076923077,
      "type": "on",
      "note": 57,
      "vel": 45,
      "channel": 2
    },
    {
      "time": 369.23269230769233,
      "type": "on",
      "note": 60,
      "vel": 45,
      "channel": 2
    },
    {
      "time": 369.23269230769233,
      "type": "on",
      "note": 64,
      "vel": 45,
      "channel": 2
    },
    {
      "time": 369.32307692307694,
      "type": "on",
      "note": 71,
      "vel": 45,
      "channel": 2
    },
    {
      "time": 369.3615384615385,
      "type": "on",
      "note": 74,
      "vel": 45,
      "channel": 2
    },
    {
      "time": 369.24807692307695,
      "type": "on",
      "note": 69,
      "vel": 74,
      "channel": 0
    },
    {
      "time": 369.48269230769233,
      "type": "on",
      "note": 83,
      "vel": 47,
      "channel": 0
    },
    {
      "time": 369.7,
      "type": "on",
      "note": 76,
      "vel": 63,
      "channel": 0
    },
    {
      "time": 369.9096153846154,
      "type": "on",
      "note": 72,
      "vel": 41,
      "channel": 0
    },
    {
      "time": 370.1480769230769,
      "type": "on",
      "note": 69,
      "vel": 72,
      "channel": 0
    },
    {
      "time": 370.40576923076924,
      "type": "on",
      "note": 83,
      "vel": 49,
      "channel": 0
    },
    {
      "time": 370.6115384615385,
      "type": "on",
      "note": 76,
      "vel": 60,
      "channel": 0
    },
    {
      "time": 370.8615384615385,
      "type": "on",
      "note": 72,
      "vel": 45,
      "channel": 0
    },
    {
      "time": 371.0903846153846,
      "type": "on",
      "note": 69,
      "vel": 78,
      "channel": 0
    },
    {
      "time": 371.3173076923077,
      "type": "on",
      "note": 83,
      "vel": 47,
      "channel": 0
    },
    {
      "time": 371.52884615384613,
      "type": "on",
      "note": 76,
      "vel": 57,
      "channel": 0
    },
    {
      "time": 371.78076923076924,
      "type": "on",
      "note": 72,
      "vel": 45,
      "channel": 0
    },
    {
      "time": 371.99038461538464,
      "type": "on",
      "note": 69,
      "vel": 71,
      "channel": 0
    },
    {
      "time": 372.25,
      "type": "on",
      "note": 83,
      "vel": 47,
      "channel": 0
    },
    {
      "time": 372.475,
      "type": "on",
      "note": 76,
      "vel": 64,
      "channel": 0
    },
    {
      "time": 372.7153846153846,
      "type": "on",
      "note": 72,
      "vel": 40,
      "channel": 0
    },
    {
      "time": 372.9230769230769,
      "type": "on",
      "note": 29,
      "vel": 60,
      "channel": 1
    },
    {
      "time": 373.1038461538462,
      "type": "on",
      "note": 53,
      "vel": 45,
      "channel": 2
    },
    {
      "time": 373.01730769230767,
      "type": "on",
      "note": 57,
      "vel": 45,
      "channel": 2
    },
    {
      "time": 373.09615384615387,
      "type": "on",
      "note": 60,
      "vel": 45,
      "channel": 2
    },
    {
      "time": 373.0211538461538,
      "type": "on",
      "note": 64,
      "vel": 45,
      "channel": 2
    },
    {
      "time": 373.00192307692305,
      "type": "on",
      "note": 71,
      "vel": 45,
      "channel": 2
    },
    {
      "time": 372.9076923076923,
      "type": "on",
      "note": 65,
      "vel": 81,
      "channel": 0
    },
    {
      "time": 373.1480769230769,
      "type": "on",
      "note": 76,
      "vel": 47,
      "channel": 0
    },
    {
      "time": 373.3692307692308,
      "type": "on",
      "note": 72,
      "vel": 64,
      "channel": 0
    },
    {
      "time": 373.6326923076923,
      "type": "on",
      "note": 69,
      "vel": 43,
      "channel": 0
    },
    {
      "time": 373.8615384615385,
      "type": "on",
      "note": 65,
      "vel": 79,
      "channel": 0
    },
    {
      "time": 374.0826923076923,
      "type": "on",
      "note": 76,
      "vel": 50,
      "channel": 0
    },
    {
      "time": 374.3173076923077,
      "type": "on",
      "note": 72,
      "vel": 61,
      "channel": 0
    },
    {
      "time": 374.52884615384613,
      "type": "on",
      "note": 69,
      "vel": 44,
      "channel": 0
    },
    {
      "time": 374.7557692307692,
      "type": "on",
      "note": 65,
      "vel": 75,
      "channel": 0
    },
    {
      "time": 374.99615384615385,
      "type": "on",
      "note": 76,
      "vel": 50,
      "channel": 0
    },
    {
      "time": 375.2442307692308,
      "type": "on",
      "note": 72,
      "vel": 58,
      "channel": 0
    },
    {
      "time": 375.4596153846154,
      "type": "on",
      "note": 69,
      "vel": 49,
      "channel": 0
    },
    {
      "time": 375.7096153846154,
      "type": "on",
      "note": 65,
      "vel": 76,
      "channel": 0
    },
    {
      "time": 375.91346153846155,
      "type": "on",
      "note": 76,
      "vel": 41,
      "channel": 0
    },
    {
      "time": 376.16346153846155,
      "type": "on",
      "note": 72,
      "vel": 64,
      "channel": 0
    },
    {
      "time": 376.4019230769231,
      "type": "on",
      "note": 69,
      "vel": 42,
      "channel": 0
    },
    {
      "time": 376.61538461538464,
      "type": "on",
      "note": 36,
      "vel": 60,
      "channel": 1
    },
    {
      "time": 376.6596153846154,
      "type": "on",
      "note": 48,
      "vel": 45,
      "channel": 2
    },
    {
      "time": 376.61538461538464,
      "type": "on",
      "note": 55,
      "vel": 45,
      "channel": 2
    },
    {
      "time": 376.7269230769231,
      "type": "on",
      "note": 60,
      "vel": 45,
      "channel": 2
    },
    {
      "time": 376.6942307692308,
      "type": "on",
      "note": 62,
      "vel": 45,
      "channel": 2
    },
    {
      "time": 376.8057692307692,
      "type": "on",
      "note": 64,
      "vel": 45,
      "channel": 2
    },
    {
      "time": 376.62307692307695,
      "type": "on",
      "note": 72,
      "vel": 79,
      "channel": 0
    },
    {
      "time": 376.85,
      "type": "on",
      "note": 79,
      "vel": 45,
      "channel": 0
    },
    {
      "time": 377.075,
      "type": "on",
      "note": 76,
      "vel": 64,
      "channel": 0
    },
    {
      "time": 377.30192307692306,
      "type": "on",
      "note": 74,
      "vel": 45,
      "channel": 0
    },
    {
      "time": 377.5557692307692,
      "type": "on",
      "note": 72,
      "vel": 76,
      "channel": 0
    },
    {
      "time": 377.78076923076924,
      "type": "on",
      "note": 79,
      "vel": 41,
      "channel": 0
    },
    {
      "time": 377.99038461538464,
      "type": "on",
      "note": 76,
      "vel": 58,
      "channel": 0
    },
    {
      "time": 378.24038461538464,
      "type": "on",
      "note": 74,
      "vel": 44,
      "channel": 0
    },
    {
      "time": 378.47115384615387,
      "type": "on",
      "note": 72,
      "vel": 76,
      "channel": 0
    },
    {
      "time": 378.7076923076923,
      "type": "on",
      "note": 79,
      "vel": 44,
      "channel": 0
    },
    {
      "time": 378.92884615384617,
      "type": "on",
      "note": 76,
      "vel": 65,
      "channel": 0
    },
    {
      "time": 379.1653846153846,
      "type": "on",
      "note": 74,
      "vel": 48,
      "channel": 0
    },
    {
      "time": 379.38653846153846,
      "type": "on",
      "note": 72,
      "vel": 77,
      "channel": 0
    },
    {
      "time": 379.62692307692305,
      "type": "on",
      "note": 79,
      "vel": 46,
      "channel": 0
    },
    {
      "time": 379.8519230769231,
      "type": "on",
      "note": 76,
      "vel": 57,
      "channel": 0
    },
    {
      "time": 380.0615384615385,
      "type": "on",
      "note": 74,
      "vel": 49,
      "channel": 0
    },
    {
      "time": 380.3076923076923,
      "type": "on",
      "note": 40,
      "vel": 60,
      "channel": 1
    },
    {
      "time": 380.3826923076923,
      "type": "on",
      "note": 52,
      "vel": 45,
      "channel": 2
    },
    {
      "time": 380.475,
      "type": "on",
      "note": 55,
      "vel": 45,
      "channel": 2
    },
    {
      "time": 380.46346153846156,
      "type": "on",
      "note": 59,
      "vel": 45,
      "channel": 2
    },
    {
      "time": 380.4307692307692,
      "type": "on",
      "note": 62,
      "vel": 45,
      "channel": 2
    },
    {
      "time": 380.37115384615385,
      "type": "on",
      "note": 69,
      "vel": 45,
      "channel": 2
    },
    {
      "time": 380.3076923076923,
      "type": "on",
      "note": 67,
      "vel": 72,
      "channel": 0
    },
    {
      "time": 380.53846153846155,
      "type": "on",
      "note": 81,
      "vel": 40,
      "channel": 0
    },
    {
      "time": 380.7692307692308,
      "type": "on",
      "note": 74,
      "vel": 63,
      "channel": 0
    },
    {
      "time": 381.0057692307692,
      "type": "on",
      "note": 71,
      "vel": 46,
      "channel": 0
    },
    {
      "time": 381.25192307692305,
      "type": "on",
      "note": 67,
      "vel": 74,
      "channel": 0
    },
    {
      "time": 381.44615384615383,
      "type": "on",
      "note": 81,
      "vel": 41,
      "channel": 0
    },
    {
      "time": 381.6807692307692,
      "type": "on",
      "note": 74,
      "vel": 60,
      "channel": 0
    },
    {
      "time": 381.9153846153846,
      "type": "on",
      "note": 71,
      "vel": 48,
      "channel": 0
    },
    {
      "time": 382.1653846153846,
      "type": "on",
      "note": 67,
      "vel": 74,
      "channel": 0
    },
    {
      "time": 382.4076923076923,
      "type": "on",
      "note": 81,
      "vel": 50,
      "channel": 0
    },
    {
      "time": 382.62307692307695,
      "type": "on",
      "note": 74,
      "vel": 64,
      "channel": 0
    },
    {
      "time": 382.8423076923077,
      "type": "on",
      "note": 71,
      "vel": 45,
      "channel": 0
    },
    {
      "time": 383.0634615384615,
      "type": "on",
      "note": 67,
      "vel": 73,
      "channel": 0
    },
    {
      "time": 383.3134615384615,
      "type": "on",
      "note": 81,
      "vel": 44,
      "channel": 0
    },
    {
      "time": 383.5269230769231,
      "type": "on",
      "note": 74,
      "vel": 59,
      "channel": 0
    },
    {
      "time": 383.7576923076923,
      "type": "on",
      "note": 71,
      "vel": 46,
      "channel": 0
    },
    {
      "time": 384.0,
      "type": "on",
      "note": 33,
      "vel": 60,
      "channel": 1
    },
    {
      "time": 384.1057692307692,
      "type": "on",
      "note": 57,
      "vel": 45,
      "channel": 2
    },
    {
      "time": 384.1115384615385,
      "type": "on",
      "note": 60,
      "vel": 45,
      "channel": 2
    },
    {
      "time": 384.1192307692308,
      "type": "on",
      "note": 64,
      "vel": 45,
      "channel": 2
    },
    {
      "time": 384.0923076923077,
      "type": "on",
      "note": 71,
      "vel": 45,
      "channel": 2
    },
    {
      "time": 384.1461538461538,
      "type": "on",
      "note": 74,
      "vel": 45,
      "channel": 2
    },
    {
      "time": 384.0,
      "type": "on",
      "note": 69,
      "vel": 83,
      "channel": 0
    },
    {
      "time": 384.2442307692308,
      "type": "on",
      "note": 83,
      "vel": 45,
      "channel": 0
    },
    {
      "time": 384.4788461538462,
      "type": "on",
      "note": 76,
      "vel": 58,
      "channel": 0
    },
    {
      "time": 384.69038461538463,
      "type": "on",
      "note": 72,
      "vel": 50,
      "channel": 0
    },
    {
      "time": 384.9076923076923,
      "type": "on",
      "note": 69,
      "vel": 73,
      "channel": 0
    },
    {
      "time": 385.1403846153846,
      "type": "on",
      "note": 83,
      "vel": 40,
      "channel": 0
    },
    {
      "time": 385.38461538461536,
      "type": "on",
      "note": 76,
      "vel": 58,
      "channel": 0
    },
    {
      "time": 385.63653846153846,
      "type": "on",
      "note": 72,
      "vel": 47,
      "channel": 0
    },
    {
      "time": 385.83653846153845,
      "type": "on",
      "note": 69,
      "vel": 73,
      "channel": 0
    },
    {
      "time": 386.0634615384615,
      "type": "on",
      "note": 83,
      "vel": 45,
      "channel": 0
    },
    {
      "time": 386.3076923076923,
      "type": "on",
      "note": 76,
      "vel": 58,
      "channel": 0
    },
    {
      "time": 386.5480769230769,
      "type": "on",
      "note": 72,
      "vel": 47,
      "channel": 0
    },
    {
      "time": 386.77884615384613,
      "type": "on",
      "note": 69,
      "vel": 79,
      "channel": 0
    },
    {
      "time": 387.0134615384615,
      "type": "on",
      "note": 83,
      "vel": 42,
      "channel": 0
    },
    {
      "time": 387.21923076923076,
      "type": "on",
      "note": 76,
      "vel": 58,
      "channel": 0
    },
    {
      "time": 387.4769230769231,
      "type": "on",
      "note": 72,
      "vel": 50,
      "channel": 0
    },
    {
      "time": 387.6923076923077,
      "type": "on",
      "note": 29,
      "vel": 60,
      "channel": 1
    },
    {
      "time": 387.7576923076923,
      "type": "on",
      "note": 53,
      "vel": 45,
      "channel": 2
    },
    {
      "time": 387.875,
      "type": "on",
      "note": 57,
      "vel": 45,
      "channel": 2
    },
    {
      "time": 387.8615384615385,
      "type": "on",
      "note": 60,
      "vel": 45,
      "channel": 2
    },
    {
      "time": 387.75384615384615,
      "type": "on",
      "note": 64,
      "vel": 45,
      "channel": 2
    },
    {
      "time": 387.84615384615387,
      "type": "on",
      "note": 71,
      "vel": 45,
      "channel": 2
    },
    {
      "time": 387.6884615384615,
      "type": "on",
      "note": 65,
      "vel": 73,
      "channel": 0
    },
    {
      "time": 387.92692307692306,
      "type": "on",
      "note": 76,
      "vel": 45,
      "channel": 0
    },
    {
      "time": 388.1403846153846,
      "type": "on",
      "note": 72,
      "vel": 62,
      "channel": 0
    },
    {
      "time": 388.3826923076923,
      "type": "on",
      "note": 69,
      "vel": 43,
      "channel": 0
    },
    {
      "time": 388.6115384615385,
      "type": "on",
      "note": 65,
      "vel": 73,
      "channel": 0
    },
    {
      "time": 388.8557692307692,
      "type": "on",
      "note": 76,
      "vel": 46,
      "channel": 0
    },
    {
      "time": 389.0903846153846,
      "type": "on",
      "note": 72,
      "vel": 65,
      "channel": 0
    },
    {
      "time": 389.32307692307694,
      "type": "on",
      "note": 69,
      "vel": 47,
      "channel": 0
    },
    {
      "time": 389.55961538461537,
      "type": "on",
      "note": 65,
      "vel": 80,
      "channel": 0
    },
    {
      "time": 389.775,
      "type": "on",
      "note": 76,
      "vel": 40,
      "channel": 0
    },
    {
      "time": 390.0076923076923,
      "type": "on",
      "note": 72,
      "vel": 60,
      "channel": 0
    },
    {
      "time": 390.25,
      "type": "on",
      "note": 69,
      "vel": 42,
      "channel": 0
    },
    {
      "time": 390.4653846153846,
      "type": "on",
      "note": 65,
      "vel": 72,
      "channel": 0
    },
    {
      "time": 390.70576923076925,
      "type": "on",
      "note": 76,
      "vel": 44,
      "channel": 0
    },
    {
      "time": 390.9076923076923,
      "type": "on",
      "note": 72,
      "vel": 61,
      "channel": 0
    },
    {
      "time": 391.1673076923077,
      "type": "on",
      "note": 69,
      "vel": 41,
      "channel": 0
    },
    {
      "time": 391.38461538461536,
      "type": "on",
      "note": 36,
      "vel": 60,
      "channel": 1
    },
    {
      "time": 391.46153846153845,
      "type": "on",
      "note": 48,
      "vel": 45,
      "channel": 2
    },
    {
      "time": 391.3980769230769,
      "type": "on",
      "note": 55,
      "vel": 45,
      "channel": 2
    },
    {
      "time": 391.4923076923077,
      "type": "on",
      "note": 60,
      "vel": 45,
      "channel": 2
    },
    {
      "time": 391.5326923076923,
      "type": "on",
      "note": 62,
      "vel": 45,
      "channel": 2
    },
    {
      "time": 391.4769230769231,
      "type": "on",
      "note": 64,
      "vel": 45,
      "channel": 2
    },
    {
      "time": 391.375,
      "type": "on",
      "note": 72,
      "vel": 83,
      "channel": 0
    },
    {
      "time": 391.6307692307692,
      "type": "on",
      "note": 79,
      "vel": 45,
      "channel": 0
    },
    {
      "time": 391.8557692307692,
      "type": "on",
      "note": 76,
      "vel": 61,
      "channel": 0
    },
    {
      "time": 392.08076923076925,
      "type": "on",
      "note": 74,
      "vel": 41,
      "channel": 0
    },
    {
      "time": 392.2923076923077,
      "type": "on",
      "note": 72,
      "vel": 80,
      "channel": 0
    },
    {
      "time": 392.55192307692306,
      "type": "on",
      "note": 79,
      "vel": 45,
      "channel": 0
    },
    {
      "time": 392.7557692307692,
      "type": "on",
      "note": 76,
      "vel": 61,
      "channel": 0
    },
    {
      "time": 393.01730769230767,
      "type": "on",
      "note": 74,
      "vel": 43,
      "channel": 0
    },
    {
      "time": 393.2269230769231,
      "type": "on",
      "note": 72,
      "vel": 70,
      "channel": 0
    },
    {
      "time": 393.4807692307692,
      "type": "on",
      "note": 79,
      "vel": 40,
      "channel": 0
    },
    {
      "time": 393.7153846153846,
      "type": "on",
      "note": 76,
      "vel": 62,
      "channel": 0
    },
    {
      "time": 393.9096153846154,
      "type": "on",
      "note": 74,
      "vel": 43,
      "channel": 0
    },
    {
      "time": 394.175,
      "type": "on",
      "note": 72,
      "vel": 71,
      "channel": 0
    },
    {
      "time": 394.3942307692308,
      "type": "on",
      "note": 79,
      "vel": 49,
      "channel": 0
    },
    {
      "time": 394.62115384615385,
      "type": "on",
      "note": 76,
      "vel": 58,
      "channel": 0
    },
    {
      "time": 394.8480769230769,
      "type": "on",
      "note": 74,
      "vel": 50,
      "channel": 0
    },
    {
      "time": 395.0769230769231,
      "type": "on",
      "note": 40,
      "vel": 60,
      "channel": 1
    },
    {
      "time": 395.1384615384615,
      "type": "on",
      "note": 52,
      "vel": 45,
      "channel": 2
    },
    {
      "time": 395.2269230769231,
      "type": "on",
      "note": 55,
      "vel": 45,
      "channel": 2
    },
    {
      "time": 395.10769230769233,
      "type": "on",
      "note": 59,
      "vel": 45,
      "channel": 2
    },
    {
      "time": 395.21153846153845,
      "type": "on",
      "note": 62,
      "vel": 45,
      "channel": 2
    },
    {
      "time": 395.26730769230767,
      "type": "on",
      "note": 69,
      "vel": 45,
      "channel": 2
    },
    {
      "time": 395.08846153846156,
      "type": "on",
      "note": 67,
      "vel": 83,
      "channel": 0
    },
    {
      "time": 395.3173076923077,
      "type": "on",
      "note": 81,
      "vel": 41,
      "channel": 0
    },
    {
      "time": 395.54615384615386,
      "type": "on",
      "note": 74,
      "vel": 58,
      "channel": 0
    },
    {
      "time": 395.76153846153846,
      "type": "on",
      "note": 71,
      "vel": 47,
      "channel": 0
    },
    {
      "time": 395.9865384615385,
      "type": "on",
      "note": 67,
      "vel": 75,
      "channel": 0
    },
    {
      "time": 396.23269230769233,
      "type": "on",
      "note": 81,
      "vel": 45,
      "channel": 0
    },
    {
      "time": 396.45384615384614,
      "type": "on",
      "note": 74,
      "vel": 64,
      "channel": 0
    },
    {
      "time": 396.6807692307692,
      "type": "on",
      "note": 71,
      "vel": 48,
      "channel": 0
    },
    {
      "time": 396.92115384615386,
      "type": "on",
      "note": 67,
      "vel": 73,
      "channel": 0
    },
    {
      "time": 397.15,
      "type": "on",
      "note": 81,
      "vel": 40,
      "channel": 0
    },
    {
      "time": 397.3884615384615,
      "type": "on",
      "note": 74,
      "vel": 63,
      "channel": 0
    },
    {
      "time": 397.6307692307692,
      "type": "on",
      "note": 71,
      "vel": 44,
      "channel": 0
    },
    {
      "time": 397.8615384615385,
      "type": "on",
      "note": 67,
      "vel": 79,
      "channel": 0
    },
    {
      "time": 398.0826923076923,
      "type": "on",
      "note": 81,
      "vel": 46,
      "channel": 0
    },
    {
      "time": 398.3115384615385,
      "type": "on",
      "note": 74,
      "vel": 56,
      "channel": 0
    },
    {
      "time": 398.54423076923075,
      "type": "on",
      "note": 71,
      "vel": 45,
      "channel": 0
    },
    {
      "time": 398.7692307692308,
      "type": "on",
      "note": 33,
      "vel": 60,
      "channel": 1
    },
    {
      "time": 398.91153846153844,
      "type": "on",
      "note": 57,
      "vel": 45,
      "channel": 2
    },
    {
      "time": 398.8884615384615,
      "type": "on",
      "note": 60,
      "vel": 45,
      "channel": 2
    },
    {
      "time": 398.80384615384617,
      "type": "on",
      "note": 64,
      "vel": 45,
      "channel": 2
    },
    {
      "time": 398.8173076923077,
      "type": "on",
      "note": 71,
      "vel": 45,
      "channel": 2
    },
    {
      "time": 398.9365384615385,
      "type": "on",
      "note": 74,
      "vel": 45,
      "channel": 2
    },
    {
      "time": 398.7730769230769,
      "type": "on",
      "note": 69,
      "vel": 76,
      "channel": 0
    },
    {
      "time": 399.0230769230769,
      "type": "on",
      "note": 83,
      "vel": 47,
      "channel": 0
    },
    {
      "time": 399.25,
      "type": "on",
      "note": 76,
      "vel": 57,
      "channel": 0
    },
    {
      "time": 399.46346153846156,
      "type": "on",
      "note": 72,
      "vel": 47,
      "channel": 0
    },
    {
      "time": 399.7,
      "type": "on",
      "note": 69,
      "vel": 73,
      "channel": 0
    },
    {
      "time": 399.94615384615383,
      "type": "on",
      "note": 83,
      "vel": 47,
      "channel": 0
    },
    {
      "time": 400.15,
      "type": "on",
      "note": 76,
      "vel": 58,
      "channel": 0
    },
    {
      "time": 400.38653846153846,
      "type": "on",
      "note": 72,
      "vel": 49,
      "channel": 0
    },
    {
      "time": 400.61346153846154,
      "type": "on",
      "note": 69,
      "vel": 76,
      "channel": 0
    },
    {
      "time": 400.84615384615387,
      "type": "on",
      "note": 83,
      "vel": 42,
      "channel": 0
    },
    {
      "time": 401.08076923076925,
      "type": "on",
      "note": 76,
      "vel": 63,
      "channel": 0
    },
    {
      "time": 401.3057692307692,
      "type": "on",
      "note": 72,
      "vel": 45,
      "channel": 0
    },
    {
      "time": 401.55192307692306,
      "type": "on",
      "note": 69,
      "vel": 80,
      "channel": 0
    },
    {
      "time": 401.7634615384615,
      "type": "on",
      "note": 83,
      "vel": 49,
      "channel": 0
    },
    {
      "time": 401.9846153846154,
      "type": "on",
      "note": 76,
      "vel": 59,
      "channel": 0
    },
    {
      "time": 402.2346153846154,
      "type": "on",
      "note": 72,
      "vel": 43,
      "channel": 0
    },
    {
      "time": 402.46153846153845,
      "type": "on",
      "note": 29,
      "vel": 60,
      "channel": 1
    },
    {
      "time": 402.57307692307694,
      "type": "on",
      "note": 53,
      "vel": 45,
      "channel": 2
    },
    {
      "time": 402.52884615384613,
      "type": "on",
      "note": 57,
      "vel": 45,
      "channel": 2
    },
    {
      "time": 402.57884615384614,
      "type": "on",
      "note": 60,
      "vel": 45,
      "channel": 2
    },
    {
      "time": 402.59615384615387,
      "type": "on",
      "note": 64,
      "vel": 45,
      "channel": 2
    },
    {
      "time": 402.5615384615385,
      "type": "on",
      "note": 71,
      "vel": 45,
      "channel": 2
    },
    {
      "time": 402.4788461538462,
      "type": "on",
      "note": 65,
      "vel": 80,
      "channel": 0
    },
    {
      "time": 402.67692307692306,
      "type": "on",
      "note": 76,
      "vel": 45,
      "channel": 0
    },
    {
      "time": 402.9096153846154,
      "type": "on",
      "note": 72,
      "vel": 57,
      "channel": 0
    },
    {
      "time": 403.1653846153846,
      "type": "on",
      "note": 69,
      "vel": 45,
      "channel": 0
    },
    {
      "time": 403.3692307692308,
      "type": "on",
      "note": 65,
      "vel": 78,
      "channel": 0
    },
    {
      "time": 403.6326923076923,
      "type": "on",
      "note": 76,
      "vel": 50,
      "channel": 0
    },
    {
      "time": 403.8557692307692,
      "type": "on",
      "note": 72,
      "vel": 62,
      "channel": 0
    },
    {
      "time": 404.1,
      "type": "on",
      "note": 69,
      "vel": 48,
      "channel": 0
    },
    {
      "time": 404.29423076923075,
      "type": "on",
      "note": 65,
      "vel": 76,
      "channel": 0
    },
    {
      "time": 404.5269230769231,
      "type": "on",
      "note": 76,
      "vel": 50,
      "channel": 0
    },
    {
      "time": 404.78846153846155,
      "type": "on",
      "note": 72,
      "vel": 65,
      "channel": 0
    },
    {
      "time": 404.9846153846154,
      "type": "on",
      "note": 69,
      "vel": 50,
      "channel": 0
    },
    {
      "time": 405.2346153846154,
      "type": "on",
      "note": 65,
      "vel": 76,
      "channel": 0
    },
    {
      "time": 405.4596153846154,
      "type": "on",
      "note": 76,
      "vel": 43,
      "channel": 0
    },
    {
      "time": 405.7076923076923,
      "type": "on",
      "note": 72,
      "vel": 64,
      "channel": 0
    },
    {
      "time": 405.91923076923075,
      "type": "on",
      "note": 69,
      "vel": 45,
      "channel": 0
    },
    {
      "time": 406.15384615384613,
      "type": "on",
      "note": 36,
      "vel": 60,
      "channel": 1
    },
    {
      "time": 406.1942307692308,
      "type": "on",
      "note": 48,
      "vel": 45,
      "channel": 2
    },
    {
      "time": 406.34615384615387,
      "type": "on",
      "note": 55,
      "vel": 45,
      "channel": 2
    },
    {
      "time": 406.30192307692306,
      "type": "on",
      "note": 60,
      "vel": 45,
      "channel": 2
    },
    {
      "time": 406.3134615384615,
      "type": "on",
      "note": 62,
      "vel": 45,
      "channel": 2
    },
    {
      "time": 406.2019230769231,
      "type": "on",
      "note": 64,
      "vel": 45,
      "channel": 2
    },
    {
      "time": 406.1673076923077,
      "type": "on",
      "note": 72,
      "vel": 82,
      "channel": 0
    },
    {
      "time": 406.4019230769231,
      "type": "on",
      "note": 79,
      "vel": 49,
      "channel": 0
    },
    {
      "time": 406.6326923076923,
      "type": "on",
      "note": 76,
      "vel": 62,
      "channel": 0
    },
    {
      "time": 406.8346153846154,
      "type": "on",
      "note": 74,
      "vel": 46,
      "channel": 0
    },
    {
      "time": 407.06538461538463,
      "type": "on",
      "note": 72,
      "vel": 73,
      "channel": 0
    },
    {
      "time": 407.3076923076923,
      "type": "on",
      "note": 79,
      "vel": 41,
      "channel": 0
    },
    {
      "time": 407.525,
      "type": "on",
      "note": 76,
      "vel": 62,
      "channel": 0
    },
    {
      "time": 407.76730769230767,
      "type": "on",
      "note": 74,
      "vel": 48,
      "channel": 0
    },
    {
      "time": 408.0153846153846,
      "type": "on",
      "note": 72,
      "vel": 72,
      "channel": 0
    },
    {
      "time": 408.25384615384615,
      "type": "on",
      "note": 79,
      "vel": 40,
      "channel": 0
    },
    {
      "time": 408.44615384615383,
      "type": "on",
      "note": 76,
      "vel": 63,
      "channel": 0
    },
    {
      "time": 408.7153846153846,
      "type": "on",
      "note": 74,
      "vel": 42,
      "channel": 0
    },
    {
      "time": 408.9153846153846,
      "type": "on",
      "note": 72,
      "vel": 74,
      "channel": 0
    },
    {
      "time": 409.17115384615386,
      "type": "on",
      "note": 79,
      "vel": 40,
      "channel": 0
    },
    {
      "time": 409.3903846153846,
      "type": "on",
      "note": 76,
      "vel": 60,
      "channel": 0
    },
    {
      "time": 409.62884615384615,
      "type": "on",
      "note": 74,
      "vel": 42,
      "channel": 0
    },
    {
      "time": 409.84615384615387,
      "type": "on",
      "note": 40,
      "vel": 60,
      "channel": 1
    },
    {
      "time": 409.9307692307692,
      "type": "on",
      "note": 52,
      "vel": 45,
      "channel": 2
    },
    {
      "time": 409.9596153846154,
      "type": "on",
      "note": 55,
      "vel": 45,
      "channel": 2
    },
    {
      "time": 410.01153846153846,
      "type": "on",
      "note": 59,
      "vel": 45,
      "channel": 2
    },
    {
      "time": 409.975,
      "type": "on",
      "note": 62,
      "vel": 45,
      "channel": 2
    },
    {
      "time": 409.98269230769233,
      "type": "on",
      "note": 69,
      "vel": 45,
      "channel": 2
    },
    {
      "time": 409.8480769230769,
      "type": "on",
      "note": 67,
      "vel": 84,
      "channel": 0
    },
    {
      "time": 410.06538461538463,
      "type": "on",
      "note": 81,
      "vel": 46,
      "channel": 0
    },
    {
      "time": 410.33076923076925,
      "type": "on",
      "note": 74,
      "vel": 60,
      "channel": 0
    },
    {
      "time": 410.5403846153846,
      "type": "on",
      "note": 71,
      "vel": 40,
      "channel": 0
    },
    {
      "time": 410.75961538461536,
      "type": "on",
      "note": 67,
      "vel": 77,
      "channel": 0
    },
    {
      "time": 411.0211538461538,
      "type": "on",
      "note": 81,
      "vel": 44,
      "channel": 0
    },
    {
      "time": 411.23269230769233,
      "type": "on",
      "note": 74,
      "vel": 55,
      "channel": 0
    },
    {
      "time": 411.45576923076925,
      "type": "on",
      "note": 71,
      "vel": 49,
      "channel": 0
    },
    {
      "time": 411.69807692307694,
      "type": "on",
      "note": 67,
      "vel": 70,
      "channel": 0
    },
    {
      "time": 411.91923076923075,
      "type": "on",
      "note": 81,
      "vel": 49,
      "channel": 0
    },
    {
      "time": 412.17115384615386,
      "type": "on",
      "note": 74,
      "vel": 60,
      "channel": 0
    },
    {
      "time": 412.3980769230769,
      "type": "on",
      "note": 71,
      "vel": 46,
      "channel": 0
    },
    {
      "time": 412.6173076923077,
      "type": "on",
      "note": 67,
      "vel": 74,
      "channel": 0
    },
    {
      "time": 412.8480769230769,
      "type": "on",
      "note": 81,
      "vel": 48,
      "channel": 0
    },
    {
      "time": 413.0923076923077,
      "type": "on",
      "note": 74,
      "vel": 58,
      "channel": 0
    },
    {
      "time": 413.325,
      "type": "on",
      "note": 71,
      "vel": 46,
      "channel": 0
    },
    {
      "time": 413.53846153846155,
      "type": "on",
      "note": 33,
      "vel": 60,
      "channel": 1
    },
    {
      "time": 413.6865384615385,
      "type": "on",
      "note": 57,
      "vel": 45,
      "channel": 2
    },
    {
      "time": 413.7288461538462,
      "type": "on",
      "note": 60,
      "vel": 45,
      "channel": 2
    },
    {
      "time": 413.6826923076923,
      "type": "on",
      "note": 64,
      "vel": 45,
      "channel": 2
    },
    {
      "time": 413.6307692307692,
      "type": "on",
      "note": 71,
      "vel": 45,
      "channel": 2
    },
    {
      "time": 413.59615384615387,
      "type": "on",
      "note": 74,
      "vel": 45,
      "channel": 2
    },
    {
      "time": 413.53846153846155,
      "type": "on",
      "note": 69,
      "vel": 74,
      "channel": 0
    },
    {
      "time": 413.75961538461536,
      "type": "on",
      "note": 83,
      "vel": 46,
      "channel": 0
    },
    {
      "time": 414.01153846153846,
      "type": "on",
      "note": 76,
      "vel": 57,
      "channel": 0
    },
    {
      "time": 414.2365384615385,
      "type": "on",
      "note": 72,
      "vel": 43,
      "channel": 0
    },
    {
      "time": 414.45384615384614,
      "type": "on",
      "note": 69,
      "vel": 80,
      "channel": 0
    },
    {
      "time": 414.7,
      "type": "on",
      "note": 83,
      "vel": 40,
      "channel": 0
    },
    {
      "time": 414.9230769230769,
      "type": "on",
      "note": 76,
      "vel": 55,
      "channel": 0
    },
    {
      "time": 415.14230769230767,
      "type": "on",
      "note": 72,
      "vel": 42,
      "channel": 0
    },
    {
      "time": 415.3884615384615,
      "type": "on",
      "note": 69,
      "vel": 72,
      "channel": 0
    },
    {
      "time": 415.625,
      "type": "on",
      "note": 83,
      "vel": 50,
      "channel": 0
    },
    {
      "time": 415.83653846153845,
      "type": "on",
      "note": 76,
      "vel": 58,
      "channel": 0
    },
    {
      "time": 416.0673076923077,
      "type": "on",
      "note": 72,
      "vel": 48,
      "channel": 0
    },
    {
      "time": 416.3269230769231,
      "type": "on",
      "note": 69,
      "vel": 78,
      "channel": 0
    },
    {
      "time": 416.53846153846155,
      "type": "on",
      "note": 83,
      "vel": 43,
      "channel": 0
    },
    {
      "time": 416.78653846153844,
      "type": "on",
      "note": 76,
      "vel": 58,
      "channel": 0
    },
    {
      "time": 417.00384615384615,
      "type": "on",
      "note": 72,
      "vel": 49,
      "channel": 0
    },
    {
      "time": 417.2307692307692,
      "type": "on",
      "note": 29,
      "vel": 60,
      "channel": 1
    },
    {
      "time": 417.31538461538463,
      "type": "on",
      "note": 53,
      "vel": 45,
      "channel": 2
    },
    {
      "time": 417.35,
      "type": "on",
      "note": 57,
      "vel": 45,
      "channel": 2
    },
    {
      "time": 417.4096153846154,
      "type": "on",
      "note": 60,
      "vel": 45,
      "channel": 2
    },
    {
      "time": 417.4153846153846,
      "type": "on",
      "note": 64,
      "vel": 45,
      "channel": 2
    },
    {
      "time": 417.40384615384613,
      "type": "on",
      "note": 71,
      "vel": 45,
      "channel": 2
    },
    {
      "time": 417.24807692307695,
      "type": "on",
      "note": 65,
      "vel": 74,
      "channel": 0
    },
    {
      "time": 417.48269230769233,
      "type": "on",
      "note": 76,
      "vel": 47,
      "channel": 0
    },
    {
      "time": 417.70576923076925,
      "type": "on",
      "note": 72,
      "vel": 61,
      "channel": 0
    },
    {
      "time": 417.9230769230769,
      "type": "on",
      "note": 69,
      "vel": 47,
      "channel": 0
    },
    {
      "time": 418.14230769230767,
      "type": "on",
      "note": 65,
      "vel": 70,
      "channel": 0
    },
    {
      "time": 418.3980769230769,
      "type": "on",
      "note": 76,
      "vel": 45,
      "channel": 0
    },
    {
      "time": 418.63653846153846,
      "type": "on",
      "note": 72,
      "vel": 55,
      "channel": 0
    },
    {
      "time": 418.84615384615387,
      "type": "on",
      "note": 69,
      "vel": 48,
      "channel": 0
    },
    {
      "time": 419.07307692307694,
      "type": "on",
      "note": 65,
      "vel": 77,
      "channel": 0
    },
    {
      "time": 419.2980769230769,
      "type": "on",
      "note": 76,
      "vel": 47,
      "channel": 0
    },
    {
      "time": 419.52884615384613,
      "type": "on",
      "note": 72,
      "vel": 55,
      "channel": 0
    },
    {
      "time": 419.7846153846154,
      "type": "on",
      "note": 69,
      "vel": 41,
      "channel": 0
    },
    {
      "time": 419.9942307692308,
      "type": "on",
      "note": 65,
      "vel": 84,
      "channel": 0
    },
    {
      "time": 420.2269230769231,
      "type": "on",
      "note": 76,
      "vel": 50,
      "channel": 0
    },
    {
      "time": 420.46346153846156,
      "type": "on",
      "note": 72,
      "vel": 63,
      "channel": 0
    },
    {
      "time": 420.71346153846156,
      "type": "on",
      "note": 69,
      "vel": 41,
      "channel": 0
    },
    {
      "time": 420.9230769230769,
      "type": "on",
      "note": 36,
      "vel": 60,
      "channel": 1
    },
    {
      "time": 420.95576923076925,
      "type": "on",
      "note": 48,
      "vel": 45,
      "channel": 2
    },
    {
      "time": 421.0903846153846,
      "type": "on",
      "note": 55,
      "vel": 45,
      "channel": 2
    },
    {
      "time": 421.1,
      "type": "on",
      "note": 60,
      "vel": 45,
      "channel": 2
    },
    {
      "time": 420.92692307692306,
      "type": "on",
      "note": 62,
      "vel": 45,
      "channel": 2
    },
    {
      "time": 421.0923076923077,
      "type": "on",
      "note": 64,
      "vel": 45,
      "channel": 2
    },
    {
      "time": 420.925,
      "type": "on",
      "note": 72,
      "vel": 78,
      "channel": 0
    },
    {
      "time": 421.1576923076923,
      "type": "on",
      "note": 79,
      "vel": 41,
      "channel": 0
    },
    {
      "time": 421.40576923076924,
      "type": "on",
      "note": 76,
      "vel": 64,
      "channel": 0
    },
    {
      "time": 421.6384615384615,
      "type": "on",
      "note": 74,
      "vel": 48,
      "channel": 0
    },
    {
      "time": 421.8692307692308,
      "type": "on",
      "note": 72,
      "vel": 77,
      "channel": 0
    },
    {
      "time": 422.07115384615383,
      "type": "on",
      "note": 79,
      "vel": 50,
      "channel": 0
    },
    {
      "time": 422.32115384615383,
      "type": "on",
      "note": 76,
      "vel": 56,
      "channel": 0
    },
    {
      "time": 422.55961538461537,
      "type": "on",
      "note": 74,
      "vel": 44,
      "channel": 0
    },
    {
      "time": 422.78076923076924,
      "type": "on",
      "note": 72,
      "vel": 85,
      "channel": 0
    },
    {
      "time": 422.99615384615385,
      "type": "on",
      "note": 79,
      "vel": 48,
      "channel": 0
    },
    {
      "time": 423.2346153846154,
      "type": "on",
      "note": 76,
      "vel": 58,
      "channel": 0
    },
    {
      "time": 423.4653846153846,
      "type": "on",
      "note": 74,
      "vel": 41,
      "channel": 0
    },
    {
      "time": 423.7019230769231,
      "type": "on",
      "note": 72,
      "vel": 72,
      "channel": 0
    },
    {
      "time": 423.91153846153844,
      "type": "on",
      "note": 79,
      "vel": 43,
      "channel": 0
    },
    {
      "time": 424.1442307692308,
      "type": "on",
      "note": 76,
      "vel": 58,
      "channel": 0
    },
    {
      "time": 424.37884615384615,
      "type": "on",
      "note": 74,
      "vel": 41,
      "channel": 0
    },
    {
      "time": 424.61538461538464,
      "type": "on",
      "note": 40,
      "vel": 60,
      "channel": 1
    },
    {
      "time": 424.6923076923077,
      "type": "on",
      "note": 52,
      "vel": 45,
      "channel": 2
    },
    {
      "time": 424.7,
      "type": "on",
      "note": 55,
      "vel": 45,
      "channel": 2
    },
    {
      "time": 424.7903846153846,
      "type": "on",
      "note": 59,
      "vel": 45,
      "channel": 2
    },
    {
      "time": 424.6461538461538,
      "type": "on",
      "note": 62,
      "vel": 45,
      "channel": 2
    },
    {
      "time": 424.6403846153846,
      "type": "on",
      "note": 69,
      "vel": 45,
      "channel": 2
    },
    {
      "time": 424.6,
      "type": "on",
      "note": 67,
      "vel": 70,
      "channel": 0
    },
    {
      "time": 424.84423076923076,
      "type": "on",
      "note": 81,
      "vel": 42,
      "channel": 0
    },
    {
      "time": 425.07884615384614,
      "type": "on",
      "note": 74,
      "vel": 59,
      "channel": 0
    },
    {
      "time": 425.32884615384614,
      "type": "on",
      "note": 71,
      "vel": 44,
      "channel": 0
    },
    {
      "time": 425.55,
      "type": "on",
      "note": 67,
      "vel": 82,
      "channel": 0
    },
    {
      "time": 425.76153846153846,
      "type": "on",
      "note": 81,
      "vel": 43,
      "channel": 0
    },
    {
      "time": 426.00961538461536,
      "type": "on",
      "note": 74,
      "vel": 59,
      "channel": 0
    },
    {
      "time": 426.24038461538464,
      "type": "on",
      "note": 71,
      "vel": 49,
      "channel": 0
    },
    {
      "time": 426.46923076923076,
      "type": "on",
      "note": 67,
      "vel": 81,
      "channel": 0
    },
    {
      "time": 426.6884615384615,
      "type": "on",
      "note": 81,
      "vel": 46,
      "channel": 0
    },
    {
      "time": 426.92115384615386,
      "type": "on",
      "note": 74,
      "vel": 62,
      "channel": 0
    },
    {
      "time": 427.1673076923077,
      "type": "on",
      "note": 71,
      "vel": 47,
      "channel": 0
    },
    {
      "time": 427.3807692307692,
      "type": "on",
      "note": 67,
      "vel": 81,
      "channel": 0
    },
    {
      "time": 427.6115384615385,
      "type": "on",
      "note": 81,
      "vel": 46,
      "channel": 0
    },
    {
      "time": 427.8480769230769,
      "type": "on",
      "note": 74,
      "vel": 57,
      "channel": 0
    },
    {
      "time": 428.075,
      "type": "on",
      "note": 71,
      "vel": 42,
      "channel": 0
    },
    {
      "time": 428.3076923076923,
      "type": "on",
      "note": 33,
      "vel": 60,
      "channel": 1
    },
    {
      "time": 428.35,
      "type": "on",
      "note": 57,
      "vel": 45,
      "channel": 2
    },
    {
      "time": 428.40576923076924,
      "type": "on",
      "note": 60,
      "vel": 45,
      "channel": 2
    },
    {
      "time": 428.38653846153846,
      "type": "on",
      "note": 64,
      "vel": 45,
      "channel": 2
    },
    {
      "time": 428.3538461538462,
      "type": "on",
      "note": 71,
      "vel": 45,
      "channel": 2
    },
    {
      "time": 428.4769230769231,
      "type": "on",
      "note": 74,
      "vel": 45,
      "channel": 2
    },
    {
      "time": 428.3192307692308,
      "type": "on",
      "note": 69,
      "vel": 79,
      "channel": 0
    },
    {
      "time": 428.53076923076924,
      "type": "on",
      "note": 83,
      "vel": 50,
      "channel": 0
    },
    {
      "time": 428.7923076923077,
      "type": "on",
      "note": 76,
      "vel": 59,
      "channel": 0
    },
    {
      "time": 428.9923076923077,
      "type": "on",
      "note": 72,
      "vel": 48,
      "channel": 0
    },
    {
      "time": 429.23269230769233,
      "type": "on",
      "note": 69,
      "vel": 84,
      "channel": 0
    },
    {
      "time": 429.4673076923077,
      "type": "on",
      "note": 83,
      "vel": 44,
      "channel": 0
    },
    {
      "time": 429.70384615384614,
      "type": "on",
      "note": 76,
      "vel": 61,
      "channel": 0
    },
    {
      "time": 429.9076923076923,
      "type": "on",
      "note": 72,
      "vel": 41,
      "channel": 0
    },
    {
      "time": 430.15384615384613,
      "type": "on",
      "note": 69,
      "vel": 79,
      "channel": 0
    },
    {
      "time": 430.375,
      "type": "on",
      "note": 83,
      "vel": 42,
      "channel": 0
    },
    {
      "time": 430.62884615384615,
      "type": "on",
      "note": 76,
      "vel": 62,
      "channel": 0
    },
    {
      "time": 430.86538461538464,
      "type": "on",
      "note": 72,
      "vel": 47,
      "channel": 0
    },
    {
      "time": 431.07884615384614,
      "type": "on",
      "note": 69,
      "vel": 79,
      "channel": 0
    },
    {
      "time": 431.3192307692308,
      "type": "on",
      "note": 83,
      "vel": 41,
      "channel": 0
    },
    {
      "time": 431.5269230769231,
      "type": "on",
      "note": 76,
      "vel": 56,
      "channel": 0
    },
    {
      "time": 431.76153846153846,
      "type": "on",
      "note": 72,
      "vel": 45,
      "channel": 0
    },
    {
      "time": 432.0,
      "type": "on",
      "note": 29,
      "vel": 60,
      "channel": 1
    },
    {
      "time": 432.07884615384614,
      "type": "on",
      "note": 53,
      "vel": 45,
      "channel": 2
    },
    {
      "time": 432.15384615384613,
      "type": "on",
      "note": 57,
      "vel": 45,
      "channel": 2
    },
    {
      "time": 432.06538461538463,
      "type": "on",
      "note": 60,
      "vel": 45,
      "channel": 2
    },
    {
      "time": 432.0615384615385,
      "type": "on",
      "note": 64,
      "vel": 45,
      "channel": 2
    },
    {
      "time": 432.05,
      "type": "on",
      "note": 71,
      "vel": 45,
      "channel": 2
    },
    {
      "time": 432.0076923076923,
      "type": "on",
      "note": 65,
      "vel": 82,
      "channel": 0
    },
    {
      "time": 432.22115384615387,
      "type": "on",
      "note": 76,
      "vel": 45,
      "channel": 0
    },
    {
      "time": 432.4519230769231,
      "type": "on",
      "note": 72,
      "vel": 62,
      "channel": 0
    },
    {
      "time": 432.7076923076923,
      "type": "on",
      "note": 69,
      "vel": 50,
      "channel": 0
    },
    {
      "time": 432.94038461538463,
      "type": "on",
      "note": 65,
      "vel": 78,
      "channel": 0
    },
    {
      "time": 433.1384615384615,
      "type": "on",
      "note": 76,
      "vel": 40,
      "channel": 0
    },
    {
      "time": 433.37884615384615,
      "type": "on",
      "note": 72,
      "vel": 56,
      "channel": 0
    },
    {
      "time": 433.6057692307692,
      "type": "on",
      "note": 69,
      "vel": 49,
      "channel": 0
    },
    {
      "time": 433.8480769230769,
      "type": "on",
      "note": 65,
      "vel": 80,
      "channel": 0
    },
    {
      "time": 434.0769230769231,
      "type": "on",
      "note": 76,
      "vel": 48,
      "channel": 0
    },
    {
      "time": 434.3057692307692,
      "type": "on",
      "note": 72,
      "vel": 57,
      "channel": 0
    },
    {
      "time": 434.5480769230769,
      "type": "on",
      "note": 69,
      "vel": 47,
      "channel": 0
    },
    {
      "time": 434.7769230769231,
      "type": "on",
      "note": 65,
      "vel": 71,
      "channel": 0
    },
    {
      "time": 435.0134615384615,
      "type": "on",
      "note": 76,
      "vel": 43,
      "channel": 0
    },
    {
      "time": 435.2307692307692,
      "type": "on",
      "note": 72,
      "vel": 65,
      "channel": 0
    },
    {
      "time": 435.4769230769231,
      "type": "on",
      "note": 69,
      "vel": 47,
      "channel": 0
    },
    {
      "time": 435.6923076923077,
      "type": "on",
      "note": 36,
      "vel": 60,
      "channel": 1
    },
    {
      "time": 435.875,
      "type": "on",
      "note": 48,
      "vel": 45,
      "channel": 2
    },
    {
      "time": 435.7576923076923,
      "type": "on",
      "note": 55,
      "vel": 45,
      "channel": 2
    },
    {
      "time": 435.8692307692308,
      "type": "on",
      "note": 60,
      "vel": 45,
      "channel": 2
    },
    {
      "time": 435.7769230769231,
      "type": "on",
      "note": 62,
      "vel": 45,
      "channel": 2
    },
    {
      "time": 435.7634615384615,
      "type": "on",
      "note": 64,
      "vel": 45,
      "channel": 2
    },
    {
      "time": 435.6807692307692,
      "type": "on",
      "note": 72,
      "vel": 71,
      "channel": 0
    },
    {
      "time": 435.92884615384617,
      "type": "on",
      "note": 79,
      "vel": 40,
      "channel": 0
    },
    {
      "time": 436.1730769230769,
      "type": "on",
      "note": 76,
      "vel": 60,
      "channel": 0
    },
    {
      "time": 436.4076923076923,
      "type": "on",
      "note": 74,
      "vel": 44,
      "channel": 0
    },
    {
      "time": 436.6038461538462,
      "type": "on",
      "note": 72,
      "vel": 81,
      "channel": 0
    },
    {
      "time": 436.8403846153846,
      "type": "on",
      "note": 79,
      "vel": 43,
      "channel": 0
    },
    {
      "time": 437.07307692307694,
      "type": "on",
      "note": 76,
      "vel": 62,
      "channel": 0
    },
    {
      "time": 437.32307692307694,
      "type": "on",
      "note": 74,
      "vel": 46,
      "channel": 0
    },
    {
      "time": 437.52884615384613,
      "type": "on",
      "note": 72,
      "vel": 75,
      "channel": 0
    },
    {
      "time": 437.7923076923077,
      "type": "on",
      "note": 79,
      "vel": 40,
      "channel": 0
    },
    {
      "time": 437.9846153846154,
      "type": "on",
      "note": 76,
      "vel": 60,
      "channel": 0
    },
    {
      "time": 438.24038461538464,
      "type": "on",
      "note": 74,
      "vel": 44,
      "channel": 0
    },
    {
      "time": 438.46923076923076,
      "type": "on",
      "note": 72,
      "vel": 73,
      "channel": 0
    },
    {
      "time": 438.6807692307692,
      "type": "on",
      "note": 79,
      "vel": 47,
      "channel": 0
    },
    {
      "time": 438.9153846153846,
      "type": "on",
      "note": 76,
      "vel": 59,
      "channel": 0
    },
    {
      "time": 439.1442307692308,
      "type": "on",
      "note": 74,
      "vel": 46,
      "channel": 0
    },
    {
      "time": 439.38461538461536,
      "type": "on",
      "note": 40,
      "vel": 60,
      "channel": 1
    },
    {
      "time": 439.5576923076923,
      "type": "on",
      "note": 52,
      "vel": 45,
      "channel": 2
    },
    {
      "time": 439.41346153846155,
      "type": "on",
      "note": 55,
      "vel": 45,
      "channel": 2
    },
    {
      "time": 439.3980769230769,
      "type": "on",
      "note": 59,
      "vel": 45,
      "channel": 2
    },
    {
      "time": 439.3980769230769,
      "type": "on",
      "note": 62,
      "vel": 45,
      "channel": 2
    },
    {
      "time": 439.4673076923077,
      "type": "on",
      "note": 69,
      "vel": 45,
      "channel": 2
    },
    {
      "time": 439.40576923076924,
      "type": "on",
      "note": 67,
      "vel": 71,
      "channel": 0
    },
    {
      "time": 439.62115384615385,
      "type": "on",
      "note": 81,
      "vel": 43,
      "channel": 0
    },
    {
      "time": 439.8403846153846,
      "type": "on",
      "note": 74,
      "vel": 57,
      "channel": 0
    },
    {
      "time": 440.1,
      "type": "on",
      "note": 71,
      "vel": 47,
      "channel": 0
    },
    {
      "time": 440.29423076923075,
      "type": "on",
      "note": 67,
      "vel": 78,
      "channel": 0
    },
    {
      "time": 440.5557692307692,
      "type": "on",
      "note": 81,
      "vel": 49,
      "channel": 0
    },
    {
      "time": 440.7903846153846,
      "type": "on",
      "note": 74,
      "vel": 63,
      "channel": 0
    },
    {
      "time": 441.0192307692308,
      "type": "on",
      "note": 71,
      "vel": 40,
      "channel": 0
    },
    {
      "time": 441.2153846153846,
      "type": "on",
      "note": 67,
      "vel": 75,
      "channel": 0
    },
    {
      "time": 441.4653846153846,
      "type": "on",
      "note": 81,
      "vel": 50,
      "channel": 0
    },
    {
      "time": 441.7076923076923,
      "type": "on",
      "note": 74,
      "vel": 56,
      "channel": 0
    },
    {
      "time": 441.9096153846154,
      "type": "on",
      "note": 71,
      "vel": 45,
      "channel": 0
    },
    {
      "time": 442.17115384615386,
      "type": "on",
      "note": 67,
      "vel": 70,
      "channel": 0
    },
    {
      "time": 442.375,
      "type": "on",
      "note": 81,
      "vel": 43,
      "channel": 0
    },
    {
      "time": 442.6173076923077,
      "type": "on",
      "note": 74,
      "vel": 55,
      "channel": 0
    },
    {
      "time": 442.8326923076923,
      "type": "on",
      "note": 71,
      "vel": 42,
      "channel": 0
    },
    {
      "time": 443.0769230769231,
      "type": "on",
      "note": 33,
      "vel": 60,
      "channel": 1
    },
    {
      "time": 443.13653846153846,
      "type": "on",
      "note": 57,
      "vel": 45,
      "channel": 2
    },
    {
      "time": 443.09615384615387,
      "type": "on",
      "note": 60,
      "vel": 45,
      "channel": 2
    },
    {
      "time": 443.1865384615385,
      "type": "on",
      "note": 64,
      "vel": 45,
      "channel": 2
    },
    {
      "time": 443.25,
      "type": "on",
      "note": 71,
      "vel": 45,
      "channel": 2
    },
    {
      "time": 443.08076923076925,
      "type": "on",
      "note": 74,
      "vel": 45,
      "channel": 2
    },
    {
      "time": 443.0615384615385,
      "type": "on",
      "note": 69,
      "vel": 70,
      "channel": 0
    },
    {
      "time": 443.31538461538463,
      "type": "on",
      "note": 83,
      "vel": 44,
      "channel": 0
    },
    {
      "time": 443.5615384615385,
      "type": "on",
      "note": 76,
      "vel": 60,
      "channel": 0
    },
    {
      "time": 443.78076923076924,
      "type": "on",
      "note": 72,
      "vel": 45,
      "channel": 0
    },
    {
      "time": 443.9923076923077,
      "type": "on",
      "note": 69,
      "vel": 76,
      "channel": 0
    },
    {
      "time": 444.25,
      "type": "on",
      "note": 83,
      "vel": 48,
      "channel": 0
    },
    {
      "time": 444.44615384615383,
      "type": "on",
      "note": 76,
      "vel": 61,
      "channel": 0
    },
    {
      "time": 444.69615384615383,
      "type": "on",
      "note": 72,
      "vel": 50,
      "channel": 0
    },
    {
      "time": 444.9326923076923,
      "type": "on",
      "note": 69,
      "vel": 80,
      "channel": 0
    },
    {
      "time": 445.1596153846154,
      "type": "on",
      "note": 83,
      "vel": 42,
      "channel": 0
    },
    {
      "time": 445.38653846153846,
      "type": "on",
      "note": 76,
      "vel": 58,
      "channel": 0
    },
    {
      "time": 445.6115384615385,
      "type": "on",
      "note": 72,
      "vel": 45,
      "channel": 0
    },
    {
      "time": 445.8519230769231,
      "type": "on",
      "note": 69,
      "vel": 70,
      "channel": 0
    },
    {
      "time": 446.0826923076923,
      "type": "on",
      "note": 83,
      "vel": 50,
      "channel": 0
    },
    {
      "time": 446.3173076923077,
      "type": "on",
      "note": 76,
      "vel": 63,
      "channel": 0
    },
    {
      "time": 446.5269230769231,
      "type": "on",
      "note": 72,
      "vel": 41,
      "channel": 0
    },
    {
      "time": 446.7692307692308,
      "type": "on",
      "note": 29,
      "vel": 60,
      "channel": 1
    },
    {
      "time": 446.94807692307694,
      "type": "on",
      "note": 53,
      "vel": 45,
      "channel": 2
    },
    {
      "time": 446.90576923076924,
      "type": "on",
      "note": 57,
      "vel": 45,
      "channel": 2
    },
    {
      "time": 446.90384615384613,
      "type": "on",
      "note": 60,
      "vel": 45,
      "channel": 2
    },
    {
      "time": 446.7730769230769,
      "type": "on",
      "note": 64,
      "vel": 45,
      "channel": 2
    },
    {
      "time": 446.8423076923077,
      "type": "on",
      "note": 71,
      "vel": 45,
      "channel": 2
    },
    {
      "time": 446.7557692307692,
      "type": "on",
      "note": 65,
      "vel": 84,
      "channel": 0
    },
    {
      "time": 446.9865384615385,
      "type": "on",
      "note": 76,
      "vel": 40,
      "channel": 0
    },
    {
      "time": 447.24807692307695,
      "type": "on",
      "note": 72,
      "vel": 63,
      "channel": 0
    },
    {
      "time": 447.45576923076925,
      "type": "on",
      "note": 69,
      "vel": 44,
      "channel": 0
    },
    {
      "time": 447.7,
      "type": "on",
      "note": 65,
      "vel": 70,
      "channel": 0
    },
    {
      "time": 447.9365384615385,
      "type": "on",
      "note": 76,
      "vel": 42,
      "channel": 0
    },
    {
      "time": 448.1653846153846,
      "type": "on",
      "note": 72,
      "vel": 65,
      "channel": 0
    },
    {
      "time": 448.4076923076923,
      "type": "on",
      "note": 69,
      "vel": 44,
      "channel": 0
    },
    {
      "time": 448.6038461538462,
      "type": "on",
      "note": 65,
      "vel": 85,
      "channel": 0
    },
    {
      "time": 448.8346153846154,
      "type": "on",
      "note": 76,
      "vel": 45,
      "channel": 0
    },
    {
      "time": 449.07307692307694,
      "type": "on",
      "note": 72,
      "vel": 56,
      "channel": 0
    },
    {
      "time": 449.31538461538463,
      "type": "on",
      "note": 69,
      "vel": 47,
      "channel": 0
    },
    {
      "time": 449.53846153846155,
      "type": "on",
      "note": 65,
      "vel": 85,
      "channel": 0
    },
    {
      "time": 449.78653846153844,
      "type": "on",
      "note": 76,
      "vel": 40,
      "channel": 0
    },
    {
      "time": 449.9942307692308,
      "type": "on",
      "note": 72,
      "vel": 57,
      "channel": 0
    },
    {
      "time": 450.2423076923077,
      "type": "on",
      "note": 69,
      "vel": 43,
      "channel": 0
    },
    {
      "time": 450.46153846153845,
      "type": "on",
      "note": 36,
      "vel": 60,
      "channel": 1
    },
    {
      "time": 450.58653846153845,
      "type": "on",
      "note": 48,
      "vel": 45,
      "channel": 2
    },
    {
      "time": 450.46153846153845,
      "type": "on",
      "note": 55,
      "vel": 45,
      "channel": 2
    },
    {
      "time": 450.4730769230769,
      "type": "on",
      "note": 60,
      "vel": 45,
      "channel": 2
    },
    {
      "time": 450.5211538461538,
      "type": "on",
      "note": 62,
      "vel": 45,
      "channel": 2
    },
    {
      "time": 450.6057692307692,
      "type": "on",
      "note": 64,
      "vel": 45,
      "channel": 2
    },
    {
      "time": 450.45,
      "type": "on",
      "note": 72,
      "vel": 79,
      "channel": 0
    },
    {
      "time": 450.7,
      "type": "on",
      "note": 79,
      "vel": 41,
      "channel": 0
    },
    {
      "time": 450.9230769230769,
      "type": "on",
      "note": 76,
      "vel": 59,
      "channel": 0
    },
    {
      "time": 451.1596153846154,
      "type": "on",
      "note": 74,
      "vel": 48,
      "channel": 0
    },
    {
      "time": 451.375,
      "type": "on",
      "note": 72,
      "vel": 70,
      "channel": 0
    },
    {
      "time": 451.6019230769231,
      "type": "on",
      "note": 79,
      "vel": 47,
      "channel": 0
    },
    {
      "time": 451.85,
      "type": "on",
      "note": 76,
      "vel": 59,
      "channel": 0
    },
    {
      "time": 452.1,
      "type": "on",
      "note": 74,
      "vel": 42,
      "channel": 0
    },
    {
      "time": 452.3173076923077,
      "type": "on",
      "note": 72,
      "vel": 83,
      "channel": 0
    },
    {
      "time": 452.55384615384617,
      "type": "on",
      "note": 79,
      "vel": 42,
      "channel": 0
    },
    {
      "time": 452.78653846153844,
      "type": "on",
      "note": 76,
      "vel": 63,
      "channel": 0
    },
    {
      "time": 453.0153846153846,
      "type": "on",
      "note": 74,
      "vel": 41,
      "channel": 0
    },
    {
      "time": 453.25384615384615,
      "type": "on",
      "note": 72,
      "vel": 82,
      "channel": 0
    },
    {
      "time": 453.44615384615383,
      "type": "on",
      "note": 79,
      "vel": 50,
      "channel": 0
    },
    {
      "time": 453.67884615384617,
      "type": "on",
      "note": 76,
      "vel": 61,
      "channel": 0
    },
    {
      "time": 453.94615384615383,
      "type": "on",
      "note": 74,
      "vel": 44,
      "channel": 0
    },
    {
      "time": 454.15384615384613,
      "type": "on",
      "note": 43,
      "vel": 60,
      "channel": 1
    },
    {
      "time": 454.26153846153846,
      "type": "on",
      "note": 55,
      "vel": 45,
      "channel": 2
    },
    {
      "time": 454.3403846153846,
      "type": "on",
      "note": 58,
      "vel": 45,
      "channel": 2
    },
    {
      "time": 454.2,
      "type": "on",
      "note": 62,
      "vel": 45,
      "channel": 2
    },
    {
      "time": 454.1576923076923,
      "type": "on",
      "note": 65,
      "vel": 45,
      "channel": 2
    },
    {
      "time": 454.28076923076924,
      "type": "on",
      "note": 72,
      "vel": 45,
      "channel": 2
    },
    {
      "time": 454.1384615384615,
      "type": "on",
      "note": 70,
      "vel": 83,
      "channel": 0
    },
    {
      "time": 454.3961538461538,
      "type": "on",
      "note": 84,
      "vel": 46,
      "channel": 0
    },
    {
      "time": 454.6307692307692,
      "type": "on",
      "note": 77,
      "vel": 64,
      "channel": 0
    },
    {
      "time": 454.8557692307692,
      "type": "on",
      "note": 74,
      "vel": 47,
      "channel": 0
    },
    {
      "time": 455.07307692307694,
      "type": "on",
      "note": 70,
      "vel": 77,
      "channel": 0
    },
    {
      "time": 455.32307692307694,
      "type": "on",
      "note": 84,
      "vel": 41,
      "channel": 0
    },
    {
      "time": 455.5615384615385,
      "type": "on",
      "note": 77,
      "vel": 65,
      "channel": 0
    },
    {
      "time": 455.7711538461538,
      "type": "on",
      "note": 74,
      "vel": 42,
      "channel": 0
    },
    {
      "time": 455.99807692307695,
      "type": "on",
      "note": 70,
      "vel": 72,
      "channel": 0
    },
    {
      "time": 456.23269230769233,
      "type": "on",
      "note": 84,
      "vel": 44,
      "channel": 0
    },
    {
      "time": 456.44615384615383,
      "type": "on",
      "note": 77,
      "vel": 59,
      "channel": 0
    },
    {
      "time": 456.6807692307692,
      "type": "on",
      "note": 74,
      "vel": 44,
      "channel": 0
    },
    {
      "time": 456.93461538461537,
      "type": "on",
      "note": 70,
      "vel": 80,
      "channel": 0
    },
    {
      "time": 457.16923076923075,
      "type": "on",
      "note": 84,
      "vel": 48,
      "channel": 0
    },
    {
      "time": 457.38653846153846,
      "type": "on",
      "note": 77,
      "vel": 63,
      "channel": 0
    },
    {
      "time": 457.63653846153846,
      "type": "on",
      "note": 74,
      "vel": 49,
      "channel": 0
    },
    {
      "time": 454.1480769230769,
      "type": "on",
      "note": 74,
      "vel": 71,
      "channel": 3
    },
    {
      "time": 456.0,
      "type": "on",
      "note": 74,
      "vel": 71,
      "channel": 3
    },
    {
      "time": 457.84615384615387,
      "type": "on",
      "note": 36,
      "vel": 60,
      "channel": 1
    },
    {
      "time": 457.8557692307692,
      "type": "on",
      "note": 60,
      "vel": 45,
      "channel": 2
    },
    {
      "time": 458.00384615384615,
      "type": "on",
      "note": 63,
      "vel": 45,
      "channel": 2
    },
    {
      "time": 458.0,
      "type": "on",
      "note": 67,
      "vel": 45,
      "channel": 2
    },
    {
      "time": 457.9076923076923,
      "type": "on",
      "note": 74,
      "vel": 45,
      "channel": 2
    },
    {
      "time": 457.9326923076923,
      "type": "on",
      "note": 77,
      "vel": 45,
      "channel": 2
    },
    {
      "time": 457.86538461538464,
      "type": "on",
      "note": 72,
      "vel": 74,
      "channel": 0
    },
    {
      "time": 458.075,
      "type": "on",
      "note": 86,
      "vel": 49,
      "channel": 0
    },
    {
      "time": 458.32884615384614,
      "type": "on",
      "note": 79,
      "vel": 59,
      "channel": 0
    },
    {
      "time": 458.5480769230769,
      "type": "on",
      "note": 75,
      "vel": 49,
      "channel": 0
    },
    {
      "time": 458.75961538461536,
      "type": "on",
      "note": 72,
      "vel": 70,
      "channel": 0
    },
    {
      "time": 458.9923076923077,
      "type": "on",
      "note": 86,
      "vel": 41,
      "channel": 0
    },
    {
      "time": 459.225,
      "type": "on",
      "note": 79,
      "vel": 60,
      "channel": 0
    },
    {
      "time": 459.46153846153845,
      "type": "on",
      "note": 75,
      "vel": 43,
      "channel": 0
    },
    {
      "time": 459.6826923076923,
      "type": "on",
      "note": 72,
      "vel": 81,
      "channel": 0
    },
    {
      "time": 459.9307692307692,
      "type": "on",
      "note": 86,
      "vel": 45,
      "channel": 0
    },
    {
      "time": 460.1384615384615,
      "type": "on",
      "note": 79,
      "vel": 56,
      "channel": 0
    },
    {
      "time": 460.3692307692308,
      "type": "on",
      "note": 75,
      "vel": 46,
      "channel": 0
    },
    {
      "time": 460.6115384615385,
      "type": "on",
      "note": 72,
      "vel": 70,
      "channel": 0
    },
    {
      "time": 460.85,
      "type": "on",
      "note": 86,
      "vel": 43,
      "channel": 0
    },
    {
      "time": 461.0923076923077,
      "type": "on",
      "note": 79,
      "vel": 56,
      "channel": 0
    },
    {
      "time": 461.3,
      "type": "on",
      "note": 75,
      "vel": 44,
      "channel": 0
    },
    {
      "time": 457.8480769230769,
      "type": "on",
      "note": 79,
      "vel": 71,
      "channel": 3
    },
    {
      "time": 459.6942307692308,
      "type": "on",
      "note": 79,
      "vel": 70,
      "channel": 3
    },
    {
      "time": 461.53846153846155,
      "type": "on",
      "note": 32,
      "vel": 60,
      "channel": 1
    },
    {
      "time": 461.6884615384615,
      "type": "on",
      "note": 56,
      "vel": 45,
      "channel": 2
    },
    {
      "time": 461.57884615384614,
      "type": "on",
      "note": 60,
      "vel": 45,
      "channel": 2
    },
    {
      "time": 461.61346153846154,
      "type": "on",
      "note": 63,
      "vel": 45,
      "channel": 2
    },
    {
      "time": 461.6576923076923,
      "type": "on",
      "note": 67,
      "vel": 45,
      "channel": 2
    },
    {
      "time": 461.6942307692308,
      "type": "on",
      "note": 74,
      "vel": 45,
      "channel": 2
    },
    {
      "time": 461.53846153846155,
      "type": "on",
      "note": 68,
      "vel": 78,
      "channel": 0
    },
    {
      "time": 461.7730769230769,
      "type": "on",
      "note": 79,
      "vel": 49,
      "channel": 0
    },
    {
      "time": 462.00192307692305,
      "type": "on",
      "note": 75,
      "vel": 57,
      "channel": 0
    },
    {
      "time": 462.25192307692305,
      "type": "on",
      "note": 72,
      "vel": 43,
      "channel": 0
    },
    {
      "time": 462.44807692307694,
      "type": "on",
      "note": 68,
      "vel": 84,
      "channel": 0
    },
    {
      "time": 462.7076923076923,
      "type": "on",
      "note": 79,
      "vel": 40,
      "channel": 0
    },
    {
      "time": 462.91923076923075,
      "type": "on",
      "note": 75,
      "vel": 60,
      "channel": 0
    },
    {
      "time": 463.15576923076924,
      "type": "on",
      "note": 72,
      "vel": 48,
      "channel": 0
    },
    {
      "time": 463.37692307692305,
      "type": "on",
      "note": 68,
      "vel": 79,
      "channel": 0
    },
    {
      "time": 463.6384615384615,
      "type": "on",
      "note": 79,
      "vel": 50,
      "channel": 0
    },
    {
      "time": 463.8519230769231,
      "type": "on",
      "note": 75,
      "vel": 57,
      "channel": 0
    },
    {
      "time": 464.07115384615383,
      "type": "on",
      "note": 72,
      "vel": 41,
      "channel": 0
    },
    {
      "time": 464.32884615384614,
      "type": "on",
      "note": 68,
      "vel": 78,
      "channel": 0
    },
    {
      "time": 464.5557692307692,
      "type": "on",
      "note": 79,
      "vel": 48,
      "channel": 0
    },
    {
      "time": 464.75384615384615,
      "type": "on",
      "note": 75,
      "vel": 60,
      "channel": 0
    },
    {
      "time": 465.01153846153846,
      "type": "on",
      "note": 72,
      "vel": 48,
      "channel": 0
    },
    {
      "time": 461.54423076923075,
      "type": "on",
      "note": 75,
      "vel": 78,
      "channel": 3
    },
    {
      "time": 463.4,
      "type": "on",
      "note": 75,
      "vel": 74,
      "channel": 3
    },
    {
      "time": 465.2307692307692,
      "type": "on",
      "note": 39,
      "vel": 60,
      "channel": 1
    },
    {
      "time": 465.3615384615385,
      "type": "on",
      "note": 51,
      "vel": 45,
      "channel": 2
    },
    {
      "time": 465.35769230769233,
      "type": "on",
      "note": 58,
      "vel": 45,
      "channel": 2
    },
    {
      "time": 465.38653846153846,
      "type": "on",
      "note": 63,
      "vel": 45,
      "channel": 2
    },
    {
      "time": 465.36346153846154,
      "type": "on",
      "note": 65,
      "vel": 45,
      "channel": 2
    },
    {
      "time": 465.2903846153846,
      "type": "on",
      "note": 67,
      "vel": 45,
      "channel": 2
    },
    {
      "time": 465.2307692307692,
      "type": "on",
      "note": 75,
      "vel": 85,
      "channel": 0
    },
    {
      "time": 465.4788461538462,
      "type": "on",
      "note": 82,
      "vel": 40,
      "channel": 0
    },
    {
      "time": 465.69038461538463,
      "type": "on",
      "note": 79,
      "vel": 55,
      "channel": 0
    },
    {
      "time": 465.92692307692306,
      "type": "on",
      "note": 77,
      "vel": 43,
      "channel": 0
    },
    {
      "time": 466.1576923076923,
      "type": "on",
      "note": 75,
      "vel": 80,
      "channel": 0
    },
    {
      "time": 466.3942307692308,
      "type": "on",
      "note": 82,
      "vel": 50,
      "channel": 0
    },
    {
      "time": 466.6173076923077,
      "type": "on",
      "note": 79,
      "vel": 65,
      "channel": 0
    },
    {
      "time": 466.85769230769233,
      "type": "on",
      "note": 77,
      "vel": 47,
      "channel": 0
    },
    {
      "time": 467.075,
      "type": "on",
      "note": 75,
      "vel": 76,
      "channel": 0
    },
    {
      "time": 467.30384615384617,
      "type": "on",
      "note": 82,
      "vel": 44,
      "channel": 0
    },
    {
      "time": 467.525,
      "type": "on",
      "note": 79,
      "vel": 62,
      "channel": 0
    },
    {
      "time": 467.7653846153846,
      "type": "on",
      "note": 77,
      "vel": 47,
      "channel": 0
    },
    {
      "time": 468.0230769230769,
      "type": "on",
      "note": 75,
      "vel": 77,
      "channel": 0
    },
    {
      "time": 468.2269230769231,
      "type": "on",
      "note": 82,
      "vel": 49,
      "channel": 0
    },
    {
      "time": 468.4769230769231,
      "type": "on",
      "note": 79,
      "vel": 57,
      "channel": 0
    },
    {
      "time": 468.6884615384615,
      "type": "on",
      "note": 77,
      "vel": 44,
      "channel": 0
    },
    {
      "time": 465.2269230769231,
      "type": "on",
      "note": 75,
      "vel": 73,
      "channel": 3
    },
    {
      "time": 467.0903846153846,
      "type": "on",
      "note": 75,
      "vel": 71,
      "channel": 3
    },
    {
      "time": 468.9230769230769,
      "type": "on",
      "note": 43,
      "vel": 60,
      "channel": 1
    },
    {
      "time": 468.9673076923077,
      "type": "on",
      "note": 55,
      "vel": 45,
      "channel": 2
    },
    {
      "time": 468.94807692307694,
      "type": "on",
      "note": 58,
      "vel": 45,
      "channel": 2
    },
    {
      "time": 469.0846153846154,
      "type": "on",
      "note": 62,
      "vel": 45,
      "channel": 2
    },
    {
      "time": 468.96923076923076,
      "type": "on",
      "note": 65,
      "vel": 45,
      "channel": 2
    },
    {
      "time": 468.9942307692308,
      "type": "on",
      "note": 72,
      "vel": 45,
      "channel": 2
    },
    {
      "time": 468.9096153846154,
      "type": "on",
      "note": 70,
      "vel": 71,
      "channel": 0
    },
    {
      "time": 469.175,
      "type": "on",
      "note": 84,
      "vel": 44,
      "channel": 0
    },
    {
      "time": 469.4,
      "type": "on",
      "note": 77,
      "vel": 62,
      "channel": 0
    },
    {
      "time": 469.6115384615385,
      "type": "on",
      "note": 74,
      "vel": 45,
      "channel": 0
    },
    {
      "time": 469.8480769230769,
      "type": "on",
      "note": 70,
      "vel": 71,
      "channel": 0
    },
    {
      "time": 470.0903846153846,
      "type": "on",
      "note": 84,
      "vel": 45,
      "channel": 0
    },
    {
      "time": 470.33076923076925,
      "type": "on",
      "note": 77,
      "vel": 59,
      "channel": 0
    },
    {
      "time": 470.5480769230769,
      "type": "on",
      "note": 74,
      "vel": 45,
      "channel": 0
    },
    {
      "time": 470.78076923076924,
      "type": "on",
      "note": 70,
      "vel": 83,
      "channel": 0
    },
    {
      "time": 471.0076923076923,
      "type": "on",
      "note": 84,
      "vel": 46,
      "channel": 0
    },
    {
      "time": 471.2230769230769,
      "type": "on",
      "note": 77,
      "vel": 58,
      "channel": 0
    },
    {
      "time": 471.4730769230769,
      "type": "on",
      "note": 74,
      "vel": 42,
      "channel": 0
    },
    {
      "time": 471.6884615384615,
      "type": "on",
      "note": 70,
      "vel": 83,
      "channel": 0
    },
    {
      "time": 471.94615384615383,
      "type": "on",
      "note": 84,
      "vel": 47,
      "channel": 0
    },
    {
      "time": 472.16153846153844,
      "type": "on",
      "note": 77,
      "vel": 63,
      "channel": 0
    },
    {
      "time": 472.3961538461538,
      "type": "on",
      "note": 74,
      "vel": 47,
      "channel": 0
    },
    {
      "time": 468.93461538461537,
      "type": "on",
      "note": 74,
      "vel": 79,
      "channel": 3
    },
    {
      "time": 470.7634615384615,
      "type": "on",
      "note": 74,
      "vel": 73,
      "channel": 3
    },
    {
      "time": 472.61538461538464,
      "type": "on",
      "note": 36,
      "vel": 60,
      "channel": 1
    },
    {
      "time": 472.63461538461536,
      "type": "on",
      "note": 60,
      "vel": 45,
      "channel": 2
    },
    {
      "time": 472.6865384615385,
      "type": "on",
      "note": 63,
      "vel": 45,
      "channel": 2
    },
    {
      "time": 472.74038461538464,
      "type": "on",
      "note": 67,
      "vel": 45,
      "channel": 2
    },
    {
      "time": 472.65384615384613,
      "type": "on",
      "note": 74,
      "vel": 45,
      "channel": 2
    },
    {
      "time": 472.8057692307692,
      "type": "on",
      "note": 77,
      "vel": 45,
      "channel": 2
    },
    {
      "time": 472.61538461538464,
      "type": "on",
      "note": 72,
      "vel": 73,
      "channel": 0
    },
    {
      "time": 472.8673076923077,
      "type": "on",
      "note": 86,
      "vel": 42,
      "channel": 0
    },
    {
      "time": 473.0826923076923,
      "type": "on",
      "note": 79,
      "vel": 62,
      "channel": 0
    },
    {
      "time": 473.325,
      "type": "on",
      "note": 75,
      "vel": 41,
      "channel": 0
    },
    {
      "time": 473.5423076923077,
      "type": "on",
      "note": 72,
      "vel": 70,
      "channel": 0
    },
    {
      "time": 473.7730769230769,
      "type": "on",
      "note": 86,
      "vel": 43,
      "channel": 0
    },
    {
      "time": 473.99807692307695,
      "type": "on",
      "note": 79,
      "vel": 56,
      "channel": 0
    },
    {
      "time": 474.23269230769233,
      "type": "on",
      "note": 75,
      "vel": 45,
      "channel": 0
    },
    {
      "time": 474.4576923076923,
      "type": "on",
      "note": 72,
      "vel": 78,
      "channel": 0
    },
    {
      "time": 474.67884615384617,
      "type": "on",
      "note": 86,
      "vel": 44,
      "channel": 0
    },
    {
      "time": 474.9442307692308,
      "type": "on",
      "note": 79,
      "vel": 57,
      "channel": 0
    },
    {
      "time": 475.1442307692308,
      "type": "on",
      "note": 75,
      "vel": 49,
      "channel": 0
    },
    {
      "time": 475.40576923076924,
      "type": "on",
      "note": 72,
      "vel": 80,
      "channel": 0
    },
    {
      "time": 475.6057692307692,
      "type": "on",
      "note": 86,
      "vel": 41,
      "channel": 0
    },
    {
      "time": 475.85769230769233,
      "type": "on",
      "note": 79,
      "vel": 60,
      "channel": 0
    },
    {
      "time": 476.0923076923077,
      "type": "on",
      "note": 75,
      "vel": 40,
      "channel": 0
    },
    {
      "time": 472.6057692307692,
      "type": "on",
      "note": 79,
      "vel": 76,
      "channel": 3
    },
    {
      "time": 474.46346153846156,
      "type": "on",
      "note": 79,
      "vel": 73,
      "channel": 3
    },
    {
      "time": 476.3076923076923,
      "type": "on",
      "note": 32,
      "vel": 60,
      "channel": 1
    },
    {
      "time": 476.34423076923076,
      "type": "on",
      "note": 56,
      "vel": 45,
      "channel": 2
    },
    {
      "time": 476.4307692307692,
      "type": "on",
      "note": 60,
      "vel": 45,
      "channel": 2
    },
    {
      "time": 476.46153846153845,
      "type": "on",
      "note": 63,
      "vel": 45,
      "channel": 2
    },
    {
      "time": 476.4865384615385,
      "type": "on",
      "note": 67,
      "vel": 45,
      "channel": 2
    },
    {
      "time": 476.3615384615385,
      "type": "on",
      "note": 74,
      "vel": 45,
      "channel": 2
    },
    {
      "time": 476.30384615384617,
      "type": "on",
      "note": 68,
      "vel": 76,
      "channel": 0
    },
    {
      "time": 476.5557692307692,
      "type": "on",
      "note": 79,
      "vel": 43,
      "channel": 0
    },
    {
      "time": 476.7557692307692,
      "type": "on",
      "note": 75,
      "vel": 64,
      "channel": 0
    },
    {
      "time": 477.0057692307692,
      "type": "on",
      "note": 72,
      "vel": 49,
      "channel": 0
    },
    {
      "time": 477.2269230769231,
      "type": "on",
      "note": 68,
      "vel": 70,
      "channel": 0
    },
    {
      "time": 477.46153846153845,
      "type": "on",
      "note": 79,
      "vel": 48,
      "channel": 0
    },
    {
      "time": 477.7019230769231,
      "type": "on",
      "note": 75,
      "vel": 63,
      "channel": 0
    },
    {
      "time": 477.92115384615386,
      "type": "on",
      "note": 72,
      "vel": 47,
      "channel": 0
    },
    {
      "time": 478.1653846153846,
      "type": "on",
      "note": 68,
      "vel": 84,
      "channel": 0
    },
    {
      "time": 478.375,
      "type": "on",
      "note": 79,
      "vel": 40,
      "channel": 0
    },
    {
      "time": 478.63653846153846,
      "type": "on",
      "note": 75,
      "vel": 58,
      "channel": 0
    },
    {
      "time": 478.8596153846154,
      "type": "on",
      "note": 72,
      "vel": 41,
      "channel": 0
    },
    {
      "time": 479.0673076923077,
      "type": "on",
      "note": 68,
      "vel": 81,
      "channel": 0
    },
    {
      "time": 479.3076923076923,
      "type": "on",
      "note": 79,
      "vel": 45,
      "channel": 0
    },
    {
      "time": 479.52884615384613,
      "type": "on",
      "note": 75,
      "vel": 61,
      "channel": 0
    },
    {
      "time": 479.78076923076924,
      "type": "on",
      "note": 72,
      "vel": 47,
      "channel": 0
    },
    {
      "time": 476.30192307692306,
      "type": "on",
      "note": 75,
      "vel": 72,
      "channel": 3
    },
    {
      "time": 478.15576923076924,
      "type": "on",
      "note": 75,
      "vel": 78,
      "channel": 3
    },
    {
      "time": 480.0,
      "type": "on",
      "note": 39,
      "vel": 60,
      "channel": 1
    },
    {
      "time": 480.15576923076924,
      "type": "on",
      "note": 51,
      "vel": 45,
      "channel": 2
    },
    {
      "time": 480.17884615384617,
      "type": "on",
      "note": 58,
      "vel": 45,
      "channel": 2
    },
    {
      "time": 480.05192307692306,
      "type": "on",
      "note": 63,
      "vel": 45,
      "channel": 2
    },
    {
      "time": 480.07884615384614,
      "type": "on",
      "note": 65,
      "vel": 45,
      "channel": 2
    },
    {
      "time": 480.1115384615385,
      "type": "on",
      "note": 67,
      "vel": 45,
      "channel": 2
    },
    {
      "time": 479.9846153846154,
      "type": "on",
      "note": 75,
      "vel": 77,
      "channel": 0
    },
    {
      "time": 480.2423076923077,
      "type": "on",
      "note": 82,
      "vel": 49,
      "channel": 0
    },
    {
      "time": 480.4673076923077,
      "type": "on",
      "note": 79,
      "vel": 59,
      "channel": 0
    },
    {
      "time": 480.67692307692306,
      "type": "on",
      "note": 77,
      "vel": 50,
      "channel": 0
    },
    {
      "time": 480.9307692307692,
      "type": "on",
      "note": 75,
      "vel": 79,
      "channel": 0
    },
    {
      "time": 481.17115384615386,
      "type": "on",
      "note": 82,
      "vel": 42,
      "channel": 0
    },
    {
      "time": 481.3692307692308,
      "type": "on",
      "note": 79,
      "vel": 65,
      "channel": 0
    },
    {
      "time": 481.6384615384615,
      "type": "on",
      "note": 77,
      "vel": 40,
      "channel": 0
    },
    {
      "time": 481.8673076923077,
      "type": "on",
      "note": 75,
      "vel": 71,
      "channel": 0
    },
    {
      "time": 482.07884615384614,
      "type": "on",
      "note": 82,
      "vel": 40,
      "channel": 0
    },
    {
      "time": 482.3115384615385,
      "type": "on",
      "note": 79,
      "vel": 62,
      "channel": 0
    },
    {
      "time": 482.54423076923075,
      "type": "on",
      "note": 77,
      "vel": 40,
      "channel": 0
    },
    {
      "time": 482.7903846153846,
      "type": "on",
      "note": 75,
      "vel": 85,
      "channel": 0
    },
    {
      "time": 483.0076923076923,
      "type": "on",
      "note": 82,
      "vel": 41,
      "channel": 0
    },
    {
      "time": 483.2230769230769,
      "type": "on",
      "note": 79,
      "vel": 60,
      "channel": 0
    },
    {
      "time": 483.4576923076923,
      "type": "on",
      "note": 77,
      "vel": 45,
      "channel": 0
    },
    {
      "time": 479.99807692307695,
      "type": "on",
      "note": 75,
      "vel": 75,
      "channel": 3
    },
    {
      "time": 481.8423076923077,
      "type": "on",
      "note": 75,
      "vel": 76,
      "channel": 3
    },
    {
      "time": 483.6923076923077,
      "type": "on",
      "note": 43,
      "vel": 60,
      "channel": 1
    },
    {
      "time": 483.82115384615383,
      "type": "on",
      "note": 55,
      "vel": 45,
      "channel": 2
    },
    {
      "time": 483.7980769230769,
      "type": "on",
      "note": 58,
      "vel": 45,
      "channel": 2
    },
    {
      "time": 483.7980769230769,
      "type": "on",
      "note": 62,
      "vel": 45,
      "channel": 2
    },
    {
      "time": 483.71923076923076,
      "type": "on",
      "note": 65,
      "vel": 45,
      "channel": 2
    },
    {
      "time": 483.69807692307694,
      "type": "on",
      "note": 72,
      "vel": 45,
      "channel": 2
    },
    {
      "time": 483.7,
      "type": "on",
      "note": 70,
      "vel": 76,
      "channel": 0
    },
    {
      "time": 483.9096153846154,
      "type": "on",
      "note": 84,
      "vel": 42,
      "channel": 0
    },
    {
      "time": 484.16923076923075,
      "type": "on",
      "note": 77,
      "vel": 59,
      "channel": 0
    },
    {
      "time": 484.3942307692308,
      "type": "on",
      "note": 74,
      "vel": 46,
      "channel": 0
    },
    {
      "time": 484.6173076923077,
      "type": "on",
      "note": 70,
      "vel": 75,
      "channel": 0
    },
    {
      "time": 484.8538461538462,
      "type": "on",
      "note": 84,
      "vel": 46,
      "channel": 0
    },
    {
      "time": 485.09615384615387,
      "type": "on",
      "note": 77,
      "vel": 58,
      "channel": 0
    },
    {
      "time": 485.3134615384615,
      "type": "on",
      "note": 74,
      "vel": 46,
      "channel": 0
    },
    {
      "time": 485.52884615384613,
      "type": "on",
      "note": 70,
      "vel": 85,
      "channel": 0
    },
    {
      "time": 485.7923076923077,
      "type": "on",
      "note": 84,
      "vel": 50,
      "channel": 0
    },
    {
      "time": 486.00961538461536,
      "type": "on",
      "note": 77,
      "vel": 59,
      "channel": 0
    },
    {
      "time": 486.25192307692305,
      "type": "on",
      "note": 74,
      "vel": 42,
      "channel": 0
    },
    {
      "time": 486.45,
      "type": "on",
      "note": 70,
      "vel": 82,
      "channel": 0
    },
    {
      "time": 486.6865384615385,
      "type": "on",
      "note": 84,
      "vel": 42,
      "channel": 0
    },
    {
      "time": 486.9076923076923,
      "type": "on",
      "note": 77,
      "vel": 64,
      "channel": 0
    },
    {
      "time": 487.17115384615386,
      "type": "on",
      "note": 74,
      "vel": 50,
      "channel": 0
    },
    {
      "time": 483.7,
      "type": "on",
      "note": 74,
      "vel": 75,
      "channel": 3
    },
    {
      "time": 485.52884615384613,
      "type": "on",
      "note": 74,
      "vel": 73,
      "channel": 3
    },
    {
      "time": 487.38461538461536,
      "type": "on",
      "note": 36,
      "vel": 60,
      "channel": 1
    },
    {
      "time": 487.46153846153845,
      "type": "on",
      "note": 60,
      "vel": 45,
      "channel": 2
    },
    {
      "time": 487.575,
      "type": "on",
      "note": 63,
      "vel": 45,
      "channel": 2
    },
    {
      "time": 487.425,
      "type": "on",
      "note": 67,
      "vel": 45,
      "channel": 2
    },
    {
      "time": 487.47115384615387,
      "type": "on",
      "note": 74,
      "vel": 45,
      "channel": 2
    },
    {
      "time": 487.5269230769231,
      "type": "on",
      "note": 77,
      "vel": 45,
      "channel": 2
    },
    {
      "time": 487.38653846153846,
      "type": "on",
      "note": 72,
      "vel": 71,
      "channel": 0
    },
    {
      "time": 487.6057692307692,
      "type": "on",
      "note": 86,
      "vel": 47,
      "channel": 0
    },
    {
      "time": 487.8557692307692,
      "type": "on",
      "note": 79,
      "vel": 62,
      "channel": 0
    },
    {
      "time": 488.06538461538463,
      "type": "on",
      "note": 75,
      "vel": 45,
      "channel": 0
    },
    {
      "time": 488.30192307692306,
      "type": "on",
      "note": 72,
      "vel": 70,
      "channel": 0
    },
    {
      "time": 488.53653846153844,
      "type": "on",
      "note": 86,
      "vel": 43,
      "channel": 0
    },
    {
      "time": 488.76153846153846,
      "type": "on",
      "note": 79,
      "vel": 60,
      "channel": 0
    },
    {
      "time": 488.9923076923077,
      "type": "on",
      "note": 75,
      "vel": 47,
      "channel": 0
    },
    {
      "time": 489.2307692307692,
      "type": "on",
      "note": 72,
      "vel": 84,
      "channel": 0
    },
    {
      "time": 489.4519230769231,
      "type": "on",
      "note": 86,
      "vel": 46,
      "channel": 0
    },
    {
      "time": 489.7076923076923,
      "type": "on",
      "note": 79,
      "vel": 65,
      "channel": 0
    },
    {
      "time": 489.92884615384617,
      "type": "on",
      "note": 75,
      "vel": 41,
      "channel": 0
    },
    {
      "time": 490.1480769230769,
      "type": "on",
      "note": 72,
      "vel": 75,
      "channel": 0
    },
    {
      "time": 490.4019230769231,
      "type": "on",
      "note": 86,
      "vel": 48,
      "channel": 0
    },
    {
      "time": 490.6326923076923,
      "type": "on",
      "note": 79,
      "vel": 55,
      "channel": 0
    },
    {
      "time": 490.8615384615385,
      "type": "on",
      "note": 75,
      "vel": 48,
      "channel": 0
    },
    {
      "time": 487.40384615384613,
      "type": "on",
      "note": 79,
      "vel": 78,
      "channel": 3
    },
    {
      "time": 489.22115384615387,
      "type": "on",
      "note": 79,
      "vel": 70,
      "channel": 3
    },
    {
      "time": 491.0769230769231,
      "type": "on",
      "note": 32,
      "vel": 60,
      "channel": 1
    },
    {
      "time": 491.11346153846154,
      "type": "on",
      "note": 56,
      "vel": 45,
      "channel": 2
    },
    {
      "time": 491.12692307692305,
      "type": "on",
      "note": 60,
      "vel": 45,
      "channel": 2
    },
    {
      "time": 491.07884615384614,
      "type": "on",
      "note": 63,
      "vel": 45,
      "channel": 2
    },
    {
      "time": 491.1480769230769,
      "type": "on",
      "note": 67,
      "vel": 45,
      "channel": 2
    },
    {
      "time": 491.10769230769233,
      "type": "on",
      "note": 74,
      "vel": 45,
      "channel": 2
    },
    {
      "time": 491.0923076923077,
      "type": "on",
      "note": 68,
      "vel": 73,
      "channel": 0
    },
    {
      "time": 491.32115384615383,
      "type": "on",
      "note": 79,
      "vel": 47,
      "channel": 0
    },
    {
      "time": 491.5576923076923,
      "type": "on",
      "note": 75,
      "vel": 56,
      "channel": 0
    },
    {
      "time": 491.76730769230767,
      "type": "on",
      "note": 72,
      "vel": 43,
      "channel": 0
    },
    {
      "time": 492.0134615384615,
      "type": "on",
      "note": 68,
      "vel": 84,
      "channel": 0
    },
    {
      "time": 492.25,
      "type": "on",
      "note": 79,
      "vel": 47,
      "channel": 0
    },
    {
      "time": 492.44615384615383,
      "type": "on",
      "note": 75,
      "vel": 58,
      "channel": 0
    },
    {
      "time": 492.7019230769231,
      "type": "on",
      "note": 72,
      "vel": 44,
      "channel": 0
    },
    {
      "time": 492.9230769230769,
      "type": "on",
      "note": 68,
      "vel": 84,
      "channel": 0
    },
    {
      "time": 493.1596153846154,
      "type": "on",
      "note": 79,
      "vel": 42,
      "channel": 0
    },
    {
      "time": 493.37884615384615,
      "type": "on",
      "note": 75,
      "vel": 64,
      "channel": 0
    },
    {
      "time": 493.6173076923077,
      "type": "on",
      "note": 72,
      "vel": 46,
      "channel": 0
    },
    {
      "time": 493.83076923076925,
      "type": "on",
      "note": 68,
      "vel": 75,
      "channel": 0
    },
    {
      "time": 494.1,
      "type": "on",
      "note": 79,
      "vel": 40,
      "channel": 0
    },
    {
      "time": 494.33076923076925,
      "type": "on",
      "note": 75,
      "vel": 56,
      "channel": 0
    },
    {
      "time": 494.55961538461537,
      "type": "on",
      "note": 72,
      "vel": 47,
      "channel": 0
    },
    {
      "time": 491.0846153846154,
      "type": "on",
      "note": 75,
      "vel": 76,
      "channel": 3
    },
    {
      "time": 492.9230769230769,
      "type": "on",
      "note": 75,
      "vel": 77,
      "channel": 3
    },
    {
      "time": 494.7692307692308,
      "type": "on",
      "note": 39,
      "vel": 60,
      "channel": 1
    },
    {
      "time": 494.90576923076924,
      "type": "on",
      "note": 51,
      "vel": 45,
      "channel": 2
    },
    {
      "time": 494.85,
      "type": "on",
      "note": 58,
      "vel": 45,
      "channel": 2
    },
    {
      "time": 494.825,
      "type": "on",
      "note": 63,
      "vel": 45,
      "channel": 2
    },
    {
      "time": 494.8173076923077,
      "type": "on",
      "note": 65,
      "vel": 45,
      "channel": 2
    },
    {
      "time": 494.8346153846154,
      "type": "on",
      "note": 67,
      "vel": 45,
      "channel": 2
    },
    {
      "time": 494.7730769230769,
      "type": "on",
      "note": 75,
      "vel": 74,
      "channel": 0
    },
    {
      "time": 494.9865384615385,
      "type": "on",
      "note": 82,
      "vel": 43,
      "channel": 0
    },
    {
      "time": 495.2346153846154,
      "type": "on",
      "note": 79,
      "vel": 55,
      "channel": 0
    },
    {
      "time": 495.46346153846156,
      "type": "on",
      "note": 77,
      "vel": 40,
      "channel": 0
    },
    {
      "time": 495.68461538461537,
      "type": "on",
      "note": 75,
      "vel": 79,
      "channel": 0
    },
    {
      "time": 495.9076923076923,
      "type": "on",
      "note": 82,
      "vel": 41,
      "channel": 0
    },
    {
      "time": 496.16923076923075,
      "type": "on",
      "note": 79,
      "vel": 56,
      "channel": 0
    },
    {
      "time": 496.3826923076923,
      "type": "on",
      "note": 77,
      "vel": 47,
      "channel": 0
    },
    {
      "time": 496.62884615384615,
      "type": "on",
      "note": 75,
      "vel": 80,
      "channel": 0
    },
    {
      "time": 496.84423076923076,
      "type": "on",
      "note": 82,
      "vel": 40,
      "channel": 0
    },
    {
      "time": 497.09423076923076,
      "type": "on",
      "note": 79,
      "vel": 60,
      "channel": 0
    },
    {
      "time": 497.30384615384617,
      "type": "on",
      "note": 77,
      "vel": 50,
      "channel": 0
    },
    {
      "time": 497.5346153846154,
      "type": "on",
      "note": 75,
      "vel": 76,
      "channel": 0
    },
    {
      "time": 497.7692307692308,
      "type": "on",
      "note": 82,
      "vel": 46,
      "channel": 0
    },
    {
      "time": 498.01730769230767,
      "type": "on",
      "note": 79,
      "vel": 59,
      "channel": 0
    },
    {
      "time": 498.23269230769233,
      "type": "on",
      "note": 77,
      "vel": 50,
      "channel": 0
    },
    {
      "time": 494.7730769230769,
      "type": "on",
      "note": 75,
      "vel": 72,
      "channel": 3
    },
    {
      "time": 496.62692307692305,
      "type": "on",
      "note": 75,
      "vel": 70,
      "channel": 3
    },
    {
      "time": 498.46153846153845,
      "type": "on",
      "note": 43,
      "vel": 60,
      "channel": 1
    },
    {
      "time": 498.4846153846154,
      "type": "on",
      "note": 55,
      "vel": 45,
      "channel": 2
    },
    {
      "time": 498.5,
      "type": "on",
      "note": 58,
      "vel": 45,
      "channel": 2
    },
    {
      "time": 498.5346153846154,
      "type": "on",
      "note": 62,
      "vel": 45,
      "channel": 2
    },
    {
      "time": 498.6480769230769,
      "type": "on",
      "note": 65,
      "vel": 45,
      "channel": 2
    },
    {
      "time": 498.4807692307692,
      "type": "on",
      "note": 72,
      "vel": 45,
      "channel": 2
    },
    {
      "time": 498.4596153846154,
      "type": "on",
      "note": 70,
      "vel": 79,
      "channel": 0
    },
    {
      "time": 498.7096153846154,
      "type": "on",
      "note": 84,
      "vel": 46,
      "channel": 0
    },
    {
      "time": 498.9230769230769,
      "type": "on",
      "note": 77,
      "vel": 61,
      "channel": 0
    },
    {
      "time": 499.1576923076923,
      "type": "on",
      "note": 74,
      "vel": 45,
      "channel": 0
    },
    {
      "time": 499.37115384615385,
      "type": "on",
      "note": 70,
      "vel": 83,
      "channel": 0
    },
    {
      "time": 499.6326923076923,
      "type": "on",
      "note": 84,
      "vel": 45,
      "channel": 0
    },
    {
      "time": 499.83653846153845,
      "type": "on",
      "note": 77,
      "vel": 59,
      "channel": 0
    },
    {
      "time": 500.0634615384615,
      "type": "on",
      "note": 74,
      "vel": 47,
      "channel": 0
    },
    {
      "time": 500.3269230769231,
      "type": "on",
      "note": 70,
      "vel": 83,
      "channel": 0
    },
    {
      "time": 500.5403846153846,
      "type": "on",
      "note": 84,
      "vel": 50,
      "channel": 0
    },
    {
      "time": 500.7730769230769,
      "type": "on",
      "note": 77,
      "vel": 59,
      "channel": 0
    },
    {
      "time": 500.98846153846154,
      "type": "on",
      "note": 74,
      "vel": 50,
      "channel": 0
    },
    {
      "time": 501.25,
      "type": "on",
      "note": 70,
      "vel": 78,
      "channel": 0
    },
    {
      "time": 501.46923076923076,
      "type": "on",
      "note": 84,
      "vel": 48,
      "channel": 0
    },
    {
      "time": 501.69038461538463,
      "type": "on",
      "note": 77,
      "vel": 57,
      "channel": 0
    },
    {
      "time": 501.9153846153846,
      "type": "on",
      "note": 74,
      "vel": 44,
      "channel": 0
    },
    {
      "time": 498.4769230769231,
      "type": "on",
      "note": 74,
      "vel": 76,
      "channel": 3
    },
    {
      "time": 500.3134615384615,
      "type": "on",
      "note": 74,
      "vel": 71,
      "channel": 3
    },
    {
      "time": 502.15384615384613,
      "type": "on",
      "note": 36,
      "vel": 60,
      "channel": 1
    },
    {
      "time": 502.32307692307694,
      "type": "on",
      "note": 60,
      "vel": 45,
      "channel": 2
    },
    {
      "time": 502.2230769230769,
      "type": "on",
      "note": 63,
      "vel": 45,
      "channel": 2
    },
    {
      "time": 502.1865384615385,
      "type": "on",
      "note": 67,
      "vel": 45,
      "channel": 2
    },
    {
      "time": 502.28653846153844,
      "type": "on",
      "note": 74,
      "vel": 45,
      "channel": 2
    },
    {
      "time": 502.34423076923076,
      "type": "on",
      "note": 77,
      "vel": 45,
      "channel": 2
    },
    {
      "time": 502.1653846153846,
      "type": "on",
      "note": 72,
      "vel": 74,
      "channel": 0
    },
    {
      "time": 502.38653846153846,
      "type": "on",
      "note": 86,
      "vel": 47,
      "channel": 0
    },
    {
      "time": 502.63461538461536,
      "type": "on",
      "note": 79,
      "vel": 56,
      "channel": 0
    },
    {
      "time": 502.8326923076923,
      "type": "on",
      "note": 75,
      "vel": 46,
      "channel": 0
    },
    {
      "time": 503.0980769230769,
      "type": "on",
      "note": 72,
      "vel": 83,
      "channel": 0
    },
    {
      "time": 503.2980769230769,
      "type": "on",
      "note": 86,
      "vel": 50,
      "channel": 0
    },
    {
      "time": 503.525,
      "type": "on",
      "note": 79,
      "vel": 59,
      "channel": 0
    },
    {
      "time": 503.7846153846154,
      "type": "on",
      "note": 75,
      "vel": 44,
      "channel": 0
    },
    {
      "time": 503.99615384615385,
      "type": "on",
      "note": 72,
      "vel": 78,
      "channel": 0
    },
    {
      "time": 504.25192307692305,
      "type": "on",
      "note": 86,
      "vel": 41,
      "channel": 0
    },
    {
      "time": 504.4519230769231,
      "type": "on",
      "note": 79,
      "vel": 59,
      "channel": 0
    },
    {
      "time": 504.68461538461537,
      "type": "on",
      "note": 75,
      "vel": 50,
      "channel": 0
    },
    {
      "time": 504.9326923076923,
      "type": "on",
      "note": 72,
      "vel": 74,
      "channel": 0
    },
    {
      "time": 505.15,
      "type": "on",
      "note": 86,
      "vel": 42,
      "channel": 0
    },
    {
      "time": 505.3884615384615,
      "type": "on",
      "note": 79,
      "vel": 56,
      "channel": 0
    },
    {
      "time": 505.6384615384615,
      "type": "on",
      "note": 75,
      "vel": 46,
      "channel": 0
    },
    {
      "time": 502.1576923076923,
      "type": "on",
      "note": 79,
      "vel": 73,
      "channel": 3
    },
    {
      "time": 504.00961538461536,
      "type": "on",
      "note": 79,
      "vel": 75,
      "channel": 3
    },
    {
      "time": 505.84615384615387,
      "type": "on",
      "note": 32,
      "vel": 60,
      "channel": 1
    },
    {
      "time": 505.99615384615385,
      "type": "on",
      "note": 56,
      "vel": 45,
      "channel": 2
    },
    {
      "time": 505.94615384615383,
      "type": "on",
      "note": 60,
      "vel": 45,
      "channel": 2
    },
    {
      "time": 505.94038461538463,
      "type": "on",
      "note": 63,
      "vel": 45,
      "channel": 2
    },
    {
      "time": 505.90576923076924,
      "type": "on",
      "note": 67,
      "vel": 45,
      "channel": 2
    },
    {
      "time": 505.87884615384615,
      "type": "on",
      "note": 74,
      "vel": 45,
      "channel": 2
    },
    {
      "time": 505.84423076923076,
      "type": "on",
      "note": 68,
      "vel": 79,
      "channel": 0
    },
    {
      "time": 506.0846153846154,
      "type": "on",
      "note": 79,
      "vel": 41,
      "channel": 0
    },
    {
      "time": 506.3192307692308,
      "type": "on",
      "note": 75,
      "vel": 60,
      "channel": 0
    },
    {
      "time": 506.5423076923077,
      "type": "on",
      "note": 72,
      "vel": 40,
      "channel": 0
    },
    {
      "time": 506.7653846153846,
      "type": "on",
      "note": 68,
      "vel": 78,
      "channel": 0
    },
    {
      "time": 506.9942307692308,
      "type": "on",
      "note": 79,
      "vel": 41,
      "channel": 0
    },
    {
      "time": 507.2230769230769,
      "type": "on",
      "note": 75,
      "vel": 64,
      "channel": 0
    },
    {
      "time": 507.45,
      "type": "on",
      "note": 72,
      "vel": 48,
      "channel": 0
    },
    {
      "time": 507.71346153846156,
      "type": "on",
      "note": 68,
      "vel": 85,
      "channel": 0
    },
    {
      "time": 507.9326923076923,
      "type": "on",
      "note": 79,
      "vel": 44,
      "channel": 0
    },
    {
      "time": 508.15384615384613,
      "type": "on",
      "note": 75,
      "vel": 56,
      "channel": 0
    },
    {
      "time": 508.3942307692308,
      "type": "on",
      "note": 72,
      "vel": 43,
      "channel": 0
    },
    {
      "time": 508.63653846153846,
      "type": "on",
      "note": 68,
      "vel": 70,
      "channel": 0
    },
    {
      "time": 508.83846153846156,
      "type": "on",
      "note": 79,
      "vel": 45,
      "channel": 0
    },
    {
      "time": 509.075,
      "type": "on",
      "note": 75,
      "vel": 61,
      "channel": 0
    },
    {
      "time": 509.3269230769231,
      "type": "on",
      "note": 72,
      "vel": 44,
      "channel": 0
    },
    {
      "time": 505.86538461538464,
      "type": "on",
      "note": 75,
      "vel": 77,
      "channel": 3
    },
    {
      "time": 507.6942307692308,
      "type": "on",
      "note": 75,
      "vel": 71,
      "channel": 3
    },
    {
      "time": 509.53846153846155,
      "type": "on",
      "note": 39,
      "vel": 60,
      "channel": 1
    },
    {
      "time": 509.55192307692306,
      "type": "on",
      "note": 51,
      "vel": 45,
      "channel": 2
    },
    {
      "time": 509.6865384615385,
      "type": "on",
      "note": 58,
      "vel": 45,
      "channel": 2
    },
    {
      "time": 509.6173076923077,
      "type": "on",
      "note": 63,
      "vel": 45,
      "channel": 2
    },
    {
      "time": 509.5903846153846,
      "type": "on",
      "note": 65,
      "vel": 45,
      "channel": 2
    },
    {
      "time": 509.5576923076923,
      "type": "on",
      "note": 67,
      "vel": 45,
      "channel": 2
    },
    {
      "time": 509.53653846153844,
      "type": "on",
      "note": 75,
      "vel": 82,
      "channel": 0
    },
    {
      "time": 509.7557692307692,
      "type": "on",
      "note": 82,
      "vel": 44,
      "channel": 0
    },
    {
      "time": 510.00961538461536,
      "type": "on",
      "note": 79,
      "vel": 62,
      "channel": 0
    },
    {
      "time": 510.23846153846154,
      "type": "on",
      "note": 77,
      "vel": 45,
      "channel": 0
    },
    {
      "time": 510.4730769230769,
      "type": "on",
      "note": 75,
      "vel": 85,
      "channel": 0
    },
    {
      "time": 510.7076923076923,
      "type": "on",
      "note": 82,
      "vel": 49,
      "channel": 0
    },
    {
      "time": 510.91346153846155,
      "type": "on",
      "note": 79,
      "vel": 56,
      "channel": 0
    },
    {
      "time": 511.1596153846154,
      "type": "on",
      "note": 77,
      "vel": 46,
      "channel": 0
    },
    {
      "time": 511.3980769230769,
      "type": "on",
      "note": 75,
      "vel": 83,
      "channel": 0
    },
    {
      "time": 511.6057692307692,
      "type": "on",
      "note": 82,
      "vel": 43,
      "channel": 0
    },
    {
      "time": 511.8480769230769,
      "type": "on",
      "note": 79,
      "vel": 62,
      "channel": 0
    },
    {
      "time": 512.0826923076924,
      "type": "on",
      "note": 77,
      "vel": 42,
      "channel": 0
    },
    {
      "time": 512.2961538461539,
      "type": "on",
      "note": 75,
      "vel": 77,
      "channel": 0
    },
    {
      "time": 512.5423076923076,
      "type": "on",
      "note": 82,
      "vel": 46,
      "channel": 0
    },
    {
      "time": 512.7826923076923,
      "type": "on",
      "note": 79,
      "vel": 55,
      "channel": 0
    },
    {
      "time": 513.0134615384616,
      "type": "on",
      "note": 77,
      "vel": 50,
      "channel": 0
    },
    {
      "time": 509.53076923076924,
      "type": "on",
      "note": 75,
      "vel": 79,
      "channel": 3
    },
    {
      "time": 511.37884615384615,
      "type": "on",
      "note": 75,
      "vel": 77,
      "channel": 3
    },
    {
      "time": 513.2307692307693,
      "type": "on",
      "note": 43,
      "vel": 60,
      "channel": 1
    },
    {
      "time": 513.401923076923,
      "type": "on",
      "note": 55,
      "vel": 45,
      "channel": 2
    },
    {
      "time": 513.3173076923077,
      "type": "on",
      "note": 58,
      "vel": 45,
      "channel": 2
    },
    {
      "time": 513.2903846153846,
      "type": "on",
      "note": 62,
      "vel": 45,
      "channel": 2
    },
    {
      "time": 513.3019230769231,
      "type": "on",
      "note": 65,
      "vel": 45,
      "channel": 2
    },
    {
      "time": 513.3076923076923,
      "type": "on",
      "note": 72,
      "vel": 45,
      "channel": 2
    },
    {
      "time": 513.225,
      "type": "on",
      "note": 70,
      "vel": 70,
      "channel": 0
    },
    {
      "time": 513.4653846153847,
      "type": "on",
      "note": 84,
      "vel": 48,
      "channel": 0
    },
    {
      "time": 513.7057692307692,
      "type": "on",
      "note": 77,
      "vel": 61,
      "channel": 0
    },
    {
      "time": 513.9346153846154,
      "type": "on",
      "note": 74,
      "vel": 49,
      "channel": 0
    },
    {
      "time": 514.1557692307692,
      "type": "on",
      "note": 70,
      "vel": 83,
      "channel": 0
    },
    {
      "time": 514.3923076923077,
      "type": "on",
      "note": 84,
      "vel": 45,
      "channel": 0
    },
    {
      "time": 514.626923076923,
      "type": "on",
      "note": 77,
      "vel": 65,
      "channel": 0
    },
    {
      "time": 514.8461538461538,
      "type": "on",
      "note": 74,
      "vel": 43,
      "channel": 0
    },
    {
      "time": 515.075,
      "type": "on",
      "note": 70,
      "vel": 74,
      "channel": 0
    },
    {
      "time": 515.3230769230769,
      "type": "on",
      "note": 84,
      "vel": 43,
      "channel": 0
    },
    {
      "time": 515.5615384615385,
      "type": "on",
      "note": 77,
      "vel": 63,
      "channel": 0
    },
    {
      "time": 515.775,
      "type": "on",
      "note": 74,
      "vel": 42,
      "channel": 0
    },
    {
      "time": 515.9961538461539,
      "type": "on",
      "note": 70,
      "vel": 83,
      "channel": 0
    },
    {
      "time": 516.2423076923077,
      "type": "on",
      "note": 84,
      "vel": 41,
      "channel": 0
    },
    {
      "time": 516.475,
      "type": "on",
      "note": 77,
      "vel": 59,
      "channel": 0
    },
    {
      "time": 516.7096153846154,
      "type": "on",
      "note": 74,
      "vel": 44,
      "channel": 0
    },
    {
      "time": 513.2346153846154,
      "type": "on",
      "note": 74,
      "vel": 76,
      "channel": 3
    },
    {
      "time": 515.0923076923077,
      "type": "on",
      "note": 74,
      "vel": 71,
      "channel": 3
    },
    {
      "time": 516.9230769230769,
      "type": "on",
      "note": 36,
      "vel": 60,
      "channel": 1
    },
    {
      "time": 517.0096153846154,
      "type": "on",
      "note": 60,
      "vel": 45,
      "channel": 2
    },
    {
      "time": 517.0403846153846,
      "type": "on",
      "note": 63,
      "vel": 45,
      "channel": 2
    },
    {
      "time": 517.0634615384615,
      "type": "on",
      "note": 67,
      "vel": 45,
      "channel": 2
    },
    {
      "time": 516.9711538461538,
      "type": "on",
      "note": 74,
      "vel": 45,
      "channel": 2
    },
    {
      "time": 516.973076923077,
      "type": "on",
      "note": 77,
      "vel": 45,
      "channel": 2
    },
    {
      "time": 516.9423076923077,
      "type": "on",
      "note": 72,
      "vel": 74,
      "channel": 0
    },
    {
      "time": 517.15,
      "type": "on",
      "note": 86,
      "vel": 48,
      "channel": 0
    },
    {
      "time": 517.373076923077,
      "type": "on",
      "note": 79,
      "vel": 59,
      "channel": 0
    },
    {
      "time": 517.6019230769231,
      "type": "on",
      "note": 75,
      "vel": 43,
      "channel": 0
    },
    {
      "time": 517.85,
      "type": "on",
      "note": 72,
      "vel": 75,
      "channel": 0
    },
    {
      "time": 518.0634615384615,
      "type": "on",
      "note": 86,
      "vel": 41,
      "channel": 0
    },
    {
      "time": 518.3057692307692,
      "type": "on",
      "note": 79,
      "vel": 61,
      "channel": 0
    },
    {
      "time": 518.5326923076923,
      "type": "on",
      "note": 75,
      "vel": 49,
      "channel": 0
    },
    {
      "time": 518.7923076923076,
      "type": "on",
      "note": 72,
      "vel": 83,
      "channel": 0
    },
    {
      "time": 518.9923076923077,
      "type": "on",
      "note": 86,
      "vel": 40,
      "channel": 0
    },
    {
      "time": 519.248076923077,
      "type": "on",
      "note": 79,
      "vel": 58,
      "channel": 0
    },
    {
      "time": 519.4538461538461,
      "type": "on",
      "note": 75,
      "vel": 50,
      "channel": 0
    },
    {
      "time": 519.7076923076924,
      "type": "on",
      "note": 72,
      "vel": 70,
      "channel": 0
    },
    {
      "time": 519.9403846153846,
      "type": "on",
      "note": 86,
      "vel": 50,
      "channel": 0
    },
    {
      "time": 520.1384615384616,
      "type": "on",
      "note": 79,
      "vel": 64,
      "channel": 0
    },
    {
      "time": 520.373076923077,
      "type": "on",
      "note": 75,
      "vel": 46,
      "channel": 0
    },
    {
      "time": 516.9230769230769,
      "type": "on",
      "note": 79,
      "vel": 70,
      "channel": 3
    },
    {
      "time": 518.7788461538462,
      "type": "on",
      "note": 79,
      "vel": 78,
      "channel": 3
    },
    {
      "time": 520.6153846153846,
      "type": "on",
      "note": 32,
      "vel": 60,
      "channel": 1
    },
    {
      "time": 520.7153846153847,
      "type": "on",
      "note": 56,
      "vel": 45,
      "channel": 2
    },
    {
      "time": 520.6211538461539,
      "type": "on",
      "note": 60,
      "vel": 45,
      "channel": 2
    },
    {
      "time": 520.7173076923077,
      "type": "on",
      "note": 63,
      "vel": 45,
      "channel": 2
    },
    {
      "time": 520.7134615384615,
      "type": "on",
      "note": 67,
      "vel": 45,
      "channel": 2
    },
    {
      "time": 520.6307692307693,
      "type": "on",
      "note": 74,
      "vel": 45,
      "channel": 2
    },
    {
      "time": 520.6384615384616,
      "type": "on",
      "note": 68,
      "vel": 81,
      "channel": 0
    },
    {
      "time": 520.8442307692308,
      "type": "on",
      "note": 79,
      "vel": 45,
      "channel": 0
    },
    {
      "time": 521.0942307692308,
      "type": "on",
      "note": 75,
      "vel": 59,
      "channel": 0
    },
    {
      "time": 521.3019230769231,
      "type": "on",
      "note": 72,
      "vel": 42,
      "channel": 0
    },
    {
      "time": 521.5346153846153,
      "type": "on",
      "note": 68,
      "vel": 71,
      "channel": 0
    },
    {
      "time": 521.7826923076923,
      "type": "on",
      "note": 79,
      "vel": 41,
      "channel": 0
    },
    {
      "time": 522.001923076923,
      "type": "on",
      "note": 75,
      "vel": 56,
      "channel": 0
    },
    {
      "time": 522.2173076923077,
      "type": "on",
      "note": 72,
      "vel": 43,
      "channel": 0
    },
    {
      "time": 522.4576923076924,
      "type": "on",
      "note": 68,
      "vel": 83,
      "channel": 0
    },
    {
      "time": 522.6807692307692,
      "type": "on",
      "note": 79,
      "vel": 44,
      "channel": 0
    },
    {
      "time": 522.9115384615385,
      "type": "on",
      "note": 75,
      "vel": 55,
      "channel": 0
    },
    {
      "time": 523.1769230769231,
      "type": "on",
      "note": 72,
      "vel": 43,
      "channel": 0
    },
    {
      "time": 523.3788461538461,
      "type": "on",
      "note": 68,
      "vel": 83,
      "channel": 0
    },
    {
      "time": 523.6211538461539,
      "type": "on",
      "note": 79,
      "vel": 49,
      "channel": 0
    },
    {
      "time": 523.8576923076923,
      "type": "on",
      "note": 75,
      "vel": 58,
      "channel": 0
    },
    {
      "time": 524.0653846153846,
      "type": "on",
      "note": 72,
      "vel": 48,
      "channel": 0
    },
    {
      "time": 520.6307692307693,
      "type": "on",
      "note": 75,
      "vel": 72,
      "channel": 3
    },
    {
      "time": 522.4519230769231,
      "type": "on",
      "note": 75,
      "vel": 79,
      "channel": 3
    },
    {
      "time": 524.3076923076923,
      "type": "on",
      "note": 39,
      "vel": 60,
      "channel": 1
    },
    {
      "time": 524.4115384615385,
      "type": "on",
      "note": 51,
      "vel": 45,
      "channel": 2
    },
    {
      "time": 524.3326923076924,
      "type": "on",
      "note": 58,
      "vel": 45,
      "channel": 2
    },
    {
      "time": 524.3365384615385,
      "type": "on",
      "note": 63,
      "vel": 45,
      "channel": 2
    },
    {
      "time": 524.3346153846154,
      "type": "on",
      "note": 65,
      "vel": 45,
      "channel": 2
    },
    {
      "time": 524.4076923076923,
      "type": "on",
      "note": 67,
      "vel": 45,
      "channel": 2
    },
    {
      "time": 524.3096153846154,
      "type": "on",
      "note": 75,
      "vel": 82,
      "channel": 0
    },
    {
      "time": 524.5461538461539,
      "type": "on",
      "note": 82,
      "vel": 41,
      "channel": 0
    },
    {
      "time": 524.7596153846154,
      "type": "on",
      "note": 79,
      "vel": 60,
      "channel": 0
    },
    {
      "time": 525.0211538461539,
      "type": "on",
      "note": 77,
      "vel": 42,
      "channel": 0
    },
    {
      "time": 525.2173076923077,
      "type": "on",
      "note": 75,
      "vel": 72,
      "channel": 0
    },
    {
      "time": 525.4576923076924,
      "type": "on",
      "note": 82,
      "vel": 49,
      "channel": 0
    },
    {
      "time": 525.7057692307692,
      "type": "on",
      "note": 79,
      "vel": 57,
      "channel": 0
    },
    {
      "time": 525.9365384615385,
      "type": "on",
      "note": 77,
      "vel": 45,
      "channel": 0
    },
    {
      "time": 526.1576923076923,
      "type": "on",
      "note": 75,
      "vel": 73,
      "channel": 0
    },
    {
      "time": 526.3961538461539,
      "type": "on",
      "note": 82,
      "vel": 46,
      "channel": 0
    },
    {
      "time": 526.6038461538461,
      "type": "on",
      "note": 79,
      "vel": 55,
      "channel": 0
    },
    {
      "time": 526.8442307692308,
      "type": "on",
      "note": 77,
      "vel": 41,
      "channel": 0
    },
    {
      "time": 527.0653846153846,
      "type": "on",
      "note": 75,
      "vel": 82,
      "channel": 0
    },
    {
      "time": 527.3,
      "type": "on",
      "note": 82,
      "vel": 45,
      "channel": 0
    },
    {
      "time": 527.5423076923076,
      "type": "on",
      "note": 79,
      "vel": 64,
      "channel": 0
    },
    {
      "time": 527.7807692307692,
      "type": "on",
      "note": 77,
      "vel": 48,
      "channel": 0
    },
    {
      "time": 524.3038461538462,
      "type": "on",
      "note": 75,
      "vel": 72,
      "channel": 3
    },
    {
      "time": 526.1538461538462,
      "type": "on",
      "note": 75,
      "vel": 73,
      "channel": 3
    },
    {
      "time": 528.0,
      "type": "on",
      "note": 43,
      "vel": 60,
      "channel": 1
    },
    {
      "time": 528.1115384615384,
      "type": "on",
      "note": 55,
      "vel": 45,
      "channel": 2
    },
    {
      "time": 528.0442307692308,
      "type": "on",
      "note": 58,
      "vel": 45,
      "channel": 2
    },
    {
      "time": 528.1653846153846,
      "type": "on",
      "note": 62,
      "vel": 45,
      "channel": 2
    },
    {
      "time": 528.1615384615385,
      "type": "on",
      "note": 65,
      "vel": 45,
      "channel": 2
    },
    {
      "time": 528.1384615384616,
      "type": "on",
      "note": 72,
      "vel": 45,
      "channel": 2
    },
    {
      "time": 528.0,
      "type": "on",
      "note": 70,
      "vel": 85,
      "channel": 0
    },
    {
      "time": 528.223076923077,
      "type": "on",
      "note": 84,
      "vel": 48,
      "channel": 0
    },
    {
      "time": 528.4480769230769,
      "type": "on",
      "note": 77,
      "vel": 64,
      "channel": 0
    },
    {
      "time": 528.7038461538461,
      "type": "on",
      "note": 74,
      "vel": 49,
      "channel": 0
    },
    {
      "time": 528.9384615384615,
      "type": "on",
      "note": 70,
      "vel": 80,
      "channel": 0
    },
    {
      "time": 529.1403846153846,
      "type": "on",
      "note": 84,
      "vel": 43,
      "channel": 0
    },
    {
      "time": 529.3961538461539,
      "type": "on",
      "note": 77,
      "vel": 65,
      "channel": 0
    },
    {
      "time": 529.6038461538461,
      "type": "on",
      "note": 74,
      "vel": 46,
      "channel": 0
    },
    {
      "time": 529.8423076923077,
      "type": "on",
      "note": 70,
      "vel": 75,
      "channel": 0
    },
    {
      "time": 530.0634615384615,
      "type": "on",
      "note": 84,
      "vel": 50,
      "channel": 0
    },
    {
      "time": 530.2942307692308,
      "type": "on",
      "note": 77,
      "vel": 62,
      "channel": 0
    },
    {
      "time": 530.525,
      "type": "on",
      "note": 74,
      "vel": 41,
      "channel": 0
    },
    {
      "time": 530.7788461538462,
      "type": "on",
      "note": 70,
      "vel": 70,
      "channel": 0
    },
    {
      "time": 531.001923076923,
      "type": "on",
      "note": 84,
      "vel": 45,
      "channel": 0
    },
    {
      "time": 531.2153846153847,
      "type": "on",
      "note": 77,
      "vel": 61,
      "channel": 0
    },
    {
      "time": 531.4692307692308,
      "type": "on",
      "note": 74,
      "vel": 45,
      "channel": 0
    },
    {
      "time": 528.0076923076923,
      "type": "on",
      "note": 74,
      "vel": 74,
      "channel": 3
    },
    {
      "time": 529.8461538461538,
      "type": "on",
      "note": 74,
      "vel": 76,
      "channel": 3
    },
    {
      "time": 531.6923076923077,
      "type": "on",
      "note": 36,
      "vel": 60,
      "channel": 1
    },
    {
      "time": 531.7634615384616,
      "type": "on",
      "note": 60,
      "vel": 45,
      "channel": 2
    },
    {
      "time": 531.8192307692308,
      "type": "on",
      "note": 63,
      "vel": 45,
      "channel": 2
    },
    {
      "time": 531.8038461538462,
      "type": "on",
      "note": 67,
      "vel": 45,
      "channel": 2
    },
    {
      "time": 531.8096153846154,
      "type": "on",
      "note": 74,
      "vel": 45,
      "channel": 2
    },
    {
      "time": 531.8615384615384,
      "type": "on",
      "note": 77,
      "vel": 45,
      "channel": 2
    },
    {
      "time": 531.6865384615385,
      "type": "on",
      "note": 72,
      "vel": 73,
      "channel": 0
    },
    {
      "time": 531.9346153846154,
      "type": "on",
      "note": 86,
      "vel": 44,
      "channel": 0
    },
    {
      "time": 532.1596153846153,
      "type": "on",
      "note": 79,
      "vel": 55,
      "channel": 0
    },
    {
      "time": 532.3903846153846,
      "type": "on",
      "note": 75,
      "vel": 48,
      "channel": 0
    },
    {
      "time": 532.626923076923,
      "type": "on",
      "note": 72,
      "vel": 70,
      "channel": 0
    },
    {
      "time": 532.8576923076923,
      "type": "on",
      "note": 86,
      "vel": 49,
      "channel": 0
    },
    {
      "time": 533.0846153846154,
      "type": "on",
      "note": 79,
      "vel": 62,
      "channel": 0
    },
    {
      "time": 533.3,
      "type": "on",
      "note": 75,
      "vel": 46,
      "channel": 0
    },
    {
      "time": 533.5576923076923,
      "type": "on",
      "note": 72,
      "vel": 76,
      "channel": 0
    },
    {
      "time": 533.7865384615385,
      "type": "on",
      "note": 86,
      "vel": 50,
      "channel": 0
    },
    {
      "time": 533.998076923077,
      "type": "on",
      "note": 79,
      "vel": 63,
      "channel": 0
    },
    {
      "time": 534.2192307692308,
      "type": "on",
      "note": 75,
      "vel": 50,
      "channel": 0
    },
    {
      "time": 534.473076923077,
      "type": "on",
      "note": 72,
      "vel": 82,
      "channel": 0
    },
    {
      "time": 534.6923076923077,
      "type": "on",
      "note": 86,
      "vel": 42,
      "channel": 0
    },
    {
      "time": 534.9442307692308,
      "type": "on",
      "note": 79,
      "vel": 61,
      "channel": 0
    },
    {
      "time": 535.1538461538462,
      "type": "on",
      "note": 75,
      "vel": 41,
      "channel": 0
    },
    {
      "time": 531.6961538461538,
      "type": "on",
      "note": 79,
      "vel": 79,
      "channel": 3
    },
    {
      "time": 533.5423076923076,
      "type": "on",
      "note": 79,
      "vel": 72,
      "channel": 3
    },
    {
      "time": 535.3846153846154,
      "type": "on",
      "note": 32,
      "vel": 60,
      "channel": 1
    },
    {
      "time": 535.4230769230769,
      "type": "on",
      "note": 56,
      "vel": 45,
      "channel": 2
    },
    {
      "time": 535.5557692307692,
      "type": "on",
      "note": 60,
      "vel": 45,
      "channel": 2
    },
    {
      "time": 535.5326923076923,
      "type": "on",
      "note": 63,
      "vel": 45,
      "channel": 2
    },
    {
      "time": 535.5192307692307,
      "type": "on",
      "note": 67,
      "vel": 45,
      "channel": 2
    },
    {
      "time": 535.3903846153846,
      "type": "on",
      "note": 74,
      "vel": 45,
      "channel": 2
    },
    {
      "time": 535.4076923076923,
      "type": "on",
      "note": 68,
      "vel": 85,
      "channel": 0
    },
    {
      "time": 535.6134615384616,
      "type": "on",
      "note": 79,
      "vel": 44,
      "channel": 0
    },
    {
      "time": 535.8519230769231,
      "type": "on",
      "note": 75,
      "vel": 64,
      "channel": 0
    },
    {
      "time": 536.0903846153847,
      "type": "on",
      "note": 72,
      "vel": 40,
      "channel": 0
    },
    {
      "time": 536.3038461538462,
      "type": "on",
      "note": 68,
      "vel": 71,
      "channel": 0
    },
    {
      "time": 536.5326923076923,
      "type": "on",
      "note": 79,
      "vel": 42,
      "channel": 0
    },
    {
      "time": 536.7692307692307,
      "type": "on",
      "note": 75,
      "vel": 55,
      "channel": 0
    },
    {
      "time": 537.0,
      "type": "on",
      "note": 72,
      "vel": 40,
      "channel": 0
    },
    {
      "time": 537.248076923077,
      "type": "on",
      "note": 68,
      "vel": 76,
      "channel": 0
    },
    {
      "time": 537.4538461538461,
      "type": "on",
      "note": 79,
      "vel": 48,
      "channel": 0
    },
    {
      "time": 537.7,
      "type": "on",
      "note": 75,
      "vel": 56,
      "channel": 0
    },
    {
      "time": 537.9326923076923,
      "type": "on",
      "note": 72,
      "vel": 41,
      "channel": 0
    },
    {
      "time": 538.1461538461539,
      "type": "on",
      "note": 68,
      "vel": 80,
      "channel": 0
    },
    {
      "time": 538.3807692307693,
      "type": "on",
      "note": 79,
      "vel": 40,
      "channel": 0
    },
    {
      "time": 538.626923076923,
      "type": "on",
      "note": 75,
      "vel": 65,
      "channel": 0
    },
    {
      "time": 538.8326923076924,
      "type": "on",
      "note": 72,
      "vel": 46,
      "channel": 0
    },
    {
      "time": 535.4038461538462,
      "type": "on",
      "note": 75,
      "vel": 80,
      "channel": 3
    },
    {
      "time": 537.2403846153846,
      "type": "on",
      "note": 75,
      "vel": 78,
      "channel": 3
    },
    {
      "time": 539.0769230769231,
      "type": "on",
      "note": 39,
      "vel": 60,
      "channel": 1
    },
    {
      "time": 539.0826923076924,
      "type": "on",
      "note": 51,
      "vel": 45,
      "channel": 2
    },
    {
      "time": 539.1326923076923,
      "type": "on",
      "note": 58,
      "vel": 45,
      "channel": 2
    },
    {
      "time": 539.1019230769231,
      "type": "on",
      "note": 63,
      "vel": 45,
      "channel": 2
    },
    {
      "time": 539.2365384615384,
      "type": "on",
      "note": 65,
      "vel": 45,
      "channel": 2
    },
    {
      "time": 539.1769230769231,
      "type": "on",
      "note": 67,
      "vel": 45,
      "channel": 2
    },
    {
      "time": 539.0903846153847,
      "type": "on",
      "note": 75,
      "vel": 79,
      "channel": 0
    },
    {
      "time": 539.325,
      "type": "on",
      "note": 82,
      "vel": 40,
      "channel": 0
    },
    {
      "time": 539.5423076923076,
      "type": "on",
      "note": 79,
      "vel": 62,
      "channel": 0
    },
    {
      "time": 539.7826923076923,
      "type": "on",
      "note": 77,
      "vel": 45,
      "channel": 0
    },
    {
      "time": 539.9884615384616,
      "type": "on",
      "note": 75,
      "vel": 72,
      "channel": 0
    },
    {
      "time": 540.2173076923077,
      "type": "on",
      "note": 82,
      "vel": 47,
      "channel": 0
    },
    {
      "time": 540.4846153846154,
      "type": "on",
      "note": 79,
      "vel": 62,
      "channel": 0
    },
    {
      "time": 540.6769230769231,
      "type": "on",
      "note": 77,
      "vel": 41,
      "channel": 0
    },
    {
      "time": 540.9173076923076,
      "type": "on",
      "note": 75,
      "vel": 78,
      "channel": 0
    },
    {
      "time": 541.1673076923076,
      "type": "on",
      "note": 82,
      "vel": 48,
      "channel": 0
    },
    {
      "time": 541.3788461538461,
      "type": "on",
      "note": 79,
      "vel": 60,
      "channel": 0
    },
    {
      "time": 541.6173076923077,
      "type": "on",
      "note": 77,
      "vel": 48,
      "channel": 0
    },
    {
      "time": 541.8307692307692,
      "type": "on",
      "note": 75,
      "vel": 79,
      "channel": 0
    },
    {
      "time": 542.0961538461538,
      "type": "on",
      "note": 82,
      "vel": 41,
      "channel": 0
    },
    {
      "time": 542.3115384615385,
      "type": "on",
      "note": 79,
      "vel": 57,
      "channel": 0
    },
    {
      "time": 542.5365384615385,
      "type": "on",
      "note": 77,
      "vel": 42,
      "channel": 0
    },
    {
      "time": 539.0846153846154,
      "type": "on",
      "note": 75,
      "vel": 70,
      "channel": 3
    },
    {
      "time": 540.9153846153846,
      "type": "on",
      "note": 75,
      "vel": 74,
      "channel": 3
    },
    {
      "time": 542.7692307692307,
      "type": "on",
      "note": 43,
      "vel": 60,
      "channel": 1
    },
    {
      "time": 542.876923076923,
      "type": "on",
      "note": 55,
      "vel": 45,
      "channel": 2
    },
    {
      "time": 542.8519230769231,
      "type": "on",
      "note": 58,
      "vel": 45,
      "channel": 2
    },
    {
      "time": 542.8557692307693,
      "type": "on",
      "note": 62,
      "vel": 45,
      "channel": 2
    },
    {
      "time": 542.8038461538462,
      "type": "on",
      "note": 65,
      "vel": 45,
      "channel": 2
    },
    {
      "time": 542.9230769230769,
      "type": "on",
      "note": 72,
      "vel": 45,
      "channel": 2
    },
    {
      "time": 542.7711538461539,
      "type": "on",
      "note": 70,
      "vel": 74,
      "channel": 0
    },
    {
      "time": 542.9903846153846,
      "type": "on",
      "note": 84,
      "vel": 45,
      "channel": 0
    },
    {
      "time": 543.2461538461539,
      "type": "on",
      "note": 77,
      "vel": 57,
      "channel": 0
    },
    {
      "time": 543.4846153846154,
      "type": "on",
      "note": 74,
      "vel": 50,
      "channel": 0
    },
    {
      "time": 543.7076923076924,
      "type": "on",
      "note": 70,
      "vel": 71,
      "channel": 0
    },
    {
      "time": 543.9384615384615,
      "type": "on",
      "note": 84,
      "vel": 44,
      "channel": 0
    },
    {
      "time": 544.1480769230769,
      "type": "on",
      "note": 77,
      "vel": 62,
      "channel": 0
    },
    {
      "time": 544.3961538461539,
      "type": "on",
      "note": 74,
      "vel": 43,
      "channel": 0
    },
    {
      "time": 544.6,
      "type": "on",
      "note": 70,
      "vel": 73,
      "channel": 0
    },
    {
      "time": 544.8403846153847,
      "type": "on",
      "note": 84,
      "vel": 45,
      "channel": 0
    },
    {
      "time": 545.0673076923077,
      "type": "on",
      "note": 77,
      "vel": 57,
      "channel": 0
    },
    {
      "time": 545.3076923076923,
      "type": "on",
      "note": 74,
      "vel": 50,
      "channel": 0
    },
    {
      "time": 545.5307692307692,
      "type": "on",
      "note": 70,
      "vel": 77,
      "channel": 0
    },
    {
      "time": 545.7538461538461,
      "type": "on",
      "note": 84,
      "vel": 44,
      "channel": 0
    },
    {
      "time": 546.0038461538461,
      "type": "on",
      "note": 77,
      "vel": 63,
      "channel": 0
    },
    {
      "time": 546.248076923077,
      "type": "on",
      "note": 74,
      "vel": 48,
      "channel": 0
    },
    {
      "time": 542.7826923076923,
      "type": "on",
      "note": 74,
      "vel": 72,
      "channel": 3
    },
    {
      "time": 544.6173076923077,
      "type": "on",
      "note": 74,
      "vel": 79,
      "channel": 3
    },
    {
      "time": 546.4615384615385,
      "type": "on",
      "note": 36,
      "vel": 60,
      "channel": 1
    },
    {
      "time": 546.5807692307692,
      "type": "on",
      "note": 60,
      "vel": 45,
      "channel": 2
    },
    {
      "time": 546.5711538461538,
      "type": "on",
      "note": 63,
      "vel": 45,
      "channel": 2
    },
    {
      "time": 546.6076923076923,
      "type": "on",
      "note": 67,
      "vel": 45,
      "channel": 2
    },
    {
      "time": 546.5173076923077,
      "type": "on",
      "note": 74,
      "vel": 45,
      "channel": 2
    },
    {
      "time": 546.55,
      "type": "on",
      "note": 77,
      "vel": 45,
      "channel": 2
    },
    {
      "time": 546.4480769230769,
      "type": "on",
      "note": 72,
      "vel": 84,
      "channel": 0
    },
    {
      "time": 546.6788461538462,
      "type": "on",
      "note": 86,
      "vel": 40,
      "channel": 0
    },
    {
      "time": 546.9326923076923,
      "type": "on",
      "note": 79,
      "vel": 58,
      "channel": 0
    },
    {
      "time": 547.1423076923077,
      "type": "on",
      "note": 75,
      "vel": 50,
      "channel": 0
    },
    {
      "time": 547.3788461538461,
      "type": "on",
      "note": 72,
      "vel": 80,
      "channel": 0
    },
    {
      "time": 547.6019230769231,
      "type": "on",
      "note": 86,
      "vel": 50,
      "channel": 0
    },
    {
      "time": 547.8519230769231,
      "type": "on",
      "note": 79,
      "vel": 61,
      "channel": 0
    },
    {
      "time": 548.0961538461538,
      "type": "on",
      "note": 75,
      "vel": 50,
      "channel": 0
    },
    {
      "time": 548.3057692307692,
      "type": "on",
      "note": 72,
      "vel": 75,
      "channel": 0
    },
    {
      "time": 548.5384615384615,
      "type": "on",
      "note": 86,
      "vel": 49,
      "channel": 0
    },
    {
      "time": 548.7846153846153,
      "type": "on",
      "note": 79,
      "vel": 59,
      "channel": 0
    },
    {
      "time": 548.9942307692307,
      "type": "on",
      "note": 75,
      "vel": 48,
      "channel": 0
    },
    {
      "time": 549.2173076923077,
      "type": "on",
      "note": 72,
      "vel": 73,
      "channel": 0
    },
    {
      "time": 549.4769230769231,
      "type": "on",
      "note": 86,
      "vel": 44,
      "channel": 0
    },
    {
      "time": 549.7,
      "type": "on",
      "note": 79,
      "vel": 58,
      "channel": 0
    },
    {
      "time": 549.9173076923076,
      "type": "on",
      "note": 75,
      "vel": 46,
      "channel": 0
    },
    {
      "time": 546.4596153846154,
      "type": "on",
      "note": 79,
      "vel": 72,
      "channel": 3
    },
    {
      "time": 548.3173076923077,
      "type": "on",
      "note": 79,
      "vel": 80,
      "channel": 3
    },
    {
      "time": 550.1538461538462,
      "type": "on",
      "note": 32,
      "vel": 60,
      "channel": 1
    },
    {
      "time": 550.3384615384615,
      "type": "on",
      "note": 56,
      "vel": 45,
      "channel": 2
    },
    {
      "time": 550.2115384615385,
      "type": "on",
      "note": 60,
      "vel": 45,
      "channel": 2
    },
    {
      "time": 550.3423076923077,
      "type": "on",
      "note": 63,
      "vel": 45,
      "channel": 2
    },
    {
      "time": 550.3211538461538,
      "type": "on",
      "note": 67,
      "vel": 45,
      "channel": 2
    },
    {
      "time": 550.2903846153846,
      "type": "on",
      "note": 74,
      "vel": 45,
      "channel": 2
    },
    {
      "time": 550.1442307692307,
      "type": "on",
      "note": 68,
      "vel": 80,
      "channel": 0
    },
    {
      "time": 550.3846153846154,
      "type": "on",
      "note": 79,
      "vel": 45,
      "channel": 0
    },
    {
      "time": 550.6,
      "type": "on",
      "note": 75,
      "vel": 64,
      "channel": 0
    },
    {
      "time": 550.8346153846154,
      "type": "on",
      "note": 72,
      "vel": 49,
      "channel": 0
    },
    {
      "time": 551.098076923077,
      "type": "on",
      "note": 68,
      "vel": 72,
      "channel": 0
    },
    {
      "time": 551.3153846153846,
      "type": "on",
      "note": 79,
      "vel": 42,
      "channel": 0
    },
    {
      "time": 551.5346153846153,
      "type": "on",
      "note": 75,
      "vel": 63,
      "channel": 0
    },
    {
      "time": 551.7865384615385,
      "type": "on",
      "note": 72,
      "vel": 47,
      "channel": 0
    },
    {
      "time": 552.0230769230769,
      "type": "on",
      "note": 68,
      "vel": 78,
      "channel": 0
    },
    {
      "time": 552.2211538461538,
      "type": "on",
      "note": 79,
      "vel": 47,
      "channel": 0
    },
    {
      "time": 552.4596153846154,
      "type": "on",
      "note": 75,
      "vel": 56,
      "channel": 0
    },
    {
      "time": 552.6826923076923,
      "type": "on",
      "note": 72,
      "vel": 42,
      "channel": 0
    },
    {
      "time": 552.9384615384615,
      "type": "on",
      "note": 68,
      "vel": 74,
      "channel": 0
    },
    {
      "time": 553.1596153846153,
      "type": "on",
      "note": 79,
      "vel": 45,
      "channel": 0
    },
    {
      "time": 553.376923076923,
      "type": "on",
      "note": 75,
      "vel": 62,
      "channel": 0
    },
    {
      "time": 553.6326923076923,
      "type": "on",
      "note": 72,
      "vel": 40,
      "channel": 0
    },
    {
      "time": 550.1730769230769,
      "type": "on",
      "note": 75,
      "vel": 70,
      "channel": 3
    },
    {
      "time": 552.0173076923077,
      "type": "on",
      "note": 75,
      "vel": 74,
      "channel": 3
    },
    {
      "time": 553.8461538461538,
      "type": "on",
      "note": 39,
      "vel": 60,
      "channel": 1
    },
    {
      "time": 553.9788461538461,
      "type": "on",
      "note": 51,
      "vel": 45,
      "channel": 2
    },
    {
      "time": 553.998076923077,
      "type": "on",
      "note": 58,
      "vel": 45,
      "channel": 2
    },
    {
      "time": 553.9942307692307,
      "type": "on",
      "note": 63,
      "vel": 45,
      "channel": 2
    },
    {
      "time": 553.9269230769231,
      "type": "on",
      "note": 65,
      "vel": 45,
      "channel": 2
    },
    {
      "time": 553.8634615384616,
      "type": "on",
      "note": 67,
      "vel": 45,
      "channel": 2
    },
    {
      "time": 553.8615384615384,
      "type": "on",
      "note": 75,
      "vel": 73,
      "channel": 0
    },
    {
      "time": 554.0807692307692,
      "type": "on",
      "note": 82,
      "vel": 48,
      "channel": 0
    },
    {
      "time": 554.3192307692308,
      "type": "on",
      "note": 79,
      "vel": 61,
      "channel": 0
    },
    {
      "time": 554.5326923076923,
      "type": "on",
      "note": 77,
      "vel": 40,
      "channel": 0
    },
    {
      "time": 554.7826923076923,
      "type": "on",
      "note": 75,
      "vel": 73,
      "channel": 0
    },
    {
      "time": 554.998076923077,
      "type": "on",
      "note": 82,
      "vel": 49,
      "channel": 0
    },
    {
      "time": 555.248076923077,
      "type": "on",
      "note": 79,
      "vel": 57,
      "channel": 0
    },
    {
      "time": 555.4788461538461,
      "type": "on",
      "note": 77,
      "vel": 48,
      "channel": 0
    },
    {
      "time": 555.6826923076923,
      "type": "on",
      "note": 75,
      "vel": 85,
      "channel": 0
    },
    {
      "time": 555.9326923076923,
      "type": "on",
      "note": 82,
      "vel": 47,
      "channel": 0
    },
    {
      "time": 556.1634615384615,
      "type": "on",
      "note": 79,
      "vel": 57,
      "channel": 0
    },
    {
      "time": 556.4057692307692,
      "type": "on",
      "note": 77,
      "vel": 42,
      "channel": 0
    },
    {
      "time": 556.6076923076923,
      "type": "on",
      "note": 75,
      "vel": 82,
      "channel": 0
    },
    {
      "time": 556.8634615384616,
      "type": "on",
      "note": 82,
      "vel": 47,
      "channel": 0
    },
    {
      "time": 557.0788461538461,
      "type": "on",
      "note": 79,
      "vel": 56,
      "channel": 0
    },
    {
      "time": 557.3173076923077,
      "type": "on",
      "note": 77,
      "vel": 47,
      "channel": 0
    },
    {
      "time": 553.8615384615384,
      "type": "on",
      "note": 75,
      "vel": 70,
      "channel": 3
    },
    {
      "time": 555.7,
      "type": "on",
      "note": 75,
      "vel": 70,
      "channel": 3
    },
    {
      "time": 557.5384615384615,
      "type": "on",
      "note": 43,
      "vel": 60,
      "channel": 1
    },
    {
      "time": 557.575,
      "type": "on",
      "note": 55,
      "vel": 45,
      "channel": 2
    },
    {
      "time": 557.5557692307692,
      "type": "on",
      "note": 58,
      "vel": 45,
      "channel": 2
    },
    {
      "time": 557.6826923076923,
      "type": "on",
      "note": 62,
      "vel": 45,
      "channel": 2
    },
    {
      "time": 557.6057692307693,
      "type": "on",
      "note": 65,
      "vel": 45,
      "channel": 2
    },
    {
      "time": 557.6,
      "type": "on",
      "note": 72,
      "vel": 45,
      "channel": 2
    },
    {
      "time": 557.5557692307692,
      "type": "on",
      "note": 70,
      "vel": 75,
      "channel": 0
    },
    {
      "time": 557.7653846153846,
      "type": "on",
      "note": 84,
      "vel": 48,
      "channel": 0
    },
    {
      "time": 557.9846153846154,
      "type": "on",
      "note": 77,
      "vel": 64,
      "channel": 0
    },
    {
      "time": 558.2461538461539,
      "type": "on",
      "note": 74,
      "vel": 47,
      "channel": 0
    },
    {
      "time": 558.4538461538461,
      "type": "on",
      "note": 70,
      "vel": 83,
      "channel": 0
    },
    {
      "time": 558.7134615384615,
      "type": "on",
      "note": 84,
      "vel": 46,
      "channel": 0
    },
    {
      "time": 558.9288461538462,
      "type": "on",
      "note": 77,
      "vel": 56,
      "channel": 0
    },
    {
      "time": 559.1711538461539,
      "type": "on",
      "note": 74,
      "vel": 42,
      "channel": 0
    },
    {
      "time": 559.3711538461539,
      "type": "on",
      "note": 70,
      "vel": 72,
      "channel": 0
    },
    {
      "time": 559.6076923076923,
      "type": "on",
      "note": 84,
      "vel": 47,
      "channel": 0
    },
    {
      "time": 559.8576923076923,
      "type": "on",
      "note": 77,
      "vel": 61,
      "channel": 0
    },
    {
      "time": 560.0807692307692,
      "type": "on",
      "note": 74,
      "vel": 40,
      "channel": 0
    },
    {
      "time": 560.3096153846154,
      "type": "on",
      "note": 70,
      "vel": 70,
      "channel": 0
    },
    {
      "time": 560.5403846153846,
      "type": "on",
      "note": 84,
      "vel": 45,
      "channel": 0
    },
    {
      "time": 560.7711538461539,
      "type": "on",
      "note": 77,
      "vel": 63,
      "channel": 0
    },
    {
      "time": 560.9903846153846,
      "type": "on",
      "note": 74,
      "vel": 45,
      "channel": 0
    },
    {
      "time": 557.5519230769231,
      "type": "on",
      "note": 74,
      "vel": 75,
      "channel": 3
    },
    {
      "time": 559.3788461538461,
      "type": "on",
      "note": 74,
      "vel": 74,
      "channel": 3
    },
    {
      "time": 561.2307692307693,
      "type": "on",
      "note": 36,
      "vel": 60,
      "channel": 1
    },
    {
      "time": 561.2653846153846,
      "type": "on",
      "note": 60,
      "vel": 45,
      "channel": 2
    },
    {
      "time": 561.2384615384616,
      "type": "on",
      "note": 63,
      "vel": 45,
      "channel": 2
    },
    {
      "time": 561.4230769230769,
      "type": "on",
      "note": 67,
      "vel": 45,
      "channel": 2
    },
    {
      "time": 561.4173076923076,
      "type": "on",
      "note": 74,
      "vel": 45,
      "channel": 2
    },
    {
      "time": 561.3634615384616,
      "type": "on",
      "note": 77,
      "vel": 45,
      "channel": 2
    },
    {
      "time": 561.2423076923077,
      "type": "on",
      "note": 72,
      "vel": 72,
      "channel": 0
    },
    {
      "time": 561.4596153846154,
      "type": "on",
      "note": 86,
      "vel": 45,
      "channel": 0
    },
    {
      "time": 561.7115384615385,
      "type": "on",
      "note": 79,
      "vel": 60,
      "channel": 0
    },
    {
      "time": 561.9403846153846,
      "type": "on",
      "note": 75,
      "vel": 49,
      "channel": 0
    },
    {
      "time": 562.1673076923076,
      "type": "on",
      "note": 72,
      "vel": 70,
      "channel": 0
    },
    {
      "time": 562.4057692307692,
      "type": "on",
      "note": 86,
      "vel": 50,
      "channel": 0
    },
    {
      "time": 562.6134615384616,
      "type": "on",
      "note": 79,
      "vel": 55,
      "channel": 0
    },
    {
      "time": 562.8442307692308,
      "type": "on",
      "note": 75,
      "vel": 40,
      "channel": 0
    },
    {
      "time": 563.0923076923077,
      "type": "on",
      "note": 72,
      "vel": 72,
      "channel": 0
    },
    {
      "time": 563.3076923076923,
      "type": "on",
      "note": 86,
      "vel": 45,
      "channel": 0
    },
    {
      "time": 563.5307692307692,
      "type": "on",
      "note": 79,
      "vel": 58,
      "channel": 0
    },
    {
      "time": 563.7557692307693,
      "type": "on",
      "note": 75,
      "vel": 44,
      "channel": 0
    },
    {
      "time": 564.0076923076923,
      "type": "on",
      "note": 72,
      "vel": 73,
      "channel": 0
    },
    {
      "time": 564.2269230769231,
      "type": "on",
      "note": 86,
      "vel": 49,
      "channel": 0
    },
    {
      "time": 564.473076923077,
      "type": "on",
      "note": 79,
      "vel": 57,
      "channel": 0
    },
    {
      "time": 564.7057692307692,
      "type": "on",
      "note": 75,
      "vel": 40,
      "channel": 0
    },
    {
      "time": 561.2269230769231,
      "type": "on",
      "note": 79,
      "vel": 79,
      "channel": 3
    },
    {
      "time": 563.0711538461538,
      "type": "on",
      "note": 79,
      "vel": 70,
      "channel": 3
    },
    {
      "time": 564.9230769230769,
      "type": "on",
      "note": 32,
      "vel": 60,
      "channel": 1
    },
    {
      "time": 565.0461538461539,
      "type": "on",
      "note": 56,
      "vel": 45,
      "channel": 2
    },
    {
      "time": 564.95,
      "type": "on",
      "note": 60,
      "vel": 45,
      "channel": 2
    },
    {
      "time": 564.9942307692307,
      "type": "on",
      "note": 63,
      "vel": 45,
      "channel": 2
    },
    {
      "time": 565.0519230769231,
      "type": "on",
      "note": 67,
      "vel": 45,
      "channel": 2
    },
    {
      "time": 564.9461538461538,
      "type": "on",
      "note": 74,
      "vel": 45,
      "channel": 2
    },
    {
      "time": 564.9365384615385,
      "type": "on",
      "note": 68,
      "vel": 80,
      "channel": 0
    },
    {
      "time": 565.1442307692307,
      "type": "on",
      "note": 79,
      "vel": 40,
      "channel": 0
    },
    {
      "time": 565.3826923076923,
      "type": "on",
      "note": 75,
      "vel": 59,
      "channel": 0
    },
    {
      "time": 565.6192307692307,
      "type": "on",
      "note": 72,
      "vel": 43,
      "channel": 0
    },
    {
      "time": 565.8634615384616,
      "type": "on",
      "note": 68,
      "vel": 73,
      "channel": 0
    },
    {
      "time": 566.0692307692308,
      "type": "on",
      "note": 79,
      "vel": 45,
      "channel": 0
    },
    {
      "time": 566.3,
      "type": "on",
      "note": 75,
      "vel": 62,
      "channel": 0
    },
    {
      "time": 566.5519230769231,
      "type": "on",
      "note": 72,
      "vel": 47,
      "channel": 0
    },
    {
      "time": 566.7576923076923,
      "type": "on",
      "note": 68,
      "vel": 84,
      "channel": 0
    },
    {
      "time": 566.9884615384616,
      "type": "on",
      "note": 79,
      "vel": 46,
      "channel": 0
    },
    {
      "time": 567.2442307692307,
      "type": "on",
      "note": 75,
      "vel": 63,
      "channel": 0
    },
    {
      "time": 567.4634615384615,
      "type": "on",
      "note": 72,
      "vel": 50,
      "channel": 0
    },
    {
      "time": 567.7153846153847,
      "type": "on",
      "note": 68,
      "vel": 82,
      "channel": 0
    },
    {
      "time": 567.9307692307692,
      "type": "on",
      "note": 79,
      "vel": 45,
      "channel": 0
    },
    {
      "time": 568.1711538461539,
      "type": "on",
      "note": 75,
      "vel": 63,
      "channel": 0
    },
    {
      "time": 568.401923076923,
      "type": "on",
      "note": 72,
      "vel": 49,
      "channel": 0
    },
    {
      "time": 564.9384615384615,
      "type": "on",
      "note": 75,
      "vel": 70,
      "channel": 3
    },
    {
      "time": 566.7730769230769,
      "type": "on",
      "note": 75,
      "vel": 78,
      "channel": 3
    },
    {
      "time": 568.6153846153846,
      "type": "on",
      "note": 39,
      "vel": 60,
      "channel": 1
    },
    {
      "time": 568.7461538461539,
      "type": "on",
      "note": 51,
      "vel": 45,
      "channel": 2
    },
    {
      "time": 568.625,
      "type": "on",
      "note": 58,
      "vel": 45,
      "channel": 2
    },
    {
      "time": 568.7423076923077,
      "type": "on",
      "note": 63,
      "vel": 45,
      "channel": 2
    },
    {
      "time": 568.8019230769231,
      "type": "on",
      "note": 65,
      "vel": 45,
      "channel": 2
    },
    {
      "time": 568.7653846153846,
      "type": "on",
      "note": 67,
      "vel": 45,
      "channel": 2
    },
    {
      "time": 568.6134615384616,
      "type": "on",
      "note": 75,
      "vel": 77,
      "channel": 0
    },
    {
      "time": 568.8653846153846,
      "type": "on",
      "note": 82,
      "vel": 49,
      "channel": 0
    },
    {
      "time": 569.098076923077,
      "type": "on",
      "note": 79,
      "vel": 55,
      "channel": 0
    },
    {
      "time": 569.2980769230769,
      "type": "on",
      "note": 77,
      "vel": 48,
      "channel": 0
    },
    {
      "time": 569.5365384615385,
      "type": "on",
      "note": 75,
      "vel": 70,
      "channel": 0
    },
    {
      "time": 569.7653846153846,
      "type": "on",
      "note": 82,
      "vel": 40,
      "channel": 0
    },
    {
      "time": 570.0096153846154,
      "type": "on",
      "note": 79,
      "vel": 59,
      "channel": 0
    },
    {
      "time": 570.2173076923077,
      "type": "on",
      "note": 77,
      "vel": 47,
      "channel": 0
    },
    {
      "time": 570.4538461538461,
      "type": "on",
      "note": 75,
      "vel": 72,
      "channel": 0
    },
    {
      "time": 570.6865384615385,
      "type": "on",
      "note": 82,
      "vel": 49,
      "channel": 0
    },
    {
      "time": 570.9288461538462,
      "type": "on",
      "note": 79,
      "vel": 61,
      "channel": 0
    },
    {
      "time": 571.1384615384616,
      "type": "on",
      "note": 77,
      "vel": 46,
      "channel": 0
    },
    {
      "time": 571.3711538461539,
      "type": "on",
      "note": 75,
      "vel": 80,
      "channel": 0
    },
    {
      "time": 571.623076923077,
      "type": "on",
      "note": 82,
      "vel": 44,
      "channel": 0
    },
    {
      "time": 571.848076923077,
      "type": "on",
      "note": 79,
      "vel": 64,
      "channel": 0
    },
    {
      "time": 572.0730769230769,
      "type": "on",
      "note": 77,
      "vel": 40,
      "channel": 0
    },
    {
      "time": 568.623076923077,
      "type": "on",
      "note": 75,
      "vel": 75,
      "channel": 3
    },
    {
      "time": 570.4634615384615,
      "type": "on",
      "note": 75,
      "vel": 72,
      "channel": 3
    },
    {
      "time": 572.3076923076923,
      "type": "on",
      "note": 43,
      "vel": 60,
      "channel": 1
    },
    {
      "time": 572.3173076923077,
      "type": "on",
      "note": 55,
      "vel": 45,
      "channel": 2
    },
    {
      "time": 572.3134615384615,
      "type": "on",
      "note": 58,
      "vel": 45,
      "channel": 2
    },
    {
      "time": 572.4115384615385,
      "type": "on",
      "note": 62,
      "vel": 45,
      "channel": 2
    },
    {
      "time": 572.3211538461538,
      "type": "on",
      "note": 65,
      "vel": 45,
      "channel": 2
    },
    {
      "time": 572.3980769230769,
      "type": "on",
      "note": 72,
      "vel": 45,
      "channel": 2
    },
    {
      "time": 572.3,
      "type": "on",
      "note": 70,
      "vel": 71,
      "channel": 0
    },
    {
      "time": 572.5365384615385,
      "type": "on",
      "note": 84,
      "vel": 47,
      "channel": 0
    },
    {
      "time": 572.7884615384615,
      "type": "on",
      "note": 77,
      "vel": 56,
      "channel": 0
    },
    {
      "time": 572.9846153846154,
      "type": "on",
      "note": 74,
      "vel": 46,
      "channel": 0
    },
    {
      "time": 573.2326923076923,
      "type": "on",
      "note": 70,
      "vel": 71,
      "channel": 0
    },
    {
      "time": 573.4557692307692,
      "type": "on",
      "note": 84,
      "vel": 44,
      "channel": 0
    },
    {
      "time": 573.7057692307692,
      "type": "on",
      "note": 77,
      "vel": 59,
      "channel": 0
    },
    {
      "time": 573.925,
      "type": "on",
      "note": 74,
      "vel": 50,
      "channel": 0
    },
    {
      "time": 574.1480769230769,
      "type": "on",
      "note": 70,
      "vel": 83,
      "channel": 0
    },
    {
      "time": 574.3923076923077,
      "type": "on",
      "note": 84,
      "vel": 48,
      "channel": 0
    },
    {
      "time": 574.6173076923077,
      "type": "on",
      "note": 77,
      "vel": 57,
      "channel": 0
    },
    {
      "time": 574.8673076923077,
      "type": "on",
      "note": 74,
      "vel": 43,
      "channel": 0
    },
    {
      "time": 575.0615384615385,
      "type": "on",
      "note": 70,
      "vel": 83,
      "channel": 0
    },
    {
      "time": 575.2942307692308,
      "type": "on",
      "note": 84,
      "vel": 43,
      "channel": 0
    },
    {
      "time": 575.5480769230769,
      "type": "on",
      "note": 77,
      "vel": 62,
      "channel": 0
    },
    {
      "time": 575.7596153846154,
      "type": "on",
      "note": 74,
      "vel": 43,
      "channel": 0
    },
    {
      "time": 572.3230769230769,
      "type": "on",
      "note": 74,
      "vel": 79,
      "channel": 3
    },
    {
      "time": 574.1461538461539,
      "type": "on",
      "note": 74,
      "vel": 72,
      "channel": 3
    },
    {
      "time": 576.0,
      "type": "on",
      "note": 36,
      "vel": 60,
      "channel": 1
    },
    {
      "time": 576.0461538461539,
      "type": "on",
      "note": 60,
      "vel": 45,
      "channel": 2
    },
    {
      "time": 576.1461538461539,
      "type": "on",
      "note": 63,
      "vel": 45,
      "channel": 2
    },
    {
      "time": 576.0461538461539,
      "type": "on",
      "note": 67,
      "vel": 45,
      "channel": 2
    },
    {
      "time": 576.1096153846154,
      "type": "on",
      "note": 74,
      "vel": 45,
      "channel": 2
    },
    {
      "time": 576.0365384615385,
      "type": "on",
      "note": 77,
      "vel": 45,
      "channel": 2
    },
    {
      "time": 576.0115384615384,
      "type": "on",
      "note": 72,
      "vel": 83,
      "channel": 0
    },
    {
      "time": 576.2384615384616,
      "type": "on",
      "note": 86,
      "vel": 48,
      "channel": 0
    },
    {
      "time": 576.475,
      "type": "on",
      "note": 79,
      "vel": 55,
      "channel": 0
    },
    {
      "time": 576.7153846153847,
      "type": "on",
      "note": 75,
      "vel": 44,
      "channel": 0
    },
    {
      "time": 576.9269230769231,
      "type": "on",
      "note": 72,
      "vel": 85,
      "channel": 0
    },
    {
      "time": 577.1480769230769,
      "type": "on",
      "note": 86,
      "vel": 43,
      "channel": 0
    },
    {
      "time": 577.3865384615384,
      "type": "on",
      "note": 79,
      "vel": 58,
      "channel": 0
    },
    {
      "time": 577.6384615384616,
      "type": "on",
      "note": 75,
      "vel": 43,
      "channel": 0
    },
    {
      "time": 577.8519230769231,
      "type": "on",
      "note": 72,
      "vel": 81,
      "channel": 0
    },
    {
      "time": 578.0865384615385,
      "type": "on",
      "note": 86,
      "vel": 48,
      "channel": 0
    },
    {
      "time": 578.2980769230769,
      "type": "on",
      "note": 79,
      "vel": 61,
      "channel": 0
    },
    {
      "time": 578.526923076923,
      "type": "on",
      "note": 75,
      "vel": 42,
      "channel": 0
    },
    {
      "time": 578.7826923076923,
      "type": "on",
      "note": 72,
      "vel": 81,
      "channel": 0
    },
    {
      "time": 579.0192307692307,
      "type": "on",
      "note": 86,
      "vel": 49,
      "channel": 0
    },
    {
      "time": 579.2269230769231,
      "type": "on",
      "note": 79,
      "vel": 57,
      "channel": 0
    },
    {
      "time": 579.4519230769231,
      "type": "on",
      "note": 75,
      "vel": 47,
      "channel": 0
    },
    {
      "time": 576.001923076923,
      "type": "on",
      "note": 79,
      "vel": 72,
      "channel": 3
    },
    {
      "time": 577.8442307692308,
      "type": "on",
      "note": 79,
      "vel": 70,
      "channel": 3
    },
    {
      "time": 579.6923076923077,
      "type": "on",
      "note": 32,
      "vel": 60,
      "channel": 1
    },
    {
      "time": 579.7461538461539,
      "type": "on",
      "note": 56,
      "vel": 45,
      "channel": 2
    },
    {
      "time": 579.7365384615384,
      "type": "on",
      "note": 60,
      "vel": 45,
      "channel": 2
    },
    {
      "time": 579.7884615384615,
      "type": "on",
      "note": 63,
      "vel": 45,
      "channel": 2
    },
    {
      "time": 579.7903846153846,
      "type": "on",
      "note": 67,
      "vel": 45,
      "channel": 2
    },
    {
      "time": 579.7538461538461,
      "type": "on",
      "note": 74,
      "vel": 45,
      "channel": 2
    },
    {
      "time": 579.6942307692308,
      "type": "on",
      "note": 68,
      "vel": 85,
      "channel": 0
    },
    {
      "time": 579.9211538461539,
      "type": "on",
      "note": 79,
      "vel": 50,
      "channel": 0
    },
    {
      "time": 580.1596153846153,
      "type": "on",
      "note": 75,
      "vel": 59,
      "channel": 0
    },
    {
      "time": 580.4076923076923,
      "type": "on",
      "note": 72,
      "vel": 43,
      "channel": 0
    },
    {
      "time": 580.6307692307693,
      "type": "on",
      "note": 68,
      "vel": 82,
      "channel": 0
    },
    {
      "time": 580.8653846153846,
      "type": "on",
      "note": 79,
      "vel": 45,
      "channel": 0
    },
    {
      "time": 581.0807692307692,
      "type": "on",
      "note": 75,
      "vel": 62,
      "channel": 0
    },
    {
      "time": 581.3096153846154,
      "type": "on",
      "note": 72,
      "vel": 44,
      "channel": 0
    },
    {
      "time": 581.5461538461539,
      "type": "on",
      "note": 68,
      "vel": 82,
      "channel": 0
    },
    {
      "time": 581.7634615384616,
      "type": "on",
      "note": 79,
      "vel": 43,
      "channel": 0
    },
    {
      "time": 581.9865384615384,
      "type": "on",
      "note": 75,
      "vel": 59,
      "channel": 0
    },
    {
      "time": 582.2423076923077,
      "type": "on",
      "note": 72,
      "vel": 44,
      "channel": 0
    },
    {
      "time": 582.473076923077,
      "type": "on",
      "note": 68,
      "vel": 70,
      "channel": 0
    },
    {
      "time": 582.7038461538461,
      "type": "on",
      "note": 79,
      "vel": 50,
      "channel": 0
    },
    {
      "time": 582.9134615384615,
      "type": "on",
      "note": 75,
      "vel": 56,
      "channel": 0
    },
    {
      "time": 583.1557692307692,
      "type": "on",
      "note": 72,
      "vel": 41,
      "channel": 0
    },
    {
      "time": 579.6865384615385,
      "type": "on",
      "note": 75,
      "vel": 71,
      "channel": 3
    },
    {
      "time": 581.5326923076923,
      "type": "on",
      "note": 75,
      "vel": 70,
      "channel": 3
    },
    {
      "time": 583.3846153846154,
      "type": "on",
      "note": 39,
      "vel": 60,
      "channel": 1
    },
    {
      "time": 583.4692307692308,
      "type": "on",
      "note": 51,
      "vel": 45,
      "channel": 2
    },
    {
      "time": 583.5519230769231,
      "type": "on",
      "note": 58,
      "vel": 45,
      "channel": 2
    },
    {
      "time": 583.5076923076923,
      "type": "on",
      "note": 63,
      "vel": 45,
      "channel": 2
    },
    {
      "time": 583.5211538461539,
      "type": "on",
      "note": 65,
      "vel": 45,
      "channel": 2
    },
    {
      "time": 583.4403846153846,
      "type": "on",
      "note": 67,
      "vel": 45,
      "channel": 2
    },
    {
      "time": 583.4038461538462,
      "type": "on",
      "note": 75,
      "vel": 81,
      "channel": 0
    },
    {
      "time": 583.6173076923077,
      "type": "on",
      "note": 82,
      "vel": 49,
      "channel": 0
    },
    {
      "time": 583.8538461538461,
      "type": "on",
      "note": 79,
      "vel": 61,
      "channel": 0
    },
    {
      "time": 584.0826923076924,
      "type": "on",
      "note": 77,
      "vel": 45,
      "channel": 0
    },
    {
      "time": 584.325,
      "type": "on",
      "note": 75,
      "vel": 82,
      "channel": 0
    },
    {
      "time": 584.525,
      "type": "on",
      "note": 82,
      "vel": 41,
      "channel": 0
    },
    {
      "time": 584.7826923076923,
      "type": "on",
      "note": 79,
      "vel": 61,
      "channel": 0
    },
    {
      "time": 584.9961538461539,
      "type": "on",
      "note": 77,
      "vel": 47,
      "channel": 0
    },
    {
      "time": 585.2211538461538,
      "type": "on",
      "note": 75,
      "vel": 80,
      "channel": 0
    },
    {
      "time": 585.4634615384615,
      "type": "on",
      "note": 82,
      "vel": 50,
      "channel": 0
    },
    {
      "time": 585.6961538461538,
      "type": "on",
      "note": 79,
      "vel": 65,
      "channel": 0
    },
    {
      "time": 585.9211538461539,
      "type": "on",
      "note": 77,
      "vel": 42,
      "channel": 0
    },
    {
      "time": 586.1769230769231,
      "type": "on",
      "note": 75,
      "vel": 72,
      "channel": 0
    },
    {
      "time": 586.4076923076923,
      "type": "on",
      "note": 82,
      "vel": 41,
      "channel": 0
    },
    {
      "time": 586.6326923076923,
      "type": "on",
      "note": 79,
      "vel": 58,
      "channel": 0
    },
    {
      "time": 586.8615384615384,
      "type": "on",
      "note": 77,
      "vel": 40,
      "channel": 0
    },
    {
      "time": 583.3788461538461,
      "type": "on",
      "note": 75,
      "vel": 78,
      "channel": 3
    },
    {
      "time": 585.2211538461538,
      "type": "on",
      "note": 75,
      "vel": 78,
      "channel": 3
    },
    {
      "time": 587.0769230769231,
      "type": "on",
      "note": 43,
      "vel": 60,
      "channel": 1
    },
    {
      "time": 587.2538461538461,
      "type": "on",
      "note": 55,
      "vel": 45,
      "channel": 2
    },
    {
      "time": 587.1538461538462,
      "type": "on",
      "note": 58,
      "vel": 45,
      "channel": 2
    },
    {
      "time": 587.1769230769231,
      "type": "on",
      "note": 62,
      "vel": 45,
      "channel": 2
    },
    {
      "time": 587.2576923076923,
      "type": "on",
      "note": 65,
      "vel": 45,
      "channel": 2
    },
    {
      "time": 587.225,
      "type": "on",
      "note": 72,
      "vel": 45,
      "channel": 2
    },
    {
      "time": 587.0903846153847,
      "type": "on",
      "note": 70,
      "vel": 71,
      "channel": 0
    },
    {
      "time": 587.3134615384615,
      "type": "on",
      "note": 84,
      "vel": 42,
      "channel": 0
    },
    {
      "time": 587.5326923076923,
      "type": "on",
      "note": 77,
      "vel": 65,
      "channel": 0
    },
    {
      "time": 587.7788461538462,
      "type": "on",
      "note": 74,
      "vel": 47,
      "channel": 0
    },
    {
      "time": 587.9942307692307,
      "type": "on",
      "note": 70,
      "vel": 76,
      "channel": 0
    },
    {
      "time": 588.2326923076923,
      "type": "on",
      "note": 84,
      "vel": 42,
      "channel": 0
    },
    {
      "time": 588.4519230769231,
      "type": "on",
      "note": 77,
      "vel": 61,
      "channel": 0
    },
    {
      "time": 588.6961538461538,
      "type": "on",
      "note": 74,
      "vel": 44,
      "channel": 0
    },
    {
      "time": 588.9096153846153,
      "type": "on",
      "note": 70,
      "vel": 75,
      "channel": 0
    },
    {
      "time": 589.1673076923076,
      "type": "on",
      "note": 84,
      "vel": 41,
      "channel": 0
    },
    {
      "time": 589.4076923076923,
      "type": "on",
      "note": 77,
      "vel": 65,
      "channel": 0
    },
    {
      "time": 589.6076923076923,
      "type": "on",
      "note": 74,
      "vel": 43,
      "channel": 0
    },
    {
      "time": 589.85,
      "type": "on",
      "note": 70,
      "vel": 80,
      "channel": 0
    },
    {
      "time": 590.1,
      "type": "on",
      "note": 84,
      "vel": 45,
      "channel": 0
    },
    {
      "time": 590.3076923076923,
      "type": "on",
      "note": 77,
      "vel": 62,
      "channel": 0
    },
    {
      "time": 590.5480769230769,
      "type": "on",
      "note": 74,
      "vel": 44,
      "channel": 0
    },
    {
      "time": 587.0826923076924,
      "type": "on",
      "note": 74,
      "vel": 78,
      "channel": 3
    },
    {
      "time": 588.9288461538462,
      "type": "on",
      "note": 74,
      "vel": 80,
      "channel": 3
    },
    {
      "time": 590.7692307692307,
      "type": "on",
      "note": 36,
      "vel": 60,
      "channel": 1
    },
    {
      "time": 590.8288461538461,
      "type": "on",
      "note": 60,
      "vel": 45,
      "channel": 2
    },
    {
      "time": 590.8365384615385,
      "type": "on",
      "note": 63,
      "vel": 45,
      "channel": 2
    },
    {
      "time": 590.848076923077,
      "type": "on",
      "note": 67,
      "vel": 45,
      "channel": 2
    },
    {
      "time": 590.9557692307692,
      "type": "on",
      "note": 74,
      "vel": 45,
      "channel": 2
    },
    {
      "time": 590.8192307692308,
      "type": "on",
      "note": 77,
      "vel": 45,
      "channel": 2
    },
    {
      "time": 590.7730769230769,
      "type": "on",
      "note": 72,
      "vel": 74,
      "channel": 0
    },
    {
      "time": 591.0192307692307,
      "type": "on",
      "note": 86,
      "vel": 42,
      "channel": 0
    },
    {
      "time": 591.2307692307693,
      "type": "on",
      "note": 79,
      "vel": 59,
      "channel": 0
    },
    {
      "time": 591.4557692307692,
      "type": "on",
      "note": 75,
      "vel": 44,
      "channel": 0
    },
    {
      "time": 591.6923076923077,
      "type": "on",
      "note": 72,
      "vel": 81,
      "channel": 0
    },
    {
      "time": 591.9461538461538,
      "type": "on",
      "note": 86,
      "vel": 49,
      "channel": 0
    },
    {
      "time": 592.1403846153846,
      "type": "on",
      "note": 79,
      "vel": 56,
      "channel": 0
    },
    {
      "time": 592.3961538461539,
      "type": "on",
      "note": 75,
      "vel": 40,
      "channel": 0
    },
    {
      "time": 592.6096153846154,
      "type": "on",
      "note": 72,
      "vel": 74,
      "channel": 0
    },
    {
      "time": 592.8519230769231,
      "type": "on",
      "note": 86,
      "vel": 49,
      "channel": 0
    },
    {
      "time": 593.0653846153846,
      "type": "on",
      "note": 79,
      "vel": 60,
      "channel": 0
    },
    {
      "time": 593.3019230769231,
      "type": "on",
      "note": 75,
      "vel": 40,
      "channel": 0
    },
    {
      "time": 593.525,
      "type": "on",
      "note": 72,
      "vel": 84,
      "channel": 0
    },
    {
      "time": 593.7673076923077,
      "type": "on",
      "note": 86,
      "vel": 47,
      "channel": 0
    },
    {
      "time": 593.9846153846154,
      "type": "on",
      "note": 79,
      "vel": 58,
      "channel": 0
    },
    {
      "time": 594.2423076923077,
      "type": "on",
      "note": 75,
      "vel": 44,
      "channel": 0
    },
    {
      "time": 590.7884615384615,
      "type": "on",
      "note": 79,
      "vel": 70,
      "channel": 3
    },
    {
      "time": 592.6057692307693,
      "type": "on",
      "note": 79,
      "vel": 78,
      "channel": 3
    },
    {
      "time": 594.4615384615385,
      "type": "on",
      "note": 32,
      "vel": 60,
      "channel": 1
    },
    {
      "time": 594.5826923076924,
      "type": "on",
      "note": 56,
      "vel": 45,
      "channel": 2
    },
    {
      "time": 594.6057692307693,
      "type": "on",
      "note": 60,
      "vel": 45,
      "channel": 2
    },
    {
      "time": 594.498076923077,
      "type": "on",
      "note": 63,
      "vel": 45,
      "channel": 2
    },
    {
      "time": 594.6211538461539,
      "type": "on",
      "note": 67,
      "vel": 45,
      "channel": 2
    },
    {
      "time": 594.4846153846154,
      "type": "on",
      "note": 74,
      "vel": 45,
      "channel": 2
    },
    {
      "time": 594.4807692307693,
      "type": "on",
      "note": 68,
      "vel": 80,
      "channel": 0
    },
    {
      "time": 594.6942307692308,
      "type": "on",
      "note": 79,
      "vel": 42,
      "channel": 0
    },
    {
      "time": 594.9442307692308,
      "type": "on",
      "note": 75,
      "vel": 58,
      "channel": 0
    },
    {
      "time": 595.175,
      "type": "on",
      "note": 72,
      "vel": 49,
      "channel": 0
    },
    {
      "time": 595.3711538461539,
      "type": "on",
      "note": 68,
      "vel": 77,
      "channel": 0
    },
    {
      "time": 595.6192307692307,
      "type": "on",
      "note": 79,
      "vel": 42,
      "channel": 0
    },
    {
      "time": 595.8384615384615,
      "type": "on",
      "note": 75,
      "vel": 55,
      "channel": 0
    },
    {
      "time": 596.0846153846154,
      "type": "on",
      "note": 72,
      "vel": 46,
      "channel": 0
    },
    {
      "time": 596.3230769230769,
      "type": "on",
      "note": 68,
      "vel": 82,
      "channel": 0
    },
    {
      "time": 596.55,
      "type": "on",
      "note": 79,
      "vel": 42,
      "channel": 0
    },
    {
      "time": 596.7730769230769,
      "type": "on",
      "note": 75,
      "vel": 57,
      "channel": 0
    },
    {
      "time": 597.0057692307693,
      "type": "on",
      "note": 72,
      "vel": 42,
      "channel": 0
    },
    {
      "time": 597.251923076923,
      "type": "on",
      "note": 68,
      "vel": 81,
      "channel": 0
    },
    {
      "time": 597.4519230769231,
      "type": "on",
      "note": 79,
      "vel": 40,
      "channel": 0
    },
    {
      "time": 597.6923076923077,
      "type": "on",
      "note": 75,
      "vel": 58,
      "channel": 0
    },
    {
      "time": 597.9153846153846,
      "type": "on",
      "note": 72,
      "vel": 41,
      "channel": 0
    },
    {
      "time": 594.4519230769231,
      "type": "on",
      "note": 75,
      "vel": 76,
      "channel": 3
    },
    {
      "time": 596.2980769230769,
      "type": "on",
      "note": 75,
      "vel": 74,
      "channel": 3
    },
    {
      "time": 598.1538461538462,
      "type": "on",
      "note": 39,
      "vel": 60,
      "channel": 1
    },
    {
      "time": 598.1807692307692,
      "type": "on",
      "note": 51,
      "vel": 45,
      "channel": 2
    },
    {
      "time": 598.2384615384616,
      "type": "on",
      "note": 58,
      "vel": 45,
      "channel": 2
    },
    {
      "time": 598.3326923076924,
      "type": "on",
      "note": 63,
      "vel": 45,
      "channel": 2
    },
    {
      "time": 598.2538461538461,
      "type": "on",
      "note": 65,
      "vel": 45,
      "channel": 2
    },
    {
      "time": 598.2865384615385,
      "type": "on",
      "note": 67,
      "vel": 45,
      "channel": 2
    },
    {
      "time": 598.151923076923,
      "type": "on",
      "note": 75,
      "vel": 84,
      "channel": 0
    },
    {
      "time": 598.3884615384616,
      "type": "on",
      "note": 82,
      "vel": 47,
      "channel": 0
    },
    {
      "time": 598.625,
      "type": "on",
      "note": 79,
      "vel": 65,
      "channel": 0
    },
    {
      "time": 598.8538461538461,
      "type": "on",
      "note": 77,
      "vel": 50,
      "channel": 0
    },
    {
      "time": 599.0653846153846,
      "type": "on",
      "note": 75,
      "vel": 71,
      "channel": 0
    },
    {
      "time": 599.3134615384615,
      "type": "on",
      "note": 82,
      "vel": 42,
      "channel": 0
    },
    {
      "time": 599.5326923076923,
      "type": "on",
      "note": 79,
      "vel": 60,
      "channel": 0
    },
    {
      "time": 599.775,
      "type": "on",
      "note": 77,
      "vel": 43,
      "channel": 0
    },
    {
      "time": 599.9846153846154,
      "type": "on",
      "note": 75,
      "vel": 84,
      "channel": 0
    },
    {
      "time": 600.2423076923077,
      "type": "on",
      "note": 82,
      "vel": 49,
      "channel": 0
    },
    {
      "time": 600.4788461538461,
      "type": "on",
      "note": 79,
      "vel": 60,
      "channel": 0
    },
    {
      "time": 600.7057692307692,
      "type": "on",
      "note": 77,
      "vel": 42,
      "channel": 0
    },
    {
      "time": 600.9115384615385,
      "type": "on",
      "note": 75,
      "vel": 78,
      "channel": 0
    },
    {
      "time": 601.1615384615385,
      "type": "on",
      "note": 82,
      "vel": 44,
      "channel": 0
    },
    {
      "time": 601.376923076923,
      "type": "on",
      "note": 79,
      "vel": 56,
      "channel": 0
    },
    {
      "time": 601.6307692307693,
      "type": "on",
      "note": 77,
      "vel": 47,
      "channel": 0
    },
    {
      "time": 598.1692307692308,
      "type": "on",
      "note": 75,
      "vel": 75,
      "channel": 3
    },
    {
      "time": 600.0173076923077,
      "type": "on",
      "note": 75,
      "vel": 71,
      "channel": 3
    },
    {
      "time": 601.8461538461538,
      "type": "on",
      "note": 43,
      "vel": 60,
      "channel": 1
    },
    {
      "time": 601.8942307692307,
      "type": "on",
      "note": 55,
      "vel": 45,
      "channel": 2
    },
    {
      "time": 601.9884615384616,
      "type": "on",
      "note": 58,
      "vel": 45,
      "channel": 2
    },
    {
      "time": 601.875,
      "type": "on",
      "note": 62,
      "vel": 45,
      "channel": 2
    },
    {
      "time": 601.8634615384616,
      "type": "on",
      "note": 65,
      "vel": 45,
      "channel": 2
    },
    {
      "time": 602.0076923076923,
      "type": "on",
      "note": 72,
      "vel": 45,
      "channel": 2
    },
    {
      "time": 601.8461538461538,
      "type": "on",
      "note": 70,
      "vel": 75,
      "channel": 0
    },
    {
      "time": 602.0961538461538,
      "type": "on",
      "note": 84,
      "vel": 41,
      "channel": 0
    },
    {
      "time": 602.2923076923076,
      "type": "on",
      "note": 77,
      "vel": 63,
      "channel": 0
    },
    {
      "time": 602.55,
      "type": "on",
      "note": 74,
      "vel": 47,
      "channel": 0
    },
    {
      "time": 602.776923076923,
      "type": "on",
      "note": 70,
      "vel": 72,
      "channel": 0
    },
    {
      "time": 602.9865384615384,
      "type": "on",
      "note": 84,
      "vel": 41,
      "channel": 0
    },
    {
      "time": 603.2403846153846,
      "type": "on",
      "note": 77,
      "vel": 56,
      "channel": 0
    },
    {
      "time": 603.45,
      "type": "on",
      "note": 74,
      "vel": 47,
      "channel": 0
    },
    {
      "time": 603.7057692307692,
      "type": "on",
      "note": 70,
      "vel": 84,
      "channel": 0
    },
    {
      "time": 603.9192307692308,
      "type": "on",
      "note": 84,
      "vel": 47,
      "channel": 0
    },
    {
      "time": 604.1480769230769,
      "type": "on",
      "note": 77,
      "vel": 62,
      "channel": 0
    },
    {
      "time": 604.3942307692307,
      "type": "on",
      "note": 74,
      "vel": 47,
      "channel": 0
    },
    {
      "time": 604.6153846153846,
      "type": "on",
      "note": 70,
      "vel": 76,
      "channel": 0
    },
    {
      "time": 604.8692307692307,
      "type": "on",
      "note": 84,
      "vel": 42,
      "channel": 0
    },
    {
      "time": 605.0730769230769,
      "type": "on",
      "note": 77,
      "vel": 60,
      "channel": 0
    },
    {
      "time": 605.3019230769231,
      "type": "on",
      "note": 74,
      "vel": 41,
      "channel": 0
    },
    {
      "time": 601.8461538461538,
      "type": "on",
      "note": 74,
      "vel": 76,
      "channel": 3
    },
    {
      "time": 603.7076923076924,
      "type": "on",
      "note": 74,
      "vel": 72,
      "channel": 3
    },
    {
      "time": 605.5384615384615,
      "type": "on",
      "note": 36,
      "vel": 60,
      "channel": 1
    },
    {
      "time": 605.6730769230769,
      "type": "on",
      "note": 60,
      "vel": 45,
      "channel": 2
    },
    {
      "time": 605.6057692307693,
      "type": "on",
      "note": 63,
      "vel": 45,
      "channel": 2
    },
    {
      "time": 605.5403846153846,
      "type": "on",
      "note": 67,
      "vel": 45,
      "channel": 2
    },
    {
      "time": 605.5538461538462,
      "type": "on",
      "note": 74,
      "vel": 45,
      "channel": 2
    },
    {
      "time": 605.5634615384615,
      "type": "on",
      "note": 77,
      "vel": 45,
      "channel": 2
    },
    {
      "time": 605.5615384615385,
      "type": "on",
      "note": 72,
      "vel": 80,
      "channel": 0
    },
    {
      "time": 605.7634615384616,
      "type": "on",
      "note": 86,
      "vel": 48,
      "channel": 0
    },
    {
      "time": 605.998076923077,
      "type": "on",
      "note": 79,
      "vel": 63,
      "channel": 0
    },
    {
      "time": 606.2442307692307,
      "type": "on",
      "note": 75,
      "vel": 48,
      "channel": 0
    },
    {
      "time": 606.4653846153847,
      "type": "on",
      "note": 72,
      "vel": 81,
      "channel": 0
    },
    {
      "time": 606.6788461538462,
      "type": "on",
      "note": 86,
      "vel": 44,
      "channel": 0
    },
    {
      "time": 606.9288461538462,
      "type": "on",
      "note": 79,
      "vel": 62,
      "channel": 0
    },
    {
      "time": 607.175,
      "type": "on",
      "note": 75,
      "vel": 44,
      "channel": 0
    },
    {
      "time": 607.4038461538462,
      "type": "on",
      "note": 72,
      "vel": 72,
      "channel": 0
    },
    {
      "time": 607.6096153846154,
      "type": "on",
      "note": 86,
      "vel": 48,
      "channel": 0
    },
    {
      "time": 607.8538461538461,
      "type": "on",
      "note": 79,
      "vel": 56,
      "channel": 0
    },
    {
      "time": 608.0673076923077,
      "type": "on",
      "note": 75,
      "vel": 40,
      "channel": 0
    },
    {
      "time": 608.2961538461539,
      "type": "on",
      "note": 72,
      "vel": 85,
      "channel": 0
    },
    {
      "time": 608.5519230769231,
      "type": "on",
      "note": 86,
      "vel": 45,
      "channel": 0
    },
    {
      "time": 608.7807692307692,
      "type": "on",
      "note": 79,
      "vel": 57,
      "channel": 0
    },
    {
      "time": 609.0153846153846,
      "type": "on",
      "note": 75,
      "vel": 48,
      "channel": 0
    },
    {
      "time": 605.5365384615385,
      "type": "on",
      "note": 79,
      "vel": 77,
      "channel": 3
    },
    {
      "time": 607.4,
      "type": "on",
      "note": 79,
      "vel": 72,
      "channel": 3
    },
    {
      "time": 609.2307692307693,
      "type": "on",
      "note": 32,
      "vel": 60,
      "channel": 1
    },
    {
      "time": 609.2326923076923,
      "type": "on",
      "note": 56,
      "vel": 45,
      "channel": 2
    },
    {
      "time": 609.2807692307692,
      "type": "on",
      "note": 60,
      "vel": 45,
      "channel": 2
    },
    {
      "time": 609.3692307692307,
      "type": "on",
      "note": 63,
      "vel": 45,
      "channel": 2
    },
    {
      "time": 609.4211538461539,
      "type": "on",
      "note": 67,
      "vel": 45,
      "channel": 2
    },
    {
      "time": 609.2442307692307,
      "type": "on",
      "note": 74,
      "vel": 45,
      "channel": 2
    },
    {
      "time": 609.223076923077,
      "type": "on",
      "note": 68,
      "vel": 71,
      "channel": 0
    },
    {
      "time": 609.4557692307692,
      "type": "on",
      "note": 79,
      "vel": 43,
      "channel": 0
    },
    {
      "time": 609.6865384615385,
      "type": "on",
      "note": 75,
      "vel": 64,
      "channel": 0
    },
    {
      "time": 609.9326923076923,
      "type": "on",
      "note": 72,
      "vel": 44,
      "channel": 0
    },
    {
      "time": 610.1634615384615,
      "type": "on",
      "note": 68,
      "vel": 84,
      "channel": 0
    },
    {
      "time": 610.373076923077,
      "type": "on",
      "note": 79,
      "vel": 50,
      "channel": 0
    },
    {
      "time": 610.6134615384616,
      "type": "on",
      "note": 75,
      "vel": 58,
      "channel": 0
    },
    {
      "time": 610.85,
      "type": "on",
      "note": 72,
      "vel": 43,
      "channel": 0
    },
    {
      "time": 611.0769230769231,
      "type": "on",
      "note": 68,
      "vel": 73,
      "channel": 0
    },
    {
      "time": 611.3019230769231,
      "type": "on",
      "note": 79,
      "vel": 41,
      "channel": 0
    },
    {
      "time": 611.5326923076923,
      "type": "on",
      "note": 75,
      "vel": 62,
      "channel": 0
    },
    {
      "time": 611.7807692307692,
      "type": "on",
      "note": 72,
      "vel": 47,
      "channel": 0
    },
    {
      "time": 612.0134615384616,
      "type": "on",
      "note": 68,
      "vel": 83,
      "channel": 0
    },
    {
      "time": 612.248076923077,
      "type": "on",
      "note": 79,
      "vel": 46,
      "channel": 0
    },
    {
      "time": 612.4846153846154,
      "type": "on",
      "note": 75,
      "vel": 57,
      "channel": 0
    },
    {
      "time": 612.6923076923077,
      "type": "on",
      "note": 72,
      "vel": 50,
      "channel": 0
    },
    {
      "time": 609.2442307692307,
      "type": "on",
      "note": 75,
      "vel": 75,
      "channel": 3
    },
    {
      "time": 611.0673076923077,
      "type": "on",
      "note": 75,
      "vel": 78,
      "channel": 3
    },
    {
      "time": 612.9230769230769,
      "type": "on",
      "note": 39,
      "vel": 60,
      "channel": 1
    },
    {
      "time": 613.0096153846154,
      "type": "on",
      "note": 51,
      "vel": 45,
      "channel": 2
    },
    {
      "time": 613.0961538461538,
      "type": "on",
      "note": 58,
      "vel": 45,
      "channel": 2
    },
    {
      "time": 613.0596153846154,
      "type": "on",
      "note": 63,
      "vel": 45,
      "channel": 2
    },
    {
      "time": 613.0769230769231,
      "type": "on",
      "note": 65,
      "vel": 45,
      "channel": 2
    },
    {
      "time": 612.9538461538461,
      "type": "on",
      "note": 67,
      "vel": 45,
      "channel": 2
    },
    {
      "time": 612.9384615384615,
      "type": "on",
      "note": 75,
      "vel": 72,
      "channel": 0
    },
    {
      "time": 613.151923076923,
      "type": "on",
      "note": 82,
      "vel": 42,
      "channel": 0
    },
    {
      "time": 613.401923076923,
      "type": "on",
      "note": 79,
      "vel": 56,
      "channel": 0
    },
    {
      "time": 613.6192307692307,
      "type": "on",
      "note": 77,
      "vel": 40,
      "channel": 0
    },
    {
      "time": 613.8403846153847,
      "type": "on",
      "note": 75,
      "vel": 71,
      "channel": 0
    },
    {
      "time": 614.0692307692308,
      "type": "on",
      "note": 82,
      "vel": 47,
      "channel": 0
    },
    {
      "time": 614.2923076923076,
      "type": "on",
      "note": 79,
      "vel": 63,
      "channel": 0
    },
    {
      "time": 614.5423076923076,
      "type": "on",
      "note": 77,
      "vel": 42,
      "channel": 0
    },
    {
      "time": 614.7634615384616,
      "type": "on",
      "note": 75,
      "vel": 73,
      "channel": 0
    },
    {
      "time": 614.9903846153846,
      "type": "on",
      "note": 82,
      "vel": 46,
      "channel": 0
    },
    {
      "time": 615.2173076923077,
      "type": "on",
      "note": 79,
      "vel": 61,
      "channel": 0
    },
    {
      "time": 615.4615384615385,
      "type": "on",
      "note": 77,
      "vel": 48,
      "channel": 0
    },
    {
      "time": 615.7038461538461,
      "type": "on",
      "note": 75,
      "vel": 74,
      "channel": 0
    },
    {
      "time": 615.9269230769231,
      "type": "on",
      "note": 82,
      "vel": 42,
      "channel": 0
    },
    {
      "time": 616.1423076923077,
      "type": "on",
      "note": 79,
      "vel": 61,
      "channel": 0
    },
    {
      "time": 616.3788461538461,
      "type": "on",
      "note": 77,
      "vel": 40,
      "channel": 0
    },
    {
      "time": 612.9134615384615,
      "type": "on",
      "note": 75,
      "vel": 77,
      "channel": 3
    },
    {
      "time": 614.7884615384615,
      "type": "on",
      "note": 75,
      "vel": 78,
      "channel": 3
    },
    {
      "time": 616.6153846153846,
      "type": "on",
      "note": 43,
      "vel": 60,
      "channel": 1
    },
    {
      "time": 616.6538461538462,
      "type": "on",
      "note": 55,
      "vel": 45,
      "channel": 2
    },
    {
      "time": 616.7557692307693,
      "type": "on",
      "note": 58,
      "vel": 45,
      "channel": 2
    },
    {
      "time": 616.8019230769231,
      "type": "on",
      "note": 62,
      "vel": 45,
      "channel": 2
    },
    {
      "time": 616.6692307692308,
      "type": "on",
      "note": 65,
      "vel": 45,
      "channel": 2
    },
    {
      "time": 616.6423076923077,
      "type": "on",
      "note": 72,
      "vel": 45,
      "channel": 2
    },
    {
      "time": 616.6211538461539,
      "type": "on",
      "note": 70,
      "vel": 83,
      "channel": 0
    },
    {
      "time": 616.8576923076923,
      "type": "on",
      "note": 84,
      "vel": 48,
      "channel": 0
    },
    {
      "time": 617.0961538461538,
      "type": "on",
      "note": 77,
      "vel": 62,
      "channel": 0
    },
    {
      "time": 617.3269230769231,
      "type": "on",
      "note": 74,
      "vel": 42,
      "channel": 0
    },
    {
      "time": 617.5480769230769,
      "type": "on",
      "note": 70,
      "vel": 76,
      "channel": 0
    },
    {
      "time": 617.7673076923077,
      "type": "on",
      "note": 84,
      "vel": 44,
      "channel": 0
    },
    {
      "time": 618.0115384615384,
      "type": "on",
      "note": 77,
      "vel": 60,
      "channel": 0
    },
    {
      "time": 618.225,
      "type": "on",
      "note": 74,
      "vel": 43,
      "channel": 0
    },
    {
      "time": 618.475,
      "type": "on",
      "note": 70,
      "vel": 76,
      "channel": 0
    },
    {
      "time": 618.7019230769231,
      "type": "on",
      "note": 84,
      "vel": 49,
      "channel": 0
    },
    {
      "time": 618.925,
      "type": "on",
      "note": 77,
      "vel": 65,
      "channel": 0
    },
    {
      "time": 619.1557692307692,
      "type": "on",
      "note": 74,
      "vel": 41,
      "channel": 0
    },
    {
      "time": 619.3980769230769,
      "type": "on",
      "note": 70,
      "vel": 71,
      "channel": 0
    },
    {
      "time": 619.6288461538461,
      "type": "on",
      "note": 84,
      "vel": 48,
      "channel": 0
    },
    {
      "time": 619.8346153846154,
      "type": "on",
      "note": 77,
      "vel": 55,
      "channel": 0
    },
    {
      "time": 620.0653846153846,
      "type": "on",
      "note": 74,
      "vel": 46,
      "channel": 0
    },
    {
      "time": 616.6307692307693,
      "type": "on",
      "note": 74,
      "vel": 78,
      "channel": 3
    },
    {
      "time": 618.4769230769231,
      "type": "on",
      "note": 74,
      "vel": 70,
      "channel": 3
    },
    {
      "time": 620.3076923076923,
      "type": "on",
      "note": 36,
      "vel": 60,
      "channel": 1
    },
    {
      "time": 620.4903846153846,
      "type": "on",
      "note": 60,
      "vel": 45,
      "channel": 2
    },
    {
      "time": 620.376923076923,
      "type": "on",
      "note": 63,
      "vel": 45,
      "channel": 2
    },
    {
      "time": 620.3307692307692,
      "type": "on",
      "note": 67,
      "vel": 45,
      "channel": 2
    },
    {
      "time": 620.4923076923077,
      "type": "on",
      "note": 74,
      "vel": 45,
      "channel": 2
    },
    {
      "time": 620.4192307692308,
      "type": "on",
      "note": 77,
      "vel": 45,
      "channel": 2
    },
    {
      "time": 620.325,
      "type": "on",
      "note": 72,
      "vel": 72,
      "channel": 0
    },
    {
      "time": 620.5461538461539,
      "type": "on",
      "note": 86,
      "vel": 40,
      "channel": 0
    },
    {
      "time": 620.7596153846154,
      "type": "on",
      "note": 79,
      "vel": 57,
      "channel": 0
    },
    {
      "time": 620.9961538461539,
      "type": "on",
      "note": 75,
      "vel": 48,
      "channel": 0
    },
    {
      "time": 621.2326923076923,
      "type": "on",
      "note": 72,
      "vel": 74,
      "channel": 0
    },
    {
      "time": 621.4673076923077,
      "type": "on",
      "note": 86,
      "vel": 45,
      "channel": 0
    },
    {
      "time": 621.6865384615385,
      "type": "on",
      "note": 79,
      "vel": 62,
      "channel": 0
    },
    {
      "time": 621.9384615384615,
      "type": "on",
      "note": 75,
      "vel": 47,
      "channel": 0
    },
    {
      "time": 622.1615384615385,
      "type": "on",
      "note": 72,
      "vel": 84,
      "channel": 0
    },
    {
      "time": 622.375,
      "type": "on",
      "note": 86,
      "vel": 50,
      "channel": 0
    },
    {
      "time": 622.6192307692307,
      "type": "on",
      "note": 79,
      "vel": 64,
      "channel": 0
    },
    {
      "time": 622.8576923076923,
      "type": "on",
      "note": 75,
      "vel": 44,
      "channel": 0
    },
    {
      "time": 623.1,
      "type": "on",
      "note": 72,
      "vel": 71,
      "channel": 0
    },
    {
      "time": 623.3230769230769,
      "type": "on",
      "note": 86,
      "vel": 46,
      "channel": 0
    },
    {
      "time": 623.5384615384615,
      "type": "on",
      "note": 79,
      "vel": 61,
      "channel": 0
    },
    {
      "time": 623.7826923076923,
      "type": "on",
      "note": 75,
      "vel": 49,
      "channel": 0
    },
    {
      "time": 620.3057692307692,
      "type": "on",
      "note": 79,
      "vel": 78,
      "channel": 3
    },
    {
      "time": 622.1596153846153,
      "type": "on",
      "note": 79,
      "vel": 73,
      "channel": 3
    },
    {
      "time": 624.0,
      "type": "on",
      "note": 32,
      "vel": 60,
      "channel": 1
    },
    {
      "time": 624.0576923076923,
      "type": "on",
      "note": 56,
      "vel": 45,
      "channel": 2
    },
    {
      "time": 624.0326923076923,
      "type": "on",
      "note": 60,
      "vel": 45,
      "channel": 2
    },
    {
      "time": 624.0653846153846,
      "type": "on",
      "note": 63,
      "vel": 45,
      "channel": 2
    },
    {
      "time": 624.0,
      "type": "on",
      "note": 67,
      "vel": 45,
      "channel": 2
    },
    {
      "time": 624.0326923076923,
      "type": "on",
      "note": 74,
      "vel": 45,
      "channel": 2
    },
    {
      "time": 624.0038461538461,
      "type": "on",
      "note": 68,
      "vel": 85,
      "channel": 0
    },
    {
      "time": 624.2173076923077,
      "type": "on",
      "note": 79,
      "vel": 40,
      "channel": 0
    },
    {
      "time": 624.4826923076923,
      "type": "on",
      "note": 75,
      "vel": 65,
      "channel": 0
    },
    {
      "time": 624.7096153846154,
      "type": "on",
      "note": 72,
      "vel": 47,
      "channel": 0
    },
    {
      "time": 624.9269230769231,
      "type": "on",
      "note": 68,
      "vel": 73,
      "channel": 0
    },
    {
      "time": 625.1653846153846,
      "type": "on",
      "note": 79,
      "vel": 43,
      "channel": 0
    },
    {
      "time": 625.3942307692307,
      "type": "on",
      "note": 75,
      "vel": 56,
      "channel": 0
    },
    {
      "time": 625.6307692307693,
      "type": "on",
      "note": 72,
      "vel": 47,
      "channel": 0
    },
    {
      "time": 625.8576923076923,
      "type": "on",
      "note": 68,
      "vel": 84,
      "channel": 0
    },
    {
      "time": 626.0711538461538,
      "type": "on",
      "note": 79,
      "vel": 44,
      "channel": 0
    },
    {
      "time": 626.3153846153846,
      "type": "on",
      "note": 75,
      "vel": 60,
      "channel": 0
    },
    {
      "time": 626.525,
      "type": "on",
      "note": 72,
      "vel": 46,
      "channel": 0
    },
    {
      "time": 626.775,
      "type": "on",
      "note": 68,
      "vel": 81,
      "channel": 0
    },
    {
      "time": 626.9942307692307,
      "type": "on",
      "note": 79,
      "vel": 48,
      "channel": 0
    },
    {
      "time": 627.248076923077,
      "type": "on",
      "note": 75,
      "vel": 62,
      "channel": 0
    },
    {
      "time": 627.4538461538461,
      "type": "on",
      "note": 72,
      "vel": 47,
      "channel": 0
    },
    {
      "time": 624.0115384615384,
      "type": "on",
      "note": 75,
      "vel": 72,
      "channel": 3
    },
    {
      "time": 625.8615384615384,
      "type": "on",
      "note": 75,
      "vel": 72,
      "channel": 3
    },
    {
      "time": 627.6923076923077,
      "type": "on",
      "note": 39,
      "vel": 60,
      "channel": 1
    },
    {
      "time": 627.723076923077,
      "type": "on",
      "note": 51,
      "vel": 45,
      "channel": 2
    },
    {
      "time": 627.7153846153847,
      "type": "on",
      "note": 58,
      "vel": 45,
      "channel": 2
    },
    {
      "time": 627.7269230769231,
      "type": "on",
      "note": 63,
      "vel": 45,
      "channel": 2
    },
    {
      "time": 627.7557692307693,
      "type": "on",
      "note": 65,
      "vel": 45,
      "channel": 2
    },
    {
      "time": 627.7653846153846,
      "type": "on",
      "note": 67,
      "vel": 45,
      "channel": 2
    },
    {
      "time": 627.6769230769231,
      "type": "on",
      "note": 75,
      "vel": 72,
      "channel": 0
    },
    {
      "time": 627.9423076923077,
      "type": "on",
      "note": 82,
      "vel": 50,
      "channel": 0
    },
    {
      "time": 628.175,
      "type": "on",
      "note": 79,
      "vel": 57,
      "channel": 0
    },
    {
      "time": 628.3884615384616,
      "type": "on",
      "note": 77,
      "vel": 44,
      "channel": 0
    },
    {
      "time": 628.6173076923077,
      "type": "on",
      "note": 75,
      "vel": 83,
      "channel": 0
    },
    {
      "time": 628.8634615384616,
      "type": "on",
      "note": 82,
      "vel": 44,
      "channel": 0
    },
    {
      "time": 629.0769230769231,
      "type": "on",
      "note": 79,
      "vel": 57,
      "channel": 0
    },
    {
      "time": 629.3057692307692,
      "type": "on",
      "note": 77,
      "vel": 49,
      "channel": 0
    },
    {
      "time": 629.526923076923,
      "type": "on",
      "note": 75,
      "vel": 85,
      "channel": 0
    },
    {
      "time": 629.7884615384615,
      "type": "on",
      "note": 82,
      "vel": 46,
      "channel": 0
    },
    {
      "time": 629.9884615384616,
      "type": "on",
      "note": 79,
      "vel": 62,
      "channel": 0
    },
    {
      "time": 630.251923076923,
      "type": "on",
      "note": 77,
      "vel": 49,
      "channel": 0
    },
    {
      "time": 630.45,
      "type": "on",
      "note": 75,
      "vel": 71,
      "channel": 0
    },
    {
      "time": 630.7096153846154,
      "type": "on",
      "note": 82,
      "vel": 40,
      "channel": 0
    },
    {
      "time": 630.9403846153846,
      "type": "on",
      "note": 79,
      "vel": 57,
      "channel": 0
    },
    {
      "time": 631.1673076923076,
      "type": "on",
      "note": 77,
      "vel": 41,
      "channel": 0
    },
    {
      "time": 627.6942307692308,
      "type": "on",
      "note": 75,
      "vel": 75,
      "channel": 3
    },
    {
      "time": 629.5557692307692,
      "type": "on",
      "note": 75,
      "vel": 72,
      "channel": 3
    },
    {
      "time": 631.3846153846154,
      "type": "on",
      "note": 43,
      "vel": 60,
      "channel": 1
    },
    {
      "time": 631.3903846153846,
      "type": "on",
      "note": 55,
      "vel": 45,
      "channel": 2
    },
    {
      "time": 631.5307692307692,
      "type": "on",
      "note": 58,
      "vel": 45,
      "channel": 2
    },
    {
      "time": 631.5730769230769,
      "type": "on",
      "note": 62,
      "vel": 45,
      "channel": 2
    },
    {
      "time": 631.4,
      "type": "on",
      "note": 65,
      "vel": 45,
      "channel": 2
    },
    {
      "time": 631.4442307692308,
      "type": "on",
      "note": 72,
      "vel": 45,
      "channel": 2
    },
    {
      "time": 631.3903846153846,
      "type": "on",
      "note": 70,
      "vel": 72,
      "channel": 0
    },
    {
      "time": 631.6192307692307,
      "type": "on",
      "note": 84,
      "vel": 45,
      "channel": 0
    },
    {
      "time": 631.8326923076924,
      "type": "on",
      "note": 77,
      "vel": 65,
      "channel": 0
    },
    {
      "time": 632.0634615384615,
      "type": "on",
      "note": 74,
      "vel": 50,
      "channel": 0
    },
    {
      "time": 632.3153846153846,
      "type": "on",
      "note": 70,
      "vel": 70,
      "channel": 0
    },
    {
      "time": 632.5346153846153,
      "type": "on",
      "note": 84,
      "vel": 49,
      "channel": 0
    },
    {
      "time": 632.7846153846153,
      "type": "on",
      "note": 77,
      "vel": 60,
      "channel": 0
    },
    {
      "time": 633.0173076923077,
      "type": "on",
      "note": 74,
      "vel": 46,
      "channel": 0
    },
    {
      "time": 633.2538461538461,
      "type": "on",
      "note": 70,
      "vel": 79,
      "channel": 0
    },
    {
      "time": 633.4826923076923,
      "type": "on",
      "note": 84,
      "vel": 47,
      "channel": 0
    },
    {
      "time": 633.7019230769231,
      "type": "on",
      "note": 77,
      "vel": 64,
      "channel": 0
    },
    {
      "time": 633.9423076923077,
      "type": "on",
      "note": 74,
      "vel": 40,
      "channel": 0
    },
    {
      "time": 634.1480769230769,
      "type": "on",
      "note": 70,
      "vel": 72,
      "channel": 0
    },
    {
      "time": 634.4038461538462,
      "type": "on",
      "note": 84,
      "vel": 47,
      "channel": 0
    },
    {
      "time": 634.6173076923077,
      "type": "on",
      "note": 77,
      "vel": 61,
      "channel": 0
    },
    {
      "time": 634.8326923076924,
      "type": "on",
      "note": 74,
      "vel": 47,
      "channel": 0
    },
    {
      "time": 631.376923076923,
      "type": "on",
      "note": 74,
      "vel": 80,
      "channel": 3
    },
    {
      "time": 633.2269230769231,
      "type": "on",
      "note": 74,
      "vel": 79,
      "channel": 3
    },
    {
      "time": 635.0769230769231,
      "type": "on",
      "note": 33,
      "vel": 55,
      "channel": 1
    },
    {
      "time": 635.2653846153846,
      "type": "on",
      "note": 57,
      "vel": 41,
      "channel": 2
    },
    {
      "time": 635.2576923076923,
      "type": "on",
      "note": 60,
      "vel": 41,
      "channel": 2
    },
    {
      "time": 635.0788461538461,
      "type": "on",
      "note": 64,
      "vel": 41,
      "channel": 2
    },
    {
      "time": 635.1096153846154,
      "type": "on",
      "note": 71,
      "vel": 41,
      "channel": 2
    },
    {
      "time": 635.1173076923077,
      "type": "on",
      "note": 74,
      "vel": 41,
      "channel": 2
    },
    {
      "time": 638.7692307692307,
      "type": "on",
      "note": 29,
      "vel": 52,
      "channel": 1
    },
    {
      "time": 638.9461538461538,
      "type": "on",
      "note": 53,
      "vel": 39,
      "channel": 2
    },
    {
      "time": 638.8884615384616,
      "type": "on",
      "note": 57,
      "vel": 39,
      "channel": 2
    },
    {
      "time": 638.8903846153846,
      "type": "on",
      "note": 60,
      "vel": 39,
      "channel": 2
    },
    {
      "time": 638.9269230769231,
      "type": "on",
      "note": 64,
      "vel": 39,
      "channel": 2
    },
    {
      "time": 638.85,
      "type": "on",
      "note": 71,
      "vel": 39,
      "channel": 2
    },
    {
      "time": 642.4615384615385,
      "type": "on",
      "note": 36,
      "vel": 50,
      "channel": 1
    },
    {
      "time": 642.625,
      "type": "on",
      "note": 48,
      "vel": 37,
      "channel": 2
    },
    {
      "time": 642.6538461538462,
      "type": "on",
      "note": 55,
      "vel": 37,
      "channel": 2
    },
    {
      "time": 642.6173076923077,
      "type": "on",
      "note": 60,
      "vel": 37,
      "channel": 2
    },
    {
      "time": 642.6211538461539,
      "type": "on",
      "note": 62,
      "vel": 37,
      "channel": 2
    },
    {
      "time": 642.5423076923076,
      "type": "on",
      "note": 64,
      "vel": 37,
      "channel": 2
    },
    {
      "time": 646.1538461538462,
      "type": "on",
      "note": 40,
      "vel": 48,
      "channel": 1
    },
    {
      "time": 646.1711538461539,
      "type": "on",
      "note": 52,
      "vel": 36,
      "channel": 2
    },
    {
      "time": 646.2980769230769,
      "type": "on",
      "note": 55,
      "vel": 36,
      "channel": 2
    },
    {
      "time": 646.1923076923077,
      "type": "on",
      "note": 59,
      "vel": 36,
      "channel": 2
    },
    {
      "time": 646.2461538461539,
      "type": "on",
      "note": 62,
      "vel": 36,
      "channel": 2
    },
    {
      "time": 646.2711538461539,
      "type": "on",
      "note": 69,
      "vel": 36,
      "channel": 2
    },
    {
      "time": 649.8461538461538,
      "type": "on",
      "note": 33,
      "vel": 45,
      "channel": 1
    },
    {
      "time": 649.9903846153846,
      "type": "on",
      "note": 57,
      "vel": 34,
      "channel": 2
    },
    {
      "time": 650.0096153846154,
      "type": "on",
      "note": 60,
      "vel": 34,
      "channel": 2
    },
    {
      "time": 649.998076923077,
      "type": "on",
      "note": 64,
      "vel": 34,
      "channel": 2
    },
    {
      "time": 649.9884615384616,
      "type": "on",
      "note": 71,
      "vel": 34,
      "channel": 2
    },
    {
      "time": 649.8846153846154,
      "type": "on",
      "note": 74,
      "vel": 34,
      "channel": 2
    },
    {
      "time": 653.5384615384615,
      "type": "on",
      "note": 29,
      "vel": 43,
      "channel": 1
    },
    {
      "time": 653.6461538461539,
      "type": "on",
      "note": 53,
      "vel": 32,
      "channel": 2
    },
    {
      "time": 653.6442307692307,
      "type": "on",
      "note": 57,
      "vel": 32,
      "channel": 2
    },
    {
      "time": 653.7307692307693,
      "type": "on",
      "note": 60,
      "vel": 32,
      "channel": 2
    },
    {
      "time": 653.6673076923076,
      "type": "on",
      "note": 64,
      "vel": 32,
      "channel": 2
    },
    {
      "time": 653.6,
      "type": "on",
      "note": 71,
      "vel": 32,
      "channel": 2
    },
    {
      "time": 657.2307692307693,
      "type": "on",
      "note": 36,
      "vel": 40,
      "channel": 1
    },
    {
      "time": 657.4192307692308,
      "type": "on",
      "note": 48,
      "vel": 30,
      "channel": 2
    },
    {
      "time": 657.3557692307693,
      "type": "on",
      "note": 55,
      "vel": 30,
      "channel": 2
    },
    {
      "time": 657.3923076923077,
      "type": "on",
      "note": 60,
      "vel": 30,
      "channel": 2
    },
    {
      "time": 657.3557692307693,
      "type": "on",
      "note": 62,
      "vel": 30,
      "channel": 2
    },
    {
      "time": 657.3019230769231,
      "type": "on",
      "note": 64,
      "vel": 30,
      "channel": 2
    },
    {
      "time": 660.9230769230769,
      "type": "on",
      "note": 40,
      "vel": 38,
      "channel": 1
    },
    {
      "time": 661.075,
      "type": "on",
      "note": 52,
      "vel": 28,
      "channel": 2
    },
    {
      "time": 660.9403846153846,
      "type": "on",
      "note": 55,
      "vel": 28,
      "channel": 2
    },
    {
      "time": 661.098076923077,
      "type": "on",
      "note": 59,
      "vel": 28,
      "channel": 2
    },
    {
      "time": 660.9230769230769,
      "type": "on",
      "note": 62,
      "vel": 28,
      "channel": 2
    },
    {
      "time": 660.9942307692307,
      "type": "on",
      "note": 69,
      "vel": 28,
      "channel": 2
    },
    {
      "time": 664.6153846153846,
      "type": "on",
      "note": 33,
      "vel": 36,
      "channel": 1
    },
    {
      "time": 664.7653846153846,
      "type": "on",
      "note": 57,
      "vel": 27,
      "channel": 2
    },
    {
      "time": 664.6711538461539,
      "type": "on",
      "note": 60,
      "vel": 27,
      "channel": 2
    },
    {
      "time": 664.7980769230769,
      "type": "on",
      "note": 64,
      "vel": 27,
      "channel": 2
    },
    {
      "time": 664.6442307692307,
      "type": "on",
      "note": 71,
      "vel": 27,
      "channel": 2
    },
    {
      "time": 664.7846153846153,
      "type": "on",
      "note": 74,
      "vel": 27,
      "channel": 2
    },
    {
      "time": 668.3076923076923,
      "type": "on",
      "note": 29,
      "vel": 33,
      "channel": 1
    },
    {
      "time": 668.3076923076923,
      "type": "on",
      "note": 53,
      "vel": 25,
      "channel": 2
    },
    {
      "time": 668.3192307692308,
      "type": "on",
      "note": 57,
      "vel": 25,
      "channel": 2
    },
    {
      "time": 668.348076923077,
      "type": "on",
      "note": 60,
      "vel": 25,
      "channel": 2
    },
    {
      "time": 668.3076923076923,
      "type": "on",
      "note": 64,
      "vel": 25,
      "channel": 2
    },
    {
      "time": 668.375,
      "type": "on",
      "note": 71,
      "vel": 25,
      "channel": 2
    },
    {
      "time": 672.0,
      "type": "on",
      "note": 36,
      "vel": 31,
      "channel": 1
    },
    {
      "time": 672.1538461538462,
      "type": "on",
      "note": 48,
      "vel": 23,
      "channel": 2
    },
    {
      "time": 672.025,
      "type": "on",
      "note": 55,
      "vel": 23,
      "channel": 2
    },
    {
      "time": 672.1923076923077,
      "type": "on",
      "note": 60,
      "vel": 23,
      "channel": 2
    },
    {
      "time": 672.1326923076923,
      "type": "on",
      "note": 62,
      "vel": 23,
      "channel": 2
    },
    {
      "time": 672.0769230769231,
      "type": "on",
      "note": 64,
      "vel": 23,
      "channel": 2
    },
    {
      "time": 675.6923076923077,
      "type": "on",
      "note": 40,
      "vel": 28,
      "channel": 1
    },
    {
      "time": 675.7192307692308,
      "type": "on",
      "note": 52,
      "vel": 21,
      "channel": 2
    },
    {
      "time": 675.7173076923077,
      "type": "on",
      "note": 55,
      "vel": 21,
      "channel": 2
    },
    {
      "time": 675.725,
      "type": "on",
      "note": 59,
      "vel": 21,
      "channel": 2
    },
    {
      "time": 675.723076923077,
      "type": "on",
      "note": 62,
      "vel": 21,
      "channel": 2
    },
    {
      "time": 675.8038461538462,
      "type": "on",
      "note": 69,
      "vel": 21,
      "channel": 2
    },
    {
      "time": 679.3846153846154,
      "type": "on",
      "note": 33,
      "vel": 26,
      "channel": 1
    },
    {
      "time": 679.4903846153846,
      "type": "on",
      "note": 57,
      "vel": 19,
      "channel": 2
    },
    {
      "time": 679.4596153846154,
      "type": "on",
      "note": 60,
      "vel": 19,
      "channel": 2
    },
    {
      "time": 679.4692307692308,
      "type": "on",
      "note": 64,
      "vel": 19,
      "channel": 2
    },
    {
      "time": 679.475,
      "type": "on",
      "note": 71,
      "vel": 19,
      "channel": 2
    },
    {
      "time": 679.4596153846154,
      "type": "on",
      "note": 74,
      "vel": 19,
      "channel": 2
    },
    {
      "time": 683.0769230769231,
      "type": "on",
      "note": 29,
      "vel": 24,
      "channel": 1
    },
    {
      "time": 683.251923076923,
      "type": "on",
      "note": 53,
      "vel": 18,
      "channel": 2
    },
    {
      "time": 683.1673076923076,
      "type": "on",
      "note": 57,
      "vel": 18,
      "channel": 2
    },
    {
      "time": 683.2269230769231,
      "type": "on",
      "note": 60,
      "vel": 18,
      "channel": 2
    },
    {
      "time": 683.1865384615385,
      "type": "on",
      "note": 64,
      "vel": 18,
      "channel": 2
    },
    {
      "time": 683.0826923076924,
      "type": "on",
      "note": 71,
      "vel": 18,
      "channel": 2
    },
    {
      "time": 686.7692307692307,
      "type": "on",
      "note": 36,
      "vel": 21,
      "channel": 1
    },
    {
      "time": 686.9461538461538,
      "type": "on",
      "note": 48,
      "vel": 16,
      "channel": 2
    },
    {
      "time": 686.8711538461539,
      "type": "on",
      "note": 55,
      "vel": 16,
      "channel": 2
    },
    {
      "time": 686.7923076923076,
      "type": "on",
      "note": 60,
      "vel": 16,
      "channel": 2
    },
    {
      "time": 686.9557692307692,
      "type": "on",
      "note": 62,
      "vel": 16,
      "channel": 2
    },
    {
      "time": 686.8538461538461,
      "type": "on",
      "note": 64,
      "vel": 16,
      "channel": 2
    },
    {
      "time": 690.4615384615385,
      "type": "on",
      "note": 40,
      "vel": 19,
      "channel": 1
    },
    {
      "time": 690.575,
      "type": "on",
      "note": 52,
      "vel": 14,
      "channel": 2
    },
    {
      "time": 690.6153846153846,
      "type": "on",
      "note": 55,
      "vel": 14,
      "channel": 2
    },
    {
      "time": 690.5865384615385,
      "type": "on",
      "note": 59,
      "vel": 14,
      "channel": 2
    },
    {
      "time": 690.6365384615384,
      "type": "on",
      "note": 62,
      "vel": 14,
      "channel": 2
    },
    {
      "time": 690.5134615384616,
      "type": "on",
      "note": 69,
      "vel": 14,
      "channel": 2
    },
    {
      "time": 694.1538461538462,
      "type": "on",
      "note": 33,
      "vel": 16,
      "channel": 1
    },
    {
      "time": 694.3384615384615,
      "type": "on",
      "note": 57,
      "vel": 12,
      "channel": 2
    },
    {
      "time": 694.1576923076923,
      "type": "on",
      "note": 60,
      "vel": 12,
      "channel": 2
    },
    {
      "time": 694.2038461538461,
      "type": "on",
      "note": 64,
      "vel": 12,
      "channel": 2
    },
    {
      "time": 694.2865384615385,
      "type": "on",
      "note": 71,
      "vel": 12,
      "channel": 2
    },
    {
      "time": 694.275,
      "type": "on",
      "note": 74,
      "vel": 12,
      "channel": 2
    },
    {
      "time": 697.8461538461538,
      "type": "on",
      "note": 29,
      "vel": 14,
      "channel": 1
    },
    {
      "time": 697.9807692307693,
      "type": "on",
      "note": 53,
      "vel": 10,
      "channel": 2
    },
    {
      "time": 697.9307692307692,
      "type": "on",
      "note": 57,
      "vel": 10,
      "channel": 2
    },
    {
      "time": 697.8788461538461,
      "type": "on",
      "note": 60,
      "vel": 10,
      "channel": 2
    },
    {
      "time": 697.8846153846154,
      "type": "on",
      "note": 64,
      "vel": 10,
      "channel": 2
    },
    {
      "time": 697.9134615384615,
      "type": "on",
      "note": 71,
      "vel": 10,
      "channel": 2
    },
    {
      "time": 701.5384615384615,
      "type": "on",
      "note": 36,
      "vel": 12,
      "channel": 1
    },
    {
      "time": 701.6788461538462,
      "type": "on",
      "note": 48,
      "vel": 9,
      "channel": 2
    },
    {
      "time": 701.6442307692307,
      "type": "on",
      "note": 55,
      "vel": 9,
      "channel": 2
    },
    {
      "time": 701.6596153846153,
      "type": "on",
      "note": 60,
      "vel": 9,
      "channel": 2
    },
    {
      "time": 701.6134615384616,
      "type": "on",
      "note": 62,
      "vel": 9,
      "channel": 2
    },
    {
      "time": 701.7096153846154,
      "type": "on",
      "note": 64,
      "vel": 9,
      "channel": 2
    },
    {
      "time": 705.2307692307693,
      "type": "on",
      "note": 40,
      "vel": 9,
      "channel": 1
    },
    {
      "time": 705.2653846153846,
      "type": "on",
      "note": 52,
      "vel": 7,
      "channel": 2
    },
    {
      "time": 705.2884615384615,
      "type": "on",
      "note": 55,
      "vel": 7,
      "channel": 2
    },
    {
      "time": 705.3538461538461,
      "type": "on",
      "note": 59,
      "vel": 7,
      "channel": 2
    },
    {
      "time": 705.375,
      "type": "on",
      "note": 62,
      "vel": 7,
      "channel": 2
    },
    {
      "time": 705.4038461538462,
      "type": "on",
      "note": 69,
      "vel": 7,
      "channel": 2
    },
    {
      "time": 708.9230769230769,
      "type": "on",
      "note": 33,
      "vel": 7,
      "channel": 1
    },
    {
      "time": 709.001923076923,
      "type": "on",
      "note": 57,
      "vel": 5,
      "channel": 2
    },
    {
      "time": 708.925,
      "type": "on",
      "note": 60,
      "vel": 5,
      "channel": 2
    },
    {
      "time": 709.1153846153846,
      "type": "on",
      "note": 64,
      "vel": 5,
      "channel": 2
    },
    {
      "time": 709.1057692307693,
      "type": "on",
      "note": 71,
      "vel": 5,
      "channel": 2
    },
    {
      "time": 709.0192307692307,
      "type": "on",
      "note": 74,
      "vel": 5,
      "channel": 2
    },
    {
      "time": 712.6153846153846,
      "type": "on",
      "note": 29,
      "vel": 4,
      "channel": 1
    },
    {
      "time": 712.6673076923076,
      "type": "on",
      "note": 53,
      "vel": 3,
      "channel": 2
    },
    {
      "time": 712.8,
      "type": "on",
      "note": 57,
      "vel": 3,
      "channel": 2
    },
    {
      "time": 712.7903846153846,
      "type": "on",
      "note": 60,
      "vel": 3,
      "channel": 2
    },
    {
      "time": 712.65,
      "type": "on",
      "note": 64,
      "vel": 3,
      "channel": 2
    },
    {
      "time": 712.7673076923077,
      "type": "on",
      "note": 71,
      "vel": 3,
      "channel": 2
    },
    {
      "time": 716.3076923076923,
      "type": "on",
      "note": 36,
      "vel": 2,
      "channel": 1
    },
    {
      "time": 716.4384615384615,
      "type": "on",
      "note": 48,
      "vel": 1,
      "channel": 2
    },
    {
      "time": 716.4807692307693,
      "type": "on",
      "note": 55,
      "vel": 1,
      "channel": 2
    },
    {
      "time": 716.3519230769231,
      "type": "on",
      "note": 60,
      "vel": 1,
      "channel": 2
    },
    {
      "time": 716.3442307692308,
      "type": "on",
      "note": 62,
      "vel": 1,
      "channel": 2
    },
    {
      "time": 716.4653846153847,
      "type": "on",
      "note": 64,
      "vel": 1,
      "channel": 2
    }
  ]
}